<?xml version="1.0" standalone="no"?>
 <!DOCTYPE svg PUBLIC "-//W3C//DTD SVG 1.1//EN" 
 "http://www.w3.org/Graphics/SVG/1.1/DTD/svg11.dtd"> 
<svg
  xmlns:svg="http://www.w3.org/2000/svg"
  xmlns="http://www.w3.org/2000/svg"
  xmlns:xlink="http://www.w3.org/1999/xlink"
  version="1.1"
  width="27.8130mm" height="45.1358mm" viewBox="0.0000 0.0000 27.8130 45.1358">
<title>SVG Image created as ch32-breakout-User_1.svg date 2025/06/07 18:47:28 </title>
  <desc>Image generated by PCBNEW </desc>
<g style="fill:#000000; fill-opacity:1.0000;stroke:#000000; stroke-opacity:1.0000;
stroke-linecap:round; stroke-linejoin:round;"
 transform="translate(0 0) scale(1 1)">
</g>
<g style="fill:none; 
stroke:#C2C2C2; stroke-width:0.1000; stroke-opacity:1; 
stroke-linecap:round; stroke-linejoin:round;">
<circle cx="9.5500" cy="9.6226" r="0.2500" /> 
<path d="M16.0500 10.8726
L16.0500 10.3726
" />
<path d="M13.5500 10.8726
L13.5500 10.1226
" />
<path d="M12.3000 7.8726
L12.3000 7.3726
" />
<path d="M14.8000 7.8726
L14.8000 7.3726
" />
<path d="M17.3000 7.8726
L17.3000 7.6226
" />
<path d="M20.0500 9.6226
L19.8000 9.6226
" />
<path d="M10.5500 26.8726
L10.0500 26.3726
" />
<path d="M9.5500 20.1226
L9.3000 20.3726
" />
<path d="M7.8000 12.3726
L7.5500 12.3726
" />
<path d="M7.8000 14.8726
L7.3000 14.8726
" />
<path d="M7.8000 17.3726
L7.3000 17.3726
" />
<path d="M0.0500 27.8726
L9.5500 27.8726
" />
<path d="M0.0500 7.8726
L0.0500 27.8726
" />
<path d="M8.0500 7.8726
L0.0500 7.8726
" />
<path d="M20.0500 7.8726
L8.0500 7.8726
" />
<path d="M20.0500 8.1226
L20.0500 7.8726
" />
<path d="M20.0500 10.8726
L20.0500 8.1226
" />
<path d="M7.8000 10.8726
L20.0500 10.8726
" />
<path d="M7.8000 11.3726
L7.8000 10.8726
" />
<path d="M7.8000 18.6226
L7.8000 11.3726
" />
<path d="M11.5500 22.1226
L7.8000 18.6226
" />
<path d="M11.5500 25.8726
L11.5500 22.1226
" />
<path d="M9.5500 27.8726
L11.5500 25.8726
" />
</g>
<g style="fill:none; 
stroke:#D0D2CD; stroke-width:0.0500; stroke-opacity:1; 
stroke-linecap:round; stroke-linejoin:round;">
<path d="M23.5500 11.6226
L23.5500 18.1226
" />
<path d="M18.9339 6.4887
L23.1839 10.7387
" />
<path d="M23.8000 36.1226
L23.8000 29.8726
" />
<path d="M23.1839 19.0065 A1.2500 1.2500 0.0 0 0 23.5500 18.1226" />
<path d="M23.8000 29.8726 A1.2500 1.2500 0.0 0 0 23.4339 28.9887" />
<path d="M23.4339 37.0065
L19.1839 41.2565
" />
<circle cx="13.8000" cy="23.8726" r="0.2500" /> 
<path d="M10.4161 41.2565
L6.1661 37.0065
" />
<path d="M11.5500 6.1226 A1.2500 1.2500 0.0 0 0 10.6661 6.4887" />
<path d="M6.4161 10.7387 A1.2500 1.2500 0.0 0 0 6.0500 11.6226" />
<path d="M6.4161 10.7387
L10.6661 6.4887
" />
<path d="M11.0500 24.1226 A0.2500 0.2500 0.0 0 0 11.0500 23.6226" />
<path d="M18.5500 23.6226 A0.2500 0.2500 0.0 0 0 18.5500 24.1226" />
<path d="M6.0500 18.1226
L6.0500 11.6226
" />
<path d="M5.8000 36.1226 A1.2500 1.2500 0.0 0 0 6.1661 37.0065" />
<path d="M23.5500 11.6226 A1.2500 1.2500 0.0 0 0 23.1839 10.7387" />
<path d="M6.0500 18.1226 A1.2500 1.2500 0.0 0 0 6.4161 19.0065" />
<circle cx="17.6000" cy="23.8726" r="0.2500" /> 
<path d="M6.1661 28.9887
L11.0500 24.1226
" />
<circle cx="12.9000" cy="23.8726" r="0.2500" /> 
<path d="M11.3000 41.6226
L18.3000 41.6226
" />
<circle cx="16.7000" cy="23.8726" r="0.2500" /> 
<path d="M5.8000 29.8726
L5.8000 36.1226
" />
<path d="M6.1661 28.9887 A1.2500 1.2500 0.0 0 0 5.8000 29.8726" />
<path d="M11.5500 6.1226
L18.0500 6.1226
" />
<path d="M23.1839 19.0065
L18.5500 23.6226
" />
<path d="M18.9339 6.4887 A1.2500 1.2500 0.0 0 0 18.0500 6.1226" />
<path d="M11.0500 23.6226
L6.4161 19.0065
" />
<circle cx="15.8000" cy="23.8726" r="0.2500" /> 
<path d="M18.3000 41.6226 A1.2500 1.2500 0.0 0 0 19.1839 41.2565" />
<path d="M23.4339 37.0065 A1.2500 1.2500 0.0 0 0 23.8000 36.1226" />
<path d="M23.4339 28.9887
L18.5500 24.1226
" />
<circle cx="14.8000" cy="23.8726" r="0.2500" /> 
<circle cx="12.0000" cy="23.8726" r="0.2500" /> 
<path d="M10.4161 41.2565 A1.2500 1.2500 0.0 0 0 11.3000 41.6226" />
</g> 
</svg>
