%TF.GenerationSoftware,KiCad,Pcbnew,8.0.9-8.0.9-0~ubuntu20.04.1*%
%TF.CreationDate,2025-06-12T23:47:12+01:00*%
%TF.ProjectId,ch32-breakout,63683332-2d62-4726-9561-6b6f75742e6b,rev?*%
%TF.SameCoordinates,Original*%
%TF.FileFunction,AssemblyDrawing,Top*%
%FSLAX46Y46*%
G04 Gerber Fmt 4.6, Leading zero omitted, Abs format (unit mm)*
G04 Created by KiCad (PCBNEW 8.0.9-8.0.9-0~ubuntu20.04.1) date 2025-06-12 23:47:12*
%MOMM*%
%LPD*%
G01*
G04 APERTURE LIST*
%ADD10C,0.150000*%
%ADD11C,0.040000*%
%ADD12C,0.050000*%
%ADD13C,0.060000*%
%ADD14C,0.110000*%
%ADD15C,0.100000*%
%ADD16C,0.200000*%
G04 APERTURE END LIST*
D10*
X82954819Y-69833333D02*
X83669104Y-69833333D01*
X83669104Y-69833333D02*
X83811961Y-69880952D01*
X83811961Y-69880952D02*
X83907200Y-69976190D01*
X83907200Y-69976190D02*
X83954819Y-70119047D01*
X83954819Y-70119047D02*
X83954819Y-70214285D01*
X83288152Y-68928571D02*
X83954819Y-68928571D01*
X82907200Y-69166666D02*
X83621485Y-69404761D01*
X83621485Y-69404761D02*
X83621485Y-68785714D01*
D11*
X89818200Y-88343332D02*
X89694391Y-88429999D01*
X89818200Y-88491904D02*
X89558200Y-88491904D01*
X89558200Y-88491904D02*
X89558200Y-88392856D01*
X89558200Y-88392856D02*
X89570581Y-88368094D01*
X89570581Y-88368094D02*
X89582962Y-88355713D01*
X89582962Y-88355713D02*
X89607724Y-88343332D01*
X89607724Y-88343332D02*
X89644867Y-88343332D01*
X89644867Y-88343332D02*
X89669629Y-88355713D01*
X89669629Y-88355713D02*
X89682010Y-88368094D01*
X89682010Y-88368094D02*
X89694391Y-88392856D01*
X89694391Y-88392856D02*
X89694391Y-88491904D01*
X89644867Y-88120475D02*
X89818200Y-88120475D01*
X89545820Y-88182380D02*
X89731534Y-88244285D01*
X89731534Y-88244285D02*
X89731534Y-88083332D01*
X91589765Y-80791666D02*
X91601670Y-80803570D01*
X91601670Y-80803570D02*
X91613574Y-80839285D01*
X91613574Y-80839285D02*
X91613574Y-80863094D01*
X91613574Y-80863094D02*
X91601670Y-80898808D01*
X91601670Y-80898808D02*
X91577860Y-80922618D01*
X91577860Y-80922618D02*
X91554050Y-80934523D01*
X91554050Y-80934523D02*
X91506431Y-80946427D01*
X91506431Y-80946427D02*
X91470717Y-80946427D01*
X91470717Y-80946427D02*
X91423098Y-80934523D01*
X91423098Y-80934523D02*
X91399289Y-80922618D01*
X91399289Y-80922618D02*
X91375479Y-80898808D01*
X91375479Y-80898808D02*
X91363574Y-80863094D01*
X91363574Y-80863094D02*
X91363574Y-80839285D01*
X91363574Y-80839285D02*
X91375479Y-80803570D01*
X91375479Y-80803570D02*
X91387384Y-80791666D01*
X91387384Y-80696427D02*
X91375479Y-80684523D01*
X91375479Y-80684523D02*
X91363574Y-80660713D01*
X91363574Y-80660713D02*
X91363574Y-80601189D01*
X91363574Y-80601189D02*
X91375479Y-80577380D01*
X91375479Y-80577380D02*
X91387384Y-80565475D01*
X91387384Y-80565475D02*
X91411193Y-80553570D01*
X91411193Y-80553570D02*
X91435003Y-80553570D01*
X91435003Y-80553570D02*
X91470717Y-80565475D01*
X91470717Y-80565475D02*
X91613574Y-80708332D01*
X91613574Y-80708332D02*
X91613574Y-80553570D01*
D10*
X88666666Y-74454819D02*
X88666666Y-75169104D01*
X88666666Y-75169104D02*
X88619047Y-75311961D01*
X88619047Y-75311961D02*
X88523809Y-75407200D01*
X88523809Y-75407200D02*
X88380952Y-75454819D01*
X88380952Y-75454819D02*
X88285714Y-75454819D01*
X89619047Y-74454819D02*
X89142857Y-74454819D01*
X89142857Y-74454819D02*
X89095238Y-74931009D01*
X89095238Y-74931009D02*
X89142857Y-74883390D01*
X89142857Y-74883390D02*
X89238095Y-74835771D01*
X89238095Y-74835771D02*
X89476190Y-74835771D01*
X89476190Y-74835771D02*
X89571428Y-74883390D01*
X89571428Y-74883390D02*
X89619047Y-74931009D01*
X89619047Y-74931009D02*
X89666666Y-75026247D01*
X89666666Y-75026247D02*
X89666666Y-75264342D01*
X89666666Y-75264342D02*
X89619047Y-75359580D01*
X89619047Y-75359580D02*
X89571428Y-75407200D01*
X89571428Y-75407200D02*
X89476190Y-75454819D01*
X89476190Y-75454819D02*
X89238095Y-75454819D01*
X89238095Y-75454819D02*
X89142857Y-75407200D01*
X89142857Y-75407200D02*
X89095238Y-75359580D01*
D11*
X86768200Y-88343332D02*
X86644391Y-88429999D01*
X86768200Y-88491904D02*
X86508200Y-88491904D01*
X86508200Y-88491904D02*
X86508200Y-88392856D01*
X86508200Y-88392856D02*
X86520581Y-88368094D01*
X86520581Y-88368094D02*
X86532962Y-88355713D01*
X86532962Y-88355713D02*
X86557724Y-88343332D01*
X86557724Y-88343332D02*
X86594867Y-88343332D01*
X86594867Y-88343332D02*
X86619629Y-88355713D01*
X86619629Y-88355713D02*
X86632010Y-88368094D01*
X86632010Y-88368094D02*
X86644391Y-88392856D01*
X86644391Y-88392856D02*
X86644391Y-88491904D01*
X86508200Y-88120475D02*
X86508200Y-88169999D01*
X86508200Y-88169999D02*
X86520581Y-88194761D01*
X86520581Y-88194761D02*
X86532962Y-88207142D01*
X86532962Y-88207142D02*
X86570105Y-88231904D01*
X86570105Y-88231904D02*
X86619629Y-88244285D01*
X86619629Y-88244285D02*
X86718677Y-88244285D01*
X86718677Y-88244285D02*
X86743439Y-88231904D01*
X86743439Y-88231904D02*
X86755820Y-88219523D01*
X86755820Y-88219523D02*
X86768200Y-88194761D01*
X86768200Y-88194761D02*
X86768200Y-88145237D01*
X86768200Y-88145237D02*
X86755820Y-88120475D01*
X86755820Y-88120475D02*
X86743439Y-88108094D01*
X86743439Y-88108094D02*
X86718677Y-88095713D01*
X86718677Y-88095713D02*
X86656772Y-88095713D01*
X86656772Y-88095713D02*
X86632010Y-88108094D01*
X86632010Y-88108094D02*
X86619629Y-88120475D01*
X86619629Y-88120475D02*
X86607248Y-88145237D01*
X86607248Y-88145237D02*
X86607248Y-88194761D01*
X86607248Y-88194761D02*
X86619629Y-88219523D01*
X86619629Y-88219523D02*
X86632010Y-88231904D01*
X86632010Y-88231904D02*
X86656772Y-88244285D01*
X83989765Y-86291666D02*
X84001670Y-86303570D01*
X84001670Y-86303570D02*
X84013574Y-86339285D01*
X84013574Y-86339285D02*
X84013574Y-86363094D01*
X84013574Y-86363094D02*
X84001670Y-86398808D01*
X84001670Y-86398808D02*
X83977860Y-86422618D01*
X83977860Y-86422618D02*
X83954050Y-86434523D01*
X83954050Y-86434523D02*
X83906431Y-86446427D01*
X83906431Y-86446427D02*
X83870717Y-86446427D01*
X83870717Y-86446427D02*
X83823098Y-86434523D01*
X83823098Y-86434523D02*
X83799289Y-86422618D01*
X83799289Y-86422618D02*
X83775479Y-86398808D01*
X83775479Y-86398808D02*
X83763574Y-86363094D01*
X83763574Y-86363094D02*
X83763574Y-86339285D01*
X83763574Y-86339285D02*
X83775479Y-86303570D01*
X83775479Y-86303570D02*
X83787384Y-86291666D01*
X83763574Y-86208332D02*
X83763574Y-86053570D01*
X83763574Y-86053570D02*
X83858812Y-86136904D01*
X83858812Y-86136904D02*
X83858812Y-86101189D01*
X83858812Y-86101189D02*
X83870717Y-86077380D01*
X83870717Y-86077380D02*
X83882622Y-86065475D01*
X83882622Y-86065475D02*
X83906431Y-86053570D01*
X83906431Y-86053570D02*
X83965955Y-86053570D01*
X83965955Y-86053570D02*
X83989765Y-86065475D01*
X83989765Y-86065475D02*
X84001670Y-86077380D01*
X84001670Y-86077380D02*
X84013574Y-86101189D01*
X84013574Y-86101189D02*
X84013574Y-86172618D01*
X84013574Y-86172618D02*
X84001670Y-86196427D01*
X84001670Y-86196427D02*
X83989765Y-86208332D01*
D10*
X84011905Y-77504819D02*
X84583333Y-77504819D01*
X84297619Y-78504819D02*
X84297619Y-77504819D01*
X84916667Y-78504819D02*
X84916667Y-77504819D01*
X84916667Y-77504819D02*
X85297619Y-77504819D01*
X85297619Y-77504819D02*
X85392857Y-77552438D01*
X85392857Y-77552438D02*
X85440476Y-77600057D01*
X85440476Y-77600057D02*
X85488095Y-77695295D01*
X85488095Y-77695295D02*
X85488095Y-77838152D01*
X85488095Y-77838152D02*
X85440476Y-77933390D01*
X85440476Y-77933390D02*
X85392857Y-77981009D01*
X85392857Y-77981009D02*
X85297619Y-78028628D01*
X85297619Y-78028628D02*
X84916667Y-78028628D01*
X86440476Y-78504819D02*
X85869048Y-78504819D01*
X86154762Y-78504819D02*
X86154762Y-77504819D01*
X86154762Y-77504819D02*
X86059524Y-77647676D01*
X86059524Y-77647676D02*
X85964286Y-77742914D01*
X85964286Y-77742914D02*
X85869048Y-77790533D01*
X87059524Y-77504819D02*
X87154762Y-77504819D01*
X87154762Y-77504819D02*
X87250000Y-77552438D01*
X87250000Y-77552438D02*
X87297619Y-77600057D01*
X87297619Y-77600057D02*
X87345238Y-77695295D01*
X87345238Y-77695295D02*
X87392857Y-77885771D01*
X87392857Y-77885771D02*
X87392857Y-78123866D01*
X87392857Y-78123866D02*
X87345238Y-78314342D01*
X87345238Y-78314342D02*
X87297619Y-78409580D01*
X87297619Y-78409580D02*
X87250000Y-78457200D01*
X87250000Y-78457200D02*
X87154762Y-78504819D01*
X87154762Y-78504819D02*
X87059524Y-78504819D01*
X87059524Y-78504819D02*
X86964286Y-78457200D01*
X86964286Y-78457200D02*
X86916667Y-78409580D01*
X86916667Y-78409580D02*
X86869048Y-78314342D01*
X86869048Y-78314342D02*
X86821429Y-78123866D01*
X86821429Y-78123866D02*
X86821429Y-77885771D01*
X86821429Y-77885771D02*
X86869048Y-77695295D01*
X86869048Y-77695295D02*
X86916667Y-77600057D01*
X86916667Y-77600057D02*
X86964286Y-77552438D01*
X86964286Y-77552438D02*
X87059524Y-77504819D01*
X80738095Y-88804819D02*
X81309523Y-88804819D01*
X81023809Y-89804819D02*
X81023809Y-88804819D01*
X81642857Y-89804819D02*
X81642857Y-88804819D01*
X81642857Y-88804819D02*
X82023809Y-88804819D01*
X82023809Y-88804819D02*
X82119047Y-88852438D01*
X82119047Y-88852438D02*
X82166666Y-88900057D01*
X82166666Y-88900057D02*
X82214285Y-88995295D01*
X82214285Y-88995295D02*
X82214285Y-89138152D01*
X82214285Y-89138152D02*
X82166666Y-89233390D01*
X82166666Y-89233390D02*
X82119047Y-89281009D01*
X82119047Y-89281009D02*
X82023809Y-89328628D01*
X82023809Y-89328628D02*
X81642857Y-89328628D01*
X83166666Y-89804819D02*
X82595238Y-89804819D01*
X82880952Y-89804819D02*
X82880952Y-88804819D01*
X82880952Y-88804819D02*
X82785714Y-88947676D01*
X82785714Y-88947676D02*
X82690476Y-89042914D01*
X82690476Y-89042914D02*
X82595238Y-89090533D01*
X91855471Y-63540074D02*
X92259532Y-63136013D01*
X92764608Y-64045150D02*
X92057501Y-63338043D01*
X93202341Y-63607417D02*
X92495234Y-62900310D01*
X92495234Y-62900310D02*
X92764608Y-62630936D01*
X92764608Y-62630936D02*
X92865624Y-62597265D01*
X92865624Y-62597265D02*
X92932967Y-62597265D01*
X92932967Y-62597265D02*
X93033982Y-62630936D01*
X93033982Y-62630936D02*
X93134998Y-62731952D01*
X93134998Y-62731952D02*
X93168669Y-62832967D01*
X93168669Y-62832967D02*
X93168669Y-62900310D01*
X93168669Y-62900310D02*
X93134998Y-63001326D01*
X93134998Y-63001326D02*
X92865624Y-63270700D01*
X93741089Y-62125860D02*
X94212494Y-62597265D01*
X93303356Y-62024845D02*
X93640074Y-62698280D01*
X93640074Y-62698280D02*
X94077807Y-62260547D01*
D12*
X81575438Y-87993809D02*
X81834485Y-87993809D01*
X81834485Y-87993809D02*
X81864961Y-87978571D01*
X81864961Y-87978571D02*
X81880200Y-87963333D01*
X81880200Y-87963333D02*
X81895438Y-87932857D01*
X81895438Y-87932857D02*
X81895438Y-87871904D01*
X81895438Y-87871904D02*
X81880200Y-87841428D01*
X81880200Y-87841428D02*
X81864961Y-87826190D01*
X81864961Y-87826190D02*
X81834485Y-87810952D01*
X81834485Y-87810952D02*
X81575438Y-87810952D01*
X81575438Y-87689047D02*
X81575438Y-87490952D01*
X81575438Y-87490952D02*
X81697342Y-87597619D01*
X81697342Y-87597619D02*
X81697342Y-87551904D01*
X81697342Y-87551904D02*
X81712580Y-87521428D01*
X81712580Y-87521428D02*
X81727819Y-87506190D01*
X81727819Y-87506190D02*
X81758295Y-87490952D01*
X81758295Y-87490952D02*
X81834485Y-87490952D01*
X81834485Y-87490952D02*
X81864961Y-87506190D01*
X81864961Y-87506190D02*
X81880200Y-87521428D01*
X81880200Y-87521428D02*
X81895438Y-87551904D01*
X81895438Y-87551904D02*
X81895438Y-87643333D01*
X81895438Y-87643333D02*
X81880200Y-87673809D01*
X81880200Y-87673809D02*
X81864961Y-87689047D01*
D11*
X89456667Y-83618200D02*
X89370000Y-83494391D01*
X89308095Y-83618200D02*
X89308095Y-83358200D01*
X89308095Y-83358200D02*
X89407143Y-83358200D01*
X89407143Y-83358200D02*
X89431905Y-83370581D01*
X89431905Y-83370581D02*
X89444286Y-83382962D01*
X89444286Y-83382962D02*
X89456667Y-83407724D01*
X89456667Y-83407724D02*
X89456667Y-83444867D01*
X89456667Y-83444867D02*
X89444286Y-83469629D01*
X89444286Y-83469629D02*
X89431905Y-83482010D01*
X89431905Y-83482010D02*
X89407143Y-83494391D01*
X89407143Y-83494391D02*
X89308095Y-83494391D01*
X89555714Y-83382962D02*
X89568095Y-83370581D01*
X89568095Y-83370581D02*
X89592857Y-83358200D01*
X89592857Y-83358200D02*
X89654762Y-83358200D01*
X89654762Y-83358200D02*
X89679524Y-83370581D01*
X89679524Y-83370581D02*
X89691905Y-83382962D01*
X89691905Y-83382962D02*
X89704286Y-83407724D01*
X89704286Y-83407724D02*
X89704286Y-83432486D01*
X89704286Y-83432486D02*
X89691905Y-83469629D01*
X89691905Y-83469629D02*
X89543333Y-83618200D01*
X89543333Y-83618200D02*
X89704286Y-83618200D01*
D10*
X91855471Y-74140074D02*
X92259532Y-73736013D01*
X92764608Y-74645150D02*
X92057501Y-73938043D01*
X93202341Y-74207417D02*
X92495234Y-73500310D01*
X92495234Y-73500310D02*
X92764608Y-73230936D01*
X92764608Y-73230936D02*
X92865624Y-73197265D01*
X92865624Y-73197265D02*
X92932967Y-73197265D01*
X92932967Y-73197265D02*
X93033982Y-73230936D01*
X93033982Y-73230936D02*
X93134998Y-73331952D01*
X93134998Y-73331952D02*
X93168669Y-73432967D01*
X93168669Y-73432967D02*
X93168669Y-73500310D01*
X93168669Y-73500310D02*
X93134998Y-73601326D01*
X93134998Y-73601326D02*
X92865624Y-73870700D01*
X93505387Y-72490158D02*
X93370700Y-72624845D01*
X93370700Y-72624845D02*
X93337028Y-72725860D01*
X93337028Y-72725860D02*
X93337028Y-72793204D01*
X93337028Y-72793204D02*
X93370700Y-72961562D01*
X93370700Y-72961562D02*
X93471715Y-73129921D01*
X93471715Y-73129921D02*
X93741089Y-73399295D01*
X93741089Y-73399295D02*
X93842104Y-73432967D01*
X93842104Y-73432967D02*
X93909448Y-73432967D01*
X93909448Y-73432967D02*
X94010463Y-73399295D01*
X94010463Y-73399295D02*
X94145150Y-73264608D01*
X94145150Y-73264608D02*
X94178822Y-73163593D01*
X94178822Y-73163593D02*
X94178822Y-73096249D01*
X94178822Y-73096249D02*
X94145150Y-72995234D01*
X94145150Y-72995234D02*
X93976791Y-72826875D01*
X93976791Y-72826875D02*
X93875776Y-72793204D01*
X93875776Y-72793204D02*
X93808433Y-72793204D01*
X93808433Y-72793204D02*
X93707417Y-72826875D01*
X93707417Y-72826875D02*
X93572730Y-72961562D01*
X93572730Y-72961562D02*
X93539059Y-73062578D01*
X93539059Y-73062578D02*
X93539059Y-73129921D01*
X93539059Y-73129921D02*
X93572730Y-73230936D01*
D11*
X90063574Y-85434523D02*
X89813574Y-85434523D01*
X89813574Y-85434523D02*
X89813574Y-85374999D01*
X89813574Y-85374999D02*
X89825479Y-85339285D01*
X89825479Y-85339285D02*
X89849289Y-85315475D01*
X89849289Y-85315475D02*
X89873098Y-85303570D01*
X89873098Y-85303570D02*
X89920717Y-85291666D01*
X89920717Y-85291666D02*
X89956431Y-85291666D01*
X89956431Y-85291666D02*
X90004050Y-85303570D01*
X90004050Y-85303570D02*
X90027860Y-85315475D01*
X90027860Y-85315475D02*
X90051670Y-85339285D01*
X90051670Y-85339285D02*
X90063574Y-85374999D01*
X90063574Y-85374999D02*
X90063574Y-85434523D01*
X90063574Y-85053570D02*
X90063574Y-85196427D01*
X90063574Y-85124999D02*
X89813574Y-85124999D01*
X89813574Y-85124999D02*
X89849289Y-85148808D01*
X89849289Y-85148808D02*
X89873098Y-85172618D01*
X89873098Y-85172618D02*
X89885003Y-85196427D01*
D13*
X91704762Y-86131927D02*
X91704762Y-85731927D01*
X91704762Y-85731927D02*
X91800000Y-85731927D01*
X91800000Y-85731927D02*
X91857143Y-85750975D01*
X91857143Y-85750975D02*
X91895238Y-85789070D01*
X91895238Y-85789070D02*
X91914285Y-85827165D01*
X91914285Y-85827165D02*
X91933333Y-85903356D01*
X91933333Y-85903356D02*
X91933333Y-85960499D01*
X91933333Y-85960499D02*
X91914285Y-86036689D01*
X91914285Y-86036689D02*
X91895238Y-86074784D01*
X91895238Y-86074784D02*
X91857143Y-86112880D01*
X91857143Y-86112880D02*
X91800000Y-86131927D01*
X91800000Y-86131927D02*
X91704762Y-86131927D01*
X92085714Y-85770022D02*
X92104762Y-85750975D01*
X92104762Y-85750975D02*
X92142857Y-85731927D01*
X92142857Y-85731927D02*
X92238095Y-85731927D01*
X92238095Y-85731927D02*
X92276190Y-85750975D01*
X92276190Y-85750975D02*
X92295238Y-85770022D01*
X92295238Y-85770022D02*
X92314285Y-85808118D01*
X92314285Y-85808118D02*
X92314285Y-85846213D01*
X92314285Y-85846213D02*
X92295238Y-85903356D01*
X92295238Y-85903356D02*
X92066666Y-86131927D01*
X92066666Y-86131927D02*
X92314285Y-86131927D01*
D11*
X93956667Y-83368200D02*
X93870000Y-83244391D01*
X93808095Y-83368200D02*
X93808095Y-83108200D01*
X93808095Y-83108200D02*
X93907143Y-83108200D01*
X93907143Y-83108200D02*
X93931905Y-83120581D01*
X93931905Y-83120581D02*
X93944286Y-83132962D01*
X93944286Y-83132962D02*
X93956667Y-83157724D01*
X93956667Y-83157724D02*
X93956667Y-83194867D01*
X93956667Y-83194867D02*
X93944286Y-83219629D01*
X93944286Y-83219629D02*
X93931905Y-83232010D01*
X93931905Y-83232010D02*
X93907143Y-83244391D01*
X93907143Y-83244391D02*
X93808095Y-83244391D01*
X94105238Y-83219629D02*
X94080476Y-83207248D01*
X94080476Y-83207248D02*
X94068095Y-83194867D01*
X94068095Y-83194867D02*
X94055714Y-83170105D01*
X94055714Y-83170105D02*
X94055714Y-83157724D01*
X94055714Y-83157724D02*
X94068095Y-83132962D01*
X94068095Y-83132962D02*
X94080476Y-83120581D01*
X94080476Y-83120581D02*
X94105238Y-83108200D01*
X94105238Y-83108200D02*
X94154762Y-83108200D01*
X94154762Y-83108200D02*
X94179524Y-83120581D01*
X94179524Y-83120581D02*
X94191905Y-83132962D01*
X94191905Y-83132962D02*
X94204286Y-83157724D01*
X94204286Y-83157724D02*
X94204286Y-83170105D01*
X94204286Y-83170105D02*
X94191905Y-83194867D01*
X94191905Y-83194867D02*
X94179524Y-83207248D01*
X94179524Y-83207248D02*
X94154762Y-83219629D01*
X94154762Y-83219629D02*
X94105238Y-83219629D01*
X94105238Y-83219629D02*
X94080476Y-83232010D01*
X94080476Y-83232010D02*
X94068095Y-83244391D01*
X94068095Y-83244391D02*
X94055714Y-83269153D01*
X94055714Y-83269153D02*
X94055714Y-83318677D01*
X94055714Y-83318677D02*
X94068095Y-83343439D01*
X94068095Y-83343439D02*
X94080476Y-83355820D01*
X94080476Y-83355820D02*
X94105238Y-83368200D01*
X94105238Y-83368200D02*
X94154762Y-83368200D01*
X94154762Y-83368200D02*
X94179524Y-83355820D01*
X94179524Y-83355820D02*
X94191905Y-83343439D01*
X94191905Y-83343439D02*
X94204286Y-83318677D01*
X94204286Y-83318677D02*
X94204286Y-83269153D01*
X94204286Y-83269153D02*
X94191905Y-83244391D01*
X94191905Y-83244391D02*
X94179524Y-83232010D01*
X94179524Y-83232010D02*
X94154762Y-83219629D01*
D13*
X88695238Y-80531927D02*
X88695238Y-80855737D01*
X88695238Y-80855737D02*
X88714285Y-80893832D01*
X88714285Y-80893832D02*
X88733333Y-80912880D01*
X88733333Y-80912880D02*
X88771428Y-80931927D01*
X88771428Y-80931927D02*
X88847619Y-80931927D01*
X88847619Y-80931927D02*
X88885714Y-80912880D01*
X88885714Y-80912880D02*
X88904761Y-80893832D01*
X88904761Y-80893832D02*
X88923809Y-80855737D01*
X88923809Y-80855737D02*
X88923809Y-80531927D01*
X89285714Y-80665260D02*
X89285714Y-80931927D01*
X89190476Y-80512880D02*
X89095238Y-80798594D01*
X89095238Y-80798594D02*
X89342857Y-80798594D01*
D10*
X83488095Y-79304819D02*
X84059523Y-79304819D01*
X83773809Y-80304819D02*
X83773809Y-79304819D01*
X84392857Y-80304819D02*
X84392857Y-79304819D01*
X84392857Y-79304819D02*
X84773809Y-79304819D01*
X84773809Y-79304819D02*
X84869047Y-79352438D01*
X84869047Y-79352438D02*
X84916666Y-79400057D01*
X84916666Y-79400057D02*
X84964285Y-79495295D01*
X84964285Y-79495295D02*
X84964285Y-79638152D01*
X84964285Y-79638152D02*
X84916666Y-79733390D01*
X84916666Y-79733390D02*
X84869047Y-79781009D01*
X84869047Y-79781009D02*
X84773809Y-79828628D01*
X84773809Y-79828628D02*
X84392857Y-79828628D01*
X85297619Y-79304819D02*
X85916666Y-79304819D01*
X85916666Y-79304819D02*
X85583333Y-79685771D01*
X85583333Y-79685771D02*
X85726190Y-79685771D01*
X85726190Y-79685771D02*
X85821428Y-79733390D01*
X85821428Y-79733390D02*
X85869047Y-79781009D01*
X85869047Y-79781009D02*
X85916666Y-79876247D01*
X85916666Y-79876247D02*
X85916666Y-80114342D01*
X85916666Y-80114342D02*
X85869047Y-80209580D01*
X85869047Y-80209580D02*
X85821428Y-80257200D01*
X85821428Y-80257200D02*
X85726190Y-80304819D01*
X85726190Y-80304819D02*
X85440476Y-80304819D01*
X85440476Y-80304819D02*
X85345238Y-80257200D01*
X85345238Y-80257200D02*
X85297619Y-80209580D01*
D11*
X84118200Y-88417142D02*
X83994391Y-88503809D01*
X84118200Y-88565714D02*
X83858200Y-88565714D01*
X83858200Y-88565714D02*
X83858200Y-88466666D01*
X83858200Y-88466666D02*
X83870581Y-88441904D01*
X83870581Y-88441904D02*
X83882962Y-88429523D01*
X83882962Y-88429523D02*
X83907724Y-88417142D01*
X83907724Y-88417142D02*
X83944867Y-88417142D01*
X83944867Y-88417142D02*
X83969629Y-88429523D01*
X83969629Y-88429523D02*
X83982010Y-88441904D01*
X83982010Y-88441904D02*
X83994391Y-88466666D01*
X83994391Y-88466666D02*
X83994391Y-88565714D01*
X84118200Y-88169523D02*
X84118200Y-88318095D01*
X84118200Y-88243809D02*
X83858200Y-88243809D01*
X83858200Y-88243809D02*
X83895343Y-88268571D01*
X83895343Y-88268571D02*
X83920105Y-88293333D01*
X83920105Y-88293333D02*
X83932486Y-88318095D01*
X83858200Y-88008571D02*
X83858200Y-87983809D01*
X83858200Y-87983809D02*
X83870581Y-87959047D01*
X83870581Y-87959047D02*
X83882962Y-87946666D01*
X83882962Y-87946666D02*
X83907724Y-87934285D01*
X83907724Y-87934285D02*
X83957248Y-87921904D01*
X83957248Y-87921904D02*
X84019153Y-87921904D01*
X84019153Y-87921904D02*
X84068677Y-87934285D01*
X84068677Y-87934285D02*
X84093439Y-87946666D01*
X84093439Y-87946666D02*
X84105820Y-87959047D01*
X84105820Y-87959047D02*
X84118200Y-87983809D01*
X84118200Y-87983809D02*
X84118200Y-88008571D01*
X84118200Y-88008571D02*
X84105820Y-88033333D01*
X84105820Y-88033333D02*
X84093439Y-88045714D01*
X84093439Y-88045714D02*
X84068677Y-88058095D01*
X84068677Y-88058095D02*
X84019153Y-88070476D01*
X84019153Y-88070476D02*
X83957248Y-88070476D01*
X83957248Y-88070476D02*
X83907724Y-88058095D01*
X83907724Y-88058095D02*
X83882962Y-88045714D01*
X83882962Y-88045714D02*
X83870581Y-88033333D01*
X83870581Y-88033333D02*
X83858200Y-88008571D01*
D10*
X93954819Y-69833333D02*
X94669104Y-69833333D01*
X94669104Y-69833333D02*
X94811961Y-69880952D01*
X94811961Y-69880952D02*
X94907200Y-69976190D01*
X94907200Y-69976190D02*
X94954819Y-70119047D01*
X94954819Y-70119047D02*
X94954819Y-70214285D01*
X93954819Y-68928571D02*
X93954819Y-69119047D01*
X93954819Y-69119047D02*
X94002438Y-69214285D01*
X94002438Y-69214285D02*
X94050057Y-69261904D01*
X94050057Y-69261904D02*
X94192914Y-69357142D01*
X94192914Y-69357142D02*
X94383390Y-69404761D01*
X94383390Y-69404761D02*
X94764342Y-69404761D01*
X94764342Y-69404761D02*
X94859580Y-69357142D01*
X94859580Y-69357142D02*
X94907200Y-69309523D01*
X94907200Y-69309523D02*
X94954819Y-69214285D01*
X94954819Y-69214285D02*
X94954819Y-69023809D01*
X94954819Y-69023809D02*
X94907200Y-68928571D01*
X94907200Y-68928571D02*
X94859580Y-68880952D01*
X94859580Y-68880952D02*
X94764342Y-68833333D01*
X94764342Y-68833333D02*
X94526247Y-68833333D01*
X94526247Y-68833333D02*
X94431009Y-68880952D01*
X94431009Y-68880952D02*
X94383390Y-68928571D01*
X94383390Y-68928571D02*
X94335771Y-69023809D01*
X94335771Y-69023809D02*
X94335771Y-69214285D01*
X94335771Y-69214285D02*
X94383390Y-69309523D01*
X94383390Y-69309523D02*
X94431009Y-69357142D01*
X94431009Y-69357142D02*
X94526247Y-69404761D01*
X88666666Y-63454819D02*
X88666666Y-64169104D01*
X88666666Y-64169104D02*
X88619047Y-64311961D01*
X88619047Y-64311961D02*
X88523809Y-64407200D01*
X88523809Y-64407200D02*
X88380952Y-64454819D01*
X88380952Y-64454819D02*
X88285714Y-64454819D01*
X89047619Y-63454819D02*
X89666666Y-63454819D01*
X89666666Y-63454819D02*
X89333333Y-63835771D01*
X89333333Y-63835771D02*
X89476190Y-63835771D01*
X89476190Y-63835771D02*
X89571428Y-63883390D01*
X89571428Y-63883390D02*
X89619047Y-63931009D01*
X89619047Y-63931009D02*
X89666666Y-64026247D01*
X89666666Y-64026247D02*
X89666666Y-64264342D01*
X89666666Y-64264342D02*
X89619047Y-64359580D01*
X89619047Y-64359580D02*
X89571428Y-64407200D01*
X89571428Y-64407200D02*
X89476190Y-64454819D01*
X89476190Y-64454819D02*
X89190476Y-64454819D01*
X89190476Y-64454819D02*
X89095238Y-64407200D01*
X89095238Y-64407200D02*
X89047619Y-64359580D01*
D11*
X86589765Y-81291666D02*
X86601670Y-81303570D01*
X86601670Y-81303570D02*
X86613574Y-81339285D01*
X86613574Y-81339285D02*
X86613574Y-81363094D01*
X86613574Y-81363094D02*
X86601670Y-81398808D01*
X86601670Y-81398808D02*
X86577860Y-81422618D01*
X86577860Y-81422618D02*
X86554050Y-81434523D01*
X86554050Y-81434523D02*
X86506431Y-81446427D01*
X86506431Y-81446427D02*
X86470717Y-81446427D01*
X86470717Y-81446427D02*
X86423098Y-81434523D01*
X86423098Y-81434523D02*
X86399289Y-81422618D01*
X86399289Y-81422618D02*
X86375479Y-81398808D01*
X86375479Y-81398808D02*
X86363574Y-81363094D01*
X86363574Y-81363094D02*
X86363574Y-81339285D01*
X86363574Y-81339285D02*
X86375479Y-81303570D01*
X86375479Y-81303570D02*
X86387384Y-81291666D01*
X86613574Y-81053570D02*
X86613574Y-81196427D01*
X86613574Y-81124999D02*
X86363574Y-81124999D01*
X86363574Y-81124999D02*
X86399289Y-81148808D01*
X86399289Y-81148808D02*
X86423098Y-81172618D01*
X86423098Y-81172618D02*
X86435003Y-81196427D01*
X87818200Y-88343332D02*
X87694391Y-88429999D01*
X87818200Y-88491904D02*
X87558200Y-88491904D01*
X87558200Y-88491904D02*
X87558200Y-88392856D01*
X87558200Y-88392856D02*
X87570581Y-88368094D01*
X87570581Y-88368094D02*
X87582962Y-88355713D01*
X87582962Y-88355713D02*
X87607724Y-88343332D01*
X87607724Y-88343332D02*
X87644867Y-88343332D01*
X87644867Y-88343332D02*
X87669629Y-88355713D01*
X87669629Y-88355713D02*
X87682010Y-88368094D01*
X87682010Y-88368094D02*
X87694391Y-88392856D01*
X87694391Y-88392856D02*
X87694391Y-88491904D01*
X87558200Y-88256666D02*
X87558200Y-88083332D01*
X87558200Y-88083332D02*
X87818200Y-88194761D01*
D14*
X88428571Y-69091244D02*
X88428571Y-69698387D01*
X88428571Y-69698387D02*
X88464285Y-69769815D01*
X88464285Y-69769815D02*
X88500000Y-69805530D01*
X88500000Y-69805530D02*
X88571428Y-69841244D01*
X88571428Y-69841244D02*
X88714285Y-69841244D01*
X88714285Y-69841244D02*
X88785714Y-69805530D01*
X88785714Y-69805530D02*
X88821428Y-69769815D01*
X88821428Y-69769815D02*
X88857142Y-69698387D01*
X88857142Y-69698387D02*
X88857142Y-69091244D01*
X89607142Y-69841244D02*
X89178571Y-69841244D01*
X89392856Y-69841244D02*
X89392856Y-69091244D01*
X89392856Y-69091244D02*
X89321428Y-69198387D01*
X89321428Y-69198387D02*
X89249999Y-69269815D01*
X89249999Y-69269815D02*
X89178571Y-69305530D01*
D11*
X93306667Y-88568200D02*
X93220000Y-88444391D01*
X93158095Y-88568200D02*
X93158095Y-88308200D01*
X93158095Y-88308200D02*
X93257143Y-88308200D01*
X93257143Y-88308200D02*
X93281905Y-88320581D01*
X93281905Y-88320581D02*
X93294286Y-88332962D01*
X93294286Y-88332962D02*
X93306667Y-88357724D01*
X93306667Y-88357724D02*
X93306667Y-88394867D01*
X93306667Y-88394867D02*
X93294286Y-88419629D01*
X93294286Y-88419629D02*
X93281905Y-88432010D01*
X93281905Y-88432010D02*
X93257143Y-88444391D01*
X93257143Y-88444391D02*
X93158095Y-88444391D01*
X93430476Y-88568200D02*
X93480000Y-88568200D01*
X93480000Y-88568200D02*
X93504762Y-88555820D01*
X93504762Y-88555820D02*
X93517143Y-88543439D01*
X93517143Y-88543439D02*
X93541905Y-88506296D01*
X93541905Y-88506296D02*
X93554286Y-88456772D01*
X93554286Y-88456772D02*
X93554286Y-88357724D01*
X93554286Y-88357724D02*
X93541905Y-88332962D01*
X93541905Y-88332962D02*
X93529524Y-88320581D01*
X93529524Y-88320581D02*
X93504762Y-88308200D01*
X93504762Y-88308200D02*
X93455238Y-88308200D01*
X93455238Y-88308200D02*
X93430476Y-88320581D01*
X93430476Y-88320581D02*
X93418095Y-88332962D01*
X93418095Y-88332962D02*
X93405714Y-88357724D01*
X93405714Y-88357724D02*
X93405714Y-88419629D01*
X93405714Y-88419629D02*
X93418095Y-88444391D01*
X93418095Y-88444391D02*
X93430476Y-88456772D01*
X93430476Y-88456772D02*
X93455238Y-88469153D01*
X93455238Y-88469153D02*
X93504762Y-88469153D01*
X93504762Y-88469153D02*
X93529524Y-88456772D01*
X93529524Y-88456772D02*
X93541905Y-88444391D01*
X93541905Y-88444391D02*
X93554286Y-88419629D01*
X92165277Y-84028571D02*
X92150991Y-84057142D01*
X92150991Y-84057142D02*
X92122420Y-84085714D01*
X92122420Y-84085714D02*
X92079562Y-84128571D01*
X92079562Y-84128571D02*
X92065277Y-84157142D01*
X92065277Y-84157142D02*
X92065277Y-84185714D01*
X92136705Y-84171428D02*
X92122420Y-84200000D01*
X92122420Y-84200000D02*
X92093848Y-84228571D01*
X92093848Y-84228571D02*
X92036705Y-84242857D01*
X92036705Y-84242857D02*
X91936705Y-84242857D01*
X91936705Y-84242857D02*
X91879562Y-84228571D01*
X91879562Y-84228571D02*
X91850991Y-84200000D01*
X91850991Y-84200000D02*
X91836705Y-84171428D01*
X91836705Y-84171428D02*
X91836705Y-84114285D01*
X91836705Y-84114285D02*
X91850991Y-84085714D01*
X91850991Y-84085714D02*
X91879562Y-84057142D01*
X91879562Y-84057142D02*
X91936705Y-84042857D01*
X91936705Y-84042857D02*
X92036705Y-84042857D01*
X92036705Y-84042857D02*
X92093848Y-84057142D01*
X92093848Y-84057142D02*
X92122420Y-84085714D01*
X92122420Y-84085714D02*
X92136705Y-84114285D01*
X92136705Y-84114285D02*
X92136705Y-84171428D01*
X92136705Y-83757142D02*
X92136705Y-83928571D01*
X92136705Y-83842856D02*
X91836705Y-83842856D01*
X91836705Y-83842856D02*
X91879562Y-83871428D01*
X91879562Y-83871428D02*
X91908134Y-83899999D01*
X91908134Y-83899999D02*
X91922420Y-83928571D01*
D10*
X90188095Y-85754819D02*
X90759523Y-85754819D01*
X90473809Y-86754819D02*
X90473809Y-85754819D01*
X91092857Y-86754819D02*
X91092857Y-85754819D01*
X91092857Y-85754819D02*
X91473809Y-85754819D01*
X91473809Y-85754819D02*
X91569047Y-85802438D01*
X91569047Y-85802438D02*
X91616666Y-85850057D01*
X91616666Y-85850057D02*
X91664285Y-85945295D01*
X91664285Y-85945295D02*
X91664285Y-86088152D01*
X91664285Y-86088152D02*
X91616666Y-86183390D01*
X91616666Y-86183390D02*
X91569047Y-86231009D01*
X91569047Y-86231009D02*
X91473809Y-86278628D01*
X91473809Y-86278628D02*
X91092857Y-86278628D01*
X92140476Y-86754819D02*
X92330952Y-86754819D01*
X92330952Y-86754819D02*
X92426190Y-86707200D01*
X92426190Y-86707200D02*
X92473809Y-86659580D01*
X92473809Y-86659580D02*
X92569047Y-86516723D01*
X92569047Y-86516723D02*
X92616666Y-86326247D01*
X92616666Y-86326247D02*
X92616666Y-85945295D01*
X92616666Y-85945295D02*
X92569047Y-85850057D01*
X92569047Y-85850057D02*
X92521428Y-85802438D01*
X92521428Y-85802438D02*
X92426190Y-85754819D01*
X92426190Y-85754819D02*
X92235714Y-85754819D01*
X92235714Y-85754819D02*
X92140476Y-85802438D01*
X92140476Y-85802438D02*
X92092857Y-85850057D01*
X92092857Y-85850057D02*
X92045238Y-85945295D01*
X92045238Y-85945295D02*
X92045238Y-86183390D01*
X92045238Y-86183390D02*
X92092857Y-86278628D01*
X92092857Y-86278628D02*
X92140476Y-86326247D01*
X92140476Y-86326247D02*
X92235714Y-86373866D01*
X92235714Y-86373866D02*
X92426190Y-86373866D01*
X92426190Y-86373866D02*
X92521428Y-86326247D01*
X92521428Y-86326247D02*
X92569047Y-86278628D01*
X92569047Y-86278628D02*
X92616666Y-86183390D01*
X88666666Y-93454819D02*
X88666666Y-94169104D01*
X88666666Y-94169104D02*
X88619047Y-94311961D01*
X88619047Y-94311961D02*
X88523809Y-94407200D01*
X88523809Y-94407200D02*
X88380952Y-94454819D01*
X88380952Y-94454819D02*
X88285714Y-94454819D01*
X89095238Y-93550057D02*
X89142857Y-93502438D01*
X89142857Y-93502438D02*
X89238095Y-93454819D01*
X89238095Y-93454819D02*
X89476190Y-93454819D01*
X89476190Y-93454819D02*
X89571428Y-93502438D01*
X89571428Y-93502438D02*
X89619047Y-93550057D01*
X89619047Y-93550057D02*
X89666666Y-93645295D01*
X89666666Y-93645295D02*
X89666666Y-93740533D01*
X89666666Y-93740533D02*
X89619047Y-93883390D01*
X89619047Y-93883390D02*
X89047619Y-94454819D01*
X89047619Y-94454819D02*
X89666666Y-94454819D01*
X80738095Y-82054819D02*
X81309523Y-82054819D01*
X81023809Y-83054819D02*
X81023809Y-82054819D01*
X81642857Y-83054819D02*
X81642857Y-82054819D01*
X81642857Y-82054819D02*
X82023809Y-82054819D01*
X82023809Y-82054819D02*
X82119047Y-82102438D01*
X82119047Y-82102438D02*
X82166666Y-82150057D01*
X82166666Y-82150057D02*
X82214285Y-82245295D01*
X82214285Y-82245295D02*
X82214285Y-82388152D01*
X82214285Y-82388152D02*
X82166666Y-82483390D01*
X82166666Y-82483390D02*
X82119047Y-82531009D01*
X82119047Y-82531009D02*
X82023809Y-82578628D01*
X82023809Y-82578628D02*
X81642857Y-82578628D01*
X82595238Y-82150057D02*
X82642857Y-82102438D01*
X82642857Y-82102438D02*
X82738095Y-82054819D01*
X82738095Y-82054819D02*
X82976190Y-82054819D01*
X82976190Y-82054819D02*
X83071428Y-82102438D01*
X83071428Y-82102438D02*
X83119047Y-82150057D01*
X83119047Y-82150057D02*
X83166666Y-82245295D01*
X83166666Y-82245295D02*
X83166666Y-82340533D01*
X83166666Y-82340533D02*
X83119047Y-82483390D01*
X83119047Y-82483390D02*
X82547619Y-83054819D01*
X82547619Y-83054819D02*
X83166666Y-83054819D01*
D11*
X85718200Y-88343332D02*
X85594391Y-88429999D01*
X85718200Y-88491904D02*
X85458200Y-88491904D01*
X85458200Y-88491904D02*
X85458200Y-88392856D01*
X85458200Y-88392856D02*
X85470581Y-88368094D01*
X85470581Y-88368094D02*
X85482962Y-88355713D01*
X85482962Y-88355713D02*
X85507724Y-88343332D01*
X85507724Y-88343332D02*
X85544867Y-88343332D01*
X85544867Y-88343332D02*
X85569629Y-88355713D01*
X85569629Y-88355713D02*
X85582010Y-88368094D01*
X85582010Y-88368094D02*
X85594391Y-88392856D01*
X85594391Y-88392856D02*
X85594391Y-88491904D01*
X85458200Y-88256666D02*
X85458200Y-88095713D01*
X85458200Y-88095713D02*
X85557248Y-88182380D01*
X85557248Y-88182380D02*
X85557248Y-88145237D01*
X85557248Y-88145237D02*
X85569629Y-88120475D01*
X85569629Y-88120475D02*
X85582010Y-88108094D01*
X85582010Y-88108094D02*
X85606772Y-88095713D01*
X85606772Y-88095713D02*
X85668677Y-88095713D01*
X85668677Y-88095713D02*
X85693439Y-88108094D01*
X85693439Y-88108094D02*
X85705820Y-88120475D01*
X85705820Y-88120475D02*
X85718200Y-88145237D01*
X85718200Y-88145237D02*
X85718200Y-88219523D01*
X85718200Y-88219523D02*
X85705820Y-88244285D01*
X85705820Y-88244285D02*
X85693439Y-88256666D01*
D10*
X81255471Y-63540074D02*
X81659532Y-63136013D01*
X82164608Y-64045150D02*
X81457501Y-63338043D01*
X82602341Y-63607417D02*
X81895234Y-62900310D01*
X81895234Y-62900310D02*
X82164608Y-62630936D01*
X82164608Y-62630936D02*
X82265624Y-62597265D01*
X82265624Y-62597265D02*
X82332967Y-62597265D01*
X82332967Y-62597265D02*
X82433982Y-62630936D01*
X82433982Y-62630936D02*
X82534998Y-62731952D01*
X82534998Y-62731952D02*
X82568669Y-62832967D01*
X82568669Y-62832967D02*
X82568669Y-62900310D01*
X82568669Y-62900310D02*
X82534998Y-63001326D01*
X82534998Y-63001326D02*
X82265624Y-63270700D01*
X82939059Y-61856486D02*
X82602341Y-62193204D01*
X82602341Y-62193204D02*
X82905387Y-62563593D01*
X82905387Y-62563593D02*
X82905387Y-62496249D01*
X82905387Y-62496249D02*
X82939059Y-62395234D01*
X82939059Y-62395234D02*
X83107417Y-62226875D01*
X83107417Y-62226875D02*
X83208433Y-62193204D01*
X83208433Y-62193204D02*
X83275776Y-62193204D01*
X83275776Y-62193204D02*
X83376791Y-62226875D01*
X83376791Y-62226875D02*
X83545150Y-62395234D01*
X83545150Y-62395234D02*
X83578822Y-62496249D01*
X83578822Y-62496249D02*
X83578822Y-62563593D01*
X83578822Y-62563593D02*
X83545150Y-62664608D01*
X83545150Y-62664608D02*
X83376791Y-62832967D01*
X83376791Y-62832967D02*
X83275776Y-62866639D01*
X83275776Y-62866639D02*
X83208433Y-62866639D01*
D11*
X88818200Y-88343332D02*
X88694391Y-88429999D01*
X88818200Y-88491904D02*
X88558200Y-88491904D01*
X88558200Y-88491904D02*
X88558200Y-88392856D01*
X88558200Y-88392856D02*
X88570581Y-88368094D01*
X88570581Y-88368094D02*
X88582962Y-88355713D01*
X88582962Y-88355713D02*
X88607724Y-88343332D01*
X88607724Y-88343332D02*
X88644867Y-88343332D01*
X88644867Y-88343332D02*
X88669629Y-88355713D01*
X88669629Y-88355713D02*
X88682010Y-88368094D01*
X88682010Y-88368094D02*
X88694391Y-88392856D01*
X88694391Y-88392856D02*
X88694391Y-88491904D01*
X88558200Y-88108094D02*
X88558200Y-88231904D01*
X88558200Y-88231904D02*
X88682010Y-88244285D01*
X88682010Y-88244285D02*
X88669629Y-88231904D01*
X88669629Y-88231904D02*
X88657248Y-88207142D01*
X88657248Y-88207142D02*
X88657248Y-88145237D01*
X88657248Y-88145237D02*
X88669629Y-88120475D01*
X88669629Y-88120475D02*
X88682010Y-88108094D01*
X88682010Y-88108094D02*
X88706772Y-88095713D01*
X88706772Y-88095713D02*
X88768677Y-88095713D01*
X88768677Y-88095713D02*
X88793439Y-88108094D01*
X88793439Y-88108094D02*
X88805820Y-88120475D01*
X88805820Y-88120475D02*
X88818200Y-88145237D01*
X88818200Y-88145237D02*
X88818200Y-88207142D01*
X88818200Y-88207142D02*
X88805820Y-88231904D01*
X88805820Y-88231904D02*
X88793439Y-88244285D01*
X89068200Y-85293332D02*
X88944391Y-85379999D01*
X89068200Y-85441904D02*
X88808200Y-85441904D01*
X88808200Y-85441904D02*
X88808200Y-85342856D01*
X88808200Y-85342856D02*
X88820581Y-85318094D01*
X88820581Y-85318094D02*
X88832962Y-85305713D01*
X88832962Y-85305713D02*
X88857724Y-85293332D01*
X88857724Y-85293332D02*
X88894867Y-85293332D01*
X88894867Y-85293332D02*
X88919629Y-85305713D01*
X88919629Y-85305713D02*
X88932010Y-85318094D01*
X88932010Y-85318094D02*
X88944391Y-85342856D01*
X88944391Y-85342856D02*
X88944391Y-85441904D01*
X89068200Y-85045713D02*
X89068200Y-85194285D01*
X89068200Y-85119999D02*
X88808200Y-85119999D01*
X88808200Y-85119999D02*
X88845343Y-85144761D01*
X88845343Y-85144761D02*
X88870105Y-85169523D01*
X88870105Y-85169523D02*
X88882486Y-85194285D01*
D10*
X81255471Y-74140074D02*
X81659532Y-73736013D01*
X82164608Y-74645150D02*
X81457501Y-73938043D01*
X82602341Y-74207417D02*
X81895234Y-73500310D01*
X81895234Y-73500310D02*
X82164608Y-73230936D01*
X82164608Y-73230936D02*
X82265624Y-73197265D01*
X82265624Y-73197265D02*
X82332967Y-73197265D01*
X82332967Y-73197265D02*
X82433982Y-73230936D01*
X82433982Y-73230936D02*
X82534998Y-73331952D01*
X82534998Y-73331952D02*
X82568669Y-73432967D01*
X82568669Y-73432967D02*
X82568669Y-73500310D01*
X82568669Y-73500310D02*
X82534998Y-73601326D01*
X82534998Y-73601326D02*
X82265624Y-73870700D01*
X82534998Y-72860547D02*
X83006402Y-72389143D01*
X83006402Y-72389143D02*
X83410463Y-73399295D01*
D13*
X86095238Y-84481927D02*
X86095238Y-84805737D01*
X86095238Y-84805737D02*
X86114285Y-84843832D01*
X86114285Y-84843832D02*
X86133333Y-84862880D01*
X86133333Y-84862880D02*
X86171428Y-84881927D01*
X86171428Y-84881927D02*
X86247619Y-84881927D01*
X86247619Y-84881927D02*
X86285714Y-84862880D01*
X86285714Y-84862880D02*
X86304761Y-84843832D01*
X86304761Y-84843832D02*
X86323809Y-84805737D01*
X86323809Y-84805737D02*
X86323809Y-84481927D01*
X86495238Y-84520022D02*
X86514286Y-84500975D01*
X86514286Y-84500975D02*
X86552381Y-84481927D01*
X86552381Y-84481927D02*
X86647619Y-84481927D01*
X86647619Y-84481927D02*
X86685714Y-84500975D01*
X86685714Y-84500975D02*
X86704762Y-84520022D01*
X86704762Y-84520022D02*
X86723809Y-84558118D01*
X86723809Y-84558118D02*
X86723809Y-84596213D01*
X86723809Y-84596213D02*
X86704762Y-84653356D01*
X86704762Y-84653356D02*
X86476190Y-84881927D01*
X86476190Y-84881927D02*
X86723809Y-84881927D01*
D15*
%TO.C,J4*%
X81000000Y-66760000D02*
X81000000Y-67160000D01*
X81000000Y-67160000D02*
X82450000Y-67160000D01*
X81000000Y-69300000D02*
X81000000Y-69700000D01*
X81000000Y-69700000D02*
X82450000Y-69700000D01*
X81000000Y-71840000D02*
X81000000Y-72240000D01*
X81000000Y-72240000D02*
X82450000Y-72240000D01*
X82450000Y-66760000D02*
X81000000Y-66760000D01*
X82450000Y-66760000D02*
X82885000Y-66325000D01*
X82450000Y-69300000D02*
X81000000Y-69300000D01*
X82450000Y-71840000D02*
X81000000Y-71840000D01*
X82450000Y-72675000D02*
X82450000Y-66760000D01*
X82885000Y-66325000D02*
X84550000Y-66325000D01*
X84550000Y-66325000D02*
X84550000Y-72675000D01*
X84550000Y-68030000D02*
X86000000Y-68030000D01*
X84550000Y-70570000D02*
X86000000Y-70570000D01*
X84550000Y-72675000D02*
X82450000Y-72675000D01*
X86000000Y-68030000D02*
X86000000Y-68430000D01*
X86000000Y-68430000D02*
X84550000Y-68430000D01*
X86000000Y-70570000D02*
X86000000Y-70970000D01*
X86000000Y-70970000D02*
X84550000Y-70970000D01*
%TO.C,R4*%
X89430000Y-87775000D02*
X89970000Y-87775000D01*
X89430000Y-88825000D02*
X89430000Y-87775000D01*
X89970000Y-87775000D02*
X89970000Y-88825000D01*
X89970000Y-88825000D02*
X89430000Y-88825000D01*
%TO.C,C2*%
X91250000Y-80250000D02*
X91750000Y-80250000D01*
X91250000Y-81250000D02*
X91250000Y-80250000D01*
X91750000Y-80250000D02*
X91750000Y-81250000D01*
X91750000Y-81250000D02*
X91250000Y-81250000D01*
%TO.C,J5*%
X85825000Y-73950000D02*
X92175000Y-73950000D01*
X85825000Y-75615000D02*
X85825000Y-73950000D01*
X86260000Y-76050000D02*
X85825000Y-75615000D01*
X86260000Y-76050000D02*
X86260000Y-77500000D01*
X86260000Y-77500000D02*
X86660000Y-77500000D01*
X86660000Y-77500000D02*
X86660000Y-76050000D01*
X87530000Y-72500000D02*
X87930000Y-72500000D01*
X87530000Y-73950000D02*
X87530000Y-72500000D01*
X87930000Y-72500000D02*
X87930000Y-73950000D01*
X88800000Y-76050000D02*
X88800000Y-77500000D01*
X88800000Y-77500000D02*
X89200000Y-77500000D01*
X89200000Y-77500000D02*
X89200000Y-76050000D01*
X90070000Y-72500000D02*
X90470000Y-72500000D01*
X90070000Y-73950000D02*
X90070000Y-72500000D01*
X90470000Y-72500000D02*
X90470000Y-73950000D01*
X91340000Y-76050000D02*
X91340000Y-77500000D01*
X91340000Y-77500000D02*
X91740000Y-77500000D01*
X91740000Y-77500000D02*
X91740000Y-76050000D01*
X92175000Y-73950000D02*
X92175000Y-76050000D01*
X92175000Y-76050000D02*
X86260000Y-76050000D01*
%TO.C,R6*%
X86380000Y-87775000D02*
X86920000Y-87775000D01*
X86380000Y-88825000D02*
X86380000Y-87775000D01*
X86920000Y-87775000D02*
X86920000Y-88825000D01*
X86920000Y-88825000D02*
X86380000Y-88825000D01*
%TO.C,C3*%
X83650000Y-85750000D02*
X84150000Y-85750000D01*
X83650000Y-86750000D02*
X83650000Y-85750000D01*
X84150000Y-85750000D02*
X84150000Y-86750000D01*
X84150000Y-86750000D02*
X83650000Y-86750000D01*
%TO.C,U3*%
X80300000Y-87100000D02*
X83200000Y-87100000D01*
X80300000Y-88075000D02*
X80300000Y-87100000D01*
X80625000Y-88400000D02*
X80300000Y-88075000D01*
X83200000Y-87100000D02*
X83200000Y-88400000D01*
X83200000Y-88400000D02*
X80625000Y-88400000D01*
%TO.C,R2*%
X88975000Y-83230000D02*
X90025000Y-83230000D01*
X88975000Y-83770000D02*
X88975000Y-83230000D01*
X90025000Y-83230000D02*
X90025000Y-83770000D01*
X90025000Y-83770000D02*
X88975000Y-83770000D01*
%TO.C,D1*%
X89700000Y-84750000D02*
X90200000Y-84750000D01*
X89700000Y-84850000D02*
X90200000Y-84850000D01*
X89700000Y-84950000D02*
X90200000Y-84950000D01*
X89700000Y-85750000D02*
X89700000Y-84750000D01*
X90200000Y-84750000D02*
X90200000Y-85750000D01*
X90200000Y-85750000D02*
X89700000Y-85750000D01*
%TO.C,D2*%
X91200000Y-85850000D02*
X91200000Y-86350000D01*
X91200000Y-86350000D02*
X92800000Y-86350000D01*
X91500000Y-85550000D02*
X91200000Y-85850000D01*
X92800000Y-85550000D02*
X91500000Y-85550000D01*
X92800000Y-86350000D02*
X92800000Y-85550000D01*
%TO.C,R8*%
X93475000Y-82980000D02*
X94525000Y-82980000D01*
X93475000Y-83520000D02*
X93475000Y-82980000D01*
X94525000Y-82980000D02*
X94525000Y-83520000D01*
X94525000Y-83520000D02*
X93475000Y-83520000D01*
%TO.C,U4*%
X88200000Y-79300000D02*
X89800000Y-79300000D01*
X88200000Y-82200000D02*
X88200000Y-79300000D01*
X89400000Y-82200000D02*
X88200000Y-82200000D01*
X89800000Y-79300000D02*
X89800000Y-81800000D01*
X89800000Y-81800000D02*
X89400000Y-82200000D01*
%TO.C,R10*%
X83730000Y-87725000D02*
X84270000Y-87725000D01*
X83730000Y-88775000D02*
X83730000Y-87725000D01*
X84270000Y-87725000D02*
X84270000Y-88775000D01*
X84270000Y-88775000D02*
X83730000Y-88775000D01*
%TO.C,J6*%
X92000000Y-68030000D02*
X93450000Y-68030000D01*
X92000000Y-68430000D02*
X92000000Y-68030000D01*
X92000000Y-70570000D02*
X93450000Y-70570000D01*
X92000000Y-70970000D02*
X92000000Y-70570000D01*
X93450000Y-66325000D02*
X95550000Y-66325000D01*
X93450000Y-68430000D02*
X92000000Y-68430000D01*
X93450000Y-70970000D02*
X92000000Y-70970000D01*
X93450000Y-72675000D02*
X93450000Y-66325000D01*
X95115000Y-72675000D02*
X93450000Y-72675000D01*
X95550000Y-66325000D02*
X95550000Y-72240000D01*
X95550000Y-67160000D02*
X97000000Y-67160000D01*
X95550000Y-69700000D02*
X97000000Y-69700000D01*
X95550000Y-72240000D02*
X95115000Y-72675000D01*
X95550000Y-72240000D02*
X97000000Y-72240000D01*
X97000000Y-66760000D02*
X95550000Y-66760000D01*
X97000000Y-67160000D02*
X97000000Y-66760000D01*
X97000000Y-69300000D02*
X95550000Y-69300000D01*
X97000000Y-69700000D02*
X97000000Y-69300000D01*
X97000000Y-71840000D02*
X95550000Y-71840000D01*
X97000000Y-72240000D02*
X97000000Y-71840000D01*
D16*
%TO.C,S1*%
X95000000Y-84200000D02*
X97775000Y-84200000D01*
X95000000Y-90800000D02*
X95000000Y-84200000D01*
X97775000Y-84200000D02*
X97775000Y-90800000D01*
X97775000Y-90800000D02*
X95000000Y-90800000D01*
D15*
%TO.C,J3*%
X85825000Y-62950000D02*
X91740000Y-62950000D01*
X85825000Y-65050000D02*
X85825000Y-62950000D01*
X86260000Y-61500000D02*
X86260000Y-62950000D01*
X86660000Y-61500000D02*
X86260000Y-61500000D01*
X86660000Y-62950000D02*
X86660000Y-61500000D01*
X87530000Y-66500000D02*
X87530000Y-65050000D01*
X87930000Y-65050000D02*
X87930000Y-66500000D01*
X87930000Y-66500000D02*
X87530000Y-66500000D01*
X88800000Y-61500000D02*
X88800000Y-62950000D01*
X89200000Y-61500000D02*
X88800000Y-61500000D01*
X89200000Y-62950000D02*
X89200000Y-61500000D01*
X90070000Y-66500000D02*
X90070000Y-65050000D01*
X90470000Y-65050000D02*
X90470000Y-66500000D01*
X90470000Y-66500000D02*
X90070000Y-66500000D01*
X91340000Y-61500000D02*
X91340000Y-62950000D01*
X91740000Y-61500000D02*
X91340000Y-61500000D01*
X91740000Y-62950000D02*
X91740000Y-61500000D01*
X91740000Y-62950000D02*
X92175000Y-63385000D01*
X92175000Y-63385000D02*
X92175000Y-65050000D01*
X92175000Y-65050000D02*
X85825000Y-65050000D01*
%TO.C,C1*%
X86250000Y-80750000D02*
X86750000Y-80750000D01*
X86250000Y-81750000D02*
X86250000Y-80750000D01*
X86750000Y-80750000D02*
X86750000Y-81750000D01*
X86750000Y-81750000D02*
X86250000Y-81750000D01*
%TO.C,R7*%
X87430000Y-87775000D02*
X87970000Y-87775000D01*
X87430000Y-88825000D02*
X87430000Y-87775000D01*
X87970000Y-87775000D02*
X87970000Y-88825000D01*
X87970000Y-88825000D02*
X87430000Y-88825000D01*
%TO.C,U1*%
X87500000Y-68750000D02*
X88250000Y-68000000D01*
X87500000Y-71000000D02*
X87500000Y-68750000D01*
X88250000Y-68000000D02*
X90500000Y-68000000D01*
X90500000Y-68000000D02*
X90500000Y-71000000D01*
X90500000Y-71000000D02*
X87500000Y-71000000D01*
%TO.C,R9*%
X92825000Y-88180000D02*
X93875000Y-88180000D01*
X92825000Y-88720000D02*
X92825000Y-88180000D01*
X93875000Y-88180000D02*
X93875000Y-88720000D01*
X93875000Y-88720000D02*
X92825000Y-88720000D01*
%TO.C,Q1*%
X91200000Y-83400000D02*
X92800000Y-83400000D01*
X91200000Y-84300000D02*
X91200000Y-83400000D01*
X91500000Y-84600000D02*
X91200000Y-84300000D01*
X92800000Y-83400000D02*
X92800000Y-84600000D01*
X92800000Y-84600000D02*
X91500000Y-84600000D01*
%TO.C,J2*%
X84530000Y-90325000D02*
X84530000Y-97675000D01*
X84530000Y-90325000D02*
X93470000Y-90325000D01*
X84530000Y-97675000D02*
X93470000Y-97675000D01*
X93470000Y-97675000D02*
X93470000Y-90325000D01*
%TO.C,R3*%
X85330000Y-87775000D02*
X85870000Y-87775000D01*
X85330000Y-88825000D02*
X85330000Y-87775000D01*
X85870000Y-87775000D02*
X85870000Y-88825000D01*
X85870000Y-88825000D02*
X85330000Y-88825000D01*
%TO.C,R5*%
X88430000Y-87775000D02*
X88970000Y-87775000D01*
X88430000Y-88825000D02*
X88430000Y-87775000D01*
X88970000Y-87775000D02*
X88970000Y-88825000D01*
X88970000Y-88825000D02*
X88430000Y-88825000D01*
%TO.C,R1*%
X88680000Y-84725000D02*
X89220000Y-84725000D01*
X88680000Y-85775000D02*
X88680000Y-84725000D01*
X89220000Y-84725000D02*
X89220000Y-85775000D01*
X89220000Y-85775000D02*
X88680000Y-85775000D01*
%TO.C,U2*%
X85600000Y-83650000D02*
X86000000Y-83250000D01*
X85600000Y-86150000D02*
X85600000Y-83650000D01*
X86000000Y-83250000D02*
X87200000Y-83250000D01*
X87200000Y-83250000D02*
X87200000Y-86150000D01*
X87200000Y-86150000D02*
X85600000Y-86150000D01*
%TD*%
M02*
