M48
; DRILL file {KiCad 8.0.9-8.0.9-0~ubuntu20.04.1} date 2025-06-12T23:47:12+0100
; FORMAT={-:-/ absolute / metric / decimal}
; #@! TF.CreationDate,2025-06-12T23:47:12+01:00
; #@! TF.GenerationSoftware,Kicad,Pcbnew,8.0.9-8.0.9-0~ubuntu20.04.1
; #@! TF.FileFunction,Plated,1,2,PTH
FMAT,2
METRIC
; #@! TA.AperFunction,Plated,PTH,ViaDrill
T1C0.300
; #@! TA.AperFunction,Plated,PTH,ViaDrill
T2C0.500
; #@! TA.AperFunction,Plated,PTH,ComponentDrill
T3C0.600
%
G90
G05
T1
X80.8Y-86.55
X80.8Y-87.3
X81.75Y-88.1
X81.75Y-88.7
X81.75Y-89.3
X82.25Y-65.5
X82.25Y-73.5
X83.3Y-84.0
X83.3Y-84.7
X83.7Y-64.2
X83.7Y-74.8
X84.05Y-84.0
X84.05Y-84.7
X85.0Y-62.75
X85.0Y-65.5
X85.0Y-73.5
X85.0Y-76.25
X85.6Y-87.79
X85.7Y-86.8
X86.418Y-86.409
X86.881Y-86.976
X87.5Y-79.0
X87.5Y-81.75
X88.3Y-81.75
X88.95Y-85.76
X89.0Y-69.5
X89.7Y-87.79
X90.15Y-80.75
X90.5Y-79.05
X91.0Y-70.956
X91.5Y-82.1
X91.897Y-65.75
X92.5Y-80.0
X93.0Y-62.75
X93.0Y-65.5
X93.0Y-73.5
X93.0Y-76.25
X94.3Y-64.2
X94.3Y-74.8
X94.65Y-82.15
X94.75Y-73.25
X95.35Y-82.7
X95.75Y-65.5
X96.0Y-73.5
X96.5Y-68.25
T2
X86.46Y-73.25
T3
G00X84.68Y-90.345
M15
G01X84.68Y-91.445
M16
G05
G00X84.68Y-94.775
M15
G01X84.68Y-95.375
M16
G05
G00X93.32Y-90.345
M15
G01X93.32Y-91.445
M16
G05
G00X93.32Y-94.775
M15
G01X93.32Y-95.375
M16
G05
M30
