  0
SECTION
  2
HEADER
  9
$ANGBASE
  50
0.0
  9
$ANGDIR
  70
1
  9
$MEASUREMENT
  70
1
  0
ENDSEC
  0
SECTION
  2
TABLES
  0
TABLE
  2
LTYPE
  70
4
  0
LTYPE
  5
40F
  2
CONTINUOUS
  70
0
  3
Solid line
  72
65
  73
0
  40
0.0
  0
LTYPE
  5
410
  2
DASHDOT
 70
0
  3
Dash Dot ____ _ ____ _
 72
65
 73
4
 40
2.0
 49
1.25
 49
-0.25
 49
0.25
 49
-0.25
  0
LTYPE
  5
411
  2
DASHED
 70
0
  3
Dashed __ __ __ __ __
 72
65
 73
2
 40
0.75
 49
0.5
 49
-0.25
  0
LTYPE
  5
43B
  2
DOTTED
 70
0
  3
Dotted .  .  .  .
 72
65
 73
2
 40
0.2
 49
0.0
 49
-0.2
  0
ENDTAB
  0
TABLE
  2
STYLE
  70
4
  0
STYLE
  2
KICAD
  70
0
  40
0
  41
1
  42
1
  50
0
  71
0
  3
isocp.shx
  0
STYLE
  2
KICADB
  70
0
  40
0
  41
1
  42
1
  50
0
  71
0
  3
isocp.shx
  0
STYLE
  2
KICADI
  70
0
  40
0
  41
1
  42
1
  50
15
  71
0
  3
isocp.shx
  0
STYLE
  2
KICADBI
  70
0
  40
0
  41
1
  42
1
  50
15
  71
0
  3
isocp.shx
  0
ENDTAB
  0
TABLE
  2
LAYER
  70
1
  0
LAYER
  2
BLACK
  70
0
  62
7
  6
CONTINUOUS
  0
ENDTAB
  0
ENDSEC
  0
SECTION
  2
ENTITIES
0
LINE
8
BLACK
6
CONTINUOUS
10
97.750001999999995
20
-66.2499979999999908
11
97.75
21
-72.75
0
LINE
8
BLACK
6
CONTINUOUS
10
93.1338829999999973
20
-61.1161169999999956
11
97.3838849999999923
21
-65.3661149999999935
0
LINE
8
BLACK
6
CONTINUOUS
10
98.000001999999995
20
-90.75
11
98.000001999999995
21
-84.4999979999999908
0
ARC
8
BLACK
10
96.5
20
-72.75
40
1.2500020000015999
50
-45.00000000
51
-0.00009167
0
ARC
8
BLACK
10
96.75
20
-84.5
40
1.250002154578143
50
0.00009167
51
45.00000000
0
LINE
8
BLACK
6
CONTINUOUS
10
97.6338849999999923
20
-91.6338829999999973
11
93.3838849999999923
21
-95.8838849999999923
0
CIRCLE
8
BLACK
10
88.
20
-78.5
40
0.25
0
LINE
8
BLACK
6
CONTINUOUS
10
84.6161170000000027
20
-95.8838829999999973
11
80.3661149999999935
21
-91.6338849999999923
0
ARC
8
BLACK
10
85.75
20
-62.
40
1.250002154578143
50
90.00009167
51
135.00000000
0
ARC
8
BLACK
10
81.5
20
-66.25
40
1.25
50
135.00000000
51
180.00000000
0
LINE
8
BLACK
6
CONTINUOUS
10
80.6161170000000027
20
-65.3661170000000027
11
84.8661149999999935
21
-61.1161150000000006
0
ARC
8
BLACK
10
85.25
20
-78.5
40
0.25
50
-90.00000000
51
90.00000000
0
ARC
8
BLACK
10
92.75
20
-78.5
40
0.25
50
-270.00000000
51
-90.00000000
0
LINE
8
BLACK
6
CONTINUOUS
10
80.2499979999999908
20
-72.750001999999995
11
80.25
21
-66.25
0
ARC
8
BLACK
10
81.25
20
-90.75
40
1.250002154578143
50
-179.99990833
51
-135.00000000
0
ARC
8
BLACK
10
96.5
20
-66.25
40
1.250002154578143
50
0.00009167
51
45.00000000
0
ARC
8
BLACK
10
81.5
20
-72.75
40
1.250002154578143
50
-179.99990833
51
-135.00000000
0
CIRCLE
8
BLACK
10
91.7999999999999972
20
-78.5
40
0.25
0
LINE
8
BLACK
6
CONTINUOUS
10
80.3661149999999935
20
-83.6161149999999935
11
85.25
21
-78.75
0
CIRCLE
8
BLACK
10
87.0999999999999943
20
-78.5
40
0.25
0
LINE
8
BLACK
6
CONTINUOUS
10
85.5
20
-96.25
11
92.500001999999995
21
-96.250001999999995
0
CIRCLE
8
BLACK
10
90.8999999999999915
20
-78.5
40
0.25
0
LINE
8
BLACK
6
CONTINUOUS
10
79.9999979999999908
20
-84.4999979999999908
11
79.9999979999999908
21
-90.750001999999995
0
ARC
8
BLACK
10
81.25
20
-84.5
40
1.2500020000015999
50
135.00000000
51
179.99990833
0
LINE
8
BLACK
6
CONTINUOUS
10
85.7499979999999908
20
-60.7499979999999979
11
92.25
21
-60.75
0
LINE
8
BLACK
6
CONTINUOUS
10
97.3838849999999923
20
-73.6338849999999923
11
92.75
21
-78.25
0
ARC
8
BLACK
10
92.25
20
-62.
40
1.25
50
45.00000000
51
90.00000000
0
LINE
8
BLACK
6
CONTINUOUS
10
85.25
20
-78.25
11
80.6161149999999935
21
-73.6338849999999923
0
CIRCLE
8
BLACK
10
90.
20
-78.5
40
0.25
0
ARC
8
BLACK
10
92.5
20
-95.
40
1.250002154578143
50
-89.99990833
51
-45.00000000
0
ARC
8
BLACK
10
96.75
20
-90.75
40
1.2500019999999998
50
-44.99993518
51
-0.00000000
0
LINE
8
BLACK
6
CONTINUOUS
10
97.6338849999999923
20
-83.6161149999999935
11
92.75
21
-78.75
0
CIRCLE
8
BLACK
10
89.
20
-78.5
40
0.25
0
CIRCLE
8
BLACK
10
86.2000000000000028
20
-78.5
40
0.25
0
ARC
8
BLACK
10
85.5
20
-95.
40
1.25
50
-135.00000000
51
-90.00000000
0
CIRCLE
8
BLACK
10
96.75
20
-86.
40
0.449999
0
CIRCLE
8
BLACK
10
96.75
20
-89.
40
0.449999
0
CIRCLE
8
BLACK
10
86.1099999999999994
20
-91.394999999999996
40
0.324999
0
CIRCLE
8
BLACK
10
91.8900000000000006
20
-91.394999999999996
40
0.324999
0
LINE
8
BLACK
6
CONTINUOUS
10
84.3799999999999955
20
-90.3449999999999989
11
84.3799999999999955
21
-91.4449999999999932
0
ARC
8
BLACK
10
84.6799999999999926
20
-91.4449999999999932
40
0.3
50
-180.00000000
51
0.00000000
0
LINE
8
BLACK
6
CONTINUOUS
10
84.9799999999999898
20
-91.4449999999999932
11
84.9799999999999898
21
-90.3449999999999989
0
ARC
8
BLACK
10
84.6799999999999926
20
-90.3449999999999989
40
0.3
50
0.00000000
51
180.00000000
0
LINE
8
BLACK
6
CONTINUOUS
10
84.3799999999999955
20
-94.7749999999999915
11
84.3799999999999955
21
-95.375
0
ARC
8
BLACK
10
84.6799999999999926
20
-95.375
40
0.3
50
-180.00000000
51
0.00000000
0
LINE
8
BLACK
6
CONTINUOUS
10
84.9799999999999898
20
-95.375
11
84.9799999999999898
21
-94.7749999999999915
0
ARC
8
BLACK
10
84.6799999999999926
20
-94.7749999999999915
40
0.3
50
0.00000000
51
180.00000000
0
LINE
8
BLACK
6
CONTINUOUS
10
93.019999999999996
20
-90.3449999999999989
11
93.019999999999996
21
-91.4449999999999932
0
ARC
8
BLACK
10
93.3199999999999932
20
-91.4449999999999932
40
0.3
50
-180.00000000
51
0.00000000
0
LINE
8
BLACK
6
CONTINUOUS
10
93.6199999999999903
20
-91.4449999999999932
11
93.6199999999999903
21
-90.3449999999999989
0
ARC
8
BLACK
10
93.3199999999999932
20
-90.3449999999999989
40
0.3
50
0.00000000
51
180.00000000
0
LINE
8
BLACK
6
CONTINUOUS
10
93.019999999999996
20
-94.7749999999999915
11
93.019999999999996
21
-95.375
0
ARC
8
BLACK
10
93.3199999999999932
20
-95.375
40
0.3
50
-180.00000000
51
0.00000000
0
LINE
8
BLACK
6
CONTINUOUS
10
93.6199999999999903
20
-95.375
11
93.6199999999999903
21
-94.7749999999999915
0
ARC
8
BLACK
10
93.3199999999999932
20
-94.7749999999999915
40
0.3
50
0.00000000
51
180.00000000
0
CIRCLE
8
BLACK
10
92.7659999999999911
20
-66.9599999999999937
40
0.495299
0
CIRCLE
8
BLACK
10
93.7819999999999965
20
-72.039999999999992
40
0.495299
0
CIRCLE
8
BLACK
10
91.75
20
-72.039999999999992
40
0.495299
0
CIRCLE
8
BLACK
10
96.75
20
-86.
40
0.449999
0
CIRCLE
8
BLACK
10
96.75
20
-89.
40
0.449999
0
CIRCLE
8
BLACK
10
86.1099999999999994
20
-91.394999999999996
40
0.324999
0
CIRCLE
8
BLACK
10
91.8900000000000006
20
-91.394999999999996
40
0.324999
0
LINE
8
BLACK
6
CONTINUOUS
10
84.3799999999999955
20
-90.3449999999999989
11
84.3799999999999955
21
-91.4449999999999932
0
ARC
8
BLACK
10
84.6799999999999926
20
-91.4449999999999932
40
0.3
50
-180.00000000
51
0.00000000
0
LINE
8
BLACK
6
CONTINUOUS
10
84.9799999999999898
20
-91.4449999999999932
11
84.9799999999999898
21
-90.3449999999999989
0
ARC
8
BLACK
10
84.6799999999999926
20
-90.3449999999999989
40
0.3
50
0.00000000
51
180.00000000
0
LINE
8
BLACK
6
CONTINUOUS
10
84.3799999999999955
20
-94.7749999999999915
11
84.3799999999999955
21
-95.375
0
ARC
8
BLACK
10
84.6799999999999926
20
-95.375
40
0.3
50
-180.00000000
51
0.00000000
0
LINE
8
BLACK
6
CONTINUOUS
10
84.9799999999999898
20
-95.375
11
84.9799999999999898
21
-94.7749999999999915
0
ARC
8
BLACK
10
84.6799999999999926
20
-94.7749999999999915
40
0.3
50
0.00000000
51
180.00000000
0
LINE
8
BLACK
6
CONTINUOUS
10
93.019999999999996
20
-90.3449999999999989
11
93.019999999999996
21
-91.4449999999999932
0
ARC
8
BLACK
10
93.3199999999999932
20
-91.4449999999999932
40
0.3
50
-180.00000000
51
0.00000000
0
LINE
8
BLACK
6
CONTINUOUS
10
93.6199999999999903
20
-91.4449999999999932
11
93.6199999999999903
21
-90.3449999999999989
0
ARC
8
BLACK
10
93.3199999999999932
20
-90.3449999999999989
40
0.3
50
0.00000000
51
180.00000000
0
LINE
8
BLACK
6
CONTINUOUS
10
93.019999999999996
20
-94.7749999999999915
11
93.019999999999996
21
-95.375
0
ARC
8
BLACK
10
93.3199999999999932
20
-95.375
40
0.3
50
-180.00000000
51
0.00000000
0
LINE
8
BLACK
6
CONTINUOUS
10
93.6199999999999903
20
-95.375
11
93.6199999999999903
21
-94.7749999999999915
0
ARC
8
BLACK
10
93.3199999999999932
20
-94.7749999999999915
40
0.3
50
0.00000000
51
180.00000000
0
CIRCLE
8
BLACK
10
92.7659999999999911
20
-66.9599999999999937
40
0.495299
0
CIRCLE
8
BLACK
10
93.7819999999999965
20
-72.039999999999992
40
0.495299
0
CIRCLE
8
BLACK
10
91.75
20
-72.039999999999992
40
0.495299
  0
ENDSEC
  0
EOF
