%TF.GenerationSoftware,KiCad,Pcbnew,8.0.9-8.0.9-0~ubuntu20.04.1*%
%TF.CreationDate,2025-06-13T22:30:41+01:00*%
%TF.ProjectId,ch32-breakout,63683332-2d62-4726-9561-6b6f75742e6b,rev?*%
%TF.SameCoordinates,Original*%
%TF.FileFunction,Copper,L2,Bot*%
%TF.FilePolarity,Positive*%
%FSLAX46Y46*%
G04 Gerber Fmt 4.6, Leading zero omitted, Abs format (unit mm)*
G04 Created by KiCad (PCBNEW 8.0.9-8.0.9-0~ubuntu20.04.1) date 2025-06-13 22:30:41*
%MOMM*%
%LPD*%
G01*
G04 APERTURE LIST*
%TA.AperFunction,HeatsinkPad*%
%ADD10O,1.000000X2.100000*%
%TD*%
%TA.AperFunction,HeatsinkPad*%
%ADD11O,1.000000X1.600000*%
%TD*%
%TA.AperFunction,ConnectorPad*%
%ADD12C,0.787400*%
%TD*%
%TA.AperFunction,ViaPad*%
%ADD13C,0.500000*%
%TD*%
%TA.AperFunction,ViaPad*%
%ADD14C,0.800000*%
%TD*%
%TA.AperFunction,ViaPad*%
%ADD15C,0.600000*%
%TD*%
%TA.AperFunction,Conductor*%
%ADD16C,0.200000*%
%TD*%
G04 APERTURE END LIST*
D10*
%TO.P,J2,S1,SHIELD*%
%TO.N,GND*%
X84680000Y-90895000D03*
D11*
X84680000Y-95075000D03*
D10*
X93320000Y-90895000D03*
D11*
X93320000Y-95075000D03*
%TD*%
D12*
%TO.P,J1,1,VCC*%
%TO.N,+3.3V*%
X93401000Y-68230000D03*
%TO.P,J1,2,SWDIO*%
%TO.N,/SWDIO*%
X92131000Y-68230000D03*
%TO.P,J1,3,~{RESET}*%
%TO.N,unconnected-(J1-~{RESET}-Pad3)*%
X93401000Y-69500000D03*
%TO.P,J1,4,SWCLK*%
%TO.N,unconnected-(J1-SWCLK-Pad4)*%
X92131000Y-69500000D03*
%TO.P,J1,5,GND*%
%TO.N,GND*%
X93401000Y-70770000D03*
%TO.P,J1,6,SWO*%
%TO.N,unconnected-(J1-SWO-Pad6)*%
X92131000Y-70770000D03*
%TD*%
D13*
%TO.N,GND*%
X88950000Y-85760000D03*
X84050000Y-84000000D03*
X93000000Y-73500000D03*
X93000000Y-62750000D03*
X90150000Y-80750000D03*
X80800000Y-86550000D03*
X81750000Y-88100000D03*
X93000000Y-65500000D03*
X94300000Y-64200000D03*
X93000000Y-76250000D03*
X84050000Y-84700000D03*
X81750000Y-89300000D03*
X94650000Y-82150000D03*
X83700000Y-74800000D03*
X96000000Y-73500000D03*
X83300000Y-84000000D03*
X91500000Y-82100000D03*
X82250000Y-65500000D03*
X81750000Y-88700000D03*
X87500000Y-81750000D03*
X89700000Y-87790000D03*
X88300000Y-81750000D03*
X85000000Y-65500000D03*
X80800000Y-87300000D03*
X94300000Y-74800000D03*
X83300000Y-84700000D03*
X82250000Y-73500000D03*
X95750000Y-65500000D03*
X85000000Y-62750000D03*
X83700000Y-64200000D03*
X85000000Y-76250000D03*
X85000000Y-73500000D03*
X92500000Y-80000000D03*
X85600000Y-87790000D03*
X89000000Y-69500000D03*
X95350000Y-82700000D03*
D14*
%TO.N,+3.3V*%
X86460000Y-73250000D03*
D13*
%TO.N,/SWDIO*%
X91897500Y-65750000D03*
%TO.N,D+*%
X87500000Y-79000000D03*
X86418374Y-86409034D03*
%TO.N,D-*%
X90500000Y-79050000D03*
X85700000Y-86800000D03*
%TO.N,DPU*%
X96500000Y-68250000D03*
X86880594Y-86976245D03*
D15*
%TO.N,/PC4*%
X94750000Y-73250000D03*
X91000001Y-70956471D03*
%TD*%
D16*
%TO.N,+3.3V*%
X93794699Y-67557913D02*
X93794699Y-67340500D01*
X93080545Y-66130545D02*
X93444114Y-66494114D01*
X93597849Y-68033150D02*
X93401000Y-68230000D01*
X91084840Y-65784840D02*
X91536297Y-65333384D01*
X86534246Y-72965753D02*
X89570042Y-69929957D01*
X90500000Y-67196772D02*
X90500000Y-67684841D01*
X92548223Y-65826041D02*
X92691636Y-65969454D01*
X92351776Y-65351776D02*
X92325000Y-65325000D01*
X92023223Y-65200000D02*
X91858315Y-65200000D01*
X86460000Y-73250000D02*
X86460000Y-73145000D01*
X92450000Y-65588909D02*
G75*
G03*
X92548218Y-65826046I335400J9D01*
G01*
X91858315Y-65200000D02*
G75*
G03*
X91536290Y-65333377I-15J-455400D01*
G01*
X92691636Y-65969454D02*
G75*
G03*
X92886091Y-66050007I194464J194454D01*
G01*
X93794699Y-67557913D02*
G75*
G02*
X93597845Y-68033146I-672099J13D01*
G01*
X86534246Y-72965753D02*
G75*
G03*
X86460002Y-73145000I179254J-179247D01*
G01*
X92325000Y-65325000D02*
G75*
G03*
X92023223Y-65199990I-301800J-301800D01*
G01*
X93444114Y-66494114D02*
G75*
G02*
X93794690Y-67340500I-846414J-846386D01*
G01*
X92351776Y-65351776D02*
G75*
G02*
X92449981Y-65588909I-237176J-237124D01*
G01*
X90500000Y-67684841D02*
G75*
G02*
X89570027Y-69929942I-3175100J41D01*
G01*
X91084840Y-65784840D02*
G75*
G03*
X90499987Y-67196772I1411960J-1411960D01*
G01*
X93080545Y-66130545D02*
G75*
G03*
X92886091Y-66050006I-194445J-194455D01*
G01*
%TO.N,/SWDIO*%
X91934150Y-68033150D02*
X92131000Y-68230000D01*
X91897500Y-66239222D02*
X91897500Y-65750000D01*
X91737301Y-67557913D02*
X91737301Y-66625976D01*
X91737301Y-67557913D02*
G75*
G03*
X91934154Y-68033146I672099J13D01*
G01*
X91897500Y-66239222D02*
G75*
G02*
X91817394Y-66432593I-273500J22D01*
G01*
X91817400Y-66432599D02*
G75*
G03*
X91737290Y-66625976I193400J-193401D01*
G01*
%TO.N,D+*%
X86000000Y-85694824D02*
X86000000Y-81560660D01*
X87500000Y-79000000D02*
X86750000Y-79750000D01*
X86418374Y-86409034D02*
X86209187Y-86199847D01*
X86000000Y-85694824D02*
G75*
G03*
X86209201Y-86199833I714200J24D01*
G01*
X86750000Y-79750000D02*
G75*
G03*
X85999954Y-81560660I1810600J-1810700D01*
G01*
%TO.N,D-*%
X87430594Y-86076491D02*
X87430594Y-87173148D01*
X89757843Y-79050000D02*
X90500000Y-79050000D01*
X87431271Y-80634412D02*
X88490901Y-79574784D01*
X86800000Y-82158434D02*
X86800000Y-84554102D01*
X86825000Y-87526245D02*
X87077497Y-87526245D01*
X86144282Y-87244282D02*
X85700000Y-86800000D01*
X86144282Y-87244282D02*
G75*
G03*
X86825000Y-87526255I680718J680682D01*
G01*
X86800000Y-84554102D02*
G75*
G03*
X87115297Y-85315297I1076500J2D01*
G01*
X87430594Y-87173148D02*
G75*
G02*
X87327150Y-87422801I-353094J48D01*
G01*
X87115297Y-85315297D02*
G75*
G02*
X87430599Y-86076491I-761197J-761203D01*
G01*
X87327174Y-87422825D02*
G75*
G02*
X87077497Y-87526228I-249674J249725D01*
G01*
X87431271Y-80634412D02*
G75*
G03*
X86800027Y-82158434I1524029J-1523988D01*
G01*
X89757843Y-79050000D02*
G75*
G03*
X88490885Y-79574768I-43J-1791700D01*
G01*
%TO.N,DPU*%
X96750000Y-73055499D02*
X96750000Y-68676776D01*
X88500000Y-78432622D02*
X88500000Y-78574935D01*
X96625000Y-68375000D02*
X96500000Y-68250000D01*
X86400000Y-82035405D02*
X86400000Y-85098098D01*
X87061434Y-80438563D02*
X88199434Y-79300565D01*
X90713844Y-77750000D02*
X89182622Y-77750000D01*
X86968374Y-86405899D02*
X86968374Y-86826395D01*
X93810490Y-76467326D02*
X96416021Y-73861796D01*
X86880594Y-86976245D02*
X86924484Y-86932355D01*
X86684187Y-85784187D02*
X86729696Y-85829694D01*
X88500000Y-78574935D02*
G75*
G02*
X88199417Y-79300548I-1026200J35D01*
G01*
X93810490Y-76467326D02*
G75*
G02*
X90713844Y-77750036I-3096690J3096626D01*
G01*
X96625000Y-68375000D02*
G75*
G02*
X96750010Y-68676776I-301800J-301800D01*
G01*
X86968374Y-86826395D02*
G75*
G02*
X86924491Y-86932362I-149874J-5D01*
G01*
X86400000Y-85098098D02*
G75*
G03*
X86684181Y-85784193I970300J-2D01*
G01*
X89182622Y-77750000D02*
G75*
G03*
X88699929Y-77949929I-22J-682600D01*
G01*
X88699935Y-77949935D02*
G75*
G03*
X88500009Y-78432622I482665J-482665D01*
G01*
X86729696Y-85829694D02*
G75*
G02*
X86968371Y-86405899I-576196J-576206D01*
G01*
X96750000Y-73055499D02*
G75*
G02*
X96416026Y-73861801I-1140300J-1D01*
G01*
X87061434Y-80438563D02*
G75*
G03*
X86400011Y-82035405I1596866J-1596837D01*
G01*
%TO.N,/PC4*%
X94220829Y-73250000D02*
X94750000Y-73250000D01*
X90904700Y-72075355D02*
X90904700Y-71119159D01*
X91000001Y-70956471D02*
X90952350Y-71004121D01*
X91664644Y-72835300D02*
X92019107Y-72835300D01*
X93013722Y-72750000D02*
X92225040Y-72750000D01*
X92122074Y-72792650D02*
G75*
G02*
X92019107Y-72835310I-102974J102950D01*
G01*
X90952350Y-71004121D02*
G75*
G03*
X90904674Y-71119159I115050J-115079D01*
G01*
X91127282Y-72612717D02*
G75*
G03*
X91664644Y-72835282I537318J537317D01*
G01*
X93617276Y-73000000D02*
G75*
G03*
X94220829Y-73249966I603524J603600D01*
G01*
X90904700Y-72075355D02*
G75*
G03*
X91127269Y-72612730I759900J-45D01*
G01*
X93617276Y-73000000D02*
G75*
G03*
X93013722Y-72749968I-603576J-603500D01*
G01*
X92225040Y-72750000D02*
G75*
G03*
X92122057Y-72792633I-40J-145600D01*
G01*
%TD*%
%TA.AperFunction,Conductor*%
%TO.N,GND*%
G36*
X85800668Y-78730502D02*
G01*
X85817731Y-78746772D01*
X85901948Y-78843965D01*
X85901950Y-78843966D01*
X85901951Y-78843967D01*
X86010931Y-78914004D01*
X86076676Y-78933308D01*
X86135225Y-78950499D01*
X86135227Y-78950500D01*
X86135228Y-78950500D01*
X86264773Y-78950500D01*
X86264773Y-78950499D01*
X86389069Y-78914004D01*
X86391795Y-78912251D01*
X86394906Y-78911338D01*
X86397131Y-78910322D01*
X86397277Y-78910641D01*
X86458830Y-78892566D01*
X86525870Y-78912248D01*
X86571627Y-78965050D01*
X86581574Y-79034208D01*
X86552551Y-79097765D01*
X86546516Y-79104247D01*
X86263999Y-79386764D01*
X86263563Y-79387261D01*
X86215615Y-79435207D01*
X86018575Y-79675289D01*
X86018562Y-79675307D01*
X85846007Y-79933538D01*
X85845997Y-79933554D01*
X85699588Y-80207453D01*
X85699580Y-80207469D01*
X85580719Y-80494407D01*
X85490552Y-80791624D01*
X85490550Y-80791630D01*
X85429953Y-81096245D01*
X85429952Y-81096250D01*
X85399502Y-81405357D01*
X85399501Y-81476469D01*
X85399500Y-81476497D01*
X85399500Y-81560651D01*
X85399499Y-81641158D01*
X85399500Y-81641175D01*
X85399500Y-85615128D01*
X85399498Y-85615166D01*
X85399498Y-85643464D01*
X85399478Y-85643532D01*
X85399482Y-85781014D01*
X85421983Y-85951882D01*
X85421985Y-85951891D01*
X85429590Y-85980269D01*
X85427929Y-86050119D01*
X85388767Y-86107982D01*
X85375788Y-86117359D01*
X85372311Y-86119543D01*
X85372310Y-86119544D01*
X85320166Y-86152307D01*
X85229109Y-86209523D01*
X85109523Y-86329109D01*
X85109518Y-86329115D01*
X85019547Y-86472302D01*
X85019545Y-86472305D01*
X84963685Y-86631943D01*
X84944751Y-86799997D01*
X84944751Y-86800002D01*
X84963685Y-86968056D01*
X85019545Y-87127694D01*
X85019547Y-87127697D01*
X85109518Y-87270884D01*
X85109523Y-87270890D01*
X85229109Y-87390476D01*
X85229115Y-87390481D01*
X85372302Y-87480452D01*
X85372308Y-87480455D01*
X85372310Y-87480456D01*
X85531941Y-87536313D01*
X85550960Y-87538455D01*
X85615373Y-87565520D01*
X85624759Y-87573995D01*
X85781445Y-87730681D01*
X85781540Y-87730764D01*
X85792104Y-87741328D01*
X85792115Y-87741338D01*
X85930444Y-87847486D01*
X85954674Y-87866079D01*
X86132134Y-87968540D01*
X86132137Y-87968541D01*
X86132146Y-87968546D01*
X86321444Y-88046958D01*
X86321446Y-88046958D01*
X86321449Y-88046960D01*
X86519381Y-88099997D01*
X86697147Y-88123401D01*
X86722542Y-88126745D01*
X86722543Y-88126745D01*
X87156559Y-88126745D01*
X87156785Y-88126715D01*
X87168915Y-88124135D01*
X87300774Y-88103255D01*
X87443517Y-88056882D01*
X87577250Y-87988753D01*
X87698680Y-87900544D01*
X87751748Y-87847486D01*
X87803311Y-87795933D01*
X87803314Y-87795927D01*
X87804513Y-87794729D01*
X87804780Y-87794416D01*
X87804795Y-87794402D01*
X87893031Y-87672984D01*
X87961187Y-87539258D01*
X88007586Y-87396518D01*
X88028529Y-87264388D01*
X88031049Y-87252541D01*
X88031094Y-87252202D01*
X88031094Y-87173066D01*
X88031103Y-87100316D01*
X88031102Y-87100312D01*
X88031103Y-87093006D01*
X88031094Y-87092838D01*
X88031094Y-86127853D01*
X88031098Y-86127835D01*
X88031098Y-86076486D01*
X88031099Y-86076486D01*
X88031099Y-86064071D01*
X96099499Y-86064071D01*
X96124497Y-86189738D01*
X96124499Y-86189744D01*
X96173533Y-86308124D01*
X96173538Y-86308133D01*
X96244723Y-86414668D01*
X96244726Y-86414672D01*
X96335327Y-86505273D01*
X96335331Y-86505276D01*
X96441866Y-86576461D01*
X96441872Y-86576464D01*
X96441873Y-86576465D01*
X96560256Y-86625501D01*
X96560260Y-86625501D01*
X96560261Y-86625502D01*
X96685928Y-86650500D01*
X96685931Y-86650500D01*
X96814071Y-86650500D01*
X96907369Y-86631941D01*
X96939744Y-86625501D01*
X97058127Y-86576465D01*
X97164669Y-86505276D01*
X97255276Y-86414669D01*
X97326465Y-86308127D01*
X97375501Y-86189744D01*
X97391765Y-86107982D01*
X97400500Y-86064071D01*
X97400500Y-85935928D01*
X97375502Y-85810261D01*
X97375501Y-85810260D01*
X97375501Y-85810256D01*
X97326465Y-85691873D01*
X97326464Y-85691872D01*
X97326461Y-85691866D01*
X97255276Y-85585331D01*
X97255273Y-85585327D01*
X97164672Y-85494726D01*
X97164668Y-85494723D01*
X97058133Y-85423538D01*
X97058124Y-85423533D01*
X96939744Y-85374499D01*
X96939738Y-85374497D01*
X96814071Y-85349500D01*
X96814069Y-85349500D01*
X96685931Y-85349500D01*
X96685929Y-85349500D01*
X96560261Y-85374497D01*
X96560255Y-85374499D01*
X96441875Y-85423533D01*
X96441866Y-85423538D01*
X96335331Y-85494723D01*
X96335327Y-85494726D01*
X96244726Y-85585327D01*
X96244723Y-85585331D01*
X96173538Y-85691866D01*
X96173533Y-85691875D01*
X96124499Y-85810255D01*
X96124497Y-85810261D01*
X96099500Y-85935928D01*
X96099500Y-85935931D01*
X96099500Y-86064069D01*
X96099500Y-86064071D01*
X96099499Y-86064071D01*
X88031099Y-86064071D01*
X88031098Y-85966570D01*
X88002402Y-85748620D01*
X87945504Y-85536279D01*
X87861377Y-85333182D01*
X87751461Y-85142803D01*
X87751458Y-85142800D01*
X87751457Y-85142797D01*
X87689373Y-85061889D01*
X87617635Y-84968400D01*
X87544231Y-84894996D01*
X87536058Y-84885979D01*
X87488467Y-84827988D01*
X87474963Y-84807777D01*
X87442493Y-84747030D01*
X87433191Y-84724574D01*
X87413192Y-84658649D01*
X87408450Y-84634810D01*
X87401097Y-84560149D01*
X87400500Y-84547996D01*
X87400500Y-82231342D01*
X87400501Y-82231338D01*
X87400500Y-82162488D01*
X87400765Y-82154381D01*
X87401022Y-82150447D01*
X87413267Y-81963581D01*
X87415381Y-81947520D01*
X87451888Y-81763973D01*
X87456081Y-81748323D01*
X87516233Y-81571114D01*
X87522433Y-81556144D01*
X87605202Y-81388299D01*
X87613309Y-81374260D01*
X87717271Y-81218663D01*
X87727127Y-81205818D01*
X87852960Y-81062328D01*
X87858464Y-81056452D01*
X88912073Y-80002846D01*
X88919194Y-79996263D01*
X89050238Y-79884343D01*
X89065968Y-79872914D01*
X89208719Y-79785438D01*
X89226035Y-79776616D01*
X89380713Y-79712549D01*
X89399208Y-79706540D01*
X89561999Y-79667461D01*
X89581211Y-79664419D01*
X89753268Y-79650881D01*
X89762990Y-79650500D01*
X89830742Y-79650501D01*
X89830746Y-79650500D01*
X90009337Y-79650500D01*
X90075308Y-79669505D01*
X90172310Y-79730456D01*
X90293621Y-79772904D01*
X90331943Y-79786314D01*
X90499997Y-79805249D01*
X90500000Y-79805249D01*
X90500003Y-79805249D01*
X90668056Y-79786314D01*
X90668059Y-79786313D01*
X90827690Y-79730456D01*
X90827692Y-79730454D01*
X90827694Y-79730454D01*
X90827697Y-79730452D01*
X90970884Y-79640481D01*
X90970885Y-79640480D01*
X90970890Y-79640477D01*
X91090477Y-79520890D01*
X91090481Y-79520884D01*
X91180452Y-79377697D01*
X91180454Y-79377694D01*
X91180454Y-79377692D01*
X91180456Y-79377690D01*
X91236313Y-79218059D01*
X91236313Y-79218058D01*
X91236314Y-79218056D01*
X91255249Y-79050002D01*
X91255249Y-79049997D01*
X91236430Y-78882980D01*
X91248484Y-78814158D01*
X91295833Y-78762779D01*
X91363443Y-78745154D01*
X91429849Y-78766880D01*
X91453363Y-78787894D01*
X91501948Y-78843965D01*
X91501950Y-78843966D01*
X91501951Y-78843967D01*
X91610931Y-78914004D01*
X91676676Y-78933308D01*
X91735225Y-78950499D01*
X91735227Y-78950500D01*
X91735228Y-78950500D01*
X91864773Y-78950500D01*
X91864773Y-78950499D01*
X91989069Y-78914004D01*
X92098049Y-78843967D01*
X92182268Y-78746771D01*
X92241045Y-78708997D01*
X92310914Y-78708996D01*
X92369693Y-78746770D01*
X92383365Y-78765969D01*
X92389511Y-78776613D01*
X92473387Y-78860489D01*
X92576114Y-78919799D01*
X92626534Y-78933309D01*
X92681958Y-78965241D01*
X95207504Y-81481597D01*
X97488586Y-83754379D01*
X97495355Y-83761689D01*
X97592725Y-83875695D01*
X97604162Y-83891436D01*
X97680014Y-84015214D01*
X97688848Y-84032552D01*
X97744399Y-84166665D01*
X97750412Y-84185170D01*
X97784302Y-84326331D01*
X97787346Y-84345549D01*
X97799120Y-84495144D01*
X97799502Y-84504873D01*
X97799502Y-90745124D01*
X97799120Y-90754853D01*
X97787346Y-90904450D01*
X97784302Y-90923668D01*
X97750414Y-91064824D01*
X97744401Y-91083331D01*
X97688847Y-91217447D01*
X97680014Y-91234782D01*
X97604165Y-91358559D01*
X97592727Y-91374302D01*
X97495282Y-91488394D01*
X97488673Y-91495543D01*
X94477037Y-94507181D01*
X94415714Y-94540666D01*
X94346022Y-94535682D01*
X94290089Y-94493810D01*
X94274795Y-94466952D01*
X94206192Y-94301328D01*
X94206185Y-94301315D01*
X94096751Y-94137537D01*
X94096748Y-94137533D01*
X93957466Y-93998251D01*
X93957462Y-93998248D01*
X93793684Y-93888814D01*
X93793671Y-93888807D01*
X93611691Y-93813429D01*
X93611683Y-93813427D01*
X93570000Y-93805135D01*
X93570000Y-94608011D01*
X93560060Y-94590795D01*
X93504205Y-94534940D01*
X93435796Y-94495444D01*
X93359496Y-94475000D01*
X93280504Y-94475000D01*
X93204204Y-94495444D01*
X93135795Y-94534940D01*
X93079940Y-94590795D01*
X93070000Y-94608011D01*
X93070000Y-93805136D01*
X93069999Y-93805135D01*
X93028316Y-93813427D01*
X93028308Y-93813429D01*
X92846328Y-93888807D01*
X92846315Y-93888814D01*
X92682537Y-93998248D01*
X92682533Y-93998251D01*
X92543251Y-94137533D01*
X92543248Y-94137537D01*
X92433814Y-94301315D01*
X92433807Y-94301328D01*
X92358430Y-94483306D01*
X92358427Y-94483318D01*
X92320000Y-94676504D01*
X92320000Y-94825000D01*
X93020000Y-94825000D01*
X93020000Y-95325000D01*
X92320000Y-95325000D01*
X92320000Y-95473495D01*
X92358427Y-95666681D01*
X92358430Y-95666693D01*
X92433807Y-95848671D01*
X92433812Y-95848680D01*
X92439109Y-95856607D01*
X92459988Y-95923284D01*
X92441505Y-95990665D01*
X92389527Y-96037356D01*
X92336008Y-96049500D01*
X85663992Y-96049500D01*
X85596953Y-96029815D01*
X85551198Y-95977011D01*
X85541254Y-95907853D01*
X85560891Y-95856607D01*
X85566187Y-95848680D01*
X85566192Y-95848671D01*
X85641569Y-95666693D01*
X85641572Y-95666681D01*
X85679999Y-95473495D01*
X85680000Y-95473492D01*
X85680000Y-95325000D01*
X84980000Y-95325000D01*
X84980000Y-94825000D01*
X85680000Y-94825000D01*
X85680000Y-94676508D01*
X85679999Y-94676504D01*
X85641572Y-94483318D01*
X85641569Y-94483306D01*
X85566192Y-94301328D01*
X85566185Y-94301315D01*
X85456751Y-94137537D01*
X85456748Y-94137533D01*
X85317466Y-93998251D01*
X85317462Y-93998248D01*
X85153684Y-93888814D01*
X85153671Y-93888807D01*
X84971691Y-93813429D01*
X84971683Y-93813427D01*
X84930000Y-93805135D01*
X84930000Y-94608011D01*
X84920060Y-94590795D01*
X84864205Y-94534940D01*
X84795796Y-94495444D01*
X84719496Y-94475000D01*
X84640504Y-94475000D01*
X84564204Y-94495444D01*
X84495795Y-94534940D01*
X84439940Y-94590795D01*
X84430000Y-94608011D01*
X84430000Y-93805136D01*
X84429999Y-93805135D01*
X84388316Y-93813427D01*
X84388308Y-93813429D01*
X84206328Y-93888807D01*
X84206315Y-93888814D01*
X84042537Y-93998248D01*
X84042533Y-93998251D01*
X83903251Y-94137533D01*
X83903248Y-94137537D01*
X83793814Y-94301315D01*
X83793809Y-94301324D01*
X83725205Y-94466952D01*
X83681364Y-94521355D01*
X83615070Y-94543420D01*
X83547371Y-94526141D01*
X83522963Y-94507180D01*
X80511336Y-91495556D01*
X80504726Y-91488406D01*
X80407271Y-91374300D01*
X80395835Y-91358560D01*
X80319979Y-91234775D01*
X80311154Y-91217453D01*
X80255597Y-91083325D01*
X80249589Y-91064835D01*
X80215697Y-90923668D01*
X80212653Y-90904450D01*
X80209902Y-90869500D01*
X80200880Y-90754853D01*
X80200498Y-90745126D01*
X80200498Y-90246504D01*
X83680000Y-90246504D01*
X83680000Y-90645000D01*
X84380000Y-90645000D01*
X84380000Y-91145000D01*
X83680000Y-91145000D01*
X83680000Y-91543495D01*
X83718427Y-91736681D01*
X83718430Y-91736693D01*
X83793807Y-91918671D01*
X83793814Y-91918684D01*
X83903248Y-92082462D01*
X83903251Y-92082466D01*
X84042533Y-92221748D01*
X84042537Y-92221751D01*
X84206315Y-92331185D01*
X84206328Y-92331192D01*
X84388308Y-92406569D01*
X84430000Y-92414862D01*
X84430000Y-91611988D01*
X84439940Y-91629205D01*
X84495795Y-91685060D01*
X84564204Y-91724556D01*
X84640504Y-91745000D01*
X84719496Y-91745000D01*
X84795796Y-91724556D01*
X84864205Y-91685060D01*
X84920060Y-91629205D01*
X84930000Y-91611988D01*
X84930000Y-92414862D01*
X84971690Y-92406569D01*
X84971692Y-92406569D01*
X85153671Y-92331192D01*
X85153684Y-92331185D01*
X85317462Y-92221751D01*
X85317466Y-92221748D01*
X85456748Y-92082466D01*
X85456751Y-92082462D01*
X85566185Y-91918684D01*
X85566190Y-91918674D01*
X85590160Y-91860804D01*
X85634000Y-91806399D01*
X85700293Y-91784333D01*
X85767993Y-91801611D01*
X85780375Y-91811229D01*
X85780890Y-91810559D01*
X85787333Y-91815503D01*
X85787335Y-91815505D01*
X85907164Y-91884688D01*
X86040817Y-91920500D01*
X86040819Y-91920500D01*
X86179181Y-91920500D01*
X86179183Y-91920500D01*
X86312836Y-91884688D01*
X86432665Y-91815505D01*
X86530505Y-91717665D01*
X86599688Y-91597836D01*
X86635500Y-91464183D01*
X86635500Y-91325817D01*
X91364500Y-91325817D01*
X91364500Y-91464183D01*
X91385752Y-91543495D01*
X91400312Y-91597835D01*
X91400313Y-91597838D01*
X91469492Y-91717661D01*
X91469494Y-91717664D01*
X91469495Y-91717665D01*
X91567335Y-91815505D01*
X91687164Y-91884688D01*
X91820817Y-91920500D01*
X91820819Y-91920500D01*
X91959181Y-91920500D01*
X91959183Y-91920500D01*
X92092836Y-91884688D01*
X92212665Y-91815505D01*
X92212669Y-91815500D01*
X92219110Y-91810559D01*
X92221133Y-91813196D01*
X92268830Y-91787107D01*
X92338525Y-91792040D01*
X92394489Y-91833870D01*
X92409838Y-91860802D01*
X92433807Y-91918672D01*
X92433814Y-91918684D01*
X92543248Y-92082462D01*
X92543251Y-92082466D01*
X92682533Y-92221748D01*
X92682537Y-92221751D01*
X92846315Y-92331185D01*
X92846328Y-92331192D01*
X93028308Y-92406569D01*
X93070000Y-92414862D01*
X93070000Y-91611988D01*
X93079940Y-91629205D01*
X93135795Y-91685060D01*
X93204204Y-91724556D01*
X93280504Y-91745000D01*
X93359496Y-91745000D01*
X93435796Y-91724556D01*
X93504205Y-91685060D01*
X93560060Y-91629205D01*
X93570000Y-91611988D01*
X93570000Y-92414862D01*
X93611690Y-92406569D01*
X93611692Y-92406569D01*
X93793671Y-92331192D01*
X93793684Y-92331185D01*
X93957462Y-92221751D01*
X93957466Y-92221748D01*
X94096748Y-92082466D01*
X94096751Y-92082462D01*
X94206185Y-91918684D01*
X94206192Y-91918671D01*
X94281569Y-91736693D01*
X94281572Y-91736681D01*
X94319999Y-91543495D01*
X94320000Y-91543492D01*
X94320000Y-91145000D01*
X93620000Y-91145000D01*
X93620000Y-90645000D01*
X94320000Y-90645000D01*
X94320000Y-90246508D01*
X94319999Y-90246504D01*
X94281572Y-90053318D01*
X94281569Y-90053306D01*
X94206192Y-89871328D01*
X94206185Y-89871315D01*
X94096751Y-89707537D01*
X94096748Y-89707533D01*
X93957466Y-89568251D01*
X93957462Y-89568248D01*
X93793684Y-89458814D01*
X93793671Y-89458807D01*
X93611691Y-89383429D01*
X93611683Y-89383427D01*
X93570000Y-89375135D01*
X93570000Y-90178011D01*
X93560060Y-90160795D01*
X93504205Y-90104940D01*
X93435796Y-90065444D01*
X93359496Y-90045000D01*
X93280504Y-90045000D01*
X93204204Y-90065444D01*
X93135795Y-90104940D01*
X93079940Y-90160795D01*
X93070000Y-90178011D01*
X93070000Y-89375136D01*
X93069999Y-89375135D01*
X93028316Y-89383427D01*
X93028308Y-89383429D01*
X92846328Y-89458807D01*
X92846315Y-89458814D01*
X92682537Y-89568248D01*
X92682533Y-89568251D01*
X92543251Y-89707533D01*
X92543248Y-89707537D01*
X92433814Y-89871315D01*
X92433807Y-89871328D01*
X92358430Y-90053306D01*
X92358427Y-90053318D01*
X92320000Y-90246504D01*
X92320000Y-90645000D01*
X93020000Y-90645000D01*
X93020000Y-91145000D01*
X92424050Y-91145000D01*
X92357011Y-91125315D01*
X92316663Y-91083001D01*
X92310505Y-91072335D01*
X92212666Y-90974496D01*
X92212661Y-90974492D01*
X92092838Y-90905313D01*
X92092837Y-90905312D01*
X92092836Y-90905312D01*
X91959183Y-90869500D01*
X91820817Y-90869500D01*
X91687164Y-90905312D01*
X91687161Y-90905313D01*
X91567338Y-90974492D01*
X91567333Y-90974496D01*
X91469496Y-91072333D01*
X91469492Y-91072338D01*
X91400313Y-91192161D01*
X91400312Y-91192164D01*
X91364500Y-91325817D01*
X86635500Y-91325817D01*
X86599688Y-91192164D01*
X86530505Y-91072335D01*
X86432665Y-90974495D01*
X86432664Y-90974494D01*
X86432661Y-90974492D01*
X86312838Y-90905313D01*
X86312837Y-90905312D01*
X86312836Y-90905312D01*
X86179183Y-90869500D01*
X86040817Y-90869500D01*
X85907164Y-90905312D01*
X85907161Y-90905313D01*
X85787338Y-90974492D01*
X85787333Y-90974496D01*
X85689494Y-91072335D01*
X85683337Y-91083001D01*
X85632769Y-91131216D01*
X85575950Y-91145000D01*
X84980000Y-91145000D01*
X84980000Y-90645000D01*
X85680000Y-90645000D01*
X85680000Y-90246508D01*
X85679999Y-90246504D01*
X85641572Y-90053318D01*
X85641569Y-90053306D01*
X85566192Y-89871328D01*
X85566185Y-89871315D01*
X85456751Y-89707537D01*
X85456748Y-89707533D01*
X85317466Y-89568251D01*
X85317462Y-89568248D01*
X85153684Y-89458814D01*
X85153671Y-89458807D01*
X84971691Y-89383429D01*
X84971683Y-89383427D01*
X84930000Y-89375135D01*
X84930000Y-90178011D01*
X84920060Y-90160795D01*
X84864205Y-90104940D01*
X84795796Y-90065444D01*
X84719496Y-90045000D01*
X84640504Y-90045000D01*
X84564204Y-90065444D01*
X84495795Y-90104940D01*
X84439940Y-90160795D01*
X84430000Y-90178011D01*
X84430000Y-89375136D01*
X84429999Y-89375135D01*
X84388316Y-89383427D01*
X84388308Y-89383429D01*
X84206328Y-89458807D01*
X84206315Y-89458814D01*
X84042537Y-89568248D01*
X84042533Y-89568251D01*
X83903251Y-89707533D01*
X83903248Y-89707537D01*
X83793814Y-89871315D01*
X83793807Y-89871328D01*
X83718430Y-90053306D01*
X83718427Y-90053318D01*
X83680000Y-90246504D01*
X80200498Y-90246504D01*
X80200498Y-89064071D01*
X96099499Y-89064071D01*
X96124497Y-89189738D01*
X96124499Y-89189744D01*
X96173533Y-89308124D01*
X96173538Y-89308133D01*
X96244723Y-89414668D01*
X96244726Y-89414672D01*
X96335327Y-89505273D01*
X96335331Y-89505276D01*
X96441866Y-89576461D01*
X96441872Y-89576464D01*
X96441873Y-89576465D01*
X96560256Y-89625501D01*
X96560260Y-89625501D01*
X96560261Y-89625502D01*
X96685928Y-89650500D01*
X96685931Y-89650500D01*
X96814071Y-89650500D01*
X96898615Y-89633682D01*
X96939744Y-89625501D01*
X97058127Y-89576465D01*
X97164669Y-89505276D01*
X97255276Y-89414669D01*
X97326465Y-89308127D01*
X97375501Y-89189744D01*
X97400500Y-89064069D01*
X97400500Y-88935931D01*
X97400500Y-88935928D01*
X97375502Y-88810261D01*
X97375501Y-88810260D01*
X97375501Y-88810256D01*
X97326465Y-88691873D01*
X97326464Y-88691872D01*
X97326461Y-88691866D01*
X97255276Y-88585331D01*
X97255273Y-88585327D01*
X97164672Y-88494726D01*
X97164668Y-88494723D01*
X97058133Y-88423538D01*
X97058124Y-88423533D01*
X96939744Y-88374499D01*
X96939738Y-88374497D01*
X96814071Y-88349500D01*
X96814069Y-88349500D01*
X96685931Y-88349500D01*
X96685929Y-88349500D01*
X96560261Y-88374497D01*
X96560255Y-88374499D01*
X96441875Y-88423533D01*
X96441866Y-88423538D01*
X96335331Y-88494723D01*
X96335327Y-88494726D01*
X96244726Y-88585327D01*
X96244723Y-88585331D01*
X96173538Y-88691866D01*
X96173533Y-88691875D01*
X96124499Y-88810255D01*
X96124497Y-88810261D01*
X96099500Y-88935928D01*
X96099500Y-88935931D01*
X96099500Y-89064069D01*
X96099500Y-89064071D01*
X96099499Y-89064071D01*
X80200498Y-89064071D01*
X80200498Y-84504873D01*
X80200880Y-84495144D01*
X80212653Y-84345549D01*
X80215697Y-84326331D01*
X80249590Y-84185160D01*
X80255595Y-84166678D01*
X80311156Y-84032540D01*
X80319976Y-84015229D01*
X80395840Y-83891431D01*
X80407272Y-83875698D01*
X80504645Y-83761689D01*
X80504668Y-83761662D01*
X80511422Y-83754369D01*
X85318041Y-78965239D01*
X85373464Y-78933309D01*
X85423886Y-78919799D01*
X85526613Y-78860489D01*
X85610489Y-78776613D01*
X85616630Y-78765975D01*
X85667196Y-78717759D01*
X85735803Y-78704535D01*
X85800668Y-78730502D01*
G37*
%TD.AperFunction*%
%TA.AperFunction,Conductor*%
G36*
X92185457Y-60950500D02*
G01*
X92210118Y-60950500D01*
X92245125Y-60950500D01*
X92254853Y-60950881D01*
X92404454Y-60962655D01*
X92423663Y-60965698D01*
X92564830Y-60999589D01*
X92583318Y-61005596D01*
X92717451Y-61061156D01*
X92734785Y-61069989D01*
X92858558Y-61145837D01*
X92874299Y-61157273D01*
X92988394Y-61254718D01*
X92995544Y-61261328D01*
X97213909Y-65479689D01*
X97238661Y-65504441D01*
X97245271Y-65511591D01*
X97342728Y-65625699D01*
X97354164Y-65641439D01*
X97430017Y-65765220D01*
X97438848Y-65782552D01*
X97494399Y-65916665D01*
X97500412Y-65935170D01*
X97534302Y-66076331D01*
X97537346Y-66095550D01*
X97549118Y-66245142D01*
X97549500Y-66254870D01*
X97549500Y-68343613D01*
X97529815Y-68410652D01*
X97477011Y-68456407D01*
X97407853Y-68466351D01*
X97344297Y-68437326D01*
X97307571Y-68381935D01*
X97275234Y-68282423D01*
X97264480Y-68261320D01*
X97251745Y-68218908D01*
X97236313Y-68081943D01*
X97236313Y-68081941D01*
X97180456Y-67922310D01*
X97180453Y-67922305D01*
X97180452Y-67922302D01*
X97090481Y-67779115D01*
X97090476Y-67779109D01*
X96970890Y-67659523D01*
X96970884Y-67659518D01*
X96827697Y-67569547D01*
X96827694Y-67569545D01*
X96668056Y-67513685D01*
X96500003Y-67494751D01*
X96499997Y-67494751D01*
X96331943Y-67513685D01*
X96172305Y-67569545D01*
X96172302Y-67569547D01*
X96029115Y-67659518D01*
X96029109Y-67659523D01*
X95909523Y-67779109D01*
X95909518Y-67779115D01*
X95819547Y-67922302D01*
X95819545Y-67922305D01*
X95763685Y-68081943D01*
X95744751Y-68249997D01*
X95744751Y-68250002D01*
X95763685Y-68418056D01*
X95819545Y-68577694D01*
X95819547Y-68577697D01*
X95909518Y-68720884D01*
X95909523Y-68720890D01*
X96029110Y-68840477D01*
X96091473Y-68879662D01*
X96137763Y-68931995D01*
X96149500Y-68984655D01*
X96149500Y-73049407D01*
X96148903Y-73061561D01*
X96140325Y-73148653D01*
X96135583Y-73172493D01*
X96111957Y-73250380D01*
X96102655Y-73272838D01*
X96064288Y-73344619D01*
X96050783Y-73364831D01*
X95995309Y-73432427D01*
X95987136Y-73441444D01*
X95656728Y-73771852D01*
X95595405Y-73805337D01*
X95525713Y-73800353D01*
X95469780Y-73758481D01*
X95445363Y-73693017D01*
X95460215Y-73624744D01*
X95464055Y-73618197D01*
X95475787Y-73599525D01*
X95475786Y-73599525D01*
X95475789Y-73599522D01*
X95535368Y-73429255D01*
X95541126Y-73378155D01*
X95555565Y-73250003D01*
X95555565Y-73249996D01*
X95535369Y-73070750D01*
X95535368Y-73070745D01*
X95530033Y-73055498D01*
X95475789Y-72900478D01*
X95463999Y-72881715D01*
X95433258Y-72832791D01*
X95379816Y-72747738D01*
X95252262Y-72620184D01*
X95099523Y-72524211D01*
X94929254Y-72464631D01*
X94929249Y-72464630D01*
X94750004Y-72444435D01*
X94749996Y-72444435D01*
X94563825Y-72465411D01*
X94563675Y-72464081D01*
X94501405Y-72460255D01*
X94445054Y-72418946D01*
X94419982Y-72353730D01*
X94429009Y-72296194D01*
X94451061Y-72242957D01*
X94477800Y-72108530D01*
X94477800Y-71971470D01*
X94451061Y-71837043D01*
X94421583Y-71765877D01*
X94398613Y-71710421D01*
X94398606Y-71710408D01*
X94322463Y-71596453D01*
X94322460Y-71596449D01*
X94225550Y-71499539D01*
X94167837Y-71460976D01*
X94123033Y-71407363D01*
X94114326Y-71338038D01*
X94129342Y-71295874D01*
X94221932Y-71135503D01*
X94221935Y-71135497D01*
X94279984Y-70956837D01*
X94299622Y-70770000D01*
X94279984Y-70583162D01*
X94221935Y-70404502D01*
X94221932Y-70404496D01*
X94184642Y-70339908D01*
X93577777Y-70946777D01*
X92968732Y-71555818D01*
X93078482Y-71604682D01*
X93131719Y-71649932D01*
X93152041Y-71716782D01*
X93142608Y-71765414D01*
X93112940Y-71837038D01*
X93112937Y-71837050D01*
X93086200Y-71971465D01*
X93086200Y-72025499D01*
X93066515Y-72092538D01*
X93013711Y-72138293D01*
X92962200Y-72149499D01*
X92933229Y-72149499D01*
X92933213Y-72149500D01*
X92569800Y-72149500D01*
X92502761Y-72129815D01*
X92457006Y-72077011D01*
X92445800Y-72025500D01*
X92445800Y-71971469D01*
X92445799Y-71971465D01*
X92419062Y-71837050D01*
X92419061Y-71837043D01*
X92389582Y-71765876D01*
X92382114Y-71696407D01*
X92413389Y-71633928D01*
X92453704Y-71605147D01*
X92580563Y-71548666D01*
X92732633Y-71438181D01*
X92851657Y-71305991D01*
X92858404Y-71298498D01*
X92858412Y-71298487D01*
X92952381Y-71135726D01*
X92952392Y-71135707D01*
X93010478Y-70956939D01*
X93018455Y-70881039D01*
X93045039Y-70816425D01*
X93102336Y-70776439D01*
X93141776Y-70770000D01*
X93401000Y-70770000D01*
X93401000Y-70514589D01*
X93420685Y-70447550D01*
X93473489Y-70401795D01*
X93499206Y-70393302D01*
X93678845Y-70355120D01*
X93850563Y-70278666D01*
X94002633Y-70168181D01*
X94083383Y-70078498D01*
X94128404Y-70028498D01*
X94128412Y-70028487D01*
X94222389Y-69865712D01*
X94222388Y-69865712D01*
X94222392Y-69865707D01*
X94280478Y-69686939D01*
X94300126Y-69500000D01*
X94280478Y-69313061D01*
X94222392Y-69134293D01*
X94172852Y-69048486D01*
X94128411Y-68971511D01*
X94128409Y-68971508D01*
X94107217Y-68947972D01*
X94076987Y-68884980D01*
X94085612Y-68815645D01*
X94107217Y-68782028D01*
X94128408Y-68758493D01*
X94150122Y-68720884D01*
X94222389Y-68595712D01*
X94222388Y-68595712D01*
X94222392Y-68595707D01*
X94280478Y-68416939D01*
X94300126Y-68230000D01*
X94288282Y-68117322D01*
X94300403Y-68051042D01*
X94300097Y-68050915D01*
X94300687Y-68049489D01*
X94300851Y-68048596D01*
X94301126Y-68048054D01*
X94301959Y-68046420D01*
X94363859Y-67855918D01*
X94395197Y-67658078D01*
X94395197Y-67648811D01*
X94395199Y-67648790D01*
X94395199Y-67513685D01*
X94395200Y-67485011D01*
X94395199Y-67485006D01*
X94395199Y-67261443D01*
X94395199Y-67253480D01*
X94395190Y-67253340D01*
X94395190Y-67222688D01*
X94364435Y-66989077D01*
X94343718Y-66911761D01*
X94303454Y-66761488D01*
X94213287Y-66543800D01*
X94095478Y-66339744D01*
X93996013Y-66210116D01*
X93952046Y-66152815D01*
X93952045Y-66152814D01*
X93952042Y-66152810D01*
X93930014Y-66130781D01*
X93929988Y-66130752D01*
X93927325Y-66128089D01*
X93927323Y-66128086D01*
X93812862Y-66013625D01*
X93812839Y-66013604D01*
X93562567Y-65763332D01*
X93562540Y-65763301D01*
X93541474Y-65742235D01*
X93541465Y-65742219D01*
X93453034Y-65653793D01*
X93452956Y-65653721D01*
X93449261Y-65650026D01*
X93441769Y-65645700D01*
X93430899Y-65638641D01*
X93387459Y-65607082D01*
X93344938Y-65576190D01*
X93222156Y-65513634D01*
X93222148Y-65513631D01*
X93113171Y-65478226D01*
X93055495Y-65438790D01*
X93029012Y-65379682D01*
X93027447Y-65369795D01*
X93027444Y-65369787D01*
X93027444Y-65369783D01*
X92981939Y-65229706D01*
X92981938Y-65229705D01*
X92915079Y-65098462D01*
X92915078Y-65098459D01*
X92840153Y-64995314D01*
X92833089Y-64984436D01*
X92832294Y-64983059D01*
X92776449Y-64927214D01*
X92776443Y-64927203D01*
X92776441Y-64927206D01*
X92757996Y-64908757D01*
X92724888Y-64875642D01*
X92724885Y-64875640D01*
X92719682Y-64870436D01*
X92719584Y-64870349D01*
X92693716Y-64844481D01*
X92693715Y-64844480D01*
X92692530Y-64843295D01*
X92692439Y-64843217D01*
X92561642Y-64748186D01*
X92561637Y-64748183D01*
X92417572Y-64674774D01*
X92263798Y-64624804D01*
X92104100Y-64599504D01*
X92104095Y-64599503D01*
X92104041Y-64599500D01*
X92102280Y-64599500D01*
X92023255Y-64599500D01*
X91950342Y-64599497D01*
X91950340Y-64599497D01*
X91942766Y-64599497D01*
X91942718Y-64599500D01*
X91775319Y-64599500D01*
X91775233Y-64599506D01*
X91611078Y-64625501D01*
X91611075Y-64625502D01*
X91459420Y-64674774D01*
X91452999Y-64676860D01*
X91304917Y-64752306D01*
X91170444Y-64850002D01*
X91170430Y-64850014D01*
X91120065Y-64900381D01*
X91120059Y-64900387D01*
X91111687Y-64908757D01*
X91111688Y-64908758D01*
X91057017Y-64963427D01*
X91057004Y-64963440D01*
X90660222Y-65360221D01*
X90660222Y-65360222D01*
X90604321Y-65416124D01*
X90599083Y-65421362D01*
X90598958Y-65421504D01*
X90557093Y-65463369D01*
X90375210Y-65691444D01*
X90220006Y-65938447D01*
X90093434Y-66201273D01*
X90093431Y-66201280D01*
X89997084Y-66476617D01*
X89997083Y-66476623D01*
X89932167Y-66761025D01*
X89932166Y-66761032D01*
X89899501Y-67050901D01*
X89899501Y-67111582D01*
X89899500Y-67111604D01*
X89899500Y-67196764D01*
X89899499Y-67277271D01*
X89899500Y-67277288D01*
X89899500Y-67681350D01*
X89899305Y-67688305D01*
X89883698Y-67966140D01*
X89882141Y-67979957D01*
X89836109Y-68250867D01*
X89833014Y-68264424D01*
X89756944Y-68528460D01*
X89752352Y-68541585D01*
X89647188Y-68795465D01*
X89641155Y-68807992D01*
X89508238Y-69048486D01*
X89500839Y-69060261D01*
X89341823Y-69284370D01*
X89333156Y-69295237D01*
X89263593Y-69373078D01*
X89147471Y-69503017D01*
X89142693Y-69508070D01*
X86309936Y-72340826D01*
X86248613Y-72374311D01*
X86248038Y-72374435D01*
X86180194Y-72388856D01*
X86180192Y-72388857D01*
X86007270Y-72465848D01*
X86007265Y-72465851D01*
X85854129Y-72577111D01*
X85727466Y-72717785D01*
X85632821Y-72881715D01*
X85632818Y-72881722D01*
X85574385Y-73061561D01*
X85574326Y-73061744D01*
X85554540Y-73250000D01*
X85574326Y-73438256D01*
X85574327Y-73438259D01*
X85632818Y-73618277D01*
X85632821Y-73618284D01*
X85727467Y-73782216D01*
X85788953Y-73850503D01*
X85854129Y-73922888D01*
X86007265Y-74034148D01*
X86007270Y-74034151D01*
X86180192Y-74111142D01*
X86180197Y-74111144D01*
X86365354Y-74150500D01*
X86365355Y-74150500D01*
X86554644Y-74150500D01*
X86554646Y-74150500D01*
X86739803Y-74111144D01*
X86912730Y-74034151D01*
X87065871Y-73922888D01*
X87192533Y-73782216D01*
X87287179Y-73618284D01*
X87345674Y-73438256D01*
X87365460Y-73250000D01*
X87346321Y-73067908D01*
X87358890Y-72999184D01*
X87381958Y-72967274D01*
X90050561Y-70298673D01*
X90050562Y-70298670D01*
X90056291Y-70292942D01*
X90056492Y-70292711D01*
X90111206Y-70237999D01*
X90323127Y-69985444D01*
X90512230Y-69715380D01*
X90677076Y-69429863D01*
X90816411Y-69131064D01*
X90883511Y-68946711D01*
X90929168Y-68821277D01*
X90929168Y-68821274D01*
X90929174Y-68821260D01*
X91014507Y-68502806D01*
X91021336Y-68464074D01*
X91052362Y-68401473D01*
X91112309Y-68365582D01*
X91182143Y-68367798D01*
X91239693Y-68407418D01*
X91261383Y-68447288D01*
X91309606Y-68595703D01*
X91309610Y-68595712D01*
X91403586Y-68758485D01*
X91403593Y-68758494D01*
X91424784Y-68782030D01*
X91455012Y-68845022D01*
X91446386Y-68914357D01*
X91424784Y-68947970D01*
X91403593Y-68971505D01*
X91403586Y-68971514D01*
X91309610Y-69134287D01*
X91309605Y-69134299D01*
X91251523Y-69313056D01*
X91251522Y-69313058D01*
X91231874Y-69500000D01*
X91251522Y-69686941D01*
X91251523Y-69686943D01*
X91309605Y-69865700D01*
X91309607Y-69865704D01*
X91309608Y-69865707D01*
X91352957Y-69940791D01*
X91396472Y-70016162D01*
X91412943Y-70084062D01*
X91390091Y-70150089D01*
X91335169Y-70193279D01*
X91265616Y-70199920D01*
X91248129Y-70195202D01*
X91179263Y-70171104D01*
X91179250Y-70171101D01*
X91000005Y-70150906D01*
X90999997Y-70150906D01*
X90820751Y-70171101D01*
X90820746Y-70171102D01*
X90650477Y-70230682D01*
X90497738Y-70326655D01*
X90370185Y-70454208D01*
X90274212Y-70606947D01*
X90214632Y-70777216D01*
X90214631Y-70777221D01*
X90194436Y-70956467D01*
X90194436Y-70956474D01*
X90214631Y-71135720D01*
X90214632Y-71135725D01*
X90271589Y-71298498D01*
X90274212Y-71305993D01*
X90285193Y-71323469D01*
X90304200Y-71389441D01*
X90304200Y-72162176D01*
X90304214Y-72162395D01*
X90304214Y-72164490D01*
X90314540Y-72242949D01*
X90327484Y-72341311D01*
X90373632Y-72513565D01*
X90373634Y-72513570D01*
X90373635Y-72513573D01*
X90426362Y-72640879D01*
X90441878Y-72678340D01*
X90441882Y-72678348D01*
X90531043Y-72832788D01*
X90639614Y-72974282D01*
X90639618Y-72974287D01*
X90645719Y-72980388D01*
X90645740Y-72980411D01*
X90666330Y-73001000D01*
X90666360Y-73001055D01*
X90702651Y-73037346D01*
X90702651Y-73037347D01*
X90720802Y-73055498D01*
X90765704Y-73100400D01*
X90907192Y-73208967D01*
X90921881Y-73217447D01*
X91061648Y-73298138D01*
X91226419Y-73366382D01*
X91398687Y-73412535D01*
X91575507Y-73435805D01*
X91664679Y-73435800D01*
X91938598Y-73435800D01*
X91938646Y-73435802D01*
X91946216Y-73435801D01*
X91946222Y-73435803D01*
X91967761Y-73435802D01*
X91967797Y-73435812D01*
X92019136Y-73435809D01*
X92019136Y-73435810D01*
X92062492Y-73435807D01*
X92098118Y-73435806D01*
X92098159Y-73435800D01*
X92098164Y-73435800D01*
X92110147Y-73432588D01*
X92118016Y-73430753D01*
X92236785Y-73407121D01*
X92236787Y-73407120D01*
X92350658Y-73359943D01*
X92398120Y-73350500D01*
X93005575Y-73350500D01*
X93021763Y-73351561D01*
X93040378Y-73354012D01*
X93063003Y-73356991D01*
X93094273Y-73365372D01*
X93125129Y-73378155D01*
X93153160Y-73394340D01*
X93174068Y-73410385D01*
X93186148Y-73419655D01*
X93198331Y-73430339D01*
X93260044Y-73492045D01*
X93260048Y-73492049D01*
X93260052Y-73492052D01*
X93260054Y-73492054D01*
X93411279Y-73608079D01*
X93411289Y-73608084D01*
X93411294Y-73608088D01*
X93576344Y-73703368D01*
X93576348Y-73703370D01*
X93576355Y-73703374D01*
X93588573Y-73708434D01*
X93752452Y-73776306D01*
X93752456Y-73776307D01*
X93936569Y-73825632D01*
X94125546Y-73850503D01*
X94167586Y-73850501D01*
X94234624Y-73870183D01*
X94244903Y-73877555D01*
X94247737Y-73879815D01*
X94247738Y-73879816D01*
X94316287Y-73922888D01*
X94400474Y-73975787D01*
X94400478Y-73975789D01*
X94523071Y-74018686D01*
X94570745Y-74035368D01*
X94570750Y-74035369D01*
X94749996Y-74055565D01*
X94750000Y-74055565D01*
X94750004Y-74055565D01*
X94929249Y-74035369D01*
X94929252Y-74035368D01*
X94929255Y-74035368D01*
X95099522Y-73975789D01*
X95118197Y-73964055D01*
X95185433Y-73945053D01*
X95252269Y-73965419D01*
X95297484Y-74018686D01*
X95306723Y-74087942D01*
X95277053Y-74151199D01*
X95271852Y-74156728D01*
X93387803Y-76040777D01*
X93383896Y-76044517D01*
X93146811Y-76261771D01*
X93138524Y-76268725D01*
X92885580Y-76462820D01*
X92876719Y-76469025D01*
X92607819Y-76640337D01*
X92598451Y-76645746D01*
X92315644Y-76792970D01*
X92305840Y-76797542D01*
X92011277Y-76919557D01*
X92001112Y-76923257D01*
X91697024Y-77019139D01*
X91686575Y-77021938D01*
X91375315Y-77090946D01*
X91364662Y-77092825D01*
X91048553Y-77134445D01*
X91037776Y-77135388D01*
X90717341Y-77149382D01*
X90711931Y-77149500D01*
X89096306Y-77149500D01*
X89096204Y-77149506D01*
X89081656Y-77149506D01*
X88882173Y-77181095D01*
X88690079Y-77243506D01*
X88510127Y-77335193D01*
X88510124Y-77335194D01*
X88510124Y-77335195D01*
X88346725Y-77453910D01*
X88313199Y-77487435D01*
X88313197Y-77487437D01*
X88313196Y-77487436D01*
X88311641Y-77488992D01*
X88311616Y-77489005D01*
X88203901Y-77596720D01*
X88085189Y-77760116D01*
X88085183Y-77760126D01*
X87993496Y-77940080D01*
X87993496Y-77940081D01*
X87980558Y-77979900D01*
X87941120Y-78037575D01*
X87897562Y-78060558D01*
X87810934Y-78085994D01*
X87701948Y-78156034D01*
X87656692Y-78208264D01*
X87597915Y-78246039D01*
X87549093Y-78250282D01*
X87520325Y-78247040D01*
X87455911Y-78219972D01*
X87440498Y-78205022D01*
X87398050Y-78156034D01*
X87398048Y-78156032D01*
X87372340Y-78139511D01*
X87289069Y-78085996D01*
X87289065Y-78085994D01*
X87289064Y-78085994D01*
X87164774Y-78049500D01*
X87164772Y-78049500D01*
X87035228Y-78049500D01*
X87035226Y-78049500D01*
X86910935Y-78085994D01*
X86910932Y-78085995D01*
X86910931Y-78085996D01*
X86859677Y-78118934D01*
X86801950Y-78156033D01*
X86743714Y-78223243D01*
X86684936Y-78261018D01*
X86615066Y-78261018D01*
X86556288Y-78223244D01*
X86556286Y-78223243D01*
X86498049Y-78156033D01*
X86472340Y-78139511D01*
X86389069Y-78085996D01*
X86389065Y-78085994D01*
X86389064Y-78085994D01*
X86264774Y-78049500D01*
X86264772Y-78049500D01*
X86135228Y-78049500D01*
X86135226Y-78049500D01*
X86010935Y-78085994D01*
X86010932Y-78085995D01*
X86010931Y-78085996D01*
X85959677Y-78118934D01*
X85901950Y-78156033D01*
X85817731Y-78253228D01*
X85758953Y-78291002D01*
X85689083Y-78291002D01*
X85630305Y-78253228D01*
X85616631Y-78234026D01*
X85610489Y-78223387D01*
X85526613Y-78139511D01*
X85467302Y-78105267D01*
X85423885Y-78080200D01*
X85373444Y-78066684D01*
X85318026Y-78034760D01*
X84372465Y-77092825D01*
X80761405Y-73495612D01*
X80754653Y-73488321D01*
X80657267Y-73374296D01*
X80645837Y-73358563D01*
X80608808Y-73298138D01*
X80569982Y-73234779D01*
X80561154Y-73217453D01*
X80505597Y-73083325D01*
X80499589Y-73064835D01*
X80465697Y-72923668D01*
X80462653Y-72904450D01*
X80462340Y-72900478D01*
X80450880Y-72754855D01*
X80450498Y-72745126D01*
X80450498Y-72710120D01*
X80450498Y-71135497D01*
X80450499Y-66254847D01*
X80450879Y-66245169D01*
X80462655Y-66095543D01*
X80465697Y-66076338D01*
X80499590Y-65935165D01*
X80505594Y-65916684D01*
X80561158Y-65782542D01*
X80569989Y-65765214D01*
X80571143Y-65763332D01*
X80645838Y-65641438D01*
X80657273Y-65625700D01*
X80657274Y-65625699D01*
X80754730Y-65511591D01*
X80761310Y-65504473D01*
X80786093Y-65479691D01*
X80786093Y-65479690D01*
X85004453Y-61261325D01*
X85011590Y-61254729D01*
X85125699Y-61157271D01*
X85141429Y-61145841D01*
X85265225Y-61069979D01*
X85282540Y-61061156D01*
X85416678Y-61005595D01*
X85435160Y-60999590D01*
X85576333Y-60965696D01*
X85595545Y-60962653D01*
X85745143Y-60950879D01*
X85754871Y-60950498D01*
X92185453Y-60950498D01*
X92185457Y-60950500D01*
G37*
%TD.AperFunction*%
%TD*%
M02*
