%TF.GenerationSoftware,KiCad,Pcbnew,8.0.9-8.0.9-0~ubuntu20.04.1*%
%TF.CreationDate,2025-06-13T22:30:41+01:00*%
%TF.ProjectId,ch32-breakout,63683332-2d62-4726-9561-6b6f75742e6b,rev?*%
%TF.SameCoordinates,Original*%
%TF.FileFunction,Profile,NP*%
%FSLAX46Y46*%
G04 Gerber Fmt 4.6, Leading zero omitted, Abs format (unit mm)*
G04 Created by KiCad (PCBNEW 8.0.9-8.0.9-0~ubuntu20.04.1) date 2025-06-13 22:30:41*
%MOMM*%
%LPD*%
G01*
G04 APERTURE LIST*
%TA.AperFunction,Profile*%
%ADD10C,0.050000*%
%TD*%
G04 APERTURE END LIST*
D10*
X97750002Y-66249998D02*
X97750000Y-72750000D01*
X93133883Y-61116117D02*
X97383885Y-65366115D01*
X98000002Y-90750000D02*
X98000002Y-84499998D01*
X97750002Y-72750002D02*
G75*
G02*
X97383885Y-73633885I-1250002J2D01*
G01*
X97633885Y-83616115D02*
G75*
G02*
X98000002Y-84499998I-883885J-883885D01*
G01*
X97633885Y-91633883D02*
X93383885Y-95883885D01*
X88250000Y-78500000D02*
G75*
G02*
X87750000Y-78500000I-250000J0D01*
G01*
X87750000Y-78500000D02*
G75*
G02*
X88250000Y-78500000I250000J0D01*
G01*
X84616117Y-95883883D02*
X80366115Y-91633885D01*
X84866115Y-61116115D02*
G75*
G02*
X85749998Y-60749998I883885J-883885D01*
G01*
X80250000Y-66250000D02*
G75*
G02*
X80616117Y-65366117I1250000J0D01*
G01*
X80616117Y-65366117D02*
X84866115Y-61116115D01*
X85250000Y-78250000D02*
G75*
G02*
X85250000Y-78750000I0J-250000D01*
G01*
X92750000Y-78750000D02*
G75*
G02*
X92750000Y-78250000I0J250000D01*
G01*
X80249998Y-72750002D02*
X80250000Y-66250000D01*
X80366115Y-91633885D02*
G75*
G02*
X79999998Y-90750002I883885J883885D01*
G01*
X97383885Y-65366115D02*
G75*
G02*
X97750002Y-66249998I-883885J-883885D01*
G01*
X80616115Y-73633885D02*
G75*
G02*
X80249998Y-72750002I883885J883885D01*
G01*
X92050000Y-78500000D02*
G75*
G02*
X91550000Y-78500000I-250000J0D01*
G01*
X91550000Y-78500000D02*
G75*
G02*
X92050000Y-78500000I250000J0D01*
G01*
X80366115Y-83616115D02*
X85250000Y-78750000D01*
X87350000Y-78500000D02*
G75*
G02*
X86850000Y-78500000I-250000J0D01*
G01*
X86850000Y-78500000D02*
G75*
G02*
X87350000Y-78500000I250000J0D01*
G01*
X85500000Y-96250000D02*
X92500002Y-96250002D01*
X91150000Y-78500000D02*
G75*
G02*
X90650000Y-78500000I-250000J0D01*
G01*
X90650000Y-78500000D02*
G75*
G02*
X91150000Y-78500000I250000J0D01*
G01*
X79999998Y-84499998D02*
X79999998Y-90750002D01*
X79999998Y-84499998D02*
G75*
G02*
X80366115Y-83616115I1250002J-2D01*
G01*
X85749998Y-60749998D02*
X92250000Y-60750000D01*
X97383885Y-73633885D02*
X92750000Y-78250000D01*
X92250000Y-60750000D02*
G75*
G02*
X93133883Y-61116117I0J-1250000D01*
G01*
X85250000Y-78250000D02*
X80616115Y-73633885D01*
X90250000Y-78500000D02*
G75*
G02*
X89750000Y-78500000I-250000J0D01*
G01*
X89750000Y-78500000D02*
G75*
G02*
X90250000Y-78500000I250000J0D01*
G01*
X93383885Y-95883885D02*
G75*
G02*
X92500002Y-96250002I-883885J883885D01*
G01*
X98000002Y-90750000D02*
G75*
G02*
X97633886Y-91633884I-1250002J0D01*
G01*
X97633885Y-83616115D02*
X92750000Y-78750000D01*
X89250000Y-78500000D02*
G75*
G02*
X88750000Y-78500000I-250000J0D01*
G01*
X88750000Y-78500000D02*
G75*
G02*
X89250000Y-78500000I250000J0D01*
G01*
X86450000Y-78500000D02*
G75*
G02*
X85950000Y-78500000I-250000J0D01*
G01*
X85950000Y-78500000D02*
G75*
G02*
X86450000Y-78500000I250000J0D01*
G01*
X85500000Y-96250000D02*
G75*
G02*
X84616117Y-95883883I0J1250000D01*
G01*
M02*
