%TF.GenerationSoftware,KiCad,Pcbnew,8.0.9-8.0.9-0~ubuntu20.04.1*%
%TF.CreationDate,2025-06-13T22:30:41+01:00*%
%TF.ProjectId,ch32-breakout,63683332-2d62-4726-9561-6b6f75742e6b,rev?*%
%TF.SameCoordinates,Original*%
%TF.FileFunction,Legend,Top*%
%TF.FilePolarity,Positive*%
%FSLAX46Y46*%
G04 Gerber Fmt 4.6, Leading zero omitted, Abs format (unit mm)*
G04 Created by KiCad (PCBNEW 8.0.9-8.0.9-0~ubuntu20.04.1) date 2025-06-13 22:30:41*
%MOMM*%
%LPD*%
G01*
G04 APERTURE LIST*
%ADD10C,0.120000*%
%ADD11C,0.100000*%
%ADD12C,0.200000*%
G04 APERTURE END LIST*
D10*
%TO.C,J4*%
X82390000Y-66265000D02*
X82390000Y-66375000D01*
X82390000Y-66265000D02*
X84610000Y-66265000D01*
X82390000Y-66375000D02*
X80560000Y-66375000D01*
X82390000Y-67545000D02*
X82390000Y-68915000D01*
X82390000Y-70085000D02*
X82390000Y-71455000D01*
X82390000Y-72735000D02*
X84610000Y-72735000D01*
X84610000Y-66275000D02*
X84610000Y-67645000D01*
X84610000Y-68815000D02*
X84610000Y-70185000D01*
X84610000Y-71355000D02*
X84610000Y-72725000D01*
X84610000Y-72625000D02*
X84610000Y-72735000D01*
%TO.C,R4*%
X89320000Y-88146359D02*
X89320000Y-88453641D01*
X90080000Y-88146359D02*
X90080000Y-88453641D01*
%TO.C,C2*%
X91140000Y-80857836D02*
X91140000Y-80642164D01*
X91860000Y-80857836D02*
X91860000Y-80642164D01*
%TO.C,J5*%
X85765000Y-76110000D02*
X85765000Y-73890000D01*
X85765000Y-76110000D02*
X85875000Y-76110000D01*
X85775000Y-73890000D02*
X87145000Y-73890000D01*
X85875000Y-76110000D02*
X85875000Y-77940000D01*
X87045000Y-76110000D02*
X88415000Y-76110000D01*
X88315000Y-73890000D02*
X89685000Y-73890000D01*
X89585000Y-76110000D02*
X90955000Y-76110000D01*
X90855000Y-73890000D02*
X92225000Y-73890000D01*
X92125000Y-73890000D02*
X92235000Y-73890000D01*
X92235000Y-76110000D02*
X92235000Y-73890000D01*
%TO.C,R6*%
X86270000Y-88146359D02*
X86270000Y-88453641D01*
X87030000Y-88146359D02*
X87030000Y-88453641D01*
%TO.C,C3*%
X83540000Y-86142164D02*
X83540000Y-86357836D01*
X84260000Y-86142164D02*
X84260000Y-86357836D01*
%TO.C,TP10*%
X86450000Y-79500000D02*
G75*
G02*
X85050000Y-79500000I-700000J0D01*
G01*
X85050000Y-79500000D02*
G75*
G02*
X86450000Y-79500000I700000J0D01*
G01*
%TO.C,TP1*%
X81050000Y-90050000D02*
X82950000Y-90050000D01*
X81050000Y-91950000D02*
X81050000Y-90050000D01*
X82950000Y-90050000D02*
X82950000Y-91950000D01*
X82950000Y-91950000D02*
X81050000Y-91950000D01*
%TO.C,TP4*%
X92956497Y-64200000D02*
X94300000Y-62856497D01*
X94300000Y-62856497D02*
X95643503Y-64200000D01*
X94300000Y-65543503D02*
X92956497Y-64200000D01*
X95643503Y-64200000D02*
X94300000Y-65543503D01*
%TO.C,U3*%
X80190000Y-87750000D02*
X80190000Y-87100000D01*
X80190000Y-87750000D02*
X80190000Y-88400000D01*
X83310000Y-87750000D02*
X83310000Y-87100000D01*
X83310000Y-87750000D02*
X83310000Y-88400000D01*
X80240000Y-88912500D02*
X79910000Y-89152500D01*
X79910000Y-88672500D01*
X80240000Y-88912500D01*
G36*
X80240000Y-88912500D02*
G01*
X79910000Y-89152500D01*
X79910000Y-88672500D01*
X80240000Y-88912500D01*
G37*
%TO.C,R2*%
X89346359Y-83120000D02*
X89653641Y-83120000D01*
X89346359Y-83880000D02*
X89653641Y-83880000D01*
%TO.C,TP6*%
X92956497Y-74800000D02*
X94300000Y-73456497D01*
X94300000Y-73456497D02*
X95643503Y-74800000D01*
X94300000Y-76143503D02*
X92956497Y-74800000D01*
X95643503Y-74800000D02*
X94300000Y-76143503D01*
D11*
%TO.C,D1*%
X90000000Y-84160000D02*
G75*
G02*
X89900000Y-84160000I-50000J0D01*
G01*
X89900000Y-84160000D02*
G75*
G02*
X90000000Y-84160000I50000J0D01*
G01*
D10*
%TO.C,D2*%
X90515000Y-85215000D02*
X90515000Y-86685000D01*
X90515000Y-86685000D02*
X92800000Y-86685000D01*
X92800000Y-85215000D02*
X90515000Y-85215000D01*
%TO.C,R8*%
X93846359Y-82870000D02*
X94153641Y-82870000D01*
X93846359Y-83630000D02*
X94153641Y-83630000D01*
%TO.C,U4*%
X89000000Y-79190000D02*
X88200000Y-79190000D01*
X89000000Y-79190000D02*
X89800000Y-79190000D01*
X89000000Y-82310000D02*
X88200000Y-82310000D01*
X89000000Y-82310000D02*
X89800000Y-82310000D01*
X90540000Y-82590000D02*
X90060000Y-82590000D01*
X90300000Y-82260000D01*
X90540000Y-82590000D01*
G36*
X90540000Y-82590000D02*
G01*
X90060000Y-82590000D01*
X90300000Y-82260000D01*
X90540000Y-82590000D01*
G37*
%TO.C,TP3*%
X83800000Y-80550000D02*
X85700000Y-80550000D01*
X83800000Y-82450000D02*
X83800000Y-80550000D01*
X85700000Y-80550000D02*
X85700000Y-82450000D01*
X85700000Y-82450000D02*
X83800000Y-82450000D01*
%TO.C,R10*%
X83620000Y-88096359D02*
X83620000Y-88403641D01*
X84380000Y-88096359D02*
X84380000Y-88403641D01*
%TO.C,J6*%
X93390000Y-66375000D02*
X93390000Y-66265000D01*
X93390000Y-67645000D02*
X93390000Y-66275000D01*
X93390000Y-70185000D02*
X93390000Y-68815000D01*
X93390000Y-72725000D02*
X93390000Y-71355000D01*
X95610000Y-66265000D02*
X93390000Y-66265000D01*
X95610000Y-68915000D02*
X95610000Y-67545000D01*
X95610000Y-71455000D02*
X95610000Y-70085000D01*
X95610000Y-72625000D02*
X97440000Y-72625000D01*
X95610000Y-72735000D02*
X93390000Y-72735000D01*
X95610000Y-72735000D02*
X95610000Y-72625000D01*
D12*
%TO.C,S1*%
X93150000Y-89700000D02*
X93150000Y-89700000D01*
X93350000Y-89700000D02*
X93350000Y-89700000D01*
D11*
X97775000Y-90250000D02*
X97775000Y-84750000D01*
D12*
X93150000Y-89700000D02*
G75*
G02*
X93350000Y-89700000I100000J0D01*
G01*
X93350000Y-89700000D02*
G75*
G02*
X93150000Y-89700000I-100000J0D01*
G01*
D10*
%TO.C,J3*%
X85765000Y-62890000D02*
X85765000Y-65110000D01*
X85875000Y-65110000D02*
X85765000Y-65110000D01*
X87145000Y-65110000D02*
X85775000Y-65110000D01*
X88415000Y-62890000D02*
X87045000Y-62890000D01*
X89685000Y-65110000D02*
X88315000Y-65110000D01*
X90955000Y-62890000D02*
X89585000Y-62890000D01*
X92125000Y-62890000D02*
X92125000Y-61060000D01*
X92225000Y-65110000D02*
X90855000Y-65110000D01*
X92235000Y-62890000D02*
X92125000Y-62890000D01*
X92235000Y-62890000D02*
X92235000Y-65110000D01*
%TO.C,C1*%
X86140000Y-81357836D02*
X86140000Y-81142164D01*
X86860000Y-81357836D02*
X86860000Y-81142164D01*
%TO.C,R7*%
X87320000Y-88146359D02*
X87320000Y-88453641D01*
X88080000Y-88146359D02*
X88080000Y-88453641D01*
%TO.C,U1*%
X87390000Y-68340000D02*
X87390000Y-68130000D01*
X87390000Y-71110000D02*
X87390000Y-70660000D01*
X87840000Y-67890000D02*
X87690000Y-67890000D01*
X87840000Y-71110000D02*
X87390000Y-71110000D01*
X90160000Y-67890000D02*
X90610000Y-67890000D01*
X90160000Y-71110000D02*
X90610000Y-71110000D01*
X90610000Y-67890000D02*
X90610000Y-68340000D01*
X90610000Y-71110000D02*
X90610000Y-70660000D01*
X87390000Y-67890000D02*
X87150000Y-67560000D01*
X87630000Y-67560000D01*
X87390000Y-67890000D01*
G36*
X87390000Y-67890000D02*
G01*
X87150000Y-67560000D01*
X87630000Y-67560000D01*
X87390000Y-67890000D01*
G37*
%TO.C,R9*%
X93196359Y-88070000D02*
X93503641Y-88070000D01*
X93196359Y-88830000D02*
X93503641Y-88830000D01*
%TO.C,Q1*%
X91065000Y-84000000D02*
X91065000Y-83400000D01*
X91065000Y-84000000D02*
X91065000Y-84600000D01*
X92935000Y-84000000D02*
X92935000Y-83400000D01*
X92935000Y-84000000D02*
X92935000Y-84600000D01*
X91740000Y-85640000D02*
X91260000Y-85640000D01*
X91500000Y-85310000D01*
X91740000Y-85640000D01*
G36*
X91740000Y-85640000D02*
G01*
X91260000Y-85640000D01*
X91500000Y-85310000D01*
X91740000Y-85640000D01*
G37*
%TO.C,TP9*%
X90500000Y-87000000D02*
X92400000Y-87000000D01*
X90500000Y-88900000D02*
X90500000Y-87000000D01*
X92400000Y-87000000D02*
X92400000Y-88900000D01*
X92400000Y-88900000D02*
X90500000Y-88900000D01*
%TO.C,J2*%
X84420000Y-92150000D02*
X84420000Y-94070000D01*
X84420000Y-97785000D02*
X84420000Y-96080000D01*
X93580000Y-94070000D02*
X93580000Y-92150000D01*
X93580000Y-96080000D02*
X93580000Y-97785000D01*
X93580000Y-97785000D02*
X84420000Y-97785000D01*
%TO.C,TP2*%
X81050000Y-83300000D02*
X82950000Y-83300000D01*
X81050000Y-85200000D02*
X81050000Y-83300000D01*
X82950000Y-83300000D02*
X82950000Y-85200000D01*
X82950000Y-85200000D02*
X81050000Y-85200000D01*
%TO.C,R3*%
X85220000Y-88146359D02*
X85220000Y-88453641D01*
X85980000Y-88146359D02*
X85980000Y-88453641D01*
%TO.C,TP5*%
X82356497Y-64200000D02*
X83700000Y-62856497D01*
X83700000Y-62856497D02*
X85043503Y-64200000D01*
X83700000Y-65543503D02*
X82356497Y-64200000D01*
X85043503Y-64200000D02*
X83700000Y-65543503D01*
%TO.C,R5*%
X88320000Y-88146359D02*
X88320000Y-88453641D01*
X89080000Y-88146359D02*
X89080000Y-88453641D01*
%TO.C,TP8*%
X92300000Y-80550000D02*
X94200000Y-80550000D01*
X92300000Y-82450000D02*
X92300000Y-80550000D01*
X94200000Y-80550000D02*
X94200000Y-82450000D01*
X94200000Y-82450000D02*
X92300000Y-82450000D01*
%TO.C,R1*%
X88570000Y-85096359D02*
X88570000Y-85403641D01*
X89330000Y-85096359D02*
X89330000Y-85403641D01*
%TO.C,TP7*%
X82356497Y-74800000D02*
X83700000Y-73456497D01*
X83700000Y-73456497D02*
X85043503Y-74800000D01*
X83700000Y-76143503D02*
X82356497Y-74800000D01*
X85043503Y-74800000D02*
X83700000Y-76143503D01*
%TO.C,U2*%
X86400000Y-83140000D02*
X85600000Y-83140000D01*
X86400000Y-83140000D02*
X87200000Y-83140000D01*
X86400000Y-86260000D02*
X85600000Y-86260000D01*
X86400000Y-86260000D02*
X87200000Y-86260000D01*
X85100000Y-83190000D02*
X84860000Y-82860000D01*
X85340000Y-82860000D01*
X85100000Y-83190000D01*
G36*
X85100000Y-83190000D02*
G01*
X84860000Y-82860000D01*
X85340000Y-82860000D01*
X85100000Y-83190000D01*
G37*
%TD*%
M02*
