G04 #@! TF.GenerationSoftware,KiCad,Pcbnew,8.0.9-8.0.9-0~ubuntu20.04.1*
G04 #@! TF.CreationDate,2025-06-13T22:30:39+01:00*
G04 #@! TF.ProjectId,ch32-breakout,63683332-2d62-4726-9561-6b6f75742e6b,rev?*
G04 #@! TF.SameCoordinates,Original*
G04 #@! TF.FileFunction,Copper,L1,Top*
G04 #@! TF.FilePolarity,Positive*
%FSLAX46Y46*%
G04 Gerber Fmt 4.6, Leading zero omitted, Abs format (unit mm)*
G04 Created by KiCad (PCBNEW 8.0.9-8.0.9-0~ubuntu20.04.1) date 2025-06-13 22:30:39*
%MOMM*%
%LPD*%
G01*
G04 APERTURE LIST*
G04 #@! TA.AperFunction,SMDPad,CuDef*
%ADD10R,3.000000X0.650000*%
G04 #@! TD*
G04 #@! TA.AperFunction,SMDPad,CuDef*
%ADD11R,0.650000X3.000000*%
G04 #@! TD*
G04 #@! TA.AperFunction,SMDPad,CuDef*
%ADD12C,1.000000*%
G04 #@! TD*
G04 #@! TA.AperFunction,SMDPad,CuDef*
%ADD13R,1.500000X1.500000*%
G04 #@! TD*
G04 #@! TA.AperFunction,SMDPad,CuDef*
%ADD14R,1.200000X0.900000*%
G04 #@! TD*
G04 #@! TA.AperFunction,SMDPad,CuDef*
%ADD15R,0.900000X0.800000*%
G04 #@! TD*
G04 #@! TA.AperFunction,HeatsinkPad*
%ADD16R,1.650000X1.650000*%
G04 #@! TD*
G04 #@! TA.AperFunction,SMDPad,CuDef*
%ADD17R,0.300000X1.150000*%
G04 #@! TD*
G04 #@! TA.AperFunction,HeatsinkPad*
%ADD18O,1.000000X2.100000*%
G04 #@! TD*
G04 #@! TA.AperFunction,HeatsinkPad*
%ADD19O,1.000000X1.600000*%
G04 #@! TD*
G04 #@! TA.AperFunction,ViaPad*
%ADD20C,0.500000*%
G04 #@! TD*
G04 #@! TA.AperFunction,ViaPad*
%ADD21C,0.800000*%
G04 #@! TD*
G04 #@! TA.AperFunction,ViaPad*
%ADD22C,0.600000*%
G04 #@! TD*
G04 #@! TA.AperFunction,Conductor*
%ADD23C,0.350000*%
G04 #@! TD*
G04 #@! TA.AperFunction,Conductor*
%ADD24C,0.500000*%
G04 #@! TD*
G04 #@! TA.AperFunction,Conductor*
%ADD25C,0.300000*%
G04 #@! TD*
G04 #@! TA.AperFunction,Conductor*
%ADD26C,0.200000*%
G04 #@! TD*
G04 #@! TA.AperFunction,Conductor*
%ADD27C,0.250000*%
G04 #@! TD*
G04 APERTURE END LIST*
D10*
X82000000Y-66960000D03*
X85000000Y-68230000D03*
X82000000Y-69500000D03*
X85000000Y-70770000D03*
X82000000Y-72040000D03*
G04 #@! TA.AperFunction,SMDPad,CuDef*
G36*
G01*
X89515000Y-87520000D02*
X89885000Y-87520000D01*
G75*
G02*
X90020000Y-87655000I0J-135000D01*
G01*
X90020000Y-87925000D01*
G75*
G02*
X89885000Y-88060000I-135000J0D01*
G01*
X89515000Y-88060000D01*
G75*
G02*
X89380000Y-87925000I0J135000D01*
G01*
X89380000Y-87655000D01*
G75*
G02*
X89515000Y-87520000I135000J0D01*
G01*
G37*
G04 #@! TD.AperFunction*
G04 #@! TA.AperFunction,SMDPad,CuDef*
G36*
G01*
X89515000Y-88540000D02*
X89885000Y-88540000D01*
G75*
G02*
X90020000Y-88675000I0J-135000D01*
G01*
X90020000Y-88945000D01*
G75*
G02*
X89885000Y-89080000I-135000J0D01*
G01*
X89515000Y-89080000D01*
G75*
G02*
X89380000Y-88945000I0J135000D01*
G01*
X89380000Y-88675000D01*
G75*
G02*
X89515000Y-88540000I135000J0D01*
G01*
G37*
G04 #@! TD.AperFunction*
G04 #@! TA.AperFunction,SMDPad,CuDef*
G36*
G01*
X91670000Y-81510000D02*
X91330000Y-81510000D01*
G75*
G02*
X91190000Y-81370000I0J140000D01*
G01*
X91190000Y-81090000D01*
G75*
G02*
X91330000Y-80950000I140000J0D01*
G01*
X91670000Y-80950000D01*
G75*
G02*
X91810000Y-81090000I0J-140000D01*
G01*
X91810000Y-81370000D01*
G75*
G02*
X91670000Y-81510000I-140000J0D01*
G01*
G37*
G04 #@! TD.AperFunction*
G04 #@! TA.AperFunction,SMDPad,CuDef*
G36*
G01*
X91670000Y-80550000D02*
X91330000Y-80550000D01*
G75*
G02*
X91190000Y-80410000I0J140000D01*
G01*
X91190000Y-80130000D01*
G75*
G02*
X91330000Y-79990000I140000J0D01*
G01*
X91670000Y-79990000D01*
G75*
G02*
X91810000Y-80130000I0J-140000D01*
G01*
X91810000Y-80410000D01*
G75*
G02*
X91670000Y-80550000I-140000J0D01*
G01*
G37*
G04 #@! TD.AperFunction*
D11*
X86460000Y-76500000D03*
X87730000Y-73500000D03*
X89000000Y-76500000D03*
X90270000Y-73500000D03*
X91540000Y-76500000D03*
G04 #@! TA.AperFunction,SMDPad,CuDef*
G36*
G01*
X86465000Y-87520000D02*
X86835000Y-87520000D01*
G75*
G02*
X86970000Y-87655000I0J-135000D01*
G01*
X86970000Y-87925000D01*
G75*
G02*
X86835000Y-88060000I-135000J0D01*
G01*
X86465000Y-88060000D01*
G75*
G02*
X86330000Y-87925000I0J135000D01*
G01*
X86330000Y-87655000D01*
G75*
G02*
X86465000Y-87520000I135000J0D01*
G01*
G37*
G04 #@! TD.AperFunction*
G04 #@! TA.AperFunction,SMDPad,CuDef*
G36*
G01*
X86465000Y-88540000D02*
X86835000Y-88540000D01*
G75*
G02*
X86970000Y-88675000I0J-135000D01*
G01*
X86970000Y-88945000D01*
G75*
G02*
X86835000Y-89080000I-135000J0D01*
G01*
X86465000Y-89080000D01*
G75*
G02*
X86330000Y-88945000I0J135000D01*
G01*
X86330000Y-88675000D01*
G75*
G02*
X86465000Y-88540000I135000J0D01*
G01*
G37*
G04 #@! TD.AperFunction*
G04 #@! TA.AperFunction,SMDPad,CuDef*
G36*
G01*
X83730000Y-85490000D02*
X84070000Y-85490000D01*
G75*
G02*
X84210000Y-85630000I0J-140000D01*
G01*
X84210000Y-85910000D01*
G75*
G02*
X84070000Y-86050000I-140000J0D01*
G01*
X83730000Y-86050000D01*
G75*
G02*
X83590000Y-85910000I0J140000D01*
G01*
X83590000Y-85630000D01*
G75*
G02*
X83730000Y-85490000I140000J0D01*
G01*
G37*
G04 #@! TD.AperFunction*
G04 #@! TA.AperFunction,SMDPad,CuDef*
G36*
G01*
X83730000Y-86450000D02*
X84070000Y-86450000D01*
G75*
G02*
X84210000Y-86590000I0J-140000D01*
G01*
X84210000Y-86870000D01*
G75*
G02*
X84070000Y-87010000I-140000J0D01*
G01*
X83730000Y-87010000D01*
G75*
G02*
X83590000Y-86870000I0J140000D01*
G01*
X83590000Y-86590000D01*
G75*
G02*
X83730000Y-86450000I140000J0D01*
G01*
G37*
G04 #@! TD.AperFunction*
D12*
X85750000Y-79500000D03*
D13*
X82000000Y-91000000D03*
G04 #@! TA.AperFunction,SMDPad,CuDef*
G36*
X94300000Y-65260660D02*
G01*
X93239340Y-64200000D01*
X94300000Y-63139340D01*
X95360660Y-64200000D01*
X94300000Y-65260660D01*
G37*
G04 #@! TD.AperFunction*
G04 #@! TA.AperFunction,SMDPad,CuDef*
G36*
G01*
X80950000Y-89425000D02*
X80650000Y-89425000D01*
G75*
G02*
X80500000Y-89275000I0J150000D01*
G01*
X80500000Y-88100000D01*
G75*
G02*
X80650000Y-87950000I150000J0D01*
G01*
X80950000Y-87950000D01*
G75*
G02*
X81100000Y-88100000I0J-150000D01*
G01*
X81100000Y-89275000D01*
G75*
G02*
X80950000Y-89425000I-150000J0D01*
G01*
G37*
G04 #@! TD.AperFunction*
G04 #@! TA.AperFunction,SMDPad,CuDef*
G36*
G01*
X82850000Y-89425000D02*
X82550000Y-89425000D01*
G75*
G02*
X82400000Y-89275000I0J150000D01*
G01*
X82400000Y-88100000D01*
G75*
G02*
X82550000Y-87950000I150000J0D01*
G01*
X82850000Y-87950000D01*
G75*
G02*
X83000000Y-88100000I0J-150000D01*
G01*
X83000000Y-89275000D01*
G75*
G02*
X82850000Y-89425000I-150000J0D01*
G01*
G37*
G04 #@! TD.AperFunction*
G04 #@! TA.AperFunction,SMDPad,CuDef*
G36*
G01*
X81900000Y-87550000D02*
X81600000Y-87550000D01*
G75*
G02*
X81450000Y-87400000I0J150000D01*
G01*
X81450000Y-86225000D01*
G75*
G02*
X81600000Y-86075000I150000J0D01*
G01*
X81900000Y-86075000D01*
G75*
G02*
X82050000Y-86225000I0J-150000D01*
G01*
X82050000Y-87400000D01*
G75*
G02*
X81900000Y-87550000I-150000J0D01*
G01*
G37*
G04 #@! TD.AperFunction*
G04 #@! TA.AperFunction,SMDPad,CuDef*
G36*
G01*
X88720000Y-83685000D02*
X88720000Y-83315000D01*
G75*
G02*
X88855000Y-83180000I135000J0D01*
G01*
X89125000Y-83180000D01*
G75*
G02*
X89260000Y-83315000I0J-135000D01*
G01*
X89260000Y-83685000D01*
G75*
G02*
X89125000Y-83820000I-135000J0D01*
G01*
X88855000Y-83820000D01*
G75*
G02*
X88720000Y-83685000I0J135000D01*
G01*
G37*
G04 #@! TD.AperFunction*
G04 #@! TA.AperFunction,SMDPad,CuDef*
G36*
G01*
X89740000Y-83685000D02*
X89740000Y-83315000D01*
G75*
G02*
X89875000Y-83180000I135000J0D01*
G01*
X90145000Y-83180000D01*
G75*
G02*
X90280000Y-83315000I0J-135000D01*
G01*
X90280000Y-83685000D01*
G75*
G02*
X90145000Y-83820000I-135000J0D01*
G01*
X89875000Y-83820000D01*
G75*
G02*
X89740000Y-83685000I0J135000D01*
G01*
G37*
G04 #@! TD.AperFunction*
G04 #@! TA.AperFunction,SMDPad,CuDef*
G36*
X94300000Y-75860660D02*
G01*
X93239340Y-74800000D01*
X94300000Y-73739340D01*
X95360660Y-74800000D01*
X94300000Y-75860660D01*
G37*
G04 #@! TD.AperFunction*
G04 #@! TA.AperFunction,SMDPad,CuDef*
G36*
G01*
X89777500Y-84470000D02*
X90122500Y-84470000D01*
G75*
G02*
X90270000Y-84617500I0J-147500D01*
G01*
X90270000Y-84912500D01*
G75*
G02*
X90122500Y-85060000I-147500J0D01*
G01*
X89777500Y-85060000D01*
G75*
G02*
X89630000Y-84912500I0J147500D01*
G01*
X89630000Y-84617500D01*
G75*
G02*
X89777500Y-84470000I147500J0D01*
G01*
G37*
G04 #@! TD.AperFunction*
G04 #@! TA.AperFunction,SMDPad,CuDef*
G36*
G01*
X89777500Y-85440000D02*
X90122500Y-85440000D01*
G75*
G02*
X90270000Y-85587500I0J-147500D01*
G01*
X90270000Y-85882500D01*
G75*
G02*
X90122500Y-86030000I-147500J0D01*
G01*
X89777500Y-86030000D01*
G75*
G02*
X89630000Y-85882500I0J147500D01*
G01*
X89630000Y-85587500D01*
G75*
G02*
X89777500Y-85440000I147500J0D01*
G01*
G37*
G04 #@! TD.AperFunction*
G04 #@! TA.AperFunction,SMDPad,CuDef*
G36*
G01*
X90775000Y-86206250D02*
X90775000Y-85693750D01*
G75*
G02*
X90993750Y-85475000I218750J0D01*
G01*
X91431250Y-85475000D01*
G75*
G02*
X91650000Y-85693750I0J-218750D01*
G01*
X91650000Y-86206250D01*
G75*
G02*
X91431250Y-86425000I-218750J0D01*
G01*
X90993750Y-86425000D01*
G75*
G02*
X90775000Y-86206250I0J218750D01*
G01*
G37*
G04 #@! TD.AperFunction*
G04 #@! TA.AperFunction,SMDPad,CuDef*
G36*
G01*
X92350000Y-86206250D02*
X92350000Y-85693750D01*
G75*
G02*
X92568750Y-85475000I218750J0D01*
G01*
X93006250Y-85475000D01*
G75*
G02*
X93225000Y-85693750I0J-218750D01*
G01*
X93225000Y-86206250D01*
G75*
G02*
X93006250Y-86425000I-218750J0D01*
G01*
X92568750Y-86425000D01*
G75*
G02*
X92350000Y-86206250I0J218750D01*
G01*
G37*
G04 #@! TD.AperFunction*
G04 #@! TA.AperFunction,SMDPad,CuDef*
G36*
G01*
X93220000Y-83435000D02*
X93220000Y-83065000D01*
G75*
G02*
X93355000Y-82930000I135000J0D01*
G01*
X93625000Y-82930000D01*
G75*
G02*
X93760000Y-83065000I0J-135000D01*
G01*
X93760000Y-83435000D01*
G75*
G02*
X93625000Y-83570000I-135000J0D01*
G01*
X93355000Y-83570000D01*
G75*
G02*
X93220000Y-83435000I0J135000D01*
G01*
G37*
G04 #@! TD.AperFunction*
G04 #@! TA.AperFunction,SMDPad,CuDef*
G36*
G01*
X94240000Y-83435000D02*
X94240000Y-83065000D01*
G75*
G02*
X94375000Y-82930000I135000J0D01*
G01*
X94645000Y-82930000D01*
G75*
G02*
X94780000Y-83065000I0J-135000D01*
G01*
X94780000Y-83435000D01*
G75*
G02*
X94645000Y-83570000I-135000J0D01*
G01*
X94375000Y-83570000D01*
G75*
G02*
X94240000Y-83435000I0J135000D01*
G01*
G37*
G04 #@! TD.AperFunction*
G04 #@! TA.AperFunction,SMDPad,CuDef*
G36*
G01*
X90800000Y-81550000D02*
X90800000Y-81850000D01*
G75*
G02*
X90650000Y-82000000I-150000J0D01*
G01*
X89625000Y-82000000D01*
G75*
G02*
X89475000Y-81850000I0J150000D01*
G01*
X89475000Y-81550000D01*
G75*
G02*
X89625000Y-81400000I150000J0D01*
G01*
X90650000Y-81400000D01*
G75*
G02*
X90800000Y-81550000I0J-150000D01*
G01*
G37*
G04 #@! TD.AperFunction*
G04 #@! TA.AperFunction,SMDPad,CuDef*
G36*
G01*
X90800000Y-79650000D02*
X90800000Y-79950000D01*
G75*
G02*
X90650000Y-80100000I-150000J0D01*
G01*
X89625000Y-80100000D01*
G75*
G02*
X89475000Y-79950000I0J150000D01*
G01*
X89475000Y-79650000D01*
G75*
G02*
X89625000Y-79500000I150000J0D01*
G01*
X90650000Y-79500000D01*
G75*
G02*
X90800000Y-79650000I0J-150000D01*
G01*
G37*
G04 #@! TD.AperFunction*
G04 #@! TA.AperFunction,SMDPad,CuDef*
G36*
G01*
X88525000Y-80600000D02*
X88525000Y-80900000D01*
G75*
G02*
X88375000Y-81050000I-150000J0D01*
G01*
X87350000Y-81050000D01*
G75*
G02*
X87200000Y-80900000I0J150000D01*
G01*
X87200000Y-80600000D01*
G75*
G02*
X87350000Y-80450000I150000J0D01*
G01*
X88375000Y-80450000D01*
G75*
G02*
X88525000Y-80600000I0J-150000D01*
G01*
G37*
G04 #@! TD.AperFunction*
X84750000Y-81500000D03*
G04 #@! TA.AperFunction,SMDPad,CuDef*
G36*
G01*
X83815000Y-87470000D02*
X84185000Y-87470000D01*
G75*
G02*
X84320000Y-87605000I0J-135000D01*
G01*
X84320000Y-87875000D01*
G75*
G02*
X84185000Y-88010000I-135000J0D01*
G01*
X83815000Y-88010000D01*
G75*
G02*
X83680000Y-87875000I0J135000D01*
G01*
X83680000Y-87605000D01*
G75*
G02*
X83815000Y-87470000I135000J0D01*
G01*
G37*
G04 #@! TD.AperFunction*
G04 #@! TA.AperFunction,SMDPad,CuDef*
G36*
G01*
X83815000Y-88490000D02*
X84185000Y-88490000D01*
G75*
G02*
X84320000Y-88625000I0J-135000D01*
G01*
X84320000Y-88895000D01*
G75*
G02*
X84185000Y-89030000I-135000J0D01*
G01*
X83815000Y-89030000D01*
G75*
G02*
X83680000Y-88895000I0J135000D01*
G01*
X83680000Y-88625000D01*
G75*
G02*
X83815000Y-88490000I135000J0D01*
G01*
G37*
G04 #@! TD.AperFunction*
D10*
X96000000Y-72040000D03*
X93000000Y-70770000D03*
X96000000Y-69500000D03*
X93000000Y-68230000D03*
X96000000Y-66960000D03*
D14*
X94600000Y-89750000D03*
X94600000Y-86750000D03*
X94600000Y-85250000D03*
D15*
X95650000Y-83700000D03*
X95650000Y-91300000D03*
X97850000Y-91300000D03*
X97850000Y-83700000D03*
D11*
X91540000Y-62500000D03*
X90270000Y-65500000D03*
X89000000Y-62500000D03*
X87730000Y-65500000D03*
X86460000Y-62500000D03*
G04 #@! TA.AperFunction,SMDPad,CuDef*
G36*
G01*
X86670000Y-82010000D02*
X86330000Y-82010000D01*
G75*
G02*
X86190000Y-81870000I0J140000D01*
G01*
X86190000Y-81590000D01*
G75*
G02*
X86330000Y-81450000I140000J0D01*
G01*
X86670000Y-81450000D01*
G75*
G02*
X86810000Y-81590000I0J-140000D01*
G01*
X86810000Y-81870000D01*
G75*
G02*
X86670000Y-82010000I-140000J0D01*
G01*
G37*
G04 #@! TD.AperFunction*
G04 #@! TA.AperFunction,SMDPad,CuDef*
G36*
G01*
X86670000Y-81050000D02*
X86330000Y-81050000D01*
G75*
G02*
X86190000Y-80910000I0J140000D01*
G01*
X86190000Y-80630000D01*
G75*
G02*
X86330000Y-80490000I140000J0D01*
G01*
X86670000Y-80490000D01*
G75*
G02*
X86810000Y-80630000I0J-140000D01*
G01*
X86810000Y-80910000D01*
G75*
G02*
X86670000Y-81050000I-140000J0D01*
G01*
G37*
G04 #@! TD.AperFunction*
G04 #@! TA.AperFunction,SMDPad,CuDef*
G36*
G01*
X87515000Y-87520000D02*
X87885000Y-87520000D01*
G75*
G02*
X88020000Y-87655000I0J-135000D01*
G01*
X88020000Y-87925000D01*
G75*
G02*
X87885000Y-88060000I-135000J0D01*
G01*
X87515000Y-88060000D01*
G75*
G02*
X87380000Y-87925000I0J135000D01*
G01*
X87380000Y-87655000D01*
G75*
G02*
X87515000Y-87520000I135000J0D01*
G01*
G37*
G04 #@! TD.AperFunction*
G04 #@! TA.AperFunction,SMDPad,CuDef*
G36*
G01*
X87515000Y-88540000D02*
X87885000Y-88540000D01*
G75*
G02*
X88020000Y-88675000I0J-135000D01*
G01*
X88020000Y-88945000D01*
G75*
G02*
X87885000Y-89080000I-135000J0D01*
G01*
X87515000Y-89080000D01*
G75*
G02*
X87380000Y-88945000I0J135000D01*
G01*
X87380000Y-88675000D01*
G75*
G02*
X87515000Y-88540000I135000J0D01*
G01*
G37*
G04 #@! TD.AperFunction*
G04 #@! TA.AperFunction,SMDPad,CuDef*
G36*
G01*
X87125000Y-68750000D02*
X87125000Y-68650000D01*
G75*
G02*
X87175000Y-68600000I50000J0D01*
G01*
X87925000Y-68600000D01*
G75*
G02*
X87975000Y-68650000I0J-50000D01*
G01*
X87975000Y-68750000D01*
G75*
G02*
X87925000Y-68800000I-50000J0D01*
G01*
X87175000Y-68800000D01*
G75*
G02*
X87125000Y-68750000I0J50000D01*
G01*
G37*
G04 #@! TD.AperFunction*
G04 #@! TA.AperFunction,SMDPad,CuDef*
G36*
G01*
X87125000Y-69150000D02*
X87125000Y-69050000D01*
G75*
G02*
X87175000Y-69000000I50000J0D01*
G01*
X87925000Y-69000000D01*
G75*
G02*
X87975000Y-69050000I0J-50000D01*
G01*
X87975000Y-69150000D01*
G75*
G02*
X87925000Y-69200000I-50000J0D01*
G01*
X87175000Y-69200000D01*
G75*
G02*
X87125000Y-69150000I0J50000D01*
G01*
G37*
G04 #@! TD.AperFunction*
G04 #@! TA.AperFunction,SMDPad,CuDef*
G36*
G01*
X87125000Y-69550000D02*
X87125000Y-69450000D01*
G75*
G02*
X87175000Y-69400000I50000J0D01*
G01*
X87925000Y-69400000D01*
G75*
G02*
X87975000Y-69450000I0J-50000D01*
G01*
X87975000Y-69550000D01*
G75*
G02*
X87925000Y-69600000I-50000J0D01*
G01*
X87175000Y-69600000D01*
G75*
G02*
X87125000Y-69550000I0J50000D01*
G01*
G37*
G04 #@! TD.AperFunction*
G04 #@! TA.AperFunction,SMDPad,CuDef*
G36*
G01*
X87125000Y-69950000D02*
X87125000Y-69850000D01*
G75*
G02*
X87175000Y-69800000I50000J0D01*
G01*
X87925000Y-69800000D01*
G75*
G02*
X87975000Y-69850000I0J-50000D01*
G01*
X87975000Y-69950000D01*
G75*
G02*
X87925000Y-70000000I-50000J0D01*
G01*
X87175000Y-70000000D01*
G75*
G02*
X87125000Y-69950000I0J50000D01*
G01*
G37*
G04 #@! TD.AperFunction*
G04 #@! TA.AperFunction,SMDPad,CuDef*
G36*
G01*
X87125000Y-70350000D02*
X87125000Y-70250000D01*
G75*
G02*
X87175000Y-70200000I50000J0D01*
G01*
X87925000Y-70200000D01*
G75*
G02*
X87975000Y-70250000I0J-50000D01*
G01*
X87975000Y-70350000D01*
G75*
G02*
X87925000Y-70400000I-50000J0D01*
G01*
X87175000Y-70400000D01*
G75*
G02*
X87125000Y-70350000I0J50000D01*
G01*
G37*
G04 #@! TD.AperFunction*
G04 #@! TA.AperFunction,SMDPad,CuDef*
G36*
G01*
X88100000Y-71325000D02*
X88100000Y-70575000D01*
G75*
G02*
X88150000Y-70525000I50000J0D01*
G01*
X88250000Y-70525000D01*
G75*
G02*
X88300000Y-70575000I0J-50000D01*
G01*
X88300000Y-71325000D01*
G75*
G02*
X88250000Y-71375000I-50000J0D01*
G01*
X88150000Y-71375000D01*
G75*
G02*
X88100000Y-71325000I0J50000D01*
G01*
G37*
G04 #@! TD.AperFunction*
G04 #@! TA.AperFunction,SMDPad,CuDef*
G36*
G01*
X88500000Y-71325000D02*
X88500000Y-70575000D01*
G75*
G02*
X88550000Y-70525000I50000J0D01*
G01*
X88650000Y-70525000D01*
G75*
G02*
X88700000Y-70575000I0J-50000D01*
G01*
X88700000Y-71325000D01*
G75*
G02*
X88650000Y-71375000I-50000J0D01*
G01*
X88550000Y-71375000D01*
G75*
G02*
X88500000Y-71325000I0J50000D01*
G01*
G37*
G04 #@! TD.AperFunction*
G04 #@! TA.AperFunction,SMDPad,CuDef*
G36*
G01*
X88900000Y-71325000D02*
X88900000Y-70575000D01*
G75*
G02*
X88950000Y-70525000I50000J0D01*
G01*
X89050000Y-70525000D01*
G75*
G02*
X89100000Y-70575000I0J-50000D01*
G01*
X89100000Y-71325000D01*
G75*
G02*
X89050000Y-71375000I-50000J0D01*
G01*
X88950000Y-71375000D01*
G75*
G02*
X88900000Y-71325000I0J50000D01*
G01*
G37*
G04 #@! TD.AperFunction*
G04 #@! TA.AperFunction,SMDPad,CuDef*
G36*
G01*
X89300000Y-71325000D02*
X89300000Y-70575000D01*
G75*
G02*
X89350000Y-70525000I50000J0D01*
G01*
X89450000Y-70525000D01*
G75*
G02*
X89500000Y-70575000I0J-50000D01*
G01*
X89500000Y-71325000D01*
G75*
G02*
X89450000Y-71375000I-50000J0D01*
G01*
X89350000Y-71375000D01*
G75*
G02*
X89300000Y-71325000I0J50000D01*
G01*
G37*
G04 #@! TD.AperFunction*
G04 #@! TA.AperFunction,SMDPad,CuDef*
G36*
G01*
X89700000Y-71325000D02*
X89700000Y-70575000D01*
G75*
G02*
X89750000Y-70525000I50000J0D01*
G01*
X89850000Y-70525000D01*
G75*
G02*
X89900000Y-70575000I0J-50000D01*
G01*
X89900000Y-71325000D01*
G75*
G02*
X89850000Y-71375000I-50000J0D01*
G01*
X89750000Y-71375000D01*
G75*
G02*
X89700000Y-71325000I0J50000D01*
G01*
G37*
G04 #@! TD.AperFunction*
G04 #@! TA.AperFunction,SMDPad,CuDef*
G36*
G01*
X90025000Y-70350000D02*
X90025000Y-70250000D01*
G75*
G02*
X90075000Y-70200000I50000J0D01*
G01*
X90825000Y-70200000D01*
G75*
G02*
X90875000Y-70250000I0J-50000D01*
G01*
X90875000Y-70350000D01*
G75*
G02*
X90825000Y-70400000I-50000J0D01*
G01*
X90075000Y-70400000D01*
G75*
G02*
X90025000Y-70350000I0J50000D01*
G01*
G37*
G04 #@! TD.AperFunction*
G04 #@! TA.AperFunction,SMDPad,CuDef*
G36*
G01*
X90025000Y-69950000D02*
X90025000Y-69850000D01*
G75*
G02*
X90075000Y-69800000I50000J0D01*
G01*
X90825000Y-69800000D01*
G75*
G02*
X90875000Y-69850000I0J-50000D01*
G01*
X90875000Y-69950000D01*
G75*
G02*
X90825000Y-70000000I-50000J0D01*
G01*
X90075000Y-70000000D01*
G75*
G02*
X90025000Y-69950000I0J50000D01*
G01*
G37*
G04 #@! TD.AperFunction*
G04 #@! TA.AperFunction,SMDPad,CuDef*
G36*
G01*
X90025000Y-69550000D02*
X90025000Y-69450000D01*
G75*
G02*
X90075000Y-69400000I50000J0D01*
G01*
X90825000Y-69400000D01*
G75*
G02*
X90875000Y-69450000I0J-50000D01*
G01*
X90875000Y-69550000D01*
G75*
G02*
X90825000Y-69600000I-50000J0D01*
G01*
X90075000Y-69600000D01*
G75*
G02*
X90025000Y-69550000I0J50000D01*
G01*
G37*
G04 #@! TD.AperFunction*
G04 #@! TA.AperFunction,SMDPad,CuDef*
G36*
G01*
X90025000Y-69150000D02*
X90025000Y-69050000D01*
G75*
G02*
X90075000Y-69000000I50000J0D01*
G01*
X90825000Y-69000000D01*
G75*
G02*
X90875000Y-69050000I0J-50000D01*
G01*
X90875000Y-69150000D01*
G75*
G02*
X90825000Y-69200000I-50000J0D01*
G01*
X90075000Y-69200000D01*
G75*
G02*
X90025000Y-69150000I0J50000D01*
G01*
G37*
G04 #@! TD.AperFunction*
G04 #@! TA.AperFunction,SMDPad,CuDef*
G36*
G01*
X90025000Y-68750000D02*
X90025000Y-68650000D01*
G75*
G02*
X90075000Y-68600000I50000J0D01*
G01*
X90825000Y-68600000D01*
G75*
G02*
X90875000Y-68650000I0J-50000D01*
G01*
X90875000Y-68750000D01*
G75*
G02*
X90825000Y-68800000I-50000J0D01*
G01*
X90075000Y-68800000D01*
G75*
G02*
X90025000Y-68750000I0J50000D01*
G01*
G37*
G04 #@! TD.AperFunction*
G04 #@! TA.AperFunction,SMDPad,CuDef*
G36*
G01*
X89700000Y-68425000D02*
X89700000Y-67675000D01*
G75*
G02*
X89750000Y-67625000I50000J0D01*
G01*
X89850000Y-67625000D01*
G75*
G02*
X89900000Y-67675000I0J-50000D01*
G01*
X89900000Y-68425000D01*
G75*
G02*
X89850000Y-68475000I-50000J0D01*
G01*
X89750000Y-68475000D01*
G75*
G02*
X89700000Y-68425000I0J50000D01*
G01*
G37*
G04 #@! TD.AperFunction*
G04 #@! TA.AperFunction,SMDPad,CuDef*
G36*
G01*
X89300000Y-68425000D02*
X89300000Y-67675000D01*
G75*
G02*
X89350000Y-67625000I50000J0D01*
G01*
X89450000Y-67625000D01*
G75*
G02*
X89500000Y-67675000I0J-50000D01*
G01*
X89500000Y-68425000D01*
G75*
G02*
X89450000Y-68475000I-50000J0D01*
G01*
X89350000Y-68475000D01*
G75*
G02*
X89300000Y-68425000I0J50000D01*
G01*
G37*
G04 #@! TD.AperFunction*
G04 #@! TA.AperFunction,SMDPad,CuDef*
G36*
G01*
X88900000Y-68425000D02*
X88900000Y-67675000D01*
G75*
G02*
X88950000Y-67625000I50000J0D01*
G01*
X89050000Y-67625000D01*
G75*
G02*
X89100000Y-67675000I0J-50000D01*
G01*
X89100000Y-68425000D01*
G75*
G02*
X89050000Y-68475000I-50000J0D01*
G01*
X88950000Y-68475000D01*
G75*
G02*
X88900000Y-68425000I0J50000D01*
G01*
G37*
G04 #@! TD.AperFunction*
G04 #@! TA.AperFunction,SMDPad,CuDef*
G36*
G01*
X88500000Y-68425000D02*
X88500000Y-67675000D01*
G75*
G02*
X88550000Y-67625000I50000J0D01*
G01*
X88650000Y-67625000D01*
G75*
G02*
X88700000Y-67675000I0J-50000D01*
G01*
X88700000Y-68425000D01*
G75*
G02*
X88650000Y-68475000I-50000J0D01*
G01*
X88550000Y-68475000D01*
G75*
G02*
X88500000Y-68425000I0J50000D01*
G01*
G37*
G04 #@! TD.AperFunction*
G04 #@! TA.AperFunction,SMDPad,CuDef*
G36*
G01*
X88100000Y-68425000D02*
X88100000Y-67675000D01*
G75*
G02*
X88150000Y-67625000I50000J0D01*
G01*
X88250000Y-67625000D01*
G75*
G02*
X88300000Y-67675000I0J-50000D01*
G01*
X88300000Y-68425000D01*
G75*
G02*
X88250000Y-68475000I-50000J0D01*
G01*
X88150000Y-68475000D01*
G75*
G02*
X88100000Y-68425000I0J50000D01*
G01*
G37*
G04 #@! TD.AperFunction*
D16*
X89000000Y-69500000D03*
G04 #@! TA.AperFunction,SMDPad,CuDef*
G36*
G01*
X92570000Y-88635000D02*
X92570000Y-88265000D01*
G75*
G02*
X92705000Y-88130000I135000J0D01*
G01*
X92975000Y-88130000D01*
G75*
G02*
X93110000Y-88265000I0J-135000D01*
G01*
X93110000Y-88635000D01*
G75*
G02*
X92975000Y-88770000I-135000J0D01*
G01*
X92705000Y-88770000D01*
G75*
G02*
X92570000Y-88635000I0J135000D01*
G01*
G37*
G04 #@! TD.AperFunction*
G04 #@! TA.AperFunction,SMDPad,CuDef*
G36*
G01*
X93590000Y-88635000D02*
X93590000Y-88265000D01*
G75*
G02*
X93725000Y-88130000I135000J0D01*
G01*
X93995000Y-88130000D01*
G75*
G02*
X94130000Y-88265000I0J-135000D01*
G01*
X94130000Y-88635000D01*
G75*
G02*
X93995000Y-88770000I-135000J0D01*
G01*
X93725000Y-88770000D01*
G75*
G02*
X93590000Y-88635000I0J135000D01*
G01*
G37*
G04 #@! TD.AperFunction*
G04 #@! TA.AperFunction,SMDPad,CuDef*
G36*
G01*
X91587500Y-85050000D02*
X91412500Y-85050000D01*
G75*
G02*
X91325000Y-84962500I0J87500D01*
G01*
X91325000Y-84462500D01*
G75*
G02*
X91412500Y-84375000I87500J0D01*
G01*
X91587500Y-84375000D01*
G75*
G02*
X91675000Y-84462500I0J-87500D01*
G01*
X91675000Y-84962500D01*
G75*
G02*
X91587500Y-85050000I-87500J0D01*
G01*
G37*
G04 #@! TD.AperFunction*
G04 #@! TA.AperFunction,SMDPad,CuDef*
G36*
G01*
X92087500Y-85050000D02*
X91912500Y-85050000D01*
G75*
G02*
X91825000Y-84962500I0J87500D01*
G01*
X91825000Y-84462500D01*
G75*
G02*
X91912500Y-84375000I87500J0D01*
G01*
X92087500Y-84375000D01*
G75*
G02*
X92175000Y-84462500I0J-87500D01*
G01*
X92175000Y-84962500D01*
G75*
G02*
X92087500Y-85050000I-87500J0D01*
G01*
G37*
G04 #@! TD.AperFunction*
G04 #@! TA.AperFunction,SMDPad,CuDef*
G36*
G01*
X92587500Y-85050000D02*
X92412500Y-85050000D01*
G75*
G02*
X92325000Y-84962500I0J87500D01*
G01*
X92325000Y-84462500D01*
G75*
G02*
X92412500Y-84375000I87500J0D01*
G01*
X92587500Y-84375000D01*
G75*
G02*
X92675000Y-84462500I0J-87500D01*
G01*
X92675000Y-84962500D01*
G75*
G02*
X92587500Y-85050000I-87500J0D01*
G01*
G37*
G04 #@! TD.AperFunction*
G04 #@! TA.AperFunction,SMDPad,CuDef*
G36*
G01*
X92587500Y-83625000D02*
X92412500Y-83625000D01*
G75*
G02*
X92325000Y-83537500I0J87500D01*
G01*
X92325000Y-83037500D01*
G75*
G02*
X92412500Y-82950000I87500J0D01*
G01*
X92587500Y-82950000D01*
G75*
G02*
X92675000Y-83037500I0J-87500D01*
G01*
X92675000Y-83537500D01*
G75*
G02*
X92587500Y-83625000I-87500J0D01*
G01*
G37*
G04 #@! TD.AperFunction*
G04 #@! TA.AperFunction,SMDPad,CuDef*
G36*
G01*
X92087500Y-83625000D02*
X91912500Y-83625000D01*
G75*
G02*
X91825000Y-83537500I0J87500D01*
G01*
X91825000Y-83037500D01*
G75*
G02*
X91912500Y-82950000I87500J0D01*
G01*
X92087500Y-82950000D01*
G75*
G02*
X92175000Y-83037500I0J-87500D01*
G01*
X92175000Y-83537500D01*
G75*
G02*
X92087500Y-83625000I-87500J0D01*
G01*
G37*
G04 #@! TD.AperFunction*
G04 #@! TA.AperFunction,SMDPad,CuDef*
G36*
G01*
X91587500Y-83625000D02*
X91412500Y-83625000D01*
G75*
G02*
X91325000Y-83537500I0J87500D01*
G01*
X91325000Y-83037500D01*
G75*
G02*
X91412500Y-82950000I87500J0D01*
G01*
X91587500Y-82950000D01*
G75*
G02*
X91675000Y-83037500I0J-87500D01*
G01*
X91675000Y-83537500D01*
G75*
G02*
X91587500Y-83625000I-87500J0D01*
G01*
G37*
G04 #@! TD.AperFunction*
D13*
X91450000Y-87950000D03*
D17*
X85650000Y-90330000D03*
X86450000Y-90330000D03*
X87750000Y-90330000D03*
X88750000Y-90330000D03*
X89250000Y-90330000D03*
X90250000Y-90330000D03*
X91550000Y-90330000D03*
X92350000Y-90330000D03*
X92050000Y-90330000D03*
X91250000Y-90330000D03*
X90750000Y-90330000D03*
X89750000Y-90330000D03*
X88250000Y-90330000D03*
X87250000Y-90330000D03*
X86750000Y-90330000D03*
X85950000Y-90330000D03*
D18*
X84680000Y-90895000D03*
D19*
X84680000Y-95075000D03*
D18*
X93320000Y-90895000D03*
D19*
X93320000Y-95075000D03*
D13*
X82000000Y-84250000D03*
G04 #@! TA.AperFunction,SMDPad,CuDef*
G36*
G01*
X85415000Y-87520000D02*
X85785000Y-87520000D01*
G75*
G02*
X85920000Y-87655000I0J-135000D01*
G01*
X85920000Y-87925000D01*
G75*
G02*
X85785000Y-88060000I-135000J0D01*
G01*
X85415000Y-88060000D01*
G75*
G02*
X85280000Y-87925000I0J135000D01*
G01*
X85280000Y-87655000D01*
G75*
G02*
X85415000Y-87520000I135000J0D01*
G01*
G37*
G04 #@! TD.AperFunction*
G04 #@! TA.AperFunction,SMDPad,CuDef*
G36*
G01*
X85415000Y-88540000D02*
X85785000Y-88540000D01*
G75*
G02*
X85920000Y-88675000I0J-135000D01*
G01*
X85920000Y-88945000D01*
G75*
G02*
X85785000Y-89080000I-135000J0D01*
G01*
X85415000Y-89080000D01*
G75*
G02*
X85280000Y-88945000I0J135000D01*
G01*
X85280000Y-88675000D01*
G75*
G02*
X85415000Y-88540000I135000J0D01*
G01*
G37*
G04 #@! TD.AperFunction*
G04 #@! TA.AperFunction,SMDPad,CuDef*
G36*
X83700000Y-65260660D02*
G01*
X82639340Y-64200000D01*
X83700000Y-63139340D01*
X84760660Y-64200000D01*
X83700000Y-65260660D01*
G37*
G04 #@! TD.AperFunction*
G04 #@! TA.AperFunction,SMDPad,CuDef*
G36*
G01*
X88515000Y-87520000D02*
X88885000Y-87520000D01*
G75*
G02*
X89020000Y-87655000I0J-135000D01*
G01*
X89020000Y-87925000D01*
G75*
G02*
X88885000Y-88060000I-135000J0D01*
G01*
X88515000Y-88060000D01*
G75*
G02*
X88380000Y-87925000I0J135000D01*
G01*
X88380000Y-87655000D01*
G75*
G02*
X88515000Y-87520000I135000J0D01*
G01*
G37*
G04 #@! TD.AperFunction*
G04 #@! TA.AperFunction,SMDPad,CuDef*
G36*
G01*
X88515000Y-88540000D02*
X88885000Y-88540000D01*
G75*
G02*
X89020000Y-88675000I0J-135000D01*
G01*
X89020000Y-88945000D01*
G75*
G02*
X88885000Y-89080000I-135000J0D01*
G01*
X88515000Y-89080000D01*
G75*
G02*
X88380000Y-88945000I0J135000D01*
G01*
X88380000Y-88675000D01*
G75*
G02*
X88515000Y-88540000I135000J0D01*
G01*
G37*
G04 #@! TD.AperFunction*
X93250000Y-81500000D03*
G04 #@! TA.AperFunction,SMDPad,CuDef*
G36*
G01*
X88765000Y-84470000D02*
X89135000Y-84470000D01*
G75*
G02*
X89270000Y-84605000I0J-135000D01*
G01*
X89270000Y-84875000D01*
G75*
G02*
X89135000Y-85010000I-135000J0D01*
G01*
X88765000Y-85010000D01*
G75*
G02*
X88630000Y-84875000I0J135000D01*
G01*
X88630000Y-84605000D01*
G75*
G02*
X88765000Y-84470000I135000J0D01*
G01*
G37*
G04 #@! TD.AperFunction*
G04 #@! TA.AperFunction,SMDPad,CuDef*
G36*
G01*
X88765000Y-85490000D02*
X89135000Y-85490000D01*
G75*
G02*
X89270000Y-85625000I0J-135000D01*
G01*
X89270000Y-85895000D01*
G75*
G02*
X89135000Y-86030000I-135000J0D01*
G01*
X88765000Y-86030000D01*
G75*
G02*
X88630000Y-85895000I0J135000D01*
G01*
X88630000Y-85625000D01*
G75*
G02*
X88765000Y-85490000I135000J0D01*
G01*
G37*
G04 #@! TD.AperFunction*
G04 #@! TA.AperFunction,SMDPad,CuDef*
G36*
X83700000Y-75860660D02*
G01*
X82639340Y-74800000D01*
X83700000Y-73739340D01*
X84760660Y-74800000D01*
X83700000Y-75860660D01*
G37*
G04 #@! TD.AperFunction*
G04 #@! TA.AperFunction,SMDPad,CuDef*
G36*
G01*
X84600000Y-83900000D02*
X84600000Y-83600000D01*
G75*
G02*
X84750000Y-83450000I150000J0D01*
G01*
X85775000Y-83450000D01*
G75*
G02*
X85925000Y-83600000I0J-150000D01*
G01*
X85925000Y-83900000D01*
G75*
G02*
X85775000Y-84050000I-150000J0D01*
G01*
X84750000Y-84050000D01*
G75*
G02*
X84600000Y-83900000I0J150000D01*
G01*
G37*
G04 #@! TD.AperFunction*
G04 #@! TA.AperFunction,SMDPad,CuDef*
G36*
G01*
X84600000Y-84850000D02*
X84600000Y-84550000D01*
G75*
G02*
X84750000Y-84400000I150000J0D01*
G01*
X85775000Y-84400000D01*
G75*
G02*
X85925000Y-84550000I0J-150000D01*
G01*
X85925000Y-84850000D01*
G75*
G02*
X85775000Y-85000000I-150000J0D01*
G01*
X84750000Y-85000000D01*
G75*
G02*
X84600000Y-84850000I0J150000D01*
G01*
G37*
G04 #@! TD.AperFunction*
G04 #@! TA.AperFunction,SMDPad,CuDef*
G36*
G01*
X84600000Y-85800000D02*
X84600000Y-85500000D01*
G75*
G02*
X84750000Y-85350000I150000J0D01*
G01*
X85775000Y-85350000D01*
G75*
G02*
X85925000Y-85500000I0J-150000D01*
G01*
X85925000Y-85800000D01*
G75*
G02*
X85775000Y-85950000I-150000J0D01*
G01*
X84750000Y-85950000D01*
G75*
G02*
X84600000Y-85800000I0J150000D01*
G01*
G37*
G04 #@! TD.AperFunction*
G04 #@! TA.AperFunction,SMDPad,CuDef*
G36*
G01*
X86875000Y-85800000D02*
X86875000Y-85500000D01*
G75*
G02*
X87025000Y-85350000I150000J0D01*
G01*
X88050000Y-85350000D01*
G75*
G02*
X88200000Y-85500000I0J-150000D01*
G01*
X88200000Y-85800000D01*
G75*
G02*
X88050000Y-85950000I-150000J0D01*
G01*
X87025000Y-85950000D01*
G75*
G02*
X86875000Y-85800000I0J150000D01*
G01*
G37*
G04 #@! TD.AperFunction*
G04 #@! TA.AperFunction,SMDPad,CuDef*
G36*
G01*
X86875000Y-84850000D02*
X86875000Y-84550000D01*
G75*
G02*
X87025000Y-84400000I150000J0D01*
G01*
X88050000Y-84400000D01*
G75*
G02*
X88200000Y-84550000I0J-150000D01*
G01*
X88200000Y-84850000D01*
G75*
G02*
X88050000Y-85000000I-150000J0D01*
G01*
X87025000Y-85000000D01*
G75*
G02*
X86875000Y-84850000I0J150000D01*
G01*
G37*
G04 #@! TD.AperFunction*
G04 #@! TA.AperFunction,SMDPad,CuDef*
G36*
G01*
X86875000Y-83900000D02*
X86875000Y-83600000D01*
G75*
G02*
X87025000Y-83450000I150000J0D01*
G01*
X88050000Y-83450000D01*
G75*
G02*
X88200000Y-83600000I0J-150000D01*
G01*
X88200000Y-83900000D01*
G75*
G02*
X88050000Y-84050000I-150000J0D01*
G01*
X87025000Y-84050000D01*
G75*
G02*
X86875000Y-83900000I0J150000D01*
G01*
G37*
G04 #@! TD.AperFunction*
D20*
X88950000Y-85760000D03*
X84050000Y-84000000D03*
X93000000Y-73500000D03*
X93000000Y-62750000D03*
X90150000Y-80750000D03*
X80800000Y-86550000D03*
X81750000Y-88100000D03*
X93000000Y-65500000D03*
X94300000Y-64200000D03*
X93000000Y-76250000D03*
X84050000Y-84700000D03*
X81750000Y-89300000D03*
X94650000Y-82150000D03*
X83700000Y-74800000D03*
X96000000Y-73500000D03*
X83300000Y-84000000D03*
X91500000Y-82100000D03*
X82250000Y-65500000D03*
X81750000Y-88700000D03*
X87500000Y-81750000D03*
X89700000Y-87790000D03*
X88300000Y-81750000D03*
X85000000Y-65500000D03*
X80800000Y-87300000D03*
X94300000Y-74800000D03*
X83300000Y-84700000D03*
X82250000Y-73500000D03*
X95750000Y-65500000D03*
X85000000Y-62750000D03*
X83700000Y-64200000D03*
X85000000Y-76250000D03*
X85000000Y-73500000D03*
X92500000Y-80000000D03*
X85600000Y-87790000D03*
X89000000Y-69500000D03*
X95350000Y-82700000D03*
D21*
X86460000Y-73250000D03*
D20*
X91897500Y-65750000D03*
X87500000Y-79000000D03*
X86418374Y-86409034D03*
X90500000Y-79050000D03*
X85700000Y-86800000D03*
X96500000Y-68250000D03*
X86880594Y-86976245D03*
D22*
X94750000Y-73250000D03*
X91000001Y-70956471D03*
D23*
X93729185Y-88950814D02*
X92350000Y-90330000D01*
D24*
X97500000Y-83926912D02*
X97500000Y-84500000D01*
X85101810Y-90473189D02*
X84680000Y-90895000D01*
X97400919Y-91300000D02*
X95650000Y-91300000D01*
D25*
X92500000Y-80000000D02*
X92398701Y-79898701D01*
D26*
X85435000Y-70335000D02*
X85000000Y-70770000D01*
D24*
X97309485Y-83716389D02*
X97318826Y-83725695D01*
X87465857Y-81730000D02*
X86500000Y-81730000D01*
D23*
X92915260Y-89764739D02*
X93434185Y-89245814D01*
D24*
X87500000Y-81750000D02*
X87490000Y-81740000D01*
X97532441Y-91245522D02*
X97586919Y-91191044D01*
X92898189Y-90473189D02*
X93042500Y-90617500D01*
X90697659Y-81700000D02*
X90137500Y-81700000D01*
X91770000Y-81500000D02*
X91500000Y-81230000D01*
X94650000Y-82150000D02*
X94580000Y-82220000D01*
X92552500Y-90330000D02*
X92350000Y-90330000D01*
X97269816Y-83700000D02*
X95650000Y-83700000D01*
D26*
X87550000Y-69900000D02*
X88317157Y-69900000D01*
D24*
X95425000Y-83475000D02*
X95650000Y-83700000D01*
D25*
X92648701Y-77851299D02*
X93000000Y-77500000D01*
D23*
X93042500Y-90617500D02*
X92915260Y-90490260D01*
X93729184Y-88580814D02*
X93695814Y-88614185D01*
D24*
X94510000Y-83250000D02*
X94510000Y-82388994D01*
D25*
X92297402Y-78699409D02*
X92297402Y-79654143D01*
D24*
X97500000Y-83926912D02*
X97333030Y-83759942D01*
X85447500Y-90330000D02*
X85650000Y-90330000D01*
X94510000Y-83250000D02*
X94881801Y-83250000D01*
X93250000Y-81500000D02*
X91770000Y-81500000D01*
X84050000Y-84700000D02*
X85262500Y-84700000D01*
D26*
X87550000Y-69900000D02*
X86485182Y-69900000D01*
X88800000Y-69700000D02*
X89000000Y-69500000D01*
D24*
X91500000Y-81562340D02*
X91500000Y-82100000D01*
X93042500Y-90617500D02*
X93042500Y-90617500D01*
X94580000Y-82220000D02*
G75*
G03*
X94509998Y-82388994I169000J-169000D01*
G01*
D23*
X93860000Y-88635000D02*
G75*
G03*
X93729221Y-88580851I-76600J0D01*
G01*
D25*
X92297402Y-79654143D02*
G75*
G03*
X92398714Y-79898688I345898J43D01*
G01*
D23*
X92915260Y-89764739D02*
G75*
G03*
X92764993Y-90127500I362740J-362761D01*
G01*
D24*
X97325935Y-83742812D02*
G75*
G03*
X97333028Y-83759944I24265J12D01*
G01*
D26*
X88800000Y-69700000D02*
G75*
G02*
X88317157Y-69899953I-482800J482900D01*
G01*
D24*
X85447500Y-90330000D02*
G75*
G03*
X85101806Y-90473185I0J-488900D01*
G01*
X97532441Y-91245522D02*
G75*
G02*
X97400919Y-91300014I-131541J131522D01*
G01*
X87490000Y-81740000D02*
G75*
G03*
X87465857Y-81730017I-24100J-24100D01*
G01*
X92898189Y-90473189D02*
G75*
G03*
X92552500Y-90330006I-345689J-345711D01*
G01*
D23*
X93565000Y-88930000D02*
G75*
G02*
X93434179Y-89245808I-446600J0D01*
G01*
D26*
X86485182Y-69900000D02*
G75*
G03*
X85435005Y-70335005I18J-1485200D01*
G01*
D24*
X91500000Y-81562340D02*
G75*
G03*
X91264931Y-81464931I-137700J40D01*
G01*
D23*
X92765000Y-90127500D02*
G75*
G03*
X92915264Y-90490256I513000J0D01*
G01*
D25*
X92648701Y-77851299D02*
G75*
G03*
X92297405Y-78699409I848099J-848101D01*
G01*
D24*
X91265000Y-81465000D02*
G75*
G02*
X90697659Y-81699954I-567300J567400D01*
G01*
X97318826Y-83725695D02*
G75*
G02*
X97325934Y-83742812I-17026J-17105D01*
G01*
D23*
X93695814Y-88614185D02*
G75*
G03*
X93564991Y-88930000I315786J-315815D01*
G01*
D24*
X97309485Y-83716389D02*
G75*
G03*
X97269816Y-83699988I-39685J-39811D01*
G01*
D23*
X93860000Y-88635000D02*
G75*
G02*
X93729179Y-88950808I-446600J0D01*
G01*
D24*
X95425000Y-83475000D02*
G75*
G03*
X94881801Y-83249999I-543200J-543200D01*
G01*
X89950000Y-86417423D02*
X89950000Y-85735000D01*
X89911774Y-86730341D02*
X91018802Y-87837369D01*
X91718750Y-88468750D02*
X91681250Y-88506250D01*
D23*
X91418749Y-88631249D02*
X91513886Y-88536113D01*
X91525000Y-88786243D02*
X91525000Y-90305000D01*
D25*
X86806219Y-91106219D02*
X87125000Y-91425000D01*
D24*
X91764016Y-88450000D02*
X92840000Y-88450000D01*
X91450000Y-87618750D02*
X91450000Y-87790716D01*
D25*
X91550000Y-90480000D02*
X91550000Y-90540000D01*
X91401507Y-90898492D02*
X91025000Y-91275000D01*
D26*
X91400000Y-90330000D02*
X91250000Y-90330000D01*
D25*
X88030330Y-91800000D02*
X89757537Y-91800000D01*
D26*
X92159099Y-85321599D02*
X92787500Y-85950000D01*
D24*
X89717813Y-86650000D02*
X88668458Y-86650000D01*
D25*
X86750000Y-90970493D02*
X86750000Y-90330000D01*
D24*
X89971057Y-86510375D02*
X89911774Y-86569659D01*
X87537500Y-85818750D02*
X87537500Y-85650000D01*
D23*
X91275000Y-88978293D02*
X91275000Y-90330000D01*
X91631250Y-88487500D02*
X91673483Y-88487500D01*
X91612500Y-88575000D02*
X91681250Y-88506250D01*
D24*
X87868750Y-86318750D02*
X87656824Y-86106824D01*
X91684229Y-87053270D02*
X92787500Y-85950000D01*
D26*
X92000000Y-84937500D02*
X92000000Y-84712500D01*
X86750000Y-90330000D02*
X86450000Y-90330000D01*
D24*
X89911774Y-86569659D02*
G75*
G03*
X89911774Y-86730341I80326J-80341D01*
G01*
X91450000Y-87790716D02*
G75*
G02*
X91290716Y-87950000I-159300J16D01*
G01*
D25*
X91550000Y-90480000D02*
G75*
G03*
X91400000Y-90330000I-150000J0D01*
G01*
X91550000Y-90540000D02*
G75*
G02*
X91401511Y-90898496I-507000J0D01*
G01*
X91025000Y-91275000D02*
G75*
G02*
X89757537Y-91800016I-1267500J1267500D01*
G01*
D24*
X89717813Y-86650000D02*
G75*
G03*
X89911767Y-86569652I-13J274300D01*
G01*
X89911774Y-86730341D02*
G75*
G03*
X89717813Y-86649990I-193974J-193959D01*
G01*
X91684229Y-87053270D02*
G75*
G03*
X91450032Y-87618750I565471J-565430D01*
G01*
X87868750Y-86318750D02*
G75*
G03*
X88668458Y-86650017I799750J799750D01*
G01*
D25*
X87125000Y-91425000D02*
G75*
G03*
X88030330Y-91799988I905300J905300D01*
G01*
D23*
X91418749Y-88631249D02*
G75*
G03*
X91274996Y-88978293I347051J-347051D01*
G01*
D25*
X86750000Y-90970493D02*
G75*
G03*
X86806204Y-91106233I192000J-7D01*
G01*
D23*
X91631250Y-88487500D02*
G75*
G03*
X91513857Y-88536084I-50J-166000D01*
G01*
X91673483Y-88487500D02*
G75*
G03*
X91718755Y-88468755I17J64000D01*
G01*
D24*
X91018802Y-87837369D02*
G75*
G03*
X91290716Y-87950001I271898J271869D01*
G01*
D23*
X91681250Y-88506250D02*
G75*
G03*
X91673483Y-88487540I-7750J7750D01*
G01*
D24*
X91764016Y-88450000D02*
G75*
G03*
X91718745Y-88468745I-16J-64000D01*
G01*
X89971057Y-86468260D02*
G75*
G02*
X89971040Y-86510357I-21057J-21040D01*
G01*
X89950000Y-86417423D02*
G75*
G03*
X89971068Y-86468249I71900J23D01*
G01*
D23*
X91612500Y-88575000D02*
G75*
G03*
X91525018Y-88786243I211200J-211200D01*
G01*
D26*
X92000000Y-84937500D02*
G75*
G03*
X92159099Y-85321599I543200J0D01*
G01*
D24*
X87537500Y-85818750D02*
G75*
G03*
X87656799Y-86106849I407400J-50D01*
G01*
D27*
X86665302Y-79545555D02*
X86665302Y-76850472D01*
D24*
X85900000Y-79650000D02*
X85750000Y-79500000D01*
D26*
X86779965Y-72025034D02*
X87733024Y-71071975D01*
D24*
X86645771Y-79800000D02*
X86262132Y-79800000D01*
X86854228Y-79800000D02*
X86645771Y-79800000D01*
D26*
X86460000Y-76354829D02*
X86460000Y-73250000D01*
X86460000Y-72797500D02*
X86460000Y-73250000D01*
D24*
X86854228Y-79800000D02*
X90137500Y-79800000D01*
X91265000Y-80035000D02*
X91500000Y-80270000D01*
X90697659Y-79800000D02*
X90137500Y-79800000D01*
D26*
X88027500Y-70950000D02*
X88200000Y-70950000D01*
X86676299Y-79726299D02*
X86633950Y-79683950D01*
X86779965Y-72025034D02*
G75*
G03*
X86459990Y-72797500I772435J-772466D01*
G01*
X86460000Y-76354829D02*
G75*
G03*
X86562660Y-76602642I350500J29D01*
G01*
D24*
X86645771Y-79800000D02*
G75*
G03*
X86676346Y-79726252I29J43200D01*
G01*
D26*
X86676299Y-79726299D02*
G75*
G03*
X86854228Y-79799989I177901J177899D01*
G01*
D27*
X86633950Y-79621246D02*
G75*
G03*
X86633948Y-79683952I31350J-31354D01*
G01*
X86665302Y-79545555D02*
G75*
G02*
X86633935Y-79621231I-107102J55D01*
G01*
D24*
X85900000Y-79650000D02*
G75*
G03*
X86262132Y-79799987I362100J362100D01*
G01*
X91265000Y-80035000D02*
G75*
G03*
X90697659Y-79800017I-567300J-567300D01*
G01*
D27*
X86562651Y-76602651D02*
G75*
G02*
X86665313Y-76850472I-247851J-247849D01*
G01*
D26*
X88027500Y-70950000D02*
G75*
G03*
X87733035Y-71071986I0J-416400D01*
G01*
D24*
X94068384Y-92040118D02*
X93945868Y-92162629D01*
D25*
X93087500Y-83973896D02*
X92568803Y-83455199D01*
D24*
X83915147Y-89084852D02*
X82700000Y-90300000D01*
X94154251Y-91954251D02*
X94068384Y-92040118D01*
X84000000Y-88880000D02*
X84000000Y-88825528D01*
D25*
X94600000Y-88212132D02*
X94600000Y-89750000D01*
X92525000Y-83349448D02*
X92525000Y-83287500D01*
D24*
X93372790Y-92400000D02*
X84389949Y-92400000D01*
X84020528Y-86730000D02*
X83900000Y-86730000D01*
X84226282Y-86815226D02*
X84633605Y-87222549D01*
X85026250Y-85886250D02*
X85262500Y-85650000D01*
X84790000Y-87840581D02*
X84790000Y-87600121D01*
X84790000Y-86456607D02*
X84790000Y-88290000D01*
X84605818Y-88285235D02*
X84177391Y-88713664D01*
D25*
X93650000Y-85331891D02*
X93650000Y-87443933D01*
X94087867Y-87700000D02*
X93906066Y-87700000D01*
D24*
X94600000Y-90878119D02*
X94600000Y-89750000D01*
X85026250Y-85886250D02*
G75*
G03*
X84790003Y-86456607I570350J-570350D01*
G01*
X93945868Y-92162629D02*
G75*
G02*
X93372790Y-92399984I-573068J573129D01*
G01*
X84226282Y-86815226D02*
G75*
G03*
X84020528Y-86729986I-205782J-205774D01*
G01*
X84633605Y-87222549D02*
G75*
G02*
X84789976Y-87600121I-377605J-377551D01*
G01*
D25*
X93087500Y-83973896D02*
G75*
G02*
X93650005Y-85331891I-1358000J-1358004D01*
G01*
D24*
X84065528Y-88760000D02*
G75*
G03*
X84000000Y-88825528I-28J-65500D01*
G01*
X84177391Y-88713664D02*
G75*
G02*
X84065528Y-88760019I-111891J111864D01*
G01*
X82700000Y-91700000D02*
G75*
G03*
X84389949Y-92400021I1690000J1690000D01*
G01*
D25*
X93725000Y-87625000D02*
G75*
G03*
X93906066Y-87700014I181100J181100D01*
G01*
X93650000Y-87443933D02*
G75*
G03*
X93725010Y-87624990I256100J33D01*
G01*
X94450000Y-87850000D02*
G75*
G02*
X94599987Y-88212132I-362100J-362100D01*
G01*
X94450000Y-87850000D02*
G75*
G03*
X94087867Y-87700013I-362100J-362100D01*
G01*
D24*
X82700000Y-90300000D02*
G75*
G03*
X82700000Y-91700000I700000J-700000D01*
G01*
X94600000Y-90878119D02*
G75*
G02*
X94154246Y-91954246I-1521900J19D01*
G01*
D25*
X92525000Y-83349448D02*
G75*
G03*
X92568818Y-83455184I149600J48D01*
G01*
D24*
X84790000Y-87840581D02*
G75*
G02*
X84605820Y-88285237I-628800J-19D01*
G01*
X84000000Y-88880000D02*
G75*
G02*
X83915146Y-89084851I-289700J0D01*
G01*
X82400939Y-86161560D02*
X81750000Y-86812500D01*
X82257210Y-85234710D02*
X82400939Y-85378439D01*
X83346250Y-85770000D02*
X83900000Y-85770000D01*
X82000000Y-84613750D02*
X82000000Y-84250000D01*
X82400939Y-85378439D02*
G75*
G03*
X83346250Y-85770027I945361J945339D01*
G01*
X82400939Y-86161560D02*
G75*
G03*
X82400939Y-85378440I-391539J391560D01*
G01*
X82000000Y-84613750D02*
G75*
G03*
X82257179Y-85234741I878200J-50D01*
G01*
X83346250Y-85770000D02*
G75*
G03*
X82400908Y-86161529I-50J-1336900D01*
G01*
D26*
X89980000Y-83530000D02*
X90010000Y-83500000D01*
X89950000Y-83602426D02*
X89950000Y-84765000D01*
X89980000Y-83530000D02*
G75*
G03*
X89950011Y-83602426I72400J-72400D01*
G01*
D24*
X88759227Y-80984228D02*
X88774999Y-81000000D01*
X89025000Y-81676342D02*
X89025000Y-81603555D01*
X91293750Y-84793750D02*
X91375000Y-84712500D01*
X89326468Y-82404152D02*
X89162598Y-82240286D01*
X87876642Y-80750000D02*
X88193749Y-80750000D01*
X87828357Y-80770000D02*
X86500000Y-80770000D01*
X90048855Y-82730000D02*
X90224192Y-82729990D01*
X89326468Y-82404152D02*
X89391131Y-82468815D01*
X85119375Y-81130624D02*
X84750000Y-81500000D01*
X85990000Y-80770000D02*
X86500000Y-80770000D01*
X90048855Y-82730000D02*
X90021686Y-82730000D01*
X91212500Y-84989904D02*
X91212500Y-85950000D01*
X90875000Y-83858946D02*
X90875000Y-83556144D01*
X91125000Y-84462500D02*
X91375000Y-84712500D01*
X89025000Y-81676342D02*
X89025009Y-81908145D01*
X90633028Y-82971972D02*
X90509014Y-82847958D01*
X90633028Y-82971972D02*
G75*
G02*
X90874982Y-83556144I-584128J-584128D01*
G01*
X90875000Y-83858946D02*
G75*
G03*
X91124984Y-84462516I853500J-54D01*
G01*
X87876642Y-80750000D02*
G75*
G03*
X87852488Y-80759988I-42J-34100D01*
G01*
X89025009Y-81908145D02*
G75*
G03*
X89162620Y-82240264I469691J45D01*
G01*
X88774999Y-81000000D02*
G75*
G02*
X89025019Y-81603555I-603599J-603600D01*
G01*
X90509014Y-82847958D02*
G75*
G03*
X90224192Y-82729992I-284814J-284842D01*
G01*
X87852500Y-80760000D02*
G75*
G02*
X87828357Y-80769983I-24100J24100D01*
G01*
X89391131Y-82468815D02*
G75*
G03*
X90021686Y-82730021I630569J630515D01*
G01*
X88759227Y-80984228D02*
G75*
G03*
X88193749Y-80750034I-565427J-565472D01*
G01*
X85990000Y-80770000D02*
G75*
G03*
X85119386Y-81130635I0J-1231200D01*
G01*
X91293750Y-84793750D02*
G75*
G03*
X91212502Y-84989904I196150J-196150D01*
G01*
D26*
X91948750Y-65801250D02*
X91897500Y-65750000D01*
X95577350Y-66537350D02*
X96000000Y-66960000D01*
X90450000Y-68505343D02*
X90450000Y-68700000D01*
X92059828Y-66440171D02*
X92192650Y-66307350D01*
X91880343Y-66704267D02*
X91880343Y-66750000D01*
X92059828Y-66440171D02*
X91940171Y-66559828D01*
X91788176Y-66972509D02*
X90587643Y-68173042D01*
X94556982Y-66114700D02*
X92657748Y-66114700D01*
X92000000Y-66415389D02*
X92000000Y-65924978D01*
X91940171Y-66559828D02*
G75*
G03*
X91999982Y-66415389I-144471J144428D01*
G01*
X92000000Y-66415389D02*
G75*
G03*
X92059777Y-66440120I35000J-11D01*
G01*
X92657748Y-66114700D02*
G75*
G03*
X92192636Y-66307336I-48J-657700D01*
G01*
X91940171Y-66559828D02*
G75*
G03*
X91880316Y-66704267I144429J-144472D01*
G01*
X91948750Y-65801250D02*
G75*
G02*
X92000009Y-65924978I-123750J-123750D01*
G01*
X90587643Y-68173042D02*
G75*
G03*
X90450017Y-68505343I332257J-332258D01*
G01*
X95577350Y-66537350D02*
G75*
G03*
X94556982Y-66114707I-1020350J-1020350D01*
G01*
X91880343Y-66750000D02*
G75*
G02*
X91788170Y-66972503I-314643J0D01*
G01*
X88250000Y-90742500D02*
X88250000Y-91052469D01*
X88084352Y-89273666D02*
X87580686Y-88770000D01*
X89250000Y-91052469D02*
X89250000Y-90330000D01*
X88250000Y-89917500D02*
X88250000Y-90742500D01*
X88250000Y-89917500D02*
X88250000Y-89884657D01*
X88250000Y-89884657D02*
X88249991Y-89673532D01*
X88497530Y-91300000D02*
X89002469Y-91300000D01*
X87580686Y-88770000D02*
X86650000Y-88770000D01*
X88084352Y-89273666D02*
G75*
G02*
X88250034Y-89673532I-399852J-399934D01*
G01*
X89177500Y-91227500D02*
G75*
G02*
X89002469Y-91299987I-175000J175000D01*
G01*
X88322500Y-91227500D02*
G75*
G03*
X88497530Y-91299987I175000J175000D01*
G01*
X89250000Y-91052469D02*
G75*
G02*
X89177509Y-91227509I-247500J-31D01*
G01*
X88250000Y-91052469D02*
G75*
G03*
X88322491Y-91227509I247500J-31D01*
G01*
X88850000Y-89066066D02*
X88850000Y-89384289D01*
X89664644Y-89455000D02*
X88920710Y-89455000D01*
X89750000Y-89540355D02*
X89750000Y-90330000D01*
X88700000Y-88790000D02*
X88700000Y-88770000D01*
X88775000Y-88885000D02*
X88714142Y-88824142D01*
X88750000Y-89625710D02*
X88750000Y-90330000D01*
X88800000Y-89505000D02*
G75*
G03*
X88750004Y-89625710I120700J-120700D01*
G01*
X88850000Y-89384289D02*
G75*
G03*
X88920710Y-89455000I70700J-11D01*
G01*
X88920710Y-89455000D02*
G75*
G03*
X88799997Y-89504997I-10J-170700D01*
G01*
X88800000Y-89505000D02*
G75*
G03*
X88849996Y-89384289I-120700J120700D01*
G01*
X89725000Y-89480000D02*
G75*
G03*
X89664644Y-89454982I-60400J-60400D01*
G01*
X89725000Y-89480000D02*
G75*
G02*
X89750018Y-89540355I-60400J-60400D01*
G01*
X88700000Y-88790000D02*
G75*
G03*
X88714139Y-88824145I48300J0D01*
G01*
X88775000Y-88885000D02*
G75*
G02*
X88850014Y-89066066I-181100J-181100D01*
G01*
X89700000Y-88785000D02*
X89700000Y-88770000D01*
X90664644Y-89455000D02*
X90527500Y-89455000D01*
X90750000Y-89540355D02*
X90750000Y-90330000D01*
X90233024Y-89333024D02*
X89710606Y-88810606D01*
X89700000Y-88785000D02*
G75*
G03*
X89710609Y-88810603I36200J0D01*
G01*
X90725000Y-89480000D02*
G75*
G02*
X90750018Y-89540355I-60400J-60400D01*
G01*
X90725000Y-89480000D02*
G75*
G03*
X90664644Y-89454982I-60400J-60400D01*
G01*
X90233024Y-89333024D02*
G75*
G03*
X90527500Y-89454986I294476J294524D01*
G01*
X87664644Y-89455000D02*
X86701083Y-89455000D01*
X87750000Y-89540355D02*
X87750000Y-90330000D01*
X85922500Y-89132500D02*
X85600000Y-88810000D01*
X85922500Y-89132500D02*
G75*
G03*
X86701083Y-89455007I778600J778600D01*
G01*
X87725000Y-89480000D02*
G75*
G03*
X87664644Y-89454982I-60400J-60400D01*
G01*
X87725000Y-89480000D02*
G75*
G02*
X87750018Y-89540355I-60400J-60400D01*
G01*
D25*
X91500000Y-83871547D02*
X91500000Y-83287500D01*
X92500000Y-84239881D02*
X92500000Y-84712500D01*
X91633195Y-84004743D02*
X92264861Y-84004743D01*
X92431129Y-84073613D02*
G75*
G02*
X92500024Y-84239881I-166229J-166287D01*
G01*
X91539012Y-83965731D02*
G75*
G03*
X91633195Y-84004732I94188J94231D01*
G01*
X92431129Y-84073613D02*
G75*
G03*
X92264861Y-84004776I-166229J-166287D01*
G01*
X91500000Y-83871547D02*
G75*
G03*
X91538985Y-83965758I133200J-53D01*
G01*
D26*
X95419364Y-85930634D02*
X94600000Y-86750000D01*
X93870000Y-84120000D02*
X93663241Y-83913241D01*
X95243933Y-84500000D02*
X94787401Y-84500000D01*
X92000000Y-82820710D02*
X92000000Y-83287500D01*
X95500000Y-85735962D02*
X95500000Y-84756066D01*
X92170710Y-82650000D02*
X92698242Y-82650000D01*
X93025594Y-82785594D02*
X93316758Y-83076758D01*
X95500000Y-85735962D02*
G75*
G02*
X95419381Y-85930651I-275300J-38D01*
G01*
X93870000Y-84120000D02*
G75*
G03*
X94787401Y-84500000I917400J917400D01*
G01*
X95425000Y-84575000D02*
G75*
G02*
X95500014Y-84756066I-181100J-181100D01*
G01*
X93025594Y-82785594D02*
G75*
G03*
X92698242Y-82649957I-327394J-327306D01*
G01*
X93316758Y-83076758D02*
G75*
G02*
X93489995Y-83495000I-418258J-418242D01*
G01*
X92050000Y-82700000D02*
G75*
G03*
X92000004Y-82820710I120700J-120700D01*
G01*
X93490000Y-83495000D02*
G75*
G03*
X93663237Y-83913245I591500J0D01*
G01*
X95425000Y-84575000D02*
G75*
G03*
X95243933Y-84499986I-181100J-181100D01*
G01*
X92170710Y-82650000D02*
G75*
G03*
X92049997Y-82699997I-10J-170700D01*
G01*
X88109376Y-83899376D02*
X88950000Y-84740000D01*
X87748750Y-83750000D02*
X87537500Y-83750000D01*
X88109376Y-83899376D02*
G75*
G03*
X87748750Y-83750035I-360576J-360624D01*
G01*
X88392512Y-83150000D02*
X86286764Y-83150000D01*
X85562500Y-83450000D02*
X85262500Y-83750000D01*
X88815000Y-83325000D02*
X88990000Y-83500000D01*
X88815000Y-83325000D02*
G75*
G03*
X88392512Y-83149995I-422500J-422500D01*
G01*
X86286764Y-83150000D02*
G75*
G03*
X85562511Y-83450011I36J-1024300D01*
G01*
X87845000Y-73385000D02*
X88165000Y-73065000D01*
X88600000Y-72014817D02*
X88600000Y-70950000D01*
X87401543Y-86719376D02*
X87215474Y-86533307D01*
X86418374Y-86409034D02*
X86426979Y-86417639D01*
X87691992Y-87091992D02*
X87459644Y-86859644D01*
X88649462Y-87750000D02*
X88700000Y-87750000D01*
X86957004Y-86426245D02*
X86447755Y-86426245D01*
X88116931Y-87268007D02*
X88563188Y-87714264D01*
X87500000Y-73892634D02*
X87500000Y-79000000D01*
X87845000Y-73385000D02*
X87615000Y-73615000D01*
X87615000Y-73615000D02*
G75*
G03*
X87500014Y-73892634I277600J-277600D01*
G01*
X88600000Y-72014817D02*
G75*
G02*
X88164995Y-73064995I-1485200J17D01*
G01*
X87401543Y-86719376D02*
G75*
G02*
X87430584Y-86789510I-70143J-70124D01*
G01*
X87691992Y-87091992D02*
G75*
G03*
X87904462Y-87180020I212508J212492D01*
G01*
X88563188Y-87714264D02*
G75*
G03*
X88649462Y-87750030I86312J86264D01*
G01*
X87215474Y-86533307D02*
G75*
G03*
X86957004Y-86426249I-258474J-258493D01*
G01*
X87430594Y-86789510D02*
G75*
G03*
X87459645Y-86859643I99206J10D01*
G01*
X88116931Y-87268007D02*
G75*
G03*
X87904462Y-87180033I-212431J-212493D01*
G01*
X86426979Y-86417639D02*
G75*
G03*
X86447755Y-86426287I20821J20739D01*
G01*
X90895000Y-72438916D02*
X90895000Y-71980159D01*
X91540000Y-76375218D02*
X91540000Y-73996083D01*
X90266975Y-71071975D02*
X90696898Y-71501898D01*
X91045211Y-79050000D02*
X90500000Y-79050000D01*
X85700000Y-86800000D02*
X86650000Y-87750000D01*
X91363532Y-78731679D02*
X91363532Y-76801249D01*
X89972500Y-70950000D02*
X89800000Y-70950000D01*
X91451766Y-76588234D02*
G75*
G03*
X91363573Y-76801249I213034J-212966D01*
G01*
X90266975Y-71071975D02*
G75*
G03*
X89972500Y-70950014I-294475J-294525D01*
G01*
X91540000Y-76375218D02*
G75*
G02*
X91451767Y-76588235I-301300J18D01*
G01*
X91363532Y-78731679D02*
G75*
G02*
X91270311Y-78956779I-318332J-21D01*
G01*
X91270298Y-78956766D02*
G75*
G02*
X91045211Y-79050014I-225098J225066D01*
G01*
X90895000Y-72438916D02*
G75*
G03*
X91217505Y-73217495I1101100J16D01*
G01*
X91217500Y-73217500D02*
G75*
G02*
X91540007Y-73996083I-778600J-778600D01*
G01*
X90696898Y-71501898D02*
G75*
G02*
X90895018Y-71980159I-478298J-478302D01*
G01*
X95764142Y-68250000D02*
X96500000Y-68250000D01*
X92565000Y-68665000D02*
X93000000Y-68230000D01*
X91514817Y-69100000D02*
X90450000Y-69100000D01*
X95715857Y-68230000D02*
X93000000Y-68230000D01*
X86942385Y-86992385D02*
X87700000Y-87750000D01*
X86903419Y-86976245D02*
X86880594Y-86976245D01*
X95740000Y-68240000D02*
G75*
G03*
X95764142Y-68249983I24100J24100D01*
G01*
X92565000Y-68665000D02*
G75*
G02*
X91514817Y-69100007I-1050200J1050200D01*
G01*
X86942385Y-86992385D02*
G75*
G03*
X86903419Y-86976216I-38985J-38915D01*
G01*
X95740000Y-68240000D02*
G75*
G03*
X95715857Y-68230017I-24100J-24100D01*
G01*
D24*
X83522872Y-87864627D02*
X82700000Y-88687500D01*
X83823750Y-87740000D02*
X84000000Y-87740000D01*
X83823750Y-87740000D02*
G75*
G03*
X83522849Y-87864604I-50J-425500D01*
G01*
D26*
X88165000Y-65935000D02*
X87730000Y-65500000D01*
X88600000Y-66985182D02*
X88600000Y-68050000D01*
X88165000Y-65935000D02*
G75*
G02*
X88600007Y-66985182I-1050200J-1050200D01*
G01*
X86460000Y-65668586D02*
X86460000Y-62500000D01*
X87733024Y-67928024D02*
X87157500Y-67352500D01*
X88027500Y-68050000D02*
X88200000Y-68050000D01*
X86460000Y-65668586D02*
G75*
G03*
X87157496Y-67352504I2381400J-14D01*
G01*
X87733024Y-67928024D02*
G75*
G03*
X88027500Y-68049986I294476J294524D01*
G01*
X89400000Y-66985182D02*
X89400000Y-68050000D01*
X89835000Y-65935000D02*
X90270000Y-65500000D01*
X89835000Y-65935000D02*
G75*
G03*
X89399993Y-66985182I1050200J-1050200D01*
G01*
X89000000Y-68050000D02*
X89000000Y-62500000D01*
X91347500Y-64578618D02*
X91347500Y-65997204D01*
X89972500Y-68050000D02*
X89800000Y-68050000D01*
X90266975Y-67928024D02*
X90746250Y-67448750D01*
X91540000Y-64113881D02*
X91540000Y-62500000D01*
X91347500Y-65997204D02*
G75*
G02*
X90746249Y-67448749I-2052800J4D01*
G01*
X91540000Y-64113881D02*
G75*
G02*
X91443755Y-64346255I-328600J-19D01*
G01*
X90266975Y-67928024D02*
G75*
G02*
X89972500Y-68049985I-294475J294524D01*
G01*
X91443750Y-64346250D02*
G75*
G03*
X91347507Y-64578618I232350J-232350D01*
G01*
X86485182Y-69100000D02*
X87550000Y-69100000D01*
X85435000Y-68665000D02*
X85000000Y-68230000D01*
X85435000Y-68665000D02*
G75*
G03*
X86485182Y-69100007I1050200J1050200D01*
G01*
X87550000Y-69500000D02*
X82000000Y-69500000D01*
X87550000Y-68537500D02*
X87550000Y-68700000D01*
X85134443Y-66960000D02*
X82000000Y-66960000D01*
X87435095Y-68260095D02*
X86842500Y-67667500D01*
X87435095Y-68260095D02*
G75*
G02*
X87550003Y-68537500I-277395J-277405D01*
G01*
X86842500Y-67667500D02*
G75*
G03*
X85134443Y-66959982I-1708100J-1708100D01*
G01*
X85168586Y-72040000D02*
X82000000Y-72040000D01*
X86852499Y-71342499D02*
X87428024Y-70766975D01*
X87550000Y-70472500D02*
X87550000Y-70300000D01*
X86852499Y-71342499D02*
G75*
G02*
X85168586Y-72039993I-1683899J1683899D01*
G01*
X87550000Y-70472500D02*
G75*
G02*
X87428034Y-70766985I-416500J0D01*
G01*
X89000000Y-70950000D02*
X89000000Y-76500000D01*
X89400000Y-72014817D02*
X89400000Y-70950000D01*
X89835000Y-73065000D02*
X90270000Y-73500000D01*
X89400000Y-72014817D02*
G75*
G03*
X89835005Y-73064995I1485200J17D01*
G01*
X90450000Y-70353235D02*
X90450000Y-70300000D01*
X90487642Y-70444112D02*
X91000001Y-70956471D01*
X94770000Y-73250000D02*
X94750000Y-73250000D01*
X94804142Y-73235857D02*
X96000000Y-72040000D01*
X94804142Y-73235857D02*
G75*
G02*
X94770000Y-73249995I-34142J34157D01*
G01*
X90450000Y-70353235D02*
G75*
G03*
X90487664Y-70444090I128500J35D01*
G01*
X90450000Y-69500000D02*
X96000000Y-69500000D01*
X92565000Y-70335000D02*
X93000000Y-70770000D01*
X91514817Y-69900000D02*
X90450000Y-69900000D01*
X92565000Y-70335000D02*
G75*
G03*
X91514817Y-69899993I-1050200J-1050200D01*
G01*
G04 #@! TA.AperFunction,Conductor*
G36*
X92369693Y-78746770D02*
G01*
X92383365Y-78765969D01*
X92389511Y-78776613D01*
X92473387Y-78860489D01*
X92576114Y-78919799D01*
X92626534Y-78933309D01*
X92681958Y-78965241D01*
X93099590Y-79381353D01*
X93758794Y-80038159D01*
X93792391Y-80099421D01*
X93787534Y-80169122D01*
X93745764Y-80225132D01*
X93680344Y-80249668D01*
X93671273Y-80250000D01*
X93500000Y-80250000D01*
X93500000Y-81250000D01*
X94500000Y-81250000D01*
X94500000Y-81075259D01*
X94519685Y-81008220D01*
X94572489Y-80962465D01*
X94641647Y-80952521D01*
X94705203Y-80981546D01*
X94711510Y-80987407D01*
X96329253Y-82599264D01*
X96362850Y-82660526D01*
X96357993Y-82730227D01*
X96316223Y-82786237D01*
X96250803Y-82810773D01*
X96213223Y-82807783D01*
X96207377Y-82806402D01*
X96147844Y-82800000D01*
X95900000Y-82800000D01*
X95900000Y-83450000D01*
X96600000Y-83450000D01*
X96600000Y-83252172D01*
X96599999Y-83252155D01*
X96593598Y-83192627D01*
X96591813Y-83185070D01*
X96595023Y-83184311D01*
X96591049Y-83129705D01*
X96624456Y-83068340D01*
X96685737Y-83034777D01*
X96755435Y-83039674D01*
X96799769Y-83068069D01*
X96866054Y-83134112D01*
X96899651Y-83195373D01*
X96901823Y-83235203D01*
X96900000Y-83252159D01*
X96900000Y-83450000D01*
X97131866Y-83450000D01*
X97198905Y-83469685D01*
X97219385Y-83486157D01*
X97472307Y-83738159D01*
X97505904Y-83799421D01*
X97501047Y-83869122D01*
X97459277Y-83925132D01*
X97393857Y-83949668D01*
X97384786Y-83950000D01*
X96900000Y-83950000D01*
X96900000Y-84147844D01*
X96906401Y-84207372D01*
X96906403Y-84207379D01*
X96956645Y-84342086D01*
X96956649Y-84342093D01*
X97042809Y-84457187D01*
X97042812Y-84457190D01*
X97157906Y-84543350D01*
X97157913Y-84543354D01*
X97292620Y-84593596D01*
X97292627Y-84593598D01*
X97352155Y-84599999D01*
X97352172Y-84600000D01*
X97675502Y-84600000D01*
X97742541Y-84619685D01*
X97788296Y-84672489D01*
X97799502Y-84724000D01*
X97799502Y-90276000D01*
X97779817Y-90343039D01*
X97727013Y-90388794D01*
X97675502Y-90400000D01*
X97352155Y-90400000D01*
X97292627Y-90406401D01*
X97292620Y-90406403D01*
X97157913Y-90456645D01*
X97157906Y-90456649D01*
X97042812Y-90542809D01*
X97042809Y-90542812D01*
X96956649Y-90657906D01*
X96956645Y-90657913D01*
X96906403Y-90792620D01*
X96906401Y-90792627D01*
X96900000Y-90852155D01*
X96900000Y-91050000D01*
X97571832Y-91050000D01*
X97638871Y-91069685D01*
X97684626Y-91122489D01*
X97694570Y-91191647D01*
X97677559Y-91238790D01*
X97604164Y-91358560D01*
X97592727Y-91374302D01*
X97495282Y-91488394D01*
X97488675Y-91495541D01*
X97470536Y-91513680D01*
X97409216Y-91547165D01*
X97382855Y-91550000D01*
X96900000Y-91550000D01*
X96900000Y-91747844D01*
X96906401Y-91807372D01*
X96906403Y-91807380D01*
X96952019Y-91929683D01*
X96957003Y-91999375D01*
X96923518Y-92060697D01*
X94477037Y-94507181D01*
X94415714Y-94540666D01*
X94346023Y-94535682D01*
X94290089Y-94493810D01*
X94274795Y-94466952D01*
X94206192Y-94301328D01*
X94206185Y-94301315D01*
X94096751Y-94137537D01*
X94096748Y-94137533D01*
X93957466Y-93998251D01*
X93957462Y-93998248D01*
X93793684Y-93888814D01*
X93793671Y-93888807D01*
X93611691Y-93813429D01*
X93611683Y-93813427D01*
X93570000Y-93805135D01*
X93570000Y-94608011D01*
X93560060Y-94590795D01*
X93504205Y-94534940D01*
X93435796Y-94495444D01*
X93359496Y-94475000D01*
X93280504Y-94475000D01*
X93204204Y-94495444D01*
X93135795Y-94534940D01*
X93079940Y-94590795D01*
X93070000Y-94608011D01*
X93070000Y-93805136D01*
X93069999Y-93805135D01*
X93028316Y-93813427D01*
X93028308Y-93813429D01*
X92846328Y-93888807D01*
X92846315Y-93888814D01*
X92682537Y-93998248D01*
X92682533Y-93998251D01*
X92543251Y-94137533D01*
X92543248Y-94137537D01*
X92433814Y-94301315D01*
X92433807Y-94301328D01*
X92358430Y-94483306D01*
X92358427Y-94483318D01*
X92320000Y-94676504D01*
X92320000Y-94825000D01*
X93020000Y-94825000D01*
X93020000Y-95325000D01*
X92320000Y-95325000D01*
X92320000Y-95473495D01*
X92358427Y-95666681D01*
X92358430Y-95666693D01*
X92433807Y-95848671D01*
X92433812Y-95848680D01*
X92439109Y-95856607D01*
X92459988Y-95923284D01*
X92441505Y-95990665D01*
X92389527Y-96037356D01*
X92336008Y-96049500D01*
X85663992Y-96049500D01*
X85596953Y-96029815D01*
X85551198Y-95977011D01*
X85541254Y-95907853D01*
X85560891Y-95856607D01*
X85566187Y-95848680D01*
X85566192Y-95848671D01*
X85641569Y-95666693D01*
X85641572Y-95666681D01*
X85679999Y-95473495D01*
X85680000Y-95473492D01*
X85680000Y-95325000D01*
X84980000Y-95325000D01*
X84980000Y-94825000D01*
X85680000Y-94825000D01*
X85680000Y-94676508D01*
X85679999Y-94676504D01*
X85641572Y-94483318D01*
X85641569Y-94483306D01*
X85566192Y-94301328D01*
X85566185Y-94301315D01*
X85456751Y-94137537D01*
X85456748Y-94137533D01*
X85317466Y-93998251D01*
X85317462Y-93998248D01*
X85153684Y-93888814D01*
X85153671Y-93888807D01*
X84971691Y-93813429D01*
X84971683Y-93813427D01*
X84930000Y-93805135D01*
X84930000Y-94608011D01*
X84920060Y-94590795D01*
X84864205Y-94534940D01*
X84795796Y-94495444D01*
X84719496Y-94475000D01*
X84640504Y-94475000D01*
X84564204Y-94495444D01*
X84495795Y-94534940D01*
X84439940Y-94590795D01*
X84430000Y-94608011D01*
X84430000Y-93805136D01*
X84429999Y-93805135D01*
X84388316Y-93813427D01*
X84388308Y-93813429D01*
X84206328Y-93888807D01*
X84206315Y-93888814D01*
X84042537Y-93998248D01*
X84042533Y-93998251D01*
X83903251Y-94137533D01*
X83903248Y-94137537D01*
X83793814Y-94301315D01*
X83793809Y-94301324D01*
X83725205Y-94466952D01*
X83681364Y-94521355D01*
X83615070Y-94543420D01*
X83547371Y-94526141D01*
X83522963Y-94507180D01*
X82008308Y-92992526D01*
X81477960Y-92462179D01*
X81444476Y-92400857D01*
X81449460Y-92331165D01*
X81491332Y-92275232D01*
X81556796Y-92250815D01*
X81565642Y-92250499D01*
X82137769Y-92250499D01*
X82204808Y-92270184D01*
X82219818Y-92282280D01*
X82219854Y-92282236D01*
X82220013Y-92282364D01*
X82220803Y-92283073D01*
X82225450Y-92286818D01*
X82229633Y-92291001D01*
X82229937Y-92291274D01*
X82278418Y-92339756D01*
X82278423Y-92339760D01*
X82516940Y-92535508D01*
X82773495Y-92706934D01*
X83045618Y-92852389D01*
X83330686Y-92970472D01*
X83625956Y-93060045D01*
X83928583Y-93120247D01*
X84235654Y-93150496D01*
X84235661Y-93150496D01*
X84309899Y-93150497D01*
X84309931Y-93150500D01*
X84389933Y-93150500D01*
X84468814Y-93150502D01*
X84468818Y-93150500D01*
X84475578Y-93150501D01*
X84475615Y-93150500D01*
X93452970Y-93150500D01*
X93453288Y-93150483D01*
X93475088Y-93150484D01*
X93677951Y-93123781D01*
X93875595Y-93070828D01*
X94064636Y-92992532D01*
X94241840Y-92890232D01*
X94404177Y-92765678D01*
X94418871Y-92750983D01*
X94418911Y-92750949D01*
X94424267Y-92745592D01*
X94424272Y-92745590D01*
X94476523Y-92693341D01*
X94532303Y-92637567D01*
X94532305Y-92637563D01*
X94537667Y-92632202D01*
X94537685Y-92632180D01*
X94541833Y-92628032D01*
X94541848Y-92628020D01*
X94546794Y-92623073D01*
X94546800Y-92623070D01*
X94612982Y-92556888D01*
X94651326Y-92518546D01*
X94651326Y-92518545D01*
X94657153Y-92512719D01*
X94657180Y-92512689D01*
X94684935Y-92484935D01*
X94684934Y-92484934D01*
X94721243Y-92448627D01*
X94721251Y-92448617D01*
X94737202Y-92432667D01*
X94737203Y-92432664D01*
X94741996Y-92427872D01*
X94742088Y-92427770D01*
X94775166Y-92394694D01*
X94915499Y-92218722D01*
X94972685Y-92178584D01*
X95042497Y-92175734D01*
X95055778Y-92179856D01*
X95092617Y-92193596D01*
X95092622Y-92193597D01*
X95152155Y-92199999D01*
X95152172Y-92200000D01*
X95400000Y-92200000D01*
X95900000Y-92200000D01*
X96147828Y-92200000D01*
X96147844Y-92199999D01*
X96207372Y-92193598D01*
X96207379Y-92193596D01*
X96342086Y-92143354D01*
X96342093Y-92143350D01*
X96457187Y-92057190D01*
X96457190Y-92057187D01*
X96543350Y-91942093D01*
X96543354Y-91942086D01*
X96593596Y-91807379D01*
X96593598Y-91807372D01*
X96599999Y-91747844D01*
X96600000Y-91747827D01*
X96600000Y-91550000D01*
X95900000Y-91550000D01*
X95900000Y-92200000D01*
X95400000Y-92200000D01*
X95400000Y-91424000D01*
X95419685Y-91356961D01*
X95472489Y-91311206D01*
X95524000Y-91300000D01*
X95650000Y-91300000D01*
X95650000Y-91174000D01*
X95669685Y-91106961D01*
X95722489Y-91061206D01*
X95774000Y-91050000D01*
X96600000Y-91050000D01*
X96600000Y-90852172D01*
X96599999Y-90852155D01*
X96593598Y-90792627D01*
X96593596Y-90792620D01*
X96543354Y-90657913D01*
X96543350Y-90657906D01*
X96457190Y-90542812D01*
X96457187Y-90542809D01*
X96342093Y-90456649D01*
X96342086Y-90456645D01*
X96207379Y-90406403D01*
X96207372Y-90406401D01*
X96147844Y-90400000D01*
X95822190Y-90400000D01*
X95755151Y-90380315D01*
X95709396Y-90327511D01*
X95698901Y-90262744D01*
X95700499Y-90247880D01*
X95700500Y-90247873D01*
X95700499Y-89252128D01*
X95694091Y-89192517D01*
X95646184Y-89064071D01*
X96099499Y-89064071D01*
X96124497Y-89189738D01*
X96124499Y-89189744D01*
X96173533Y-89308124D01*
X96173538Y-89308133D01*
X96244723Y-89414668D01*
X96244726Y-89414672D01*
X96335327Y-89505273D01*
X96335331Y-89505276D01*
X96441866Y-89576461D01*
X96441872Y-89576464D01*
X96441873Y-89576465D01*
X96560256Y-89625501D01*
X96560260Y-89625501D01*
X96560261Y-89625502D01*
X96685928Y-89650500D01*
X96685931Y-89650500D01*
X96814071Y-89650500D01*
X96898615Y-89633682D01*
X96939744Y-89625501D01*
X97058127Y-89576465D01*
X97164669Y-89505276D01*
X97255276Y-89414669D01*
X97326465Y-89308127D01*
X97375501Y-89189744D01*
X97400500Y-89064069D01*
X97400500Y-88935931D01*
X97400500Y-88935928D01*
X97375502Y-88810261D01*
X97375501Y-88810260D01*
X97375501Y-88810256D01*
X97329492Y-88699181D01*
X97326466Y-88691875D01*
X97326461Y-88691866D01*
X97255276Y-88585331D01*
X97255273Y-88585327D01*
X97164672Y-88494726D01*
X97164668Y-88494723D01*
X97058133Y-88423538D01*
X97058124Y-88423533D01*
X96939744Y-88374499D01*
X96939738Y-88374497D01*
X96814071Y-88349500D01*
X96814069Y-88349500D01*
X96685931Y-88349500D01*
X96685929Y-88349500D01*
X96560261Y-88374497D01*
X96560255Y-88374499D01*
X96441875Y-88423533D01*
X96441866Y-88423538D01*
X96335331Y-88494723D01*
X96335327Y-88494726D01*
X96244726Y-88585327D01*
X96244723Y-88585331D01*
X96173538Y-88691866D01*
X96173533Y-88691875D01*
X96124499Y-88810255D01*
X96124497Y-88810261D01*
X96099500Y-88935928D01*
X96099500Y-88935931D01*
X96099500Y-89064069D01*
X96099500Y-89064071D01*
X96099499Y-89064071D01*
X95646184Y-89064071D01*
X95643796Y-89057669D01*
X95643795Y-89057668D01*
X95643793Y-89057664D01*
X95557547Y-88942455D01*
X95557544Y-88942452D01*
X95442335Y-88856206D01*
X95442329Y-88856203D01*
X95331166Y-88814741D01*
X95275233Y-88772869D01*
X95250816Y-88707405D01*
X95250500Y-88698559D01*
X95250500Y-88141808D01*
X95250489Y-88141600D01*
X95250491Y-88120668D01*
X95221871Y-87939910D01*
X95194790Y-87856555D01*
X95192798Y-87786715D01*
X95228880Y-87726883D01*
X95291582Y-87696057D01*
X95299474Y-87694952D01*
X95302249Y-87694653D01*
X95307483Y-87694091D01*
X95442331Y-87643796D01*
X95557546Y-87557546D01*
X95643796Y-87442331D01*
X95694091Y-87307483D01*
X95700500Y-87247873D01*
X95700499Y-86550095D01*
X95720183Y-86483057D01*
X95736817Y-86462416D01*
X95786321Y-86412911D01*
X95786382Y-86412858D01*
X95792458Y-86406781D01*
X95792460Y-86406780D01*
X95808409Y-86390827D01*
X95808489Y-86390784D01*
X95844031Y-86355235D01*
X95844032Y-86355236D01*
X95892770Y-86306490D01*
X95892771Y-86306488D01*
X95896189Y-86303070D01*
X95896493Y-86302738D01*
X95899884Y-86299349D01*
X95904103Y-86292040D01*
X95911154Y-86281179D01*
X95941002Y-86240090D01*
X95996327Y-86197422D01*
X96065940Y-86191438D01*
X96127738Y-86224039D01*
X96155885Y-86265517D01*
X96173533Y-86308123D01*
X96173538Y-86308133D01*
X96244723Y-86414668D01*
X96244726Y-86414672D01*
X96335327Y-86505273D01*
X96335331Y-86505276D01*
X96441866Y-86576461D01*
X96441875Y-86576466D01*
X96468692Y-86587574D01*
X96560256Y-86625501D01*
X96560260Y-86625501D01*
X96560261Y-86625502D01*
X96685928Y-86650500D01*
X96685931Y-86650500D01*
X96814071Y-86650500D01*
X96898615Y-86633682D01*
X96939744Y-86625501D01*
X97058127Y-86576465D01*
X97164669Y-86505276D01*
X97255276Y-86414669D01*
X97326465Y-86308127D01*
X97375501Y-86189744D01*
X97400500Y-86064069D01*
X97400500Y-85935931D01*
X97400500Y-85935928D01*
X97375502Y-85810261D01*
X97375501Y-85810260D01*
X97375501Y-85810256D01*
X97326465Y-85691873D01*
X97326464Y-85691872D01*
X97326461Y-85691866D01*
X97255276Y-85585331D01*
X97255273Y-85585327D01*
X97164672Y-85494726D01*
X97164668Y-85494723D01*
X97058133Y-85423538D01*
X97058124Y-85423533D01*
X96939744Y-85374499D01*
X96939738Y-85374497D01*
X96814071Y-85349500D01*
X96814069Y-85349500D01*
X96685931Y-85349500D01*
X96685929Y-85349500D01*
X96560261Y-85374497D01*
X96560255Y-85374499D01*
X96441875Y-85423533D01*
X96441866Y-85423538D01*
X96335331Y-85494723D01*
X96335327Y-85494726D01*
X96312181Y-85517873D01*
X96250858Y-85551358D01*
X96181166Y-85546374D01*
X96125233Y-85504502D01*
X96100816Y-85439038D01*
X96100500Y-85430192D01*
X96100500Y-84836573D01*
X96100509Y-84836410D01*
X96100508Y-84828903D01*
X96100509Y-84828900D01*
X96100506Y-84807366D01*
X96100519Y-84807320D01*
X96100513Y-84755986D01*
X96100514Y-84755986D01*
X96100509Y-84716481D01*
X96120184Y-84649444D01*
X96172982Y-84603682D01*
X96200039Y-84596258D01*
X96199832Y-84595380D01*
X96207379Y-84593596D01*
X96342086Y-84543354D01*
X96342093Y-84543350D01*
X96457187Y-84457190D01*
X96457190Y-84457187D01*
X96543350Y-84342093D01*
X96543354Y-84342086D01*
X96593596Y-84207379D01*
X96593598Y-84207372D01*
X96599999Y-84147844D01*
X96600000Y-84147827D01*
X96600000Y-83950000D01*
X95774000Y-83950000D01*
X95706961Y-83930315D01*
X95661206Y-83877511D01*
X95650000Y-83826000D01*
X95650000Y-83700000D01*
X95524000Y-83700000D01*
X95456961Y-83680315D01*
X95411206Y-83627511D01*
X95400000Y-83576000D01*
X95400000Y-82800000D01*
X95296743Y-82800000D01*
X95229704Y-82780315D01*
X95190011Y-82739121D01*
X95150738Y-82672714D01*
X95150731Y-82672705D01*
X95037294Y-82559268D01*
X95037285Y-82559261D01*
X94899191Y-82477593D01*
X94899188Y-82477591D01*
X94760001Y-82437153D01*
X94760000Y-82437154D01*
X94760000Y-83126000D01*
X94740315Y-83193039D01*
X94687511Y-83238794D01*
X94636000Y-83250000D01*
X94384499Y-83250000D01*
X94317460Y-83230315D01*
X94271705Y-83177511D01*
X94260499Y-83126000D01*
X94260499Y-83000831D01*
X94260498Y-83000806D01*
X94260382Y-82999332D01*
X94260000Y-82989607D01*
X94260000Y-82424000D01*
X94279685Y-82356961D01*
X94332489Y-82311206D01*
X94384000Y-82300000D01*
X94499766Y-82300000D01*
X94500000Y-82297824D01*
X94500000Y-81750000D01*
X93374000Y-81750000D01*
X93306961Y-81730315D01*
X93261206Y-81677511D01*
X93250000Y-81626000D01*
X93250000Y-81500000D01*
X93124000Y-81500000D01*
X93056961Y-81480315D01*
X93011206Y-81427511D01*
X93000000Y-81376000D01*
X93000000Y-80250000D01*
X92452155Y-80250000D01*
X92447741Y-80250475D01*
X92378983Y-80238062D01*
X92327851Y-80190445D01*
X92310500Y-80127184D01*
X92310500Y-80065317D01*
X92310499Y-80065302D01*
X92310457Y-80064770D01*
X92307643Y-80029007D01*
X92262494Y-79873605D01*
X92180117Y-79734313D01*
X92180115Y-79734311D01*
X92180112Y-79734307D01*
X92065692Y-79619887D01*
X92065684Y-79619881D01*
X91926393Y-79537505D01*
X91926392Y-79537504D01*
X91822592Y-79507347D01*
X91763707Y-79469740D01*
X91734501Y-79406267D01*
X91744247Y-79337081D01*
X91756862Y-79315397D01*
X91831089Y-79213218D01*
X91896739Y-79084351D01*
X91928792Y-78985678D01*
X91968223Y-78928003D01*
X91982009Y-78919423D01*
X91981608Y-78918798D01*
X91989066Y-78914004D01*
X91989069Y-78914004D01*
X92098049Y-78843967D01*
X92182268Y-78746771D01*
X92241045Y-78708997D01*
X92310914Y-78708996D01*
X92369693Y-78746770D01*
G37*
G04 #@! TD.AperFunction*
G04 #@! TA.AperFunction,Conductor*
G36*
X83599334Y-90564546D02*
G01*
X83655267Y-90606418D01*
X83663505Y-90628505D01*
X83680000Y-90645000D01*
X84380000Y-90645000D01*
X84380000Y-91145000D01*
X83680000Y-91145000D01*
X83680000Y-91271193D01*
X83660315Y-91338232D01*
X83607511Y-91383987D01*
X83538353Y-91393931D01*
X83487109Y-91374295D01*
X83398688Y-91315214D01*
X83385820Y-91305340D01*
X83292740Y-91223711D01*
X83255316Y-91164709D01*
X83250499Y-91130483D01*
X83250499Y-90862231D01*
X83270184Y-90795192D01*
X83286822Y-90774545D01*
X83296666Y-90764701D01*
X83296669Y-90764696D01*
X83468319Y-90593046D01*
X83529642Y-90559562D01*
X83599334Y-90564546D01*
G37*
G04 #@! TD.AperFunction*
G04 #@! TA.AperFunction,Conductor*
G36*
X80669046Y-83699648D02*
G01*
X80724903Y-83741621D01*
X80749200Y-83807130D01*
X80749500Y-83815750D01*
X80749500Y-85047870D01*
X80749501Y-85047876D01*
X80755908Y-85107483D01*
X80806202Y-85242328D01*
X80806206Y-85242335D01*
X80892452Y-85357544D01*
X80892455Y-85357547D01*
X81007664Y-85443793D01*
X81007671Y-85443797D01*
X81060927Y-85463660D01*
X81142517Y-85494091D01*
X81142527Y-85494092D01*
X81143248Y-85494263D01*
X81143761Y-85494555D01*
X81149785Y-85496802D01*
X81149421Y-85497777D01*
X81203968Y-85528829D01*
X81236361Y-85590736D01*
X81230143Y-85660328D01*
X81202429Y-85702624D01*
X81081920Y-85823133D01*
X81081917Y-85823137D01*
X80998255Y-85964603D01*
X80998254Y-85964606D01*
X80952402Y-86122426D01*
X80952401Y-86122432D01*
X80949500Y-86159298D01*
X80949500Y-87465701D01*
X80952401Y-87502567D01*
X80952402Y-87502573D01*
X80998254Y-87660393D01*
X80998255Y-87660396D01*
X80998256Y-87660398D01*
X81032732Y-87718694D01*
X81050000Y-87781814D01*
X81050000Y-88437500D01*
X81600000Y-88437500D01*
X81600000Y-88174500D01*
X81619685Y-88107461D01*
X81672489Y-88061706D01*
X81724000Y-88050500D01*
X81775500Y-88050500D01*
X81842539Y-88070185D01*
X81888294Y-88122989D01*
X81899500Y-88174500D01*
X81899500Y-89340701D01*
X81902401Y-89377567D01*
X81902402Y-89377573D01*
X81948253Y-89535392D01*
X81948255Y-89535396D01*
X81948256Y-89535398D01*
X81964213Y-89562381D01*
X81981396Y-89630102D01*
X81959236Y-89696365D01*
X81904771Y-89740128D01*
X81857481Y-89749500D01*
X81641939Y-89749500D01*
X81574900Y-89729815D01*
X81529145Y-89677011D01*
X81519201Y-89607853D01*
X81535207Y-89562379D01*
X81551282Y-89535196D01*
X81551283Y-89535193D01*
X81597099Y-89377495D01*
X81597100Y-89377489D01*
X81599999Y-89340649D01*
X81600000Y-89340634D01*
X81600000Y-88937500D01*
X80924000Y-88937500D01*
X80856961Y-88917815D01*
X80811206Y-88865011D01*
X80800000Y-88813500D01*
X80800000Y-88687500D01*
X80674000Y-88687500D01*
X80606961Y-88667815D01*
X80561206Y-88615011D01*
X80550000Y-88563500D01*
X80550000Y-87452703D01*
X80547503Y-87452900D01*
X80389806Y-87498716D01*
X80389801Y-87498718D01*
X80387617Y-87500010D01*
X80385683Y-87500500D01*
X80382646Y-87501815D01*
X80382433Y-87501324D01*
X80319892Y-87517191D01*
X80253630Y-87495031D01*
X80209868Y-87440564D01*
X80200498Y-87393277D01*
X80200498Y-84504873D01*
X80200880Y-84495144D01*
X80204635Y-84447431D01*
X80212653Y-84345545D01*
X80215697Y-84326331D01*
X80249590Y-84185160D01*
X80255595Y-84166678D01*
X80311156Y-84032540D01*
X80319976Y-84015229D01*
X80395840Y-83891431D01*
X80407272Y-83875698D01*
X80504668Y-83761662D01*
X80511410Y-83754380D01*
X80537981Y-83727906D01*
X80599364Y-83694536D01*
X80669046Y-83699648D01*
G37*
G04 #@! TD.AperFunction*
G04 #@! TA.AperFunction,Conductor*
G36*
X83419045Y-80959653D02*
G01*
X83474902Y-81001627D01*
X83499200Y-81067135D01*
X83499500Y-81075756D01*
X83499500Y-82297870D01*
X83499501Y-82297876D01*
X83505908Y-82357483D01*
X83556202Y-82492328D01*
X83556206Y-82492335D01*
X83642452Y-82607544D01*
X83642455Y-82607547D01*
X83757664Y-82693793D01*
X83757671Y-82693797D01*
X83892517Y-82744091D01*
X83892516Y-82744091D01*
X83899444Y-82744835D01*
X83952127Y-82750500D01*
X84471116Y-82750499D01*
X84538153Y-82770183D01*
X84583908Y-82822987D01*
X84593852Y-82892146D01*
X84564827Y-82955702D01*
X84506049Y-82993476D01*
X84505713Y-82993574D01*
X84489607Y-82998253D01*
X84489603Y-82998255D01*
X84348137Y-83081917D01*
X84348129Y-83081923D01*
X84231923Y-83198129D01*
X84231917Y-83198137D01*
X84148255Y-83339603D01*
X84148254Y-83339606D01*
X84102402Y-83497426D01*
X84102401Y-83497432D01*
X84099500Y-83534298D01*
X84099500Y-83965701D01*
X84102401Y-84002567D01*
X84102402Y-84002573D01*
X84148254Y-84160393D01*
X84148256Y-84160399D01*
X84149426Y-84162377D01*
X84149869Y-84164126D01*
X84151353Y-84167554D01*
X84150799Y-84167793D01*
X84166603Y-84230102D01*
X84151249Y-84282395D01*
X84151817Y-84282641D01*
X84149827Y-84287239D01*
X84149428Y-84288599D01*
X84148722Y-84289791D01*
X84148716Y-84289806D01*
X84102900Y-84447505D01*
X84102899Y-84447511D01*
X84102704Y-84449998D01*
X84102705Y-84450000D01*
X84368185Y-84450000D01*
X84431306Y-84467268D01*
X84489602Y-84501744D01*
X84500372Y-84504873D01*
X84647426Y-84547597D01*
X84647429Y-84547597D01*
X84647431Y-84547598D01*
X84684306Y-84550500D01*
X84684314Y-84550500D01*
X85138500Y-84550500D01*
X85205539Y-84570185D01*
X85251294Y-84622989D01*
X85262500Y-84674500D01*
X85262500Y-84725500D01*
X85242815Y-84792539D01*
X85190011Y-84838294D01*
X85138500Y-84849500D01*
X84684298Y-84849500D01*
X84647432Y-84852401D01*
X84647426Y-84852402D01*
X84489606Y-84898254D01*
X84489603Y-84898255D01*
X84431306Y-84932732D01*
X84368185Y-84950000D01*
X84102459Y-84950000D01*
X84043046Y-84985538D01*
X84011952Y-84989500D01*
X83665302Y-84989500D01*
X83629008Y-84992356D01*
X83629005Y-84992357D01*
X83570835Y-85009257D01*
X83552528Y-85014576D01*
X83517934Y-85019500D01*
X83374499Y-85019500D01*
X83307460Y-84999815D01*
X83261705Y-84947011D01*
X83250499Y-84895500D01*
X83250499Y-83452129D01*
X83250498Y-83452123D01*
X83244091Y-83392516D01*
X83193797Y-83257671D01*
X83193793Y-83257664D01*
X83107547Y-83142455D01*
X83107544Y-83142452D01*
X82992335Y-83056206D01*
X82992328Y-83056202D01*
X82857482Y-83005908D01*
X82857483Y-83005908D01*
X82797883Y-82999501D01*
X82797881Y-82999500D01*
X82797873Y-82999500D01*
X82797865Y-82999500D01*
X81569184Y-82999500D01*
X81502145Y-82979815D01*
X81456390Y-82927011D01*
X81446446Y-82857853D01*
X81475471Y-82794297D01*
X81481663Y-82787659D01*
X82595865Y-81677511D01*
X83287979Y-80987914D01*
X83349363Y-80954542D01*
X83419045Y-80959653D01*
G37*
G04 #@! TD.AperFunction*
G04 #@! TA.AperFunction,Conductor*
G36*
X87171107Y-81525423D02*
G01*
X87247431Y-81547598D01*
X87284306Y-81550500D01*
X88150500Y-81550500D01*
X88217539Y-81570185D01*
X88263294Y-81622989D01*
X88274500Y-81674500D01*
X88274500Y-81754627D01*
X88274502Y-81754687D01*
X88274504Y-81824160D01*
X88274500Y-81824278D01*
X88274503Y-81856822D01*
X88274473Y-81856924D01*
X88274478Y-81908217D01*
X88274487Y-82004034D01*
X88274488Y-82004259D01*
X88304552Y-82193955D01*
X88363930Y-82376635D01*
X88364510Y-82378034D01*
X88364571Y-82378608D01*
X88365434Y-82381261D01*
X88364876Y-82381442D01*
X88371987Y-82447502D01*
X88340720Y-82509985D01*
X88280635Y-82545645D01*
X88249955Y-82549500D01*
X87194960Y-82549500D01*
X87127921Y-82529815D01*
X87082166Y-82477011D01*
X87072222Y-82407853D01*
X87101247Y-82344297D01*
X87107279Y-82337819D01*
X87179714Y-82265383D01*
X87179721Y-82265374D01*
X87262031Y-82126195D01*
X87304504Y-81980000D01*
X86624000Y-81980000D01*
X86556961Y-81960315D01*
X86511206Y-81907511D01*
X86500000Y-81856000D01*
X86500000Y-81674500D01*
X86519685Y-81607461D01*
X86572489Y-81561706D01*
X86624000Y-81550500D01*
X86734682Y-81550500D01*
X86734690Y-81550500D01*
X86770993Y-81547643D01*
X86847471Y-81525423D01*
X86882066Y-81520500D01*
X87136513Y-81520500D01*
X87171107Y-81525423D01*
G37*
G04 #@! TD.AperFunction*
G04 #@! TA.AperFunction,Conductor*
G36*
X91693039Y-81249685D02*
G01*
X91738794Y-81302489D01*
X91750000Y-81354000D01*
X91750000Y-82017445D01*
X91774287Y-82058050D01*
X91772040Y-82127884D01*
X91732395Y-82185417D01*
X91723139Y-82192243D01*
X91679098Y-82221670D01*
X91679088Y-82221678D01*
X91676941Y-82223825D01*
X91661701Y-82239063D01*
X91661685Y-82239072D01*
X91571664Y-82329094D01*
X91550325Y-82361033D01*
X91533971Y-82385510D01*
X91528039Y-82394388D01*
X91474428Y-82439195D01*
X91424935Y-82449500D01*
X91373960Y-82449500D01*
X91373954Y-82449500D01*
X91373950Y-82449501D01*
X91270619Y-82463105D01*
X91201584Y-82452339D01*
X91149328Y-82405960D01*
X91130443Y-82338691D01*
X91150924Y-82271890D01*
X91166760Y-82252478D01*
X91167682Y-82251555D01*
X91167686Y-82251551D01*
X91249999Y-82112365D01*
X91250000Y-82112364D01*
X91250000Y-81354000D01*
X91269685Y-81286961D01*
X91322489Y-81241206D01*
X91374000Y-81230000D01*
X91626000Y-81230000D01*
X91693039Y-81249685D01*
G37*
G04 #@! TD.AperFunction*
G04 #@! TA.AperFunction,Conductor*
G36*
X90694846Y-80620185D02*
G01*
X90734538Y-80661377D01*
X90749909Y-80687367D01*
X90767093Y-80755091D01*
X90749911Y-80813609D01*
X90734825Y-80839119D01*
X90683757Y-80886804D01*
X90628092Y-80900000D01*
X90387500Y-80900000D01*
X90387500Y-81576000D01*
X90367815Y-81643039D01*
X90315011Y-81688794D01*
X90263500Y-81700000D01*
X90011500Y-81700000D01*
X89944461Y-81680315D01*
X89898706Y-81627511D01*
X89887500Y-81576000D01*
X89887500Y-80900000D01*
X89689045Y-80900000D01*
X89622006Y-80880315D01*
X89581659Y-80838002D01*
X89567575Y-80813609D01*
X89551923Y-80786500D01*
X89535450Y-80718602D01*
X89558301Y-80652575D01*
X89613221Y-80609383D01*
X89659310Y-80600500D01*
X90627807Y-80600500D01*
X90694846Y-80620185D01*
G37*
G04 #@! TD.AperFunction*
G04 #@! TA.AperFunction,Conductor*
G36*
X93094450Y-71615184D02*
G01*
X93140205Y-71667988D01*
X93150149Y-71737146D01*
X93141972Y-71766952D01*
X93112939Y-71837042D01*
X93112937Y-71837050D01*
X93086200Y-71971465D01*
X93086200Y-72108534D01*
X93112937Y-72242949D01*
X93112940Y-72242961D01*
X93165386Y-72369578D01*
X93165393Y-72369591D01*
X93241536Y-72483546D01*
X93241539Y-72483550D01*
X93338449Y-72580460D01*
X93338453Y-72580463D01*
X93452408Y-72656606D01*
X93452421Y-72656613D01*
X93533484Y-72690190D01*
X93579043Y-72709061D01*
X93677419Y-72728629D01*
X93713465Y-72735799D01*
X93713469Y-72735800D01*
X93713470Y-72735800D01*
X93850529Y-72735800D01*
X93850530Y-72735800D01*
X93886579Y-72728629D01*
X93956168Y-72734855D01*
X94011346Y-72777717D01*
X94034592Y-72843606D01*
X94024659Y-72893257D01*
X94026511Y-72893905D01*
X93964631Y-73070745D01*
X93964630Y-73070750D01*
X93944435Y-73249996D01*
X93944435Y-73250003D01*
X93951702Y-73314504D01*
X93939647Y-73383326D01*
X93916163Y-73416068D01*
X93592893Y-73739338D01*
X93592893Y-73739339D01*
X94389096Y-74535542D01*
X94422581Y-74596865D01*
X94417597Y-74666557D01*
X94389096Y-74710904D01*
X94300000Y-74800000D01*
X94389095Y-74889095D01*
X94422580Y-74950418D01*
X94417596Y-75020110D01*
X94389095Y-75064457D01*
X93592893Y-75860659D01*
X93592893Y-75860660D01*
X93980267Y-76248034D01*
X94026902Y-76285614D01*
X94145886Y-76339953D01*
X94198690Y-76385708D01*
X94218374Y-76452747D01*
X94198689Y-76519787D01*
X94181887Y-76540597D01*
X92681971Y-78034760D01*
X92626555Y-78066684D01*
X92576112Y-78080201D01*
X92576108Y-78080203D01*
X92551497Y-78094412D01*
X92483596Y-78110883D01*
X92417570Y-78088030D01*
X92374380Y-78033108D01*
X92365499Y-77987029D01*
X92365499Y-74952128D01*
X92359091Y-74892517D01*
X92324584Y-74800000D01*
X92734198Y-74800000D01*
X92754658Y-74942313D01*
X92754659Y-74942318D01*
X92814385Y-75073097D01*
X92851965Y-75119732D01*
X93239339Y-75507106D01*
X93946446Y-74800000D01*
X93239339Y-74092893D01*
X93239338Y-74092893D01*
X92851969Y-74480262D01*
X92814385Y-74526902D01*
X92754659Y-74657681D01*
X92754658Y-74657686D01*
X92734198Y-74800000D01*
X92324584Y-74800000D01*
X92308797Y-74757671D01*
X92308793Y-74757664D01*
X92243987Y-74671095D01*
X92222546Y-74642454D01*
X92222544Y-74642452D01*
X92222542Y-74642450D01*
X92190188Y-74618230D01*
X92148318Y-74562296D01*
X92140500Y-74518964D01*
X92140500Y-74068992D01*
X92140501Y-74068988D01*
X92140500Y-74047442D01*
X92140506Y-74047421D01*
X92140505Y-73996074D01*
X92140506Y-73996074D01*
X92140504Y-73884547D01*
X92111387Y-73663401D01*
X92099297Y-73618284D01*
X92053656Y-73447955D01*
X92049640Y-73438259D01*
X91968294Y-73241874D01*
X91856766Y-73048704D01*
X91833547Y-73018445D01*
X91764789Y-72928838D01*
X91739594Y-72863669D01*
X91753632Y-72795224D01*
X91802446Y-72745234D01*
X91838973Y-72731734D01*
X91885188Y-72722541D01*
X91952957Y-72709061D01*
X92050893Y-72668494D01*
X92079578Y-72656613D01*
X92079578Y-72656612D01*
X92079585Y-72656610D01*
X92193547Y-72580463D01*
X92290463Y-72483547D01*
X92366610Y-72369585D01*
X92419061Y-72242957D01*
X92445800Y-72108530D01*
X92445800Y-71971470D01*
X92419061Y-71837043D01*
X92390027Y-71766950D01*
X92382559Y-71697483D01*
X92413834Y-71635003D01*
X92473923Y-71599351D01*
X92504589Y-71595499D01*
X93027411Y-71595499D01*
X93094450Y-71615184D01*
G37*
G04 #@! TD.AperFunction*
G04 #@! TA.AperFunction,Conductor*
G36*
X85628047Y-72629449D02*
G01*
X85678757Y-72677514D01*
X85695431Y-72745365D01*
X85678942Y-72801831D01*
X85642185Y-72865498D01*
X85632820Y-72881718D01*
X85632818Y-72881722D01*
X85578563Y-73048704D01*
X85574326Y-73061744D01*
X85554540Y-73250000D01*
X85574326Y-73438256D01*
X85574327Y-73438259D01*
X85632818Y-73618277D01*
X85632821Y-73618284D01*
X85727467Y-73782216D01*
X85747026Y-73803938D01*
X85827650Y-73893480D01*
X85857880Y-73956471D01*
X85859500Y-73976452D01*
X85859500Y-74518964D01*
X85839815Y-74586003D01*
X85809812Y-74618230D01*
X85777457Y-74642450D01*
X85777451Y-74642457D01*
X85691206Y-74757664D01*
X85691202Y-74757671D01*
X85640908Y-74892517D01*
X85634684Y-74950418D01*
X85634501Y-74952123D01*
X85634500Y-74952135D01*
X85634500Y-77987025D01*
X85614815Y-78054064D01*
X85562011Y-78099819D01*
X85492853Y-78109763D01*
X85448498Y-78094411D01*
X85423887Y-78080201D01*
X85423884Y-78080200D01*
X85373444Y-78066684D01*
X85318026Y-78034759D01*
X83818112Y-76540596D01*
X83784510Y-76479338D01*
X83789360Y-76409637D01*
X83831124Y-76353623D01*
X83854113Y-76339953D01*
X83973098Y-76285614D01*
X84019732Y-76248034D01*
X84407106Y-75860660D01*
X84407106Y-75860659D01*
X83523223Y-74976777D01*
X83346446Y-74800000D01*
X84053553Y-74800000D01*
X84760659Y-75507106D01*
X85148030Y-75119736D01*
X85148034Y-75119732D01*
X85185614Y-75073097D01*
X85245340Y-74942318D01*
X85245341Y-74942313D01*
X85265801Y-74800000D01*
X85245341Y-74657686D01*
X85245340Y-74657681D01*
X85185614Y-74526902D01*
X85148034Y-74480267D01*
X84760660Y-74092893D01*
X84053553Y-74800000D01*
X83346446Y-74800000D01*
X82639339Y-74092893D01*
X82639338Y-74092893D01*
X82251969Y-74480262D01*
X82214386Y-74526900D01*
X82157809Y-74650785D01*
X82112053Y-74703588D01*
X82045014Y-74723272D01*
X81977974Y-74703587D01*
X81957502Y-74687122D01*
X81832195Y-74562296D01*
X81006069Y-73739338D01*
X82992893Y-73739338D01*
X82992893Y-73739339D01*
X83700000Y-74446446D01*
X83700001Y-74446446D01*
X84407106Y-73739339D01*
X84019732Y-73351965D01*
X83973097Y-73314385D01*
X83842318Y-73254659D01*
X83842313Y-73254658D01*
X83700000Y-73234198D01*
X83557686Y-73254658D01*
X83557681Y-73254659D01*
X83426902Y-73314385D01*
X83380262Y-73351969D01*
X82992893Y-73739338D01*
X81006069Y-73739338D01*
X80761405Y-73495612D01*
X80754653Y-73488321D01*
X80657267Y-73374296D01*
X80645837Y-73358563D01*
X80624043Y-73322998D01*
X80569982Y-73234779D01*
X80561154Y-73217453D01*
X80505597Y-73083325D01*
X80499587Y-73064828D01*
X80488452Y-73018445D01*
X80491943Y-72948662D01*
X80532608Y-72891845D01*
X80597534Y-72866033D01*
X80609026Y-72865499D01*
X83547871Y-72865499D01*
X83547872Y-72865499D01*
X83607483Y-72859091D01*
X83742331Y-72808796D01*
X83857546Y-72722546D01*
X83867643Y-72709059D01*
X83881768Y-72690190D01*
X83937701Y-72648318D01*
X83981035Y-72640500D01*
X85256535Y-72640500D01*
X85256642Y-72640492D01*
X85315075Y-72640493D01*
X85559401Y-72616430D01*
X85628047Y-72629449D01*
G37*
G04 #@! TD.AperFunction*
G04 #@! TA.AperFunction,Conductor*
G36*
X97458013Y-72885184D02*
G01*
X97503768Y-72937988D01*
X97513712Y-73007146D01*
X97511548Y-73018447D01*
X97500412Y-73064830D01*
X97494399Y-73083334D01*
X97438848Y-73217447D01*
X97430014Y-73234784D01*
X97430015Y-73234785D01*
X97430014Y-73234786D01*
X97354164Y-73358560D01*
X97342727Y-73374301D01*
X97245357Y-73488306D01*
X97238580Y-73495624D01*
X96042496Y-74687121D01*
X95981108Y-74720488D01*
X95911426Y-74715369D01*
X95855573Y-74673391D01*
X95842189Y-74650783D01*
X95785614Y-74526901D01*
X95748034Y-74480267D01*
X95287603Y-74019836D01*
X95254118Y-73958513D01*
X95259102Y-73888821D01*
X95287599Y-73844478D01*
X95379816Y-73752262D01*
X95475789Y-73599522D01*
X95535368Y-73429255D01*
X95540082Y-73387409D01*
X95567146Y-73322998D01*
X95575611Y-73313622D01*
X95987416Y-72901818D01*
X96048739Y-72868333D01*
X96075097Y-72865499D01*
X97390974Y-72865499D01*
X97458013Y-72885184D01*
G37*
G04 #@! TD.AperFunction*
G04 #@! TA.AperFunction,Conductor*
G36*
X82943039Y-70345184D02*
G01*
X82988794Y-70397988D01*
X83000000Y-70449499D01*
X83000000Y-70520000D01*
X84876000Y-70520000D01*
X84943039Y-70539685D01*
X84988794Y-70592489D01*
X85000000Y-70644000D01*
X85000000Y-70896000D01*
X84980315Y-70963039D01*
X84927511Y-71008794D01*
X84876000Y-71020000D01*
X83000000Y-71020000D01*
X83000000Y-71090500D01*
X82980315Y-71157539D01*
X82927511Y-71203294D01*
X82876000Y-71214500D01*
X80574498Y-71214500D01*
X80507459Y-71194815D01*
X80461704Y-71142011D01*
X80450498Y-71090500D01*
X80450498Y-70449499D01*
X80470183Y-70382460D01*
X80522987Y-70336705D01*
X80574493Y-70325499D01*
X82876000Y-70325499D01*
X82943039Y-70345184D01*
G37*
G04 #@! TD.AperFunction*
G04 #@! TA.AperFunction,Conductor*
G36*
X88818434Y-68964876D02*
G01*
X88818436Y-68964877D01*
X88890821Y-68973569D01*
X88906897Y-68975500D01*
X88906898Y-68975500D01*
X89093103Y-68975500D01*
X89109178Y-68973569D01*
X89181564Y-68964877D01*
X89181565Y-68964876D01*
X89185215Y-68964438D01*
X89214785Y-68964438D01*
X89218434Y-68964876D01*
X89218436Y-68964877D01*
X89290821Y-68973569D01*
X89306897Y-68975500D01*
X89400500Y-68975500D01*
X89467539Y-68995185D01*
X89513294Y-69047989D01*
X89524500Y-69099500D01*
X89524500Y-69193102D01*
X89530222Y-69240754D01*
X89535561Y-69285217D01*
X89535561Y-69314783D01*
X89529718Y-69363440D01*
X89524500Y-69406898D01*
X89524500Y-69593102D01*
X89530222Y-69640754D01*
X89535561Y-69685217D01*
X89535561Y-69714783D01*
X89529718Y-69763440D01*
X89524500Y-69806898D01*
X89524500Y-69806903D01*
X89524500Y-69900500D01*
X89504815Y-69967539D01*
X89452011Y-70013294D01*
X89400500Y-70024500D01*
X89306898Y-70024500D01*
X89263440Y-70029718D01*
X89214783Y-70035561D01*
X89185217Y-70035561D01*
X89136559Y-70029718D01*
X89093102Y-70024500D01*
X88906898Y-70024500D01*
X88863440Y-70029718D01*
X88814783Y-70035561D01*
X88785217Y-70035561D01*
X88736559Y-70029718D01*
X88693102Y-70024500D01*
X88599000Y-70024500D01*
X88531961Y-70004815D01*
X88486206Y-69952011D01*
X88475000Y-69900500D01*
X88475000Y-69806940D01*
X88464185Y-69716890D01*
X88464185Y-69687318D01*
X88464875Y-69681567D01*
X88464877Y-69681564D01*
X88475500Y-69593102D01*
X88475500Y-69406898D01*
X88464877Y-69318436D01*
X88464876Y-69318434D01*
X88464438Y-69314785D01*
X88464438Y-69285215D01*
X88464876Y-69281565D01*
X88464877Y-69281564D01*
X88475500Y-69193102D01*
X88475500Y-69099500D01*
X88495185Y-69032461D01*
X88547989Y-68986706D01*
X88599500Y-68975500D01*
X88693103Y-68975500D01*
X88709178Y-68973569D01*
X88781564Y-68964877D01*
X88781565Y-68964876D01*
X88785215Y-68964438D01*
X88814785Y-68964438D01*
X88818434Y-68964876D01*
G37*
G04 #@! TD.AperFunction*
G04 #@! TA.AperFunction,Conductor*
G36*
X85551337Y-60991943D02*
G01*
X85608154Y-61032608D01*
X85633966Y-61097534D01*
X85634500Y-61109026D01*
X85634500Y-64047870D01*
X85634501Y-64047876D01*
X85640908Y-64107483D01*
X85691202Y-64242328D01*
X85691203Y-64242329D01*
X85691204Y-64242331D01*
X85777452Y-64357543D01*
X85777451Y-64357543D01*
X85777452Y-64357544D01*
X85777454Y-64357546D01*
X85809812Y-64381769D01*
X85851681Y-64437700D01*
X85859500Y-64481034D01*
X85859500Y-65755206D01*
X85859505Y-65755287D01*
X85859505Y-65815075D01*
X85866734Y-65888472D01*
X85888219Y-66106635D01*
X85888219Y-66106638D01*
X85923200Y-66282504D01*
X85916971Y-66352095D01*
X85874108Y-66407272D01*
X85808218Y-66430516D01*
X85777389Y-66428311D01*
X85577540Y-66388555D01*
X85577534Y-66388554D01*
X85448342Y-66375827D01*
X85282622Y-66359503D01*
X85282618Y-66359502D01*
X85282626Y-66359502D01*
X85219631Y-66359501D01*
X85219609Y-66359500D01*
X85213500Y-66359500D01*
X85134454Y-66359500D01*
X85061540Y-66359499D01*
X85061539Y-66359499D01*
X85053945Y-66359499D01*
X85053929Y-66359500D01*
X83981035Y-66359500D01*
X83913996Y-66339815D01*
X83881768Y-66309810D01*
X83857550Y-66277458D01*
X83857547Y-66277455D01*
X83857546Y-66277454D01*
X83857542Y-66277451D01*
X83742335Y-66191206D01*
X83742328Y-66191202D01*
X83607482Y-66140908D01*
X83607483Y-66140908D01*
X83547883Y-66134501D01*
X83547881Y-66134500D01*
X83547873Y-66134500D01*
X83547865Y-66134500D01*
X80609028Y-66134500D01*
X80541989Y-66114815D01*
X80496234Y-66062011D01*
X80486290Y-65992853D01*
X80488453Y-65981556D01*
X80492088Y-65966414D01*
X80499590Y-65935165D01*
X80505594Y-65916684D01*
X80561158Y-65782542D01*
X80569989Y-65765214D01*
X80576073Y-65755287D01*
X80645838Y-65641438D01*
X80657273Y-65625700D01*
X80657274Y-65625699D01*
X80754730Y-65511591D01*
X80761310Y-65504473D01*
X80786093Y-65479691D01*
X80786093Y-65479690D01*
X81005123Y-65260660D01*
X82992893Y-65260660D01*
X83380267Y-65648034D01*
X83426902Y-65685614D01*
X83557681Y-65745340D01*
X83557686Y-65745341D01*
X83700000Y-65765801D01*
X83842313Y-65745341D01*
X83842318Y-65745340D01*
X83973097Y-65685614D01*
X84019732Y-65648034D01*
X84407106Y-65260660D01*
X84407106Y-65260659D01*
X83700001Y-64553553D01*
X83700000Y-64553553D01*
X82992893Y-65260660D01*
X81005123Y-65260660D01*
X81955896Y-64309885D01*
X82017215Y-64276403D01*
X82086906Y-64281387D01*
X82142840Y-64323258D01*
X82156367Y-64346057D01*
X82214385Y-64473097D01*
X82251965Y-64519732D01*
X82639339Y-64907106D01*
X83346446Y-64200000D01*
X84053553Y-64200000D01*
X84760659Y-64907106D01*
X85148030Y-64519736D01*
X85148034Y-64519732D01*
X85185614Y-64473097D01*
X85245340Y-64342318D01*
X85245341Y-64342313D01*
X85265801Y-64200000D01*
X85245341Y-64057686D01*
X85245340Y-64057681D01*
X85185614Y-63926902D01*
X85148034Y-63880267D01*
X84760660Y-63492893D01*
X84053553Y-64200000D01*
X83346446Y-64200000D01*
X83523223Y-64023223D01*
X84407106Y-63139339D01*
X84019732Y-62751965D01*
X83973097Y-62714385D01*
X83846056Y-62656367D01*
X83793252Y-62610612D01*
X83773568Y-62543573D01*
X83793253Y-62476533D01*
X83809882Y-62455897D01*
X85004453Y-61261325D01*
X85011590Y-61254729D01*
X85125699Y-61157271D01*
X85141429Y-61145841D01*
X85265225Y-61069979D01*
X85282540Y-61061156D01*
X85416678Y-61005595D01*
X85435164Y-60999589D01*
X85467012Y-60991943D01*
X85481554Y-60988452D01*
X85551337Y-60991943D01*
G37*
G04 #@! TD.AperFunction*
G04 #@! TA.AperFunction,Conductor*
G36*
X92518435Y-60988450D02*
G01*
X92564830Y-60999589D01*
X92583318Y-61005596D01*
X92717451Y-61061156D01*
X92734785Y-61069989D01*
X92858558Y-61145837D01*
X92874299Y-61157273D01*
X92988394Y-61254718D01*
X92995544Y-61261328D01*
X94190110Y-62455893D01*
X94223595Y-62517216D01*
X94218611Y-62586908D01*
X94176739Y-62642841D01*
X94153941Y-62656368D01*
X94026902Y-62714385D01*
X93980262Y-62751969D01*
X93592893Y-63139338D01*
X93592893Y-63139339D01*
X94476777Y-64023223D01*
X95360659Y-64907106D01*
X95360660Y-64907106D01*
X95748034Y-64519732D01*
X95785615Y-64473096D01*
X95843632Y-64346058D01*
X95889387Y-64293254D01*
X95956426Y-64273569D01*
X96023465Y-64293254D01*
X96044106Y-64309887D01*
X96719997Y-64985777D01*
X97213909Y-65479689D01*
X97238661Y-65504441D01*
X97245271Y-65511591D01*
X97342728Y-65625699D01*
X97354164Y-65641439D01*
X97365834Y-65660483D01*
X97430017Y-65765220D01*
X97438848Y-65782552D01*
X97494399Y-65916665D01*
X97500411Y-65935168D01*
X97507913Y-65966414D01*
X97511548Y-65981552D01*
X97508058Y-66051334D01*
X97467394Y-66108152D01*
X97402468Y-66133966D01*
X97390974Y-66134500D01*
X96075108Y-66134500D01*
X96008069Y-66114815D01*
X95987427Y-66098181D01*
X95920824Y-66031578D01*
X95858093Y-65981552D01*
X95741374Y-65888472D01*
X95572799Y-65782550D01*
X95547023Y-65766354D01*
X95340240Y-65666774D01*
X95340236Y-65666773D01*
X95340234Y-65666772D01*
X95123589Y-65590967D01*
X95123587Y-65590966D01*
X94978560Y-65557866D01*
X94917581Y-65523758D01*
X94884723Y-65462097D01*
X94890418Y-65392459D01*
X94918471Y-65349293D01*
X95007106Y-65260659D01*
X94300001Y-64553553D01*
X94300000Y-64553553D01*
X93592893Y-65260660D01*
X93634752Y-65302519D01*
X93668237Y-65363842D01*
X93663253Y-65433534D01*
X93621381Y-65489467D01*
X93555917Y-65513884D01*
X93547071Y-65514200D01*
X92698092Y-65514200D01*
X92631053Y-65494515D01*
X92585298Y-65441711D01*
X92581057Y-65431174D01*
X92577956Y-65422310D01*
X92577952Y-65422303D01*
X92577951Y-65422300D01*
X92487981Y-65279115D01*
X92487976Y-65279109D01*
X92368390Y-65159523D01*
X92368384Y-65159518D01*
X92225197Y-65069547D01*
X92225194Y-65069545D01*
X92065557Y-65013686D01*
X92058111Y-65012847D01*
X91993698Y-64985777D01*
X91954146Y-64928180D01*
X91948000Y-64889627D01*
X91948000Y-64721025D01*
X91967685Y-64653986D01*
X91971671Y-64648154D01*
X92006046Y-64600841D01*
X92060456Y-64494048D01*
X92101408Y-64450684D01*
X92100230Y-64449111D01*
X92107328Y-64443796D01*
X92107331Y-64443796D01*
X92222546Y-64357546D01*
X92308796Y-64242331D01*
X92324584Y-64200000D01*
X92734198Y-64200000D01*
X92754658Y-64342313D01*
X92754659Y-64342318D01*
X92814385Y-64473097D01*
X92851965Y-64519732D01*
X93239339Y-64907106D01*
X93946446Y-64200000D01*
X93239339Y-63492893D01*
X93239338Y-63492893D01*
X92851969Y-63880262D01*
X92814385Y-63926902D01*
X92754659Y-64057681D01*
X92754658Y-64057686D01*
X92734198Y-64200000D01*
X92324584Y-64200000D01*
X92359091Y-64107483D01*
X92365500Y-64047873D01*
X92365499Y-61109026D01*
X92385184Y-61041988D01*
X92437988Y-60996233D01*
X92507146Y-60986289D01*
X92518435Y-60988450D01*
G37*
G04 #@! TD.AperFunction*
M02*
