G04 #@! TF.GenerationSoftware,KiCad,Pcbnew,8.0.9-8.0.9-0~ubuntu20.04.1*
G04 #@! TF.CreationDate,2025-06-13T22:30:39+01:00*
G04 #@! TF.ProjectId,ch32-breakout,63683332-2d62-4726-9561-6b6f75742e6b,rev?*
G04 #@! TF.SameCoordinates,Original*
G04 #@! TF.FileFunction,Legend,Bot*
G04 #@! TF.FilePolarity,Positive*
%FSLAX46Y46*%
G04 Gerber Fmt 4.6, Leading zero omitted, Abs format (unit mm)*
G04 Created by KiCad (PCBNEW 8.0.9-8.0.9-0~ubuntu20.04.1) date 2025-06-13 22:30:39*
%MOMM*%
%LPD*%
G01*
G04 APERTURE LIST*
%ADD10C,0.150000*%
%ADD11C,0.120000*%
G04 APERTURE END LIST*
D10*
X85738094Y-69149847D02*
X85738094Y-68149847D01*
X85738094Y-68149847D02*
X85499999Y-68149847D01*
X85499999Y-68149847D02*
X85357142Y-68197466D01*
X85357142Y-68197466D02*
X85261904Y-68292704D01*
X85261904Y-68292704D02*
X85214285Y-68387942D01*
X85214285Y-68387942D02*
X85166666Y-68578418D01*
X85166666Y-68578418D02*
X85166666Y-68721275D01*
X85166666Y-68721275D02*
X85214285Y-68911751D01*
X85214285Y-68911751D02*
X85261904Y-69006989D01*
X85261904Y-69006989D02*
X85357142Y-69102228D01*
X85357142Y-69102228D02*
X85499999Y-69149847D01*
X85499999Y-69149847D02*
X85738094Y-69149847D01*
X84214285Y-69149847D02*
X84785713Y-69149847D01*
X84499999Y-69149847D02*
X84499999Y-68149847D01*
X84499999Y-68149847D02*
X84595237Y-68292704D01*
X84595237Y-68292704D02*
X84690475Y-68387942D01*
X84690475Y-68387942D02*
X84785713Y-68435561D01*
X85238095Y-69807410D02*
X85333333Y-69759791D01*
X85333333Y-69759791D02*
X85476190Y-69759791D01*
X85476190Y-69759791D02*
X85619047Y-69807410D01*
X85619047Y-69807410D02*
X85714285Y-69902648D01*
X85714285Y-69902648D02*
X85761904Y-69997886D01*
X85761904Y-69997886D02*
X85809523Y-70188362D01*
X85809523Y-70188362D02*
X85809523Y-70331219D01*
X85809523Y-70331219D02*
X85761904Y-70521695D01*
X85761904Y-70521695D02*
X85714285Y-70616933D01*
X85714285Y-70616933D02*
X85619047Y-70712172D01*
X85619047Y-70712172D02*
X85476190Y-70759791D01*
X85476190Y-70759791D02*
X85380952Y-70759791D01*
X85380952Y-70759791D02*
X85238095Y-70712172D01*
X85238095Y-70712172D02*
X85190476Y-70664552D01*
X85190476Y-70664552D02*
X85190476Y-70331219D01*
X85190476Y-70331219D02*
X85380952Y-70331219D01*
X84761904Y-70759791D02*
X84761904Y-69759791D01*
X84761904Y-69759791D02*
X84523809Y-69759791D01*
X84523809Y-69759791D02*
X84380952Y-69807410D01*
X84380952Y-69807410D02*
X84285714Y-69902648D01*
X84285714Y-69902648D02*
X84238095Y-69997886D01*
X84238095Y-69997886D02*
X84190476Y-70188362D01*
X84190476Y-70188362D02*
X84190476Y-70331219D01*
X84190476Y-70331219D02*
X84238095Y-70521695D01*
X84238095Y-70521695D02*
X84285714Y-70616933D01*
X84285714Y-70616933D02*
X84380952Y-70712172D01*
X84380952Y-70712172D02*
X84523809Y-70759791D01*
X84523809Y-70759791D02*
X84761904Y-70759791D01*
X90333333Y-69945391D02*
X90285714Y-69897772D01*
X90285714Y-69897772D02*
X90142857Y-69850152D01*
X90142857Y-69850152D02*
X90047619Y-69850152D01*
X90047619Y-69850152D02*
X89904762Y-69897772D01*
X89904762Y-69897772D02*
X89809524Y-69993010D01*
X89809524Y-69993010D02*
X89761905Y-70088248D01*
X89761905Y-70088248D02*
X89714286Y-70278724D01*
X89714286Y-70278724D02*
X89714286Y-70421581D01*
X89714286Y-70421581D02*
X89761905Y-70612057D01*
X89761905Y-70612057D02*
X89809524Y-70707295D01*
X89809524Y-70707295D02*
X89904762Y-70802533D01*
X89904762Y-70802533D02*
X90047619Y-70850152D01*
X90047619Y-70850152D02*
X90142857Y-70850152D01*
X90142857Y-70850152D02*
X90285714Y-70802533D01*
X90285714Y-70802533D02*
X90333333Y-70754914D01*
X91238095Y-70850152D02*
X90761905Y-70850152D01*
X90761905Y-70850152D02*
X90714286Y-70373962D01*
X90714286Y-70373962D02*
X90761905Y-70421581D01*
X90761905Y-70421581D02*
X90857143Y-70469200D01*
X90857143Y-70469200D02*
X91095238Y-70469200D01*
X91095238Y-70469200D02*
X91190476Y-70421581D01*
X91190476Y-70421581D02*
X91238095Y-70373962D01*
X91238095Y-70373962D02*
X91285714Y-70278724D01*
X91285714Y-70278724D02*
X91285714Y-70040629D01*
X91285714Y-70040629D02*
X91238095Y-69945391D01*
X91238095Y-69945391D02*
X91190476Y-69897772D01*
X91190476Y-69897772D02*
X91095238Y-69850152D01*
X91095238Y-69850152D02*
X90857143Y-69850152D01*
X90857143Y-69850152D02*
X90761905Y-69897772D01*
X90761905Y-69897772D02*
X90714286Y-69945391D01*
X90333333Y-68335447D02*
X90285714Y-68287828D01*
X90285714Y-68287828D02*
X90142857Y-68240208D01*
X90142857Y-68240208D02*
X90047619Y-68240208D01*
X90047619Y-68240208D02*
X89904762Y-68287828D01*
X89904762Y-68287828D02*
X89809524Y-68383066D01*
X89809524Y-68383066D02*
X89761905Y-68478304D01*
X89761905Y-68478304D02*
X89714286Y-68668780D01*
X89714286Y-68668780D02*
X89714286Y-68811637D01*
X89714286Y-68811637D02*
X89761905Y-69002113D01*
X89761905Y-69002113D02*
X89809524Y-69097351D01*
X89809524Y-69097351D02*
X89904762Y-69192589D01*
X89904762Y-69192589D02*
X90047619Y-69240208D01*
X90047619Y-69240208D02*
X90142857Y-69240208D01*
X90142857Y-69240208D02*
X90285714Y-69192589D01*
X90285714Y-69192589D02*
X90333333Y-69144970D01*
X90666667Y-69240208D02*
X91333333Y-69240208D01*
X91333333Y-69240208D02*
X90904762Y-68240208D01*
X89350152Y-66238094D02*
X90350152Y-66238094D01*
X90350152Y-66238094D02*
X90350152Y-65999999D01*
X90350152Y-65999999D02*
X90302533Y-65857142D01*
X90302533Y-65857142D02*
X90207295Y-65761904D01*
X90207295Y-65761904D02*
X90112057Y-65714285D01*
X90112057Y-65714285D02*
X89921581Y-65666666D01*
X89921581Y-65666666D02*
X89778724Y-65666666D01*
X89778724Y-65666666D02*
X89588248Y-65714285D01*
X89588248Y-65714285D02*
X89493010Y-65761904D01*
X89493010Y-65761904D02*
X89397772Y-65857142D01*
X89397772Y-65857142D02*
X89350152Y-65999999D01*
X89350152Y-65999999D02*
X89350152Y-66238094D01*
X90350152Y-65333332D02*
X90350152Y-64714285D01*
X90350152Y-64714285D02*
X89969200Y-65047618D01*
X89969200Y-65047618D02*
X89969200Y-64904761D01*
X89969200Y-64904761D02*
X89921581Y-64809523D01*
X89921581Y-64809523D02*
X89873962Y-64761904D01*
X89873962Y-64761904D02*
X89778724Y-64714285D01*
X89778724Y-64714285D02*
X89540629Y-64714285D01*
X89540629Y-64714285D02*
X89445391Y-64761904D01*
X89445391Y-64761904D02*
X89397772Y-64809523D01*
X89397772Y-64809523D02*
X89350152Y-64904761D01*
X89350152Y-64904761D02*
X89350152Y-65190475D01*
X89350152Y-65190475D02*
X89397772Y-65285713D01*
X89397772Y-65285713D02*
X89445391Y-65333332D01*
X87740208Y-66238094D02*
X88740208Y-66238094D01*
X88740208Y-66238094D02*
X88740208Y-65999999D01*
X88740208Y-65999999D02*
X88692589Y-65857142D01*
X88692589Y-65857142D02*
X88597351Y-65761904D01*
X88597351Y-65761904D02*
X88502113Y-65714285D01*
X88502113Y-65714285D02*
X88311637Y-65666666D01*
X88311637Y-65666666D02*
X88168780Y-65666666D01*
X88168780Y-65666666D02*
X87978304Y-65714285D01*
X87978304Y-65714285D02*
X87883066Y-65761904D01*
X87883066Y-65761904D02*
X87787828Y-65857142D01*
X87787828Y-65857142D02*
X87740208Y-65999999D01*
X87740208Y-65999999D02*
X87740208Y-66238094D01*
X88740208Y-64761904D02*
X88740208Y-65238094D01*
X88740208Y-65238094D02*
X88264018Y-65285713D01*
X88264018Y-65285713D02*
X88311637Y-65238094D01*
X88311637Y-65238094D02*
X88359256Y-65142856D01*
X88359256Y-65142856D02*
X88359256Y-64904761D01*
X88359256Y-64904761D02*
X88311637Y-64809523D01*
X88311637Y-64809523D02*
X88264018Y-64761904D01*
X88264018Y-64761904D02*
X88168780Y-64714285D01*
X88168780Y-64714285D02*
X87930685Y-64714285D01*
X87930685Y-64714285D02*
X87835447Y-64761904D01*
X87835447Y-64761904D02*
X87787828Y-64809523D01*
X87787828Y-64809523D02*
X87740208Y-64904761D01*
X87740208Y-64904761D02*
X87740208Y-65142856D01*
X87740208Y-65142856D02*
X87787828Y-65238094D01*
X87787828Y-65238094D02*
X87835447Y-65285713D01*
X88554608Y-73333333D02*
X88602228Y-73285714D01*
X88602228Y-73285714D02*
X88649847Y-73142857D01*
X88649847Y-73142857D02*
X88649847Y-73047619D01*
X88649847Y-73047619D02*
X88602228Y-72904762D01*
X88602228Y-72904762D02*
X88506989Y-72809524D01*
X88506989Y-72809524D02*
X88411751Y-72761905D01*
X88411751Y-72761905D02*
X88221275Y-72714286D01*
X88221275Y-72714286D02*
X88078418Y-72714286D01*
X88078418Y-72714286D02*
X87887942Y-72761905D01*
X87887942Y-72761905D02*
X87792704Y-72809524D01*
X87792704Y-72809524D02*
X87697466Y-72904762D01*
X87697466Y-72904762D02*
X87649847Y-73047619D01*
X87649847Y-73047619D02*
X87649847Y-73142857D01*
X87649847Y-73142857D02*
X87697466Y-73285714D01*
X87697466Y-73285714D02*
X87745085Y-73333333D01*
X87745085Y-73714286D02*
X87697466Y-73761905D01*
X87697466Y-73761905D02*
X87649847Y-73857143D01*
X87649847Y-73857143D02*
X87649847Y-74095238D01*
X87649847Y-74095238D02*
X87697466Y-74190476D01*
X87697466Y-74190476D02*
X87745085Y-74238095D01*
X87745085Y-74238095D02*
X87840323Y-74285714D01*
X87840323Y-74285714D02*
X87935561Y-74285714D01*
X87935561Y-74285714D02*
X88078418Y-74238095D01*
X88078418Y-74238095D02*
X88649847Y-73666667D01*
X88649847Y-73666667D02*
X88649847Y-74285714D01*
X90164552Y-73333333D02*
X90212172Y-73285714D01*
X90212172Y-73285714D02*
X90259791Y-73142857D01*
X90259791Y-73142857D02*
X90259791Y-73047619D01*
X90259791Y-73047619D02*
X90212172Y-72904762D01*
X90212172Y-72904762D02*
X90116933Y-72809524D01*
X90116933Y-72809524D02*
X90021695Y-72761905D01*
X90021695Y-72761905D02*
X89831219Y-72714286D01*
X89831219Y-72714286D02*
X89688362Y-72714286D01*
X89688362Y-72714286D02*
X89497886Y-72761905D01*
X89497886Y-72761905D02*
X89402648Y-72809524D01*
X89402648Y-72809524D02*
X89307410Y-72904762D01*
X89307410Y-72904762D02*
X89259791Y-73047619D01*
X89259791Y-73047619D02*
X89259791Y-73142857D01*
X89259791Y-73142857D02*
X89307410Y-73285714D01*
X89307410Y-73285714D02*
X89355029Y-73333333D01*
X89593124Y-74190476D02*
X90259791Y-74190476D01*
X89212172Y-73952381D02*
X89926457Y-73714286D01*
X89926457Y-73714286D02*
X89926457Y-74333333D01*
X82738094Y-68344875D02*
X82738094Y-67344875D01*
X82738094Y-67344875D02*
X82499999Y-67344875D01*
X82499999Y-67344875D02*
X82357142Y-67392494D01*
X82357142Y-67392494D02*
X82261904Y-67487732D01*
X82261904Y-67487732D02*
X82214285Y-67582970D01*
X82214285Y-67582970D02*
X82166666Y-67773446D01*
X82166666Y-67773446D02*
X82166666Y-67916303D01*
X82166666Y-67916303D02*
X82214285Y-68106779D01*
X82214285Y-68106779D02*
X82261904Y-68202017D01*
X82261904Y-68202017D02*
X82357142Y-68297256D01*
X82357142Y-68297256D02*
X82499999Y-68344875D01*
X82499999Y-68344875D02*
X82738094Y-68344875D01*
X81833332Y-67344875D02*
X81166666Y-67344875D01*
X81166666Y-67344875D02*
X81595237Y-68344875D01*
X82714285Y-69669104D02*
X82238095Y-69669104D01*
X82809523Y-69954819D02*
X82476190Y-68954819D01*
X82476190Y-68954819D02*
X82142857Y-69954819D01*
X81285714Y-69954819D02*
X81857142Y-69954819D01*
X81571428Y-69954819D02*
X81571428Y-68954819D01*
X81571428Y-68954819D02*
X81666666Y-69097676D01*
X81666666Y-69097676D02*
X81761904Y-69192914D01*
X81761904Y-69192914D02*
X81857142Y-69240533D01*
X82714285Y-71279048D02*
X82238095Y-71279048D01*
X82809523Y-71564763D02*
X82476190Y-70564763D01*
X82476190Y-70564763D02*
X82142857Y-71564763D01*
X81857142Y-70660001D02*
X81809523Y-70612382D01*
X81809523Y-70612382D02*
X81714285Y-70564763D01*
X81714285Y-70564763D02*
X81476190Y-70564763D01*
X81476190Y-70564763D02*
X81380952Y-70612382D01*
X81380952Y-70612382D02*
X81333333Y-70660001D01*
X81333333Y-70660001D02*
X81285714Y-70755239D01*
X81285714Y-70755239D02*
X81285714Y-70850477D01*
X81285714Y-70850477D02*
X81333333Y-70993334D01*
X81333333Y-70993334D02*
X81904761Y-71564763D01*
X81904761Y-71564763D02*
X81285714Y-71564763D01*
X96954819Y-84500000D02*
X95954819Y-84500000D01*
X82073866Y-83869048D02*
X82073866Y-84630953D01*
X92663220Y-87619819D02*
X92663220Y-88429342D01*
X92663220Y-88429342D02*
X92615601Y-88524580D01*
X92615601Y-88524580D02*
X92567982Y-88572200D01*
X92567982Y-88572200D02*
X92472744Y-88619819D01*
X92472744Y-88619819D02*
X92282268Y-88619819D01*
X92282268Y-88619819D02*
X92187030Y-88572200D01*
X92187030Y-88572200D02*
X92139411Y-88524580D01*
X92139411Y-88524580D02*
X92091792Y-88429342D01*
X92091792Y-88429342D02*
X92091792Y-87619819D01*
X91663220Y-88572200D02*
X91520363Y-88619819D01*
X91520363Y-88619819D02*
X91282268Y-88619819D01*
X91282268Y-88619819D02*
X91187030Y-88572200D01*
X91187030Y-88572200D02*
X91139411Y-88524580D01*
X91139411Y-88524580D02*
X91091792Y-88429342D01*
X91091792Y-88429342D02*
X91091792Y-88334104D01*
X91091792Y-88334104D02*
X91139411Y-88238866D01*
X91139411Y-88238866D02*
X91187030Y-88191247D01*
X91187030Y-88191247D02*
X91282268Y-88143628D01*
X91282268Y-88143628D02*
X91472744Y-88096009D01*
X91472744Y-88096009D02*
X91567982Y-88048390D01*
X91567982Y-88048390D02*
X91615601Y-88000771D01*
X91615601Y-88000771D02*
X91663220Y-87905533D01*
X91663220Y-87905533D02*
X91663220Y-87810295D01*
X91663220Y-87810295D02*
X91615601Y-87715057D01*
X91615601Y-87715057D02*
X91567982Y-87667438D01*
X91567982Y-87667438D02*
X91472744Y-87619819D01*
X91472744Y-87619819D02*
X91234649Y-87619819D01*
X91234649Y-87619819D02*
X91091792Y-87667438D01*
X90329887Y-88096009D02*
X90187030Y-88143628D01*
X90187030Y-88143628D02*
X90139411Y-88191247D01*
X90139411Y-88191247D02*
X90091792Y-88286485D01*
X90091792Y-88286485D02*
X90091792Y-88429342D01*
X90091792Y-88429342D02*
X90139411Y-88524580D01*
X90139411Y-88524580D02*
X90187030Y-88572200D01*
X90187030Y-88572200D02*
X90282268Y-88619819D01*
X90282268Y-88619819D02*
X90663220Y-88619819D01*
X90663220Y-88619819D02*
X90663220Y-87619819D01*
X90663220Y-87619819D02*
X90329887Y-87619819D01*
X90329887Y-87619819D02*
X90234649Y-87667438D01*
X90234649Y-87667438D02*
X90187030Y-87715057D01*
X90187030Y-87715057D02*
X90139411Y-87810295D01*
X90139411Y-87810295D02*
X90139411Y-87905533D01*
X90139411Y-87905533D02*
X90187030Y-88000771D01*
X90187030Y-88000771D02*
X90234649Y-88048390D01*
X90234649Y-88048390D02*
X90329887Y-88096009D01*
X90329887Y-88096009D02*
X90663220Y-88096009D01*
X89663220Y-88238866D02*
X88901316Y-88238866D01*
X89282268Y-88619819D02*
X89282268Y-87857914D01*
X86726190Y-83045180D02*
X86916666Y-83045180D01*
X86916666Y-83045180D02*
X87011904Y-82997561D01*
X87011904Y-82997561D02*
X87107142Y-82902323D01*
X87107142Y-82902323D02*
X87154761Y-82711847D01*
X87154761Y-82711847D02*
X87154761Y-82378514D01*
X87154761Y-82378514D02*
X87107142Y-82188038D01*
X87107142Y-82188038D02*
X87011904Y-82092800D01*
X87011904Y-82092800D02*
X86916666Y-82045180D01*
X86916666Y-82045180D02*
X86726190Y-82045180D01*
X86726190Y-82045180D02*
X86630952Y-82092800D01*
X86630952Y-82092800D02*
X86535714Y-82188038D01*
X86535714Y-82188038D02*
X86488095Y-82378514D01*
X86488095Y-82378514D02*
X86488095Y-82711847D01*
X86488095Y-82711847D02*
X86535714Y-82902323D01*
X86535714Y-82902323D02*
X86630952Y-82997561D01*
X86630952Y-82997561D02*
X86726190Y-83045180D01*
X88011904Y-82711847D02*
X88011904Y-82045180D01*
X87583333Y-82711847D02*
X87583333Y-82188038D01*
X87583333Y-82188038D02*
X87630952Y-82092800D01*
X87630952Y-82092800D02*
X87726190Y-82045180D01*
X87726190Y-82045180D02*
X87869047Y-82045180D01*
X87869047Y-82045180D02*
X87964285Y-82092800D01*
X87964285Y-82092800D02*
X88011904Y-82140419D01*
X88345238Y-82711847D02*
X88726190Y-82711847D01*
X88488095Y-83045180D02*
X88488095Y-82188038D01*
X88488095Y-82188038D02*
X88535714Y-82092800D01*
X88535714Y-82092800D02*
X88630952Y-82045180D01*
X88630952Y-82045180D02*
X88726190Y-82045180D01*
X89059524Y-82711847D02*
X89059524Y-81711847D01*
X89059524Y-82664228D02*
X89154762Y-82711847D01*
X89154762Y-82711847D02*
X89345238Y-82711847D01*
X89345238Y-82711847D02*
X89440476Y-82664228D01*
X89440476Y-82664228D02*
X89488095Y-82616609D01*
X89488095Y-82616609D02*
X89535714Y-82521371D01*
X89535714Y-82521371D02*
X89535714Y-82235657D01*
X89535714Y-82235657D02*
X89488095Y-82140419D01*
X89488095Y-82140419D02*
X89440476Y-82092800D01*
X89440476Y-82092800D02*
X89345238Y-82045180D01*
X89345238Y-82045180D02*
X89154762Y-82045180D01*
X89154762Y-82045180D02*
X89059524Y-82092800D01*
X90392857Y-82711847D02*
X90392857Y-82045180D01*
X89964286Y-82711847D02*
X89964286Y-82188038D01*
X89964286Y-82188038D02*
X90011905Y-82092800D01*
X90011905Y-82092800D02*
X90107143Y-82045180D01*
X90107143Y-82045180D02*
X90250000Y-82045180D01*
X90250000Y-82045180D02*
X90345238Y-82092800D01*
X90345238Y-82092800D02*
X90392857Y-82140419D01*
X90726191Y-82711847D02*
X91107143Y-82711847D01*
X90869048Y-83045180D02*
X90869048Y-82188038D01*
X90869048Y-82188038D02*
X90916667Y-82092800D01*
X90916667Y-82092800D02*
X91011905Y-82045180D01*
X91011905Y-82045180D02*
X91107143Y-82045180D01*
X90155124Y-63238094D02*
X91155124Y-63238094D01*
X91155124Y-63238094D02*
X91155124Y-62999999D01*
X91155124Y-62999999D02*
X91107505Y-62857142D01*
X91107505Y-62857142D02*
X91012267Y-62761904D01*
X91012267Y-62761904D02*
X90917029Y-62714285D01*
X90917029Y-62714285D02*
X90726553Y-62666666D01*
X90726553Y-62666666D02*
X90583696Y-62666666D01*
X90583696Y-62666666D02*
X90393220Y-62714285D01*
X90393220Y-62714285D02*
X90297982Y-62761904D01*
X90297982Y-62761904D02*
X90202744Y-62857142D01*
X90202744Y-62857142D02*
X90155124Y-62999999D01*
X90155124Y-62999999D02*
X90155124Y-63238094D01*
X91059886Y-62285713D02*
X91107505Y-62238094D01*
X91107505Y-62238094D02*
X91155124Y-62142856D01*
X91155124Y-62142856D02*
X91155124Y-61904761D01*
X91155124Y-61904761D02*
X91107505Y-61809523D01*
X91107505Y-61809523D02*
X91059886Y-61761904D01*
X91059886Y-61761904D02*
X90964648Y-61714285D01*
X90964648Y-61714285D02*
X90869410Y-61714285D01*
X90869410Y-61714285D02*
X90726553Y-61761904D01*
X90726553Y-61761904D02*
X90155124Y-62333332D01*
X90155124Y-62333332D02*
X90155124Y-61714285D01*
X88545180Y-63238094D02*
X89545180Y-63238094D01*
X89545180Y-63238094D02*
X89545180Y-62999999D01*
X89545180Y-62999999D02*
X89497561Y-62857142D01*
X89497561Y-62857142D02*
X89402323Y-62761904D01*
X89402323Y-62761904D02*
X89307085Y-62714285D01*
X89307085Y-62714285D02*
X89116609Y-62666666D01*
X89116609Y-62666666D02*
X88973752Y-62666666D01*
X88973752Y-62666666D02*
X88783276Y-62714285D01*
X88783276Y-62714285D02*
X88688038Y-62761904D01*
X88688038Y-62761904D02*
X88592800Y-62857142D01*
X88592800Y-62857142D02*
X88545180Y-62999999D01*
X88545180Y-62999999D02*
X88545180Y-63238094D01*
X89211847Y-61809523D02*
X88545180Y-61809523D01*
X89592800Y-62047618D02*
X88878514Y-62285713D01*
X88878514Y-62285713D02*
X88878514Y-61666666D01*
X86935236Y-63238094D02*
X87935236Y-63238094D01*
X87935236Y-63238094D02*
X87935236Y-62999999D01*
X87935236Y-62999999D02*
X87887617Y-62857142D01*
X87887617Y-62857142D02*
X87792379Y-62761904D01*
X87792379Y-62761904D02*
X87697141Y-62714285D01*
X87697141Y-62714285D02*
X87506665Y-62666666D01*
X87506665Y-62666666D02*
X87363808Y-62666666D01*
X87363808Y-62666666D02*
X87173332Y-62714285D01*
X87173332Y-62714285D02*
X87078094Y-62761904D01*
X87078094Y-62761904D02*
X86982856Y-62857142D01*
X86982856Y-62857142D02*
X86935236Y-62999999D01*
X86935236Y-62999999D02*
X86935236Y-63238094D01*
X87935236Y-61809523D02*
X87935236Y-61999999D01*
X87935236Y-61999999D02*
X87887617Y-62095237D01*
X87887617Y-62095237D02*
X87839998Y-62142856D01*
X87839998Y-62142856D02*
X87697141Y-62238094D01*
X87697141Y-62238094D02*
X87506665Y-62285713D01*
X87506665Y-62285713D02*
X87125713Y-62285713D01*
X87125713Y-62285713D02*
X87030475Y-62238094D01*
X87030475Y-62238094D02*
X86982856Y-62190475D01*
X86982856Y-62190475D02*
X86935236Y-62095237D01*
X86935236Y-62095237D02*
X86935236Y-61904761D01*
X86935236Y-61904761D02*
X86982856Y-61809523D01*
X86982856Y-61809523D02*
X87030475Y-61761904D01*
X87030475Y-61761904D02*
X87125713Y-61714285D01*
X87125713Y-61714285D02*
X87363808Y-61714285D01*
X87363808Y-61714285D02*
X87459046Y-61761904D01*
X87459046Y-61761904D02*
X87506665Y-61809523D01*
X87506665Y-61809523D02*
X87554284Y-61904761D01*
X87554284Y-61904761D02*
X87554284Y-62095237D01*
X87554284Y-62095237D02*
X87506665Y-62190475D01*
X87506665Y-62190475D02*
X87459046Y-62238094D01*
X87459046Y-62238094D02*
X87363808Y-62285713D01*
X95833333Y-70750363D02*
X95785714Y-70702744D01*
X95785714Y-70702744D02*
X95642857Y-70655124D01*
X95642857Y-70655124D02*
X95547619Y-70655124D01*
X95547619Y-70655124D02*
X95404762Y-70702744D01*
X95404762Y-70702744D02*
X95309524Y-70797982D01*
X95309524Y-70797982D02*
X95261905Y-70893220D01*
X95261905Y-70893220D02*
X95214286Y-71083696D01*
X95214286Y-71083696D02*
X95214286Y-71226553D01*
X95214286Y-71226553D02*
X95261905Y-71417029D01*
X95261905Y-71417029D02*
X95309524Y-71512267D01*
X95309524Y-71512267D02*
X95404762Y-71607505D01*
X95404762Y-71607505D02*
X95547619Y-71655124D01*
X95547619Y-71655124D02*
X95642857Y-71655124D01*
X95642857Y-71655124D02*
X95785714Y-71607505D01*
X95785714Y-71607505D02*
X95833333Y-71559886D01*
X96690476Y-71321791D02*
X96690476Y-70655124D01*
X96452381Y-71702744D02*
X96214286Y-70988458D01*
X96214286Y-70988458D02*
X96833333Y-70988458D01*
X95833333Y-69140419D02*
X95785714Y-69092800D01*
X95785714Y-69092800D02*
X95642857Y-69045180D01*
X95642857Y-69045180D02*
X95547619Y-69045180D01*
X95547619Y-69045180D02*
X95404762Y-69092800D01*
X95404762Y-69092800D02*
X95309524Y-69188038D01*
X95309524Y-69188038D02*
X95261905Y-69283276D01*
X95261905Y-69283276D02*
X95214286Y-69473752D01*
X95214286Y-69473752D02*
X95214286Y-69616609D01*
X95214286Y-69616609D02*
X95261905Y-69807085D01*
X95261905Y-69807085D02*
X95309524Y-69902323D01*
X95309524Y-69902323D02*
X95404762Y-69997561D01*
X95404762Y-69997561D02*
X95547619Y-70045180D01*
X95547619Y-70045180D02*
X95642857Y-70045180D01*
X95642857Y-70045180D02*
X95785714Y-69997561D01*
X95785714Y-69997561D02*
X95833333Y-69949942D01*
X96690476Y-70045180D02*
X96500000Y-70045180D01*
X96500000Y-70045180D02*
X96404762Y-69997561D01*
X96404762Y-69997561D02*
X96357143Y-69949942D01*
X96357143Y-69949942D02*
X96261905Y-69807085D01*
X96261905Y-69807085D02*
X96214286Y-69616609D01*
X96214286Y-69616609D02*
X96214286Y-69235657D01*
X96214286Y-69235657D02*
X96261905Y-69140419D01*
X96261905Y-69140419D02*
X96309524Y-69092800D01*
X96309524Y-69092800D02*
X96404762Y-69045180D01*
X96404762Y-69045180D02*
X96595238Y-69045180D01*
X96595238Y-69045180D02*
X96690476Y-69092800D01*
X96690476Y-69092800D02*
X96738095Y-69140419D01*
X96738095Y-69140419D02*
X96785714Y-69235657D01*
X96785714Y-69235657D02*
X96785714Y-69473752D01*
X96785714Y-69473752D02*
X96738095Y-69568990D01*
X96738095Y-69568990D02*
X96690476Y-69616609D01*
X96690476Y-69616609D02*
X96595238Y-69664228D01*
X96595238Y-69664228D02*
X96404762Y-69664228D01*
X96404762Y-69664228D02*
X96309524Y-69616609D01*
X96309524Y-69616609D02*
X96261905Y-69568990D01*
X96261905Y-69568990D02*
X96214286Y-69473752D01*
X95261905Y-67435236D02*
X95261905Y-68435236D01*
X95261905Y-68435236D02*
X95500000Y-68435236D01*
X95500000Y-68435236D02*
X95642857Y-68387617D01*
X95642857Y-68387617D02*
X95738095Y-68292379D01*
X95738095Y-68292379D02*
X95785714Y-68197141D01*
X95785714Y-68197141D02*
X95833333Y-68006665D01*
X95833333Y-68006665D02*
X95833333Y-67863808D01*
X95833333Y-67863808D02*
X95785714Y-67673332D01*
X95785714Y-67673332D02*
X95738095Y-67578094D01*
X95738095Y-67578094D02*
X95642857Y-67482856D01*
X95642857Y-67482856D02*
X95500000Y-67435236D01*
X95500000Y-67435236D02*
X95261905Y-67435236D01*
X96785714Y-67435236D02*
X96214286Y-67435236D01*
X96500000Y-67435236D02*
X96500000Y-68435236D01*
X96500000Y-68435236D02*
X96404762Y-68292379D01*
X96404762Y-68292379D02*
X96309524Y-68197141D01*
X96309524Y-68197141D02*
X96214286Y-68149522D01*
X95954819Y-90404762D02*
X95954819Y-90595238D01*
X95954819Y-90595238D02*
X96002438Y-90690476D01*
X96002438Y-90690476D02*
X96097676Y-90785714D01*
X96097676Y-90785714D02*
X96288152Y-90833333D01*
X96288152Y-90833333D02*
X96621485Y-90833333D01*
X96621485Y-90833333D02*
X96811961Y-90785714D01*
X96811961Y-90785714D02*
X96907200Y-90690476D01*
X96907200Y-90690476D02*
X96954819Y-90595238D01*
X96954819Y-90595238D02*
X96954819Y-90404762D01*
X96954819Y-90404762D02*
X96907200Y-90309524D01*
X96907200Y-90309524D02*
X96811961Y-90214286D01*
X96811961Y-90214286D02*
X96621485Y-90166667D01*
X96621485Y-90166667D02*
X96288152Y-90166667D01*
X96288152Y-90166667D02*
X96097676Y-90214286D01*
X96097676Y-90214286D02*
X96002438Y-90309524D01*
X96002438Y-90309524D02*
X95954819Y-90404762D01*
X82073866Y-90619048D02*
X82073866Y-91380953D01*
X82454819Y-91000000D02*
X81692914Y-91000000D01*
X86844875Y-75738095D02*
X86844875Y-76357142D01*
X86844875Y-76357142D02*
X87225827Y-76023809D01*
X87225827Y-76023809D02*
X87225827Y-76166666D01*
X87225827Y-76166666D02*
X87273446Y-76261904D01*
X87273446Y-76261904D02*
X87321065Y-76309523D01*
X87321065Y-76309523D02*
X87416303Y-76357142D01*
X87416303Y-76357142D02*
X87654398Y-76357142D01*
X87654398Y-76357142D02*
X87749636Y-76309523D01*
X87749636Y-76309523D02*
X87797256Y-76261904D01*
X87797256Y-76261904D02*
X87844875Y-76166666D01*
X87844875Y-76166666D02*
X87844875Y-75880952D01*
X87844875Y-75880952D02*
X87797256Y-75785714D01*
X87797256Y-75785714D02*
X87749636Y-75738095D01*
X86844875Y-76642857D02*
X87844875Y-76976190D01*
X87844875Y-76976190D02*
X86844875Y-77309523D01*
X89359580Y-76333333D02*
X89407200Y-76285714D01*
X89407200Y-76285714D02*
X89454819Y-76142857D01*
X89454819Y-76142857D02*
X89454819Y-76047619D01*
X89454819Y-76047619D02*
X89407200Y-75904762D01*
X89407200Y-75904762D02*
X89311961Y-75809524D01*
X89311961Y-75809524D02*
X89216723Y-75761905D01*
X89216723Y-75761905D02*
X89026247Y-75714286D01*
X89026247Y-75714286D02*
X88883390Y-75714286D01*
X88883390Y-75714286D02*
X88692914Y-75761905D01*
X88692914Y-75761905D02*
X88597676Y-75809524D01*
X88597676Y-75809524D02*
X88502438Y-75904762D01*
X88502438Y-75904762D02*
X88454819Y-76047619D01*
X88454819Y-76047619D02*
X88454819Y-76142857D01*
X88454819Y-76142857D02*
X88502438Y-76285714D01*
X88502438Y-76285714D02*
X88550057Y-76333333D01*
X89454819Y-77285714D02*
X89454819Y-76714286D01*
X89454819Y-77000000D02*
X88454819Y-77000000D01*
X88454819Y-77000000D02*
X88597676Y-76904762D01*
X88597676Y-76904762D02*
X88692914Y-76809524D01*
X88692914Y-76809524D02*
X88740533Y-76714286D01*
X90969524Y-76333333D02*
X91017144Y-76285714D01*
X91017144Y-76285714D02*
X91064763Y-76142857D01*
X91064763Y-76142857D02*
X91064763Y-76047619D01*
X91064763Y-76047619D02*
X91017144Y-75904762D01*
X91017144Y-75904762D02*
X90921905Y-75809524D01*
X90921905Y-75809524D02*
X90826667Y-75761905D01*
X90826667Y-75761905D02*
X90636191Y-75714286D01*
X90636191Y-75714286D02*
X90493334Y-75714286D01*
X90493334Y-75714286D02*
X90302858Y-75761905D01*
X90302858Y-75761905D02*
X90207620Y-75809524D01*
X90207620Y-75809524D02*
X90112382Y-75904762D01*
X90112382Y-75904762D02*
X90064763Y-76047619D01*
X90064763Y-76047619D02*
X90064763Y-76142857D01*
X90064763Y-76142857D02*
X90112382Y-76285714D01*
X90112382Y-76285714D02*
X90160001Y-76333333D01*
X90064763Y-76666667D02*
X90064763Y-77285714D01*
X90064763Y-77285714D02*
X90445715Y-76952381D01*
X90445715Y-76952381D02*
X90445715Y-77095238D01*
X90445715Y-77095238D02*
X90493334Y-77190476D01*
X90493334Y-77190476D02*
X90540953Y-77238095D01*
X90540953Y-77238095D02*
X90636191Y-77285714D01*
X90636191Y-77285714D02*
X90874286Y-77285714D01*
X90874286Y-77285714D02*
X90969524Y-77238095D01*
X90969524Y-77238095D02*
X91017144Y-77190476D01*
X91017144Y-77190476D02*
X91064763Y-77095238D01*
X91064763Y-77095238D02*
X91064763Y-76809524D01*
X91064763Y-76809524D02*
X91017144Y-76714286D01*
X91017144Y-76714286D02*
X90969524Y-76666667D01*
X85488095Y-79676133D02*
X86250000Y-79676133D01*
X85869047Y-79295180D02*
X85869047Y-80057085D01*
X87392857Y-80295180D02*
X88011904Y-80295180D01*
X88011904Y-80295180D02*
X87678571Y-79914228D01*
X87678571Y-79914228D02*
X87821428Y-79914228D01*
X87821428Y-79914228D02*
X87916666Y-79866609D01*
X87916666Y-79866609D02*
X87964285Y-79818990D01*
X87964285Y-79818990D02*
X88011904Y-79723752D01*
X88011904Y-79723752D02*
X88011904Y-79485657D01*
X88011904Y-79485657D02*
X87964285Y-79390419D01*
X87964285Y-79390419D02*
X87916666Y-79342800D01*
X87916666Y-79342800D02*
X87821428Y-79295180D01*
X87821428Y-79295180D02*
X87535714Y-79295180D01*
X87535714Y-79295180D02*
X87440476Y-79342800D01*
X87440476Y-79342800D02*
X87392857Y-79390419D01*
X88440476Y-79390419D02*
X88488095Y-79342800D01*
X88488095Y-79342800D02*
X88440476Y-79295180D01*
X88440476Y-79295180D02*
X88392857Y-79342800D01*
X88392857Y-79342800D02*
X88440476Y-79390419D01*
X88440476Y-79390419D02*
X88440476Y-79295180D01*
X88821428Y-80295180D02*
X89440475Y-80295180D01*
X89440475Y-80295180D02*
X89107142Y-79914228D01*
X89107142Y-79914228D02*
X89249999Y-79914228D01*
X89249999Y-79914228D02*
X89345237Y-79866609D01*
X89345237Y-79866609D02*
X89392856Y-79818990D01*
X89392856Y-79818990D02*
X89440475Y-79723752D01*
X89440475Y-79723752D02*
X89440475Y-79485657D01*
X89440475Y-79485657D02*
X89392856Y-79390419D01*
X89392856Y-79390419D02*
X89345237Y-79342800D01*
X89345237Y-79342800D02*
X89249999Y-79295180D01*
X89249999Y-79295180D02*
X88964285Y-79295180D01*
X88964285Y-79295180D02*
X88869047Y-79342800D01*
X88869047Y-79342800D02*
X88821428Y-79390419D01*
X89726190Y-80295180D02*
X90059523Y-79295180D01*
X90059523Y-79295180D02*
X90392856Y-80295180D01*
X85130951Y-81573866D02*
X84369047Y-81573866D01*
X84749999Y-81954819D02*
X84749999Y-81192914D01*
X93630951Y-81573866D02*
X92869047Y-81573866D01*
X83153990Y-89579887D02*
X83106371Y-89437030D01*
X83106371Y-89437030D02*
X83058752Y-89389411D01*
X83058752Y-89389411D02*
X82963514Y-89341792D01*
X82963514Y-89341792D02*
X82820657Y-89341792D01*
X82820657Y-89341792D02*
X82725419Y-89389411D01*
X82725419Y-89389411D02*
X82677800Y-89437030D01*
X82677800Y-89437030D02*
X82630180Y-89532268D01*
X82630180Y-89532268D02*
X82630180Y-89913220D01*
X82630180Y-89913220D02*
X83630180Y-89913220D01*
X83630180Y-89913220D02*
X83630180Y-89579887D01*
X83630180Y-89579887D02*
X83582561Y-89484649D01*
X83582561Y-89484649D02*
X83534942Y-89437030D01*
X83534942Y-89437030D02*
X83439704Y-89389411D01*
X83439704Y-89389411D02*
X83344466Y-89389411D01*
X83344466Y-89389411D02*
X83249228Y-89437030D01*
X83249228Y-89437030D02*
X83201609Y-89484649D01*
X83201609Y-89484649D02*
X83153990Y-89579887D01*
X83153990Y-89579887D02*
X83153990Y-89913220D01*
X82630180Y-88484649D02*
X83153990Y-88484649D01*
X83153990Y-88484649D02*
X83249228Y-88532268D01*
X83249228Y-88532268D02*
X83296847Y-88627506D01*
X83296847Y-88627506D02*
X83296847Y-88817982D01*
X83296847Y-88817982D02*
X83249228Y-88913220D01*
X82677800Y-88484649D02*
X82630180Y-88579887D01*
X82630180Y-88579887D02*
X82630180Y-88817982D01*
X82630180Y-88817982D02*
X82677800Y-88913220D01*
X82677800Y-88913220D02*
X82773038Y-88960839D01*
X82773038Y-88960839D02*
X82868276Y-88960839D01*
X82868276Y-88960839D02*
X82963514Y-88913220D01*
X82963514Y-88913220D02*
X83011133Y-88817982D01*
X83011133Y-88817982D02*
X83011133Y-88579887D01*
X83011133Y-88579887D02*
X83058752Y-88484649D01*
X83296847Y-88151315D02*
X83296847Y-87770363D01*
X83630180Y-88008458D02*
X82773038Y-88008458D01*
X82773038Y-88008458D02*
X82677800Y-87960839D01*
X82677800Y-87960839D02*
X82630180Y-87865601D01*
X82630180Y-87865601D02*
X82630180Y-87770363D01*
X83296847Y-87579886D02*
X83296847Y-87198934D01*
X83630180Y-87437029D02*
X82773038Y-87437029D01*
X82773038Y-87437029D02*
X82677800Y-87389410D01*
X82677800Y-87389410D02*
X82630180Y-87294172D01*
X82630180Y-87294172D02*
X82630180Y-87198934D01*
X82677800Y-86484648D02*
X82630180Y-86579886D01*
X82630180Y-86579886D02*
X82630180Y-86770362D01*
X82630180Y-86770362D02*
X82677800Y-86865600D01*
X82677800Y-86865600D02*
X82773038Y-86913219D01*
X82773038Y-86913219D02*
X83153990Y-86913219D01*
X83153990Y-86913219D02*
X83249228Y-86865600D01*
X83249228Y-86865600D02*
X83296847Y-86770362D01*
X83296847Y-86770362D02*
X83296847Y-86579886D01*
X83296847Y-86579886D02*
X83249228Y-86484648D01*
X83249228Y-86484648D02*
X83153990Y-86437029D01*
X83153990Y-86437029D02*
X83058752Y-86437029D01*
X83058752Y-86437029D02*
X82963514Y-86913219D01*
X82630180Y-86008457D02*
X83296847Y-86008457D01*
X83106371Y-86008457D02*
X83201609Y-85960838D01*
X83201609Y-85960838D02*
X83249228Y-85913219D01*
X83249228Y-85913219D02*
X83296847Y-85817981D01*
X83296847Y-85817981D02*
X83296847Y-85722743D01*
X83296847Y-85484647D02*
X82630180Y-85246552D01*
X83296847Y-85008457D02*
X82630180Y-85246552D01*
X82630180Y-85246552D02*
X82392085Y-85341790D01*
X82392085Y-85341790D02*
X82344466Y-85389409D01*
X82344466Y-85389409D02*
X82296847Y-85484647D01*
D11*
X93401000Y-67595000D02*
X94036000Y-67595000D01*
X94036000Y-67595000D02*
X94036000Y-68230000D01*
M02*
