%TF.GenerationSoftware,KiCad,Pcbnew,8.0.9-8.0.9-0~ubuntu20.04.1*%
%TF.CreationDate,2025-06-13T22:30:39+01:00*%
%TF.ProjectId,ch32-breakout,63683332-2d62-4726-9561-6b6f75742e6b,rev?*%
%TF.SameCoordinates,Original*%
%TF.FileFunction,Drillmap*%
%TF.FilePolarity,Positive*%
%FSLAX45Y45*%
G04 Gerber Fmt 4.5, Leading zero omitted, Abs format (unit mm)*
G04 Created by KiCad (PCBNEW 8.0.9-8.0.9-0~ubuntu20.04.1) date 2025-06-13 22:30:39*
%MOMM*%
%LPD*%
G01*
G04 APERTURE LIST*
%ADD10C,0.050000*%
%ADD11C,0.200000*%
%ADD12C,0.100000*%
G04 APERTURE END LIST*
D10*
X9775000Y-6625000D02*
X9775000Y-7275000D01*
X9313388Y-6111612D02*
X9738389Y-6536611D01*
X9800000Y-9075000D02*
X9800000Y-8450000D01*
X9775000Y-7275000D02*
G75*
G02*
X9738389Y-7363388I-125000J0D01*
G01*
X9763389Y-8361611D02*
G75*
G02*
X9800000Y-8450000I-88389J-88389D01*
G01*
X9763389Y-9163388D02*
X9338389Y-9588389D01*
X8825000Y-7850000D02*
G75*
G02*
X8775000Y-7850000I-25000J0D01*
G01*
X8775000Y-7850000D02*
G75*
G02*
X8825000Y-7850000I25000J0D01*
G01*
X8461612Y-9588388D02*
X8036611Y-9163389D01*
X8486612Y-6111611D02*
G75*
G02*
X8575000Y-6075000I88389J-88389D01*
G01*
X8025000Y-6625000D02*
G75*
G02*
X8061612Y-6536612I125000J0D01*
G01*
X8061612Y-6536612D02*
X8486612Y-6111611D01*
X8525000Y-7825000D02*
G75*
G02*
X8525000Y-7875000I0J-25000D01*
G01*
X9275000Y-7875000D02*
G75*
G02*
X9275000Y-7825000I0J25000D01*
G01*
X8025000Y-7275000D02*
X8025000Y-6625000D01*
X8036611Y-9163389D02*
G75*
G02*
X8000000Y-9075000I88389J88389D01*
G01*
X9738389Y-6536611D02*
G75*
G02*
X9775000Y-6625000I-88389J-88389D01*
G01*
X8061611Y-7363388D02*
G75*
G02*
X8025000Y-7275000I88389J88389D01*
G01*
X9205000Y-7850000D02*
G75*
G02*
X9155000Y-7850000I-25000J0D01*
G01*
X9155000Y-7850000D02*
G75*
G02*
X9205000Y-7850000I25000J0D01*
G01*
X8036611Y-8361611D02*
X8525000Y-7875000D01*
X8735000Y-7850000D02*
G75*
G02*
X8685000Y-7850000I-25000J0D01*
G01*
X8685000Y-7850000D02*
G75*
G02*
X8735000Y-7850000I25000J0D01*
G01*
X8550000Y-9625000D02*
X9250000Y-9625000D01*
X9115000Y-7850000D02*
G75*
G02*
X9065000Y-7850000I-25000J0D01*
G01*
X9065000Y-7850000D02*
G75*
G02*
X9115000Y-7850000I25000J0D01*
G01*
X8000000Y-8450000D02*
X8000000Y-9075000D01*
X8000000Y-8450000D02*
G75*
G02*
X8036611Y-8361611I125000J0D01*
G01*
X8575000Y-6075000D02*
X9225000Y-6075000D01*
X9738389Y-7363388D02*
X9275000Y-7825000D01*
X9225000Y-6075000D02*
G75*
G02*
X9313388Y-6111612I0J-125000D01*
G01*
X8525000Y-7825000D02*
X8061611Y-7363388D01*
X9025000Y-7850000D02*
G75*
G02*
X8975000Y-7850000I-25000J0D01*
G01*
X8975000Y-7850000D02*
G75*
G02*
X9025000Y-7850000I25000J0D01*
G01*
X9338389Y-9588389D02*
G75*
G02*
X9250000Y-9625000I-88389J88389D01*
G01*
X9800000Y-9075000D02*
G75*
G02*
X9763389Y-9163388I-125000J0D01*
G01*
X9763389Y-8361611D02*
X9275000Y-7875000D01*
X8925000Y-7850000D02*
G75*
G02*
X8875000Y-7850000I-25000J0D01*
G01*
X8875000Y-7850000D02*
G75*
G02*
X8925000Y-7850000I25000J0D01*
G01*
X8645000Y-7850000D02*
G75*
G02*
X8595000Y-7850000I-25000J0D01*
G01*
X8595000Y-7850000D02*
G75*
G02*
X8645000Y-7850000I25000J0D01*
G01*
X8550000Y-9625000D02*
G75*
G02*
X8461612Y-9588388I0J125000D01*
G01*
D11*
D12*
X8578500Y-9107000D02*
X8643500Y-9172000D01*
X8643500Y-9107000D02*
X8578500Y-9172000D01*
X9156500Y-9107000D02*
X9221500Y-9172000D01*
X9221500Y-9107000D02*
X9156500Y-9172000D01*
X9720000Y-8600000D02*
G75*
G02*
X9630000Y-8600000I-45000J0D01*
G01*
X9630000Y-8600000D02*
G75*
G02*
X9720000Y-8600000I45000J0D01*
G01*
X9720000Y-8900000D02*
G75*
G02*
X9630000Y-8900000I-45000J0D01*
G01*
X9630000Y-8900000D02*
G75*
G02*
X9720000Y-8900000I45000J0D01*
G01*
X9175000Y-7154470D02*
X9175000Y-7253530D01*
X9125470Y-7204000D02*
X9224530Y-7204000D01*
X9276600Y-6646470D02*
X9276600Y-6745530D01*
X9227070Y-6696000D02*
X9326130Y-6696000D01*
X9378200Y-7154470D02*
X9378200Y-7253530D01*
X9328670Y-7204000D02*
X9427730Y-7204000D01*
D11*
X8258277Y-9938984D02*
X8258277Y-9738984D01*
X8258277Y-9738984D02*
X8305896Y-9738984D01*
X8305896Y-9738984D02*
X8334467Y-9748508D01*
X8334467Y-9748508D02*
X8353515Y-9767555D01*
X8353515Y-9767555D02*
X8363038Y-9786603D01*
X8363038Y-9786603D02*
X8372562Y-9824698D01*
X8372562Y-9824698D02*
X8372562Y-9853270D01*
X8372562Y-9853270D02*
X8363038Y-9891365D01*
X8363038Y-9891365D02*
X8353515Y-9910413D01*
X8353515Y-9910413D02*
X8334467Y-9929460D01*
X8334467Y-9929460D02*
X8305896Y-9938984D01*
X8305896Y-9938984D02*
X8258277Y-9938984D01*
X8458277Y-9938984D02*
X8458277Y-9805651D01*
X8458277Y-9843746D02*
X8467800Y-9824698D01*
X8467800Y-9824698D02*
X8477324Y-9815174D01*
X8477324Y-9815174D02*
X8496372Y-9805651D01*
X8496372Y-9805651D02*
X8515420Y-9805651D01*
X8582086Y-9938984D02*
X8582086Y-9805651D01*
X8582086Y-9738984D02*
X8572562Y-9748508D01*
X8572562Y-9748508D02*
X8582086Y-9758032D01*
X8582086Y-9758032D02*
X8591610Y-9748508D01*
X8591610Y-9748508D02*
X8582086Y-9738984D01*
X8582086Y-9738984D02*
X8582086Y-9758032D01*
X8705896Y-9938984D02*
X8686848Y-9929460D01*
X8686848Y-9929460D02*
X8677324Y-9910413D01*
X8677324Y-9910413D02*
X8677324Y-9738984D01*
X8810658Y-9938984D02*
X8791610Y-9929460D01*
X8791610Y-9929460D02*
X8782086Y-9910413D01*
X8782086Y-9910413D02*
X8782086Y-9738984D01*
X9039229Y-9938984D02*
X9039229Y-9738984D01*
X9039229Y-9738984D02*
X9105896Y-9881841D01*
X9105896Y-9881841D02*
X9172562Y-9738984D01*
X9172562Y-9738984D02*
X9172562Y-9938984D01*
X9353515Y-9938984D02*
X9353515Y-9834222D01*
X9353515Y-9834222D02*
X9343991Y-9815174D01*
X9343991Y-9815174D02*
X9324943Y-9805651D01*
X9324943Y-9805651D02*
X9286848Y-9805651D01*
X9286848Y-9805651D02*
X9267800Y-9815174D01*
X9353515Y-9929460D02*
X9334467Y-9938984D01*
X9334467Y-9938984D02*
X9286848Y-9938984D01*
X9286848Y-9938984D02*
X9267800Y-9929460D01*
X9267800Y-9929460D02*
X9258277Y-9910413D01*
X9258277Y-9910413D02*
X9258277Y-9891365D01*
X9258277Y-9891365D02*
X9267800Y-9872317D01*
X9267800Y-9872317D02*
X9286848Y-9862794D01*
X9286848Y-9862794D02*
X9334467Y-9862794D01*
X9334467Y-9862794D02*
X9353515Y-9853270D01*
X9448753Y-9805651D02*
X9448753Y-10005651D01*
X9448753Y-9815174D02*
X9467800Y-9805651D01*
X9467800Y-9805651D02*
X9505896Y-9805651D01*
X9505896Y-9805651D02*
X9524943Y-9815174D01*
X9524943Y-9815174D02*
X9534467Y-9824698D01*
X9534467Y-9824698D02*
X9543991Y-9843746D01*
X9543991Y-9843746D02*
X9543991Y-9900889D01*
X9543991Y-9900889D02*
X9534467Y-9919936D01*
X9534467Y-9919936D02*
X9524943Y-9929460D01*
X9524943Y-9929460D02*
X9505896Y-9938984D01*
X9505896Y-9938984D02*
X9467800Y-9938984D01*
X9467800Y-9938984D02*
X9448753Y-9929460D01*
X9629705Y-9919936D02*
X9639229Y-9929460D01*
X9639229Y-9929460D02*
X9629705Y-9938984D01*
X9629705Y-9938984D02*
X9620181Y-9929460D01*
X9620181Y-9929460D02*
X9629705Y-9919936D01*
X9629705Y-9919936D02*
X9629705Y-9938984D01*
X9629705Y-9815174D02*
X9639229Y-9824698D01*
X9639229Y-9824698D02*
X9629705Y-9834222D01*
X9629705Y-9834222D02*
X9620181Y-9824698D01*
X9620181Y-9824698D02*
X9629705Y-9815174D01*
X9629705Y-9815174D02*
X9629705Y-9834222D01*
D12*
X7932500Y-10235000D02*
X7997500Y-10300000D01*
X7997500Y-10235000D02*
X7932500Y-10300000D01*
D11*
X8296372Y-10158984D02*
X8315419Y-10158984D01*
X8315419Y-10158984D02*
X8334467Y-10168508D01*
X8334467Y-10168508D02*
X8343991Y-10178032D01*
X8343991Y-10178032D02*
X8353515Y-10197079D01*
X8353515Y-10197079D02*
X8363038Y-10235174D01*
X8363038Y-10235174D02*
X8363038Y-10282794D01*
X8363038Y-10282794D02*
X8353515Y-10320889D01*
X8353515Y-10320889D02*
X8343991Y-10339936D01*
X8343991Y-10339936D02*
X8334467Y-10349460D01*
X8334467Y-10349460D02*
X8315419Y-10358984D01*
X8315419Y-10358984D02*
X8296372Y-10358984D01*
X8296372Y-10358984D02*
X8277324Y-10349460D01*
X8277324Y-10349460D02*
X8267800Y-10339936D01*
X8267800Y-10339936D02*
X8258277Y-10320889D01*
X8258277Y-10320889D02*
X8248753Y-10282794D01*
X8248753Y-10282794D02*
X8248753Y-10235174D01*
X8248753Y-10235174D02*
X8258277Y-10197079D01*
X8258277Y-10197079D02*
X8267800Y-10178032D01*
X8267800Y-10178032D02*
X8277324Y-10168508D01*
X8277324Y-10168508D02*
X8296372Y-10158984D01*
X8448753Y-10339936D02*
X8458277Y-10349460D01*
X8458277Y-10349460D02*
X8448753Y-10358984D01*
X8448753Y-10358984D02*
X8439229Y-10349460D01*
X8439229Y-10349460D02*
X8448753Y-10339936D01*
X8448753Y-10339936D02*
X8448753Y-10358984D01*
X8629705Y-10158984D02*
X8591610Y-10158984D01*
X8591610Y-10158984D02*
X8572562Y-10168508D01*
X8572562Y-10168508D02*
X8563039Y-10178032D01*
X8563039Y-10178032D02*
X8543991Y-10206603D01*
X8543991Y-10206603D02*
X8534467Y-10244698D01*
X8534467Y-10244698D02*
X8534467Y-10320889D01*
X8534467Y-10320889D02*
X8543991Y-10339936D01*
X8543991Y-10339936D02*
X8553515Y-10349460D01*
X8553515Y-10349460D02*
X8572562Y-10358984D01*
X8572562Y-10358984D02*
X8610658Y-10358984D01*
X8610658Y-10358984D02*
X8629705Y-10349460D01*
X8629705Y-10349460D02*
X8639229Y-10339936D01*
X8639229Y-10339936D02*
X8648753Y-10320889D01*
X8648753Y-10320889D02*
X8648753Y-10273270D01*
X8648753Y-10273270D02*
X8639229Y-10254222D01*
X8639229Y-10254222D02*
X8629705Y-10244698D01*
X8629705Y-10244698D02*
X8610658Y-10235174D01*
X8610658Y-10235174D02*
X8572562Y-10235174D01*
X8572562Y-10235174D02*
X8553515Y-10244698D01*
X8553515Y-10244698D02*
X8543991Y-10254222D01*
X8543991Y-10254222D02*
X8534467Y-10273270D01*
X8829705Y-10158984D02*
X8734467Y-10158984D01*
X8734467Y-10158984D02*
X8724943Y-10254222D01*
X8724943Y-10254222D02*
X8734467Y-10244698D01*
X8734467Y-10244698D02*
X8753515Y-10235174D01*
X8753515Y-10235174D02*
X8801134Y-10235174D01*
X8801134Y-10235174D02*
X8820181Y-10244698D01*
X8820181Y-10244698D02*
X8829705Y-10254222D01*
X8829705Y-10254222D02*
X8839229Y-10273270D01*
X8839229Y-10273270D02*
X8839229Y-10320889D01*
X8839229Y-10320889D02*
X8829705Y-10339936D01*
X8829705Y-10339936D02*
X8820181Y-10349460D01*
X8820181Y-10349460D02*
X8801134Y-10358984D01*
X8801134Y-10358984D02*
X8753515Y-10358984D01*
X8753515Y-10358984D02*
X8734467Y-10349460D01*
X8734467Y-10349460D02*
X8724943Y-10339936D01*
X8963039Y-10158984D02*
X8982086Y-10158984D01*
X8982086Y-10158984D02*
X9001134Y-10168508D01*
X9001134Y-10168508D02*
X9010658Y-10178032D01*
X9010658Y-10178032D02*
X9020181Y-10197079D01*
X9020181Y-10197079D02*
X9029705Y-10235174D01*
X9029705Y-10235174D02*
X9029705Y-10282794D01*
X9029705Y-10282794D02*
X9020181Y-10320889D01*
X9020181Y-10320889D02*
X9010658Y-10339936D01*
X9010658Y-10339936D02*
X9001134Y-10349460D01*
X9001134Y-10349460D02*
X8982086Y-10358984D01*
X8982086Y-10358984D02*
X8963039Y-10358984D01*
X8963039Y-10358984D02*
X8943991Y-10349460D01*
X8943991Y-10349460D02*
X8934467Y-10339936D01*
X8934467Y-10339936D02*
X8924943Y-10320889D01*
X8924943Y-10320889D02*
X8915420Y-10282794D01*
X8915420Y-10282794D02*
X8915420Y-10235174D01*
X8915420Y-10235174D02*
X8924943Y-10197079D01*
X8924943Y-10197079D02*
X8934467Y-10178032D01*
X8934467Y-10178032D02*
X8943991Y-10168508D01*
X8943991Y-10168508D02*
X8963039Y-10158984D01*
X9115420Y-10358984D02*
X9115420Y-10225651D01*
X9115420Y-10244698D02*
X9124943Y-10235174D01*
X9124943Y-10235174D02*
X9143991Y-10225651D01*
X9143991Y-10225651D02*
X9172562Y-10225651D01*
X9172562Y-10225651D02*
X9191610Y-10235174D01*
X9191610Y-10235174D02*
X9201134Y-10254222D01*
X9201134Y-10254222D02*
X9201134Y-10358984D01*
X9201134Y-10254222D02*
X9210658Y-10235174D01*
X9210658Y-10235174D02*
X9229705Y-10225651D01*
X9229705Y-10225651D02*
X9258277Y-10225651D01*
X9258277Y-10225651D02*
X9277324Y-10235174D01*
X9277324Y-10235174D02*
X9286848Y-10254222D01*
X9286848Y-10254222D02*
X9286848Y-10358984D01*
X9382086Y-10358984D02*
X9382086Y-10225651D01*
X9382086Y-10244698D02*
X9391610Y-10235174D01*
X9391610Y-10235174D02*
X9410658Y-10225651D01*
X9410658Y-10225651D02*
X9439229Y-10225651D01*
X9439229Y-10225651D02*
X9458277Y-10235174D01*
X9458277Y-10235174D02*
X9467801Y-10254222D01*
X9467801Y-10254222D02*
X9467801Y-10358984D01*
X9467801Y-10254222D02*
X9477324Y-10235174D01*
X9477324Y-10235174D02*
X9496372Y-10225651D01*
X9496372Y-10225651D02*
X9524943Y-10225651D01*
X9524943Y-10225651D02*
X9543991Y-10235174D01*
X9543991Y-10235174D02*
X9553515Y-10254222D01*
X9553515Y-10254222D02*
X9553515Y-10358984D01*
X9943991Y-10149460D02*
X9772563Y-10406603D01*
X10201134Y-10158984D02*
X10220182Y-10158984D01*
X10220182Y-10158984D02*
X10239229Y-10168508D01*
X10239229Y-10168508D02*
X10248753Y-10178032D01*
X10248753Y-10178032D02*
X10258277Y-10197079D01*
X10258277Y-10197079D02*
X10267801Y-10235174D01*
X10267801Y-10235174D02*
X10267801Y-10282794D01*
X10267801Y-10282794D02*
X10258277Y-10320889D01*
X10258277Y-10320889D02*
X10248753Y-10339936D01*
X10248753Y-10339936D02*
X10239229Y-10349460D01*
X10239229Y-10349460D02*
X10220182Y-10358984D01*
X10220182Y-10358984D02*
X10201134Y-10358984D01*
X10201134Y-10358984D02*
X10182086Y-10349460D01*
X10182086Y-10349460D02*
X10172563Y-10339936D01*
X10172563Y-10339936D02*
X10163039Y-10320889D01*
X10163039Y-10320889D02*
X10153515Y-10282794D01*
X10153515Y-10282794D02*
X10153515Y-10235174D01*
X10153515Y-10235174D02*
X10163039Y-10197079D01*
X10163039Y-10197079D02*
X10172563Y-10178032D01*
X10172563Y-10178032D02*
X10182086Y-10168508D01*
X10182086Y-10168508D02*
X10201134Y-10158984D01*
X10353515Y-10339936D02*
X10363039Y-10349460D01*
X10363039Y-10349460D02*
X10353515Y-10358984D01*
X10353515Y-10358984D02*
X10343991Y-10349460D01*
X10343991Y-10349460D02*
X10353515Y-10339936D01*
X10353515Y-10339936D02*
X10353515Y-10358984D01*
X10486848Y-10158984D02*
X10505896Y-10158984D01*
X10505896Y-10158984D02*
X10524944Y-10168508D01*
X10524944Y-10168508D02*
X10534467Y-10178032D01*
X10534467Y-10178032D02*
X10543991Y-10197079D01*
X10543991Y-10197079D02*
X10553515Y-10235174D01*
X10553515Y-10235174D02*
X10553515Y-10282794D01*
X10553515Y-10282794D02*
X10543991Y-10320889D01*
X10543991Y-10320889D02*
X10534467Y-10339936D01*
X10534467Y-10339936D02*
X10524944Y-10349460D01*
X10524944Y-10349460D02*
X10505896Y-10358984D01*
X10505896Y-10358984D02*
X10486848Y-10358984D01*
X10486848Y-10358984D02*
X10467801Y-10349460D01*
X10467801Y-10349460D02*
X10458277Y-10339936D01*
X10458277Y-10339936D02*
X10448753Y-10320889D01*
X10448753Y-10320889D02*
X10439229Y-10282794D01*
X10439229Y-10282794D02*
X10439229Y-10235174D01*
X10439229Y-10235174D02*
X10448753Y-10197079D01*
X10448753Y-10197079D02*
X10458277Y-10178032D01*
X10458277Y-10178032D02*
X10467801Y-10168508D01*
X10467801Y-10168508D02*
X10486848Y-10158984D01*
X10629705Y-10178032D02*
X10639229Y-10168508D01*
X10639229Y-10168508D02*
X10658277Y-10158984D01*
X10658277Y-10158984D02*
X10705896Y-10158984D01*
X10705896Y-10158984D02*
X10724944Y-10168508D01*
X10724944Y-10168508D02*
X10734467Y-10178032D01*
X10734467Y-10178032D02*
X10743991Y-10197079D01*
X10743991Y-10197079D02*
X10743991Y-10216127D01*
X10743991Y-10216127D02*
X10734467Y-10244698D01*
X10734467Y-10244698D02*
X10620182Y-10358984D01*
X10620182Y-10358984D02*
X10743991Y-10358984D01*
X10924944Y-10158984D02*
X10829705Y-10158984D01*
X10829705Y-10158984D02*
X10820182Y-10254222D01*
X10820182Y-10254222D02*
X10829705Y-10244698D01*
X10829705Y-10244698D02*
X10848753Y-10235174D01*
X10848753Y-10235174D02*
X10896372Y-10235174D01*
X10896372Y-10235174D02*
X10915420Y-10244698D01*
X10915420Y-10244698D02*
X10924944Y-10254222D01*
X10924944Y-10254222D02*
X10934467Y-10273270D01*
X10934467Y-10273270D02*
X10934467Y-10320889D01*
X10934467Y-10320889D02*
X10924944Y-10339936D01*
X10924944Y-10339936D02*
X10915420Y-10349460D01*
X10915420Y-10349460D02*
X10896372Y-10358984D01*
X10896372Y-10358984D02*
X10848753Y-10358984D01*
X10848753Y-10358984D02*
X10829705Y-10349460D01*
X10829705Y-10349460D02*
X10820182Y-10339936D01*
X11105896Y-10158984D02*
X11067801Y-10158984D01*
X11067801Y-10158984D02*
X11048753Y-10168508D01*
X11048753Y-10168508D02*
X11039229Y-10178032D01*
X11039229Y-10178032D02*
X11020182Y-10206603D01*
X11020182Y-10206603D02*
X11010658Y-10244698D01*
X11010658Y-10244698D02*
X11010658Y-10320889D01*
X11010658Y-10320889D02*
X11020182Y-10339936D01*
X11020182Y-10339936D02*
X11029705Y-10349460D01*
X11029705Y-10349460D02*
X11048753Y-10358984D01*
X11048753Y-10358984D02*
X11086848Y-10358984D01*
X11086848Y-10358984D02*
X11105896Y-10349460D01*
X11105896Y-10349460D02*
X11115420Y-10339936D01*
X11115420Y-10339936D02*
X11124944Y-10320889D01*
X11124944Y-10320889D02*
X11124944Y-10273270D01*
X11124944Y-10273270D02*
X11115420Y-10254222D01*
X11115420Y-10254222D02*
X11105896Y-10244698D01*
X11105896Y-10244698D02*
X11086848Y-10235174D01*
X11086848Y-10235174D02*
X11048753Y-10235174D01*
X11048753Y-10235174D02*
X11029705Y-10244698D01*
X11029705Y-10244698D02*
X11020182Y-10254222D01*
X11020182Y-10254222D02*
X11010658Y-10273270D01*
X11201134Y-10158984D02*
X11201134Y-10197079D01*
X11277324Y-10158984D02*
X11277324Y-10197079D01*
X11572563Y-10435174D02*
X11563039Y-10425651D01*
X11563039Y-10425651D02*
X11543991Y-10397079D01*
X11543991Y-10397079D02*
X11534467Y-10378032D01*
X11534467Y-10378032D02*
X11524944Y-10349460D01*
X11524944Y-10349460D02*
X11515420Y-10301841D01*
X11515420Y-10301841D02*
X11515420Y-10263746D01*
X11515420Y-10263746D02*
X11524944Y-10216127D01*
X11524944Y-10216127D02*
X11534467Y-10187555D01*
X11534467Y-10187555D02*
X11543991Y-10168508D01*
X11543991Y-10168508D02*
X11563039Y-10139936D01*
X11563039Y-10139936D02*
X11572563Y-10130413D01*
X11639229Y-10178032D02*
X11648753Y-10168508D01*
X11648753Y-10168508D02*
X11667801Y-10158984D01*
X11667801Y-10158984D02*
X11715420Y-10158984D01*
X11715420Y-10158984D02*
X11734467Y-10168508D01*
X11734467Y-10168508D02*
X11743991Y-10178032D01*
X11743991Y-10178032D02*
X11753515Y-10197079D01*
X11753515Y-10197079D02*
X11753515Y-10216127D01*
X11753515Y-10216127D02*
X11743991Y-10244698D01*
X11743991Y-10244698D02*
X11629705Y-10358984D01*
X11629705Y-10358984D02*
X11753515Y-10358984D01*
X11991610Y-10358984D02*
X11991610Y-10158984D01*
X12077325Y-10358984D02*
X12077325Y-10254222D01*
X12077325Y-10254222D02*
X12067801Y-10235174D01*
X12067801Y-10235174D02*
X12048753Y-10225651D01*
X12048753Y-10225651D02*
X12020182Y-10225651D01*
X12020182Y-10225651D02*
X12001134Y-10235174D01*
X12001134Y-10235174D02*
X11991610Y-10244698D01*
X12201134Y-10358984D02*
X12182086Y-10349460D01*
X12182086Y-10349460D02*
X12172563Y-10339936D01*
X12172563Y-10339936D02*
X12163039Y-10320889D01*
X12163039Y-10320889D02*
X12163039Y-10263746D01*
X12163039Y-10263746D02*
X12172563Y-10244698D01*
X12172563Y-10244698D02*
X12182086Y-10235174D01*
X12182086Y-10235174D02*
X12201134Y-10225651D01*
X12201134Y-10225651D02*
X12229706Y-10225651D01*
X12229706Y-10225651D02*
X12248753Y-10235174D01*
X12248753Y-10235174D02*
X12258277Y-10244698D01*
X12258277Y-10244698D02*
X12267801Y-10263746D01*
X12267801Y-10263746D02*
X12267801Y-10320889D01*
X12267801Y-10320889D02*
X12258277Y-10339936D01*
X12258277Y-10339936D02*
X12248753Y-10349460D01*
X12248753Y-10349460D02*
X12229706Y-10358984D01*
X12229706Y-10358984D02*
X12201134Y-10358984D01*
X12382086Y-10358984D02*
X12363039Y-10349460D01*
X12363039Y-10349460D02*
X12353515Y-10330413D01*
X12353515Y-10330413D02*
X12353515Y-10158984D01*
X12534467Y-10349460D02*
X12515420Y-10358984D01*
X12515420Y-10358984D02*
X12477325Y-10358984D01*
X12477325Y-10358984D02*
X12458277Y-10349460D01*
X12458277Y-10349460D02*
X12448753Y-10330413D01*
X12448753Y-10330413D02*
X12448753Y-10254222D01*
X12448753Y-10254222D02*
X12458277Y-10235174D01*
X12458277Y-10235174D02*
X12477325Y-10225651D01*
X12477325Y-10225651D02*
X12515420Y-10225651D01*
X12515420Y-10225651D02*
X12534467Y-10235174D01*
X12534467Y-10235174D02*
X12543991Y-10254222D01*
X12543991Y-10254222D02*
X12543991Y-10273270D01*
X12543991Y-10273270D02*
X12448753Y-10292317D01*
X12620182Y-10349460D02*
X12639229Y-10358984D01*
X12639229Y-10358984D02*
X12677325Y-10358984D01*
X12677325Y-10358984D02*
X12696372Y-10349460D01*
X12696372Y-10349460D02*
X12705896Y-10330413D01*
X12705896Y-10330413D02*
X12705896Y-10320889D01*
X12705896Y-10320889D02*
X12696372Y-10301841D01*
X12696372Y-10301841D02*
X12677325Y-10292317D01*
X12677325Y-10292317D02*
X12648753Y-10292317D01*
X12648753Y-10292317D02*
X12629706Y-10282794D01*
X12629706Y-10282794D02*
X12620182Y-10263746D01*
X12620182Y-10263746D02*
X12620182Y-10254222D01*
X12620182Y-10254222D02*
X12629706Y-10235174D01*
X12629706Y-10235174D02*
X12648753Y-10225651D01*
X12648753Y-10225651D02*
X12677325Y-10225651D01*
X12677325Y-10225651D02*
X12696372Y-10235174D01*
X12772563Y-10435174D02*
X12782087Y-10425651D01*
X12782087Y-10425651D02*
X12801134Y-10397079D01*
X12801134Y-10397079D02*
X12810658Y-10378032D01*
X12810658Y-10378032D02*
X12820182Y-10349460D01*
X12820182Y-10349460D02*
X12829706Y-10301841D01*
X12829706Y-10301841D02*
X12829706Y-10263746D01*
X12829706Y-10263746D02*
X12820182Y-10216127D01*
X12820182Y-10216127D02*
X12810658Y-10187555D01*
X12810658Y-10187555D02*
X12801134Y-10168508D01*
X12801134Y-10168508D02*
X12782087Y-10139936D01*
X12782087Y-10139936D02*
X12772563Y-10130413D01*
X13134468Y-10435174D02*
X13124944Y-10425651D01*
X13124944Y-10425651D02*
X13105896Y-10397079D01*
X13105896Y-10397079D02*
X13096372Y-10378032D01*
X13096372Y-10378032D02*
X13086848Y-10349460D01*
X13086848Y-10349460D02*
X13077325Y-10301841D01*
X13077325Y-10301841D02*
X13077325Y-10263746D01*
X13077325Y-10263746D02*
X13086848Y-10216127D01*
X13086848Y-10216127D02*
X13096372Y-10187555D01*
X13096372Y-10187555D02*
X13105896Y-10168508D01*
X13105896Y-10168508D02*
X13124944Y-10139936D01*
X13124944Y-10139936D02*
X13134468Y-10130413D01*
X13210658Y-10225651D02*
X13210658Y-10358984D01*
X13210658Y-10244698D02*
X13220182Y-10235174D01*
X13220182Y-10235174D02*
X13239229Y-10225651D01*
X13239229Y-10225651D02*
X13267801Y-10225651D01*
X13267801Y-10225651D02*
X13286848Y-10235174D01*
X13286848Y-10235174D02*
X13296372Y-10254222D01*
X13296372Y-10254222D02*
X13296372Y-10358984D01*
X13420182Y-10358984D02*
X13401134Y-10349460D01*
X13401134Y-10349460D02*
X13391610Y-10339936D01*
X13391610Y-10339936D02*
X13382087Y-10320889D01*
X13382087Y-10320889D02*
X13382087Y-10263746D01*
X13382087Y-10263746D02*
X13391610Y-10244698D01*
X13391610Y-10244698D02*
X13401134Y-10235174D01*
X13401134Y-10235174D02*
X13420182Y-10225651D01*
X13420182Y-10225651D02*
X13448753Y-10225651D01*
X13448753Y-10225651D02*
X13467801Y-10235174D01*
X13467801Y-10235174D02*
X13477325Y-10244698D01*
X13477325Y-10244698D02*
X13486848Y-10263746D01*
X13486848Y-10263746D02*
X13486848Y-10320889D01*
X13486848Y-10320889D02*
X13477325Y-10339936D01*
X13477325Y-10339936D02*
X13467801Y-10349460D01*
X13467801Y-10349460D02*
X13448753Y-10358984D01*
X13448753Y-10358984D02*
X13420182Y-10358984D01*
X13543991Y-10225651D02*
X13620182Y-10225651D01*
X13572563Y-10158984D02*
X13572563Y-10330413D01*
X13572563Y-10330413D02*
X13582087Y-10349460D01*
X13582087Y-10349460D02*
X13601134Y-10358984D01*
X13601134Y-10358984D02*
X13620182Y-10358984D01*
X13839229Y-10225651D02*
X13839229Y-10425651D01*
X13839229Y-10235174D02*
X13858277Y-10225651D01*
X13858277Y-10225651D02*
X13896372Y-10225651D01*
X13896372Y-10225651D02*
X13915420Y-10235174D01*
X13915420Y-10235174D02*
X13924944Y-10244698D01*
X13924944Y-10244698D02*
X13934468Y-10263746D01*
X13934468Y-10263746D02*
X13934468Y-10320889D01*
X13934468Y-10320889D02*
X13924944Y-10339936D01*
X13924944Y-10339936D02*
X13915420Y-10349460D01*
X13915420Y-10349460D02*
X13896372Y-10358984D01*
X13896372Y-10358984D02*
X13858277Y-10358984D01*
X13858277Y-10358984D02*
X13839229Y-10349460D01*
X14048753Y-10358984D02*
X14029706Y-10349460D01*
X14029706Y-10349460D02*
X14020182Y-10330413D01*
X14020182Y-10330413D02*
X14020182Y-10158984D01*
X14210658Y-10358984D02*
X14210658Y-10254222D01*
X14210658Y-10254222D02*
X14201134Y-10235174D01*
X14201134Y-10235174D02*
X14182087Y-10225651D01*
X14182087Y-10225651D02*
X14143991Y-10225651D01*
X14143991Y-10225651D02*
X14124944Y-10235174D01*
X14210658Y-10349460D02*
X14191610Y-10358984D01*
X14191610Y-10358984D02*
X14143991Y-10358984D01*
X14143991Y-10358984D02*
X14124944Y-10349460D01*
X14124944Y-10349460D02*
X14115420Y-10330413D01*
X14115420Y-10330413D02*
X14115420Y-10311365D01*
X14115420Y-10311365D02*
X14124944Y-10292317D01*
X14124944Y-10292317D02*
X14143991Y-10282794D01*
X14143991Y-10282794D02*
X14191610Y-10282794D01*
X14191610Y-10282794D02*
X14210658Y-10273270D01*
X14277325Y-10225651D02*
X14353515Y-10225651D01*
X14305896Y-10158984D02*
X14305896Y-10330413D01*
X14305896Y-10330413D02*
X14315420Y-10349460D01*
X14315420Y-10349460D02*
X14334468Y-10358984D01*
X14334468Y-10358984D02*
X14353515Y-10358984D01*
X14496372Y-10349460D02*
X14477325Y-10358984D01*
X14477325Y-10358984D02*
X14439229Y-10358984D01*
X14439229Y-10358984D02*
X14420182Y-10349460D01*
X14420182Y-10349460D02*
X14410658Y-10330413D01*
X14410658Y-10330413D02*
X14410658Y-10254222D01*
X14410658Y-10254222D02*
X14420182Y-10235174D01*
X14420182Y-10235174D02*
X14439229Y-10225651D01*
X14439229Y-10225651D02*
X14477325Y-10225651D01*
X14477325Y-10225651D02*
X14496372Y-10235174D01*
X14496372Y-10235174D02*
X14505896Y-10254222D01*
X14505896Y-10254222D02*
X14505896Y-10273270D01*
X14505896Y-10273270D02*
X14410658Y-10292317D01*
X14677325Y-10358984D02*
X14677325Y-10158984D01*
X14677325Y-10349460D02*
X14658277Y-10358984D01*
X14658277Y-10358984D02*
X14620182Y-10358984D01*
X14620182Y-10358984D02*
X14601134Y-10349460D01*
X14601134Y-10349460D02*
X14591610Y-10339936D01*
X14591610Y-10339936D02*
X14582087Y-10320889D01*
X14582087Y-10320889D02*
X14582087Y-10263746D01*
X14582087Y-10263746D02*
X14591610Y-10244698D01*
X14591610Y-10244698D02*
X14601134Y-10235174D01*
X14601134Y-10235174D02*
X14620182Y-10225651D01*
X14620182Y-10225651D02*
X14658277Y-10225651D01*
X14658277Y-10225651D02*
X14677325Y-10235174D01*
X14753515Y-10435174D02*
X14763039Y-10425651D01*
X14763039Y-10425651D02*
X14782087Y-10397079D01*
X14782087Y-10397079D02*
X14791610Y-10378032D01*
X14791610Y-10378032D02*
X14801134Y-10349460D01*
X14801134Y-10349460D02*
X14810658Y-10301841D01*
X14810658Y-10301841D02*
X14810658Y-10263746D01*
X14810658Y-10263746D02*
X14801134Y-10216127D01*
X14801134Y-10216127D02*
X14791610Y-10187555D01*
X14791610Y-10187555D02*
X14782087Y-10168508D01*
X14782087Y-10168508D02*
X14763039Y-10139936D01*
X14763039Y-10139936D02*
X14753515Y-10130413D01*
D12*
X7997500Y-10531500D02*
G75*
G02*
X7907500Y-10531500I-45000J0D01*
G01*
X7907500Y-10531500D02*
G75*
G02*
X7997500Y-10531500I45000J0D01*
G01*
D11*
X8296372Y-10422984D02*
X8315419Y-10422984D01*
X8315419Y-10422984D02*
X8334467Y-10432508D01*
X8334467Y-10432508D02*
X8343991Y-10442032D01*
X8343991Y-10442032D02*
X8353515Y-10461079D01*
X8353515Y-10461079D02*
X8363038Y-10499174D01*
X8363038Y-10499174D02*
X8363038Y-10546794D01*
X8363038Y-10546794D02*
X8353515Y-10584889D01*
X8353515Y-10584889D02*
X8343991Y-10603936D01*
X8343991Y-10603936D02*
X8334467Y-10613460D01*
X8334467Y-10613460D02*
X8315419Y-10622984D01*
X8315419Y-10622984D02*
X8296372Y-10622984D01*
X8296372Y-10622984D02*
X8277324Y-10613460D01*
X8277324Y-10613460D02*
X8267800Y-10603936D01*
X8267800Y-10603936D02*
X8258277Y-10584889D01*
X8258277Y-10584889D02*
X8248753Y-10546794D01*
X8248753Y-10546794D02*
X8248753Y-10499174D01*
X8248753Y-10499174D02*
X8258277Y-10461079D01*
X8258277Y-10461079D02*
X8267800Y-10442032D01*
X8267800Y-10442032D02*
X8277324Y-10432508D01*
X8277324Y-10432508D02*
X8296372Y-10422984D01*
X8448753Y-10603936D02*
X8458277Y-10613460D01*
X8458277Y-10613460D02*
X8448753Y-10622984D01*
X8448753Y-10622984D02*
X8439229Y-10613460D01*
X8439229Y-10613460D02*
X8448753Y-10603936D01*
X8448753Y-10603936D02*
X8448753Y-10622984D01*
X8553515Y-10622984D02*
X8591610Y-10622984D01*
X8591610Y-10622984D02*
X8610658Y-10613460D01*
X8610658Y-10613460D02*
X8620181Y-10603936D01*
X8620181Y-10603936D02*
X8639229Y-10575365D01*
X8639229Y-10575365D02*
X8648753Y-10537270D01*
X8648753Y-10537270D02*
X8648753Y-10461079D01*
X8648753Y-10461079D02*
X8639229Y-10442032D01*
X8639229Y-10442032D02*
X8629705Y-10432508D01*
X8629705Y-10432508D02*
X8610658Y-10422984D01*
X8610658Y-10422984D02*
X8572562Y-10422984D01*
X8572562Y-10422984D02*
X8553515Y-10432508D01*
X8553515Y-10432508D02*
X8543991Y-10442032D01*
X8543991Y-10442032D02*
X8534467Y-10461079D01*
X8534467Y-10461079D02*
X8534467Y-10508698D01*
X8534467Y-10508698D02*
X8543991Y-10527746D01*
X8543991Y-10527746D02*
X8553515Y-10537270D01*
X8553515Y-10537270D02*
X8572562Y-10546794D01*
X8572562Y-10546794D02*
X8610658Y-10546794D01*
X8610658Y-10546794D02*
X8629705Y-10537270D01*
X8629705Y-10537270D02*
X8639229Y-10527746D01*
X8639229Y-10527746D02*
X8648753Y-10508698D01*
X8772562Y-10422984D02*
X8791610Y-10422984D01*
X8791610Y-10422984D02*
X8810658Y-10432508D01*
X8810658Y-10432508D02*
X8820181Y-10442032D01*
X8820181Y-10442032D02*
X8829705Y-10461079D01*
X8829705Y-10461079D02*
X8839229Y-10499174D01*
X8839229Y-10499174D02*
X8839229Y-10546794D01*
X8839229Y-10546794D02*
X8829705Y-10584889D01*
X8829705Y-10584889D02*
X8820181Y-10603936D01*
X8820181Y-10603936D02*
X8810658Y-10613460D01*
X8810658Y-10613460D02*
X8791610Y-10622984D01*
X8791610Y-10622984D02*
X8772562Y-10622984D01*
X8772562Y-10622984D02*
X8753515Y-10613460D01*
X8753515Y-10613460D02*
X8743991Y-10603936D01*
X8743991Y-10603936D02*
X8734467Y-10584889D01*
X8734467Y-10584889D02*
X8724943Y-10546794D01*
X8724943Y-10546794D02*
X8724943Y-10499174D01*
X8724943Y-10499174D02*
X8734467Y-10461079D01*
X8734467Y-10461079D02*
X8743991Y-10442032D01*
X8743991Y-10442032D02*
X8753515Y-10432508D01*
X8753515Y-10432508D02*
X8772562Y-10422984D01*
X8963039Y-10422984D02*
X8982086Y-10422984D01*
X8982086Y-10422984D02*
X9001134Y-10432508D01*
X9001134Y-10432508D02*
X9010658Y-10442032D01*
X9010658Y-10442032D02*
X9020181Y-10461079D01*
X9020181Y-10461079D02*
X9029705Y-10499174D01*
X9029705Y-10499174D02*
X9029705Y-10546794D01*
X9029705Y-10546794D02*
X9020181Y-10584889D01*
X9020181Y-10584889D02*
X9010658Y-10603936D01*
X9010658Y-10603936D02*
X9001134Y-10613460D01*
X9001134Y-10613460D02*
X8982086Y-10622984D01*
X8982086Y-10622984D02*
X8963039Y-10622984D01*
X8963039Y-10622984D02*
X8943991Y-10613460D01*
X8943991Y-10613460D02*
X8934467Y-10603936D01*
X8934467Y-10603936D02*
X8924943Y-10584889D01*
X8924943Y-10584889D02*
X8915420Y-10546794D01*
X8915420Y-10546794D02*
X8915420Y-10499174D01*
X8915420Y-10499174D02*
X8924943Y-10461079D01*
X8924943Y-10461079D02*
X8934467Y-10442032D01*
X8934467Y-10442032D02*
X8943991Y-10432508D01*
X8943991Y-10432508D02*
X8963039Y-10422984D01*
X9115420Y-10622984D02*
X9115420Y-10489651D01*
X9115420Y-10508698D02*
X9124943Y-10499174D01*
X9124943Y-10499174D02*
X9143991Y-10489651D01*
X9143991Y-10489651D02*
X9172562Y-10489651D01*
X9172562Y-10489651D02*
X9191610Y-10499174D01*
X9191610Y-10499174D02*
X9201134Y-10518222D01*
X9201134Y-10518222D02*
X9201134Y-10622984D01*
X9201134Y-10518222D02*
X9210658Y-10499174D01*
X9210658Y-10499174D02*
X9229705Y-10489651D01*
X9229705Y-10489651D02*
X9258277Y-10489651D01*
X9258277Y-10489651D02*
X9277324Y-10499174D01*
X9277324Y-10499174D02*
X9286848Y-10518222D01*
X9286848Y-10518222D02*
X9286848Y-10622984D01*
X9382086Y-10622984D02*
X9382086Y-10489651D01*
X9382086Y-10508698D02*
X9391610Y-10499174D01*
X9391610Y-10499174D02*
X9410658Y-10489651D01*
X9410658Y-10489651D02*
X9439229Y-10489651D01*
X9439229Y-10489651D02*
X9458277Y-10499174D01*
X9458277Y-10499174D02*
X9467801Y-10518222D01*
X9467801Y-10518222D02*
X9467801Y-10622984D01*
X9467801Y-10518222D02*
X9477324Y-10499174D01*
X9477324Y-10499174D02*
X9496372Y-10489651D01*
X9496372Y-10489651D02*
X9524943Y-10489651D01*
X9524943Y-10489651D02*
X9543991Y-10499174D01*
X9543991Y-10499174D02*
X9553515Y-10518222D01*
X9553515Y-10518222D02*
X9553515Y-10622984D01*
X9943991Y-10413460D02*
X9772563Y-10670603D01*
X10201134Y-10422984D02*
X10220182Y-10422984D01*
X10220182Y-10422984D02*
X10239229Y-10432508D01*
X10239229Y-10432508D02*
X10248753Y-10442032D01*
X10248753Y-10442032D02*
X10258277Y-10461079D01*
X10258277Y-10461079D02*
X10267801Y-10499174D01*
X10267801Y-10499174D02*
X10267801Y-10546794D01*
X10267801Y-10546794D02*
X10258277Y-10584889D01*
X10258277Y-10584889D02*
X10248753Y-10603936D01*
X10248753Y-10603936D02*
X10239229Y-10613460D01*
X10239229Y-10613460D02*
X10220182Y-10622984D01*
X10220182Y-10622984D02*
X10201134Y-10622984D01*
X10201134Y-10622984D02*
X10182086Y-10613460D01*
X10182086Y-10613460D02*
X10172563Y-10603936D01*
X10172563Y-10603936D02*
X10163039Y-10584889D01*
X10163039Y-10584889D02*
X10153515Y-10546794D01*
X10153515Y-10546794D02*
X10153515Y-10499174D01*
X10153515Y-10499174D02*
X10163039Y-10461079D01*
X10163039Y-10461079D02*
X10172563Y-10442032D01*
X10172563Y-10442032D02*
X10182086Y-10432508D01*
X10182086Y-10432508D02*
X10201134Y-10422984D01*
X10353515Y-10603936D02*
X10363039Y-10613460D01*
X10363039Y-10613460D02*
X10353515Y-10622984D01*
X10353515Y-10622984D02*
X10343991Y-10613460D01*
X10343991Y-10613460D02*
X10353515Y-10603936D01*
X10353515Y-10603936D02*
X10353515Y-10622984D01*
X10486848Y-10422984D02*
X10505896Y-10422984D01*
X10505896Y-10422984D02*
X10524944Y-10432508D01*
X10524944Y-10432508D02*
X10534467Y-10442032D01*
X10534467Y-10442032D02*
X10543991Y-10461079D01*
X10543991Y-10461079D02*
X10553515Y-10499174D01*
X10553515Y-10499174D02*
X10553515Y-10546794D01*
X10553515Y-10546794D02*
X10543991Y-10584889D01*
X10543991Y-10584889D02*
X10534467Y-10603936D01*
X10534467Y-10603936D02*
X10524944Y-10613460D01*
X10524944Y-10613460D02*
X10505896Y-10622984D01*
X10505896Y-10622984D02*
X10486848Y-10622984D01*
X10486848Y-10622984D02*
X10467801Y-10613460D01*
X10467801Y-10613460D02*
X10458277Y-10603936D01*
X10458277Y-10603936D02*
X10448753Y-10584889D01*
X10448753Y-10584889D02*
X10439229Y-10546794D01*
X10439229Y-10546794D02*
X10439229Y-10499174D01*
X10439229Y-10499174D02*
X10448753Y-10461079D01*
X10448753Y-10461079D02*
X10458277Y-10442032D01*
X10458277Y-10442032D02*
X10467801Y-10432508D01*
X10467801Y-10432508D02*
X10486848Y-10422984D01*
X10620182Y-10422984D02*
X10743991Y-10422984D01*
X10743991Y-10422984D02*
X10677324Y-10499174D01*
X10677324Y-10499174D02*
X10705896Y-10499174D01*
X10705896Y-10499174D02*
X10724944Y-10508698D01*
X10724944Y-10508698D02*
X10734467Y-10518222D01*
X10734467Y-10518222D02*
X10743991Y-10537270D01*
X10743991Y-10537270D02*
X10743991Y-10584889D01*
X10743991Y-10584889D02*
X10734467Y-10603936D01*
X10734467Y-10603936D02*
X10724944Y-10613460D01*
X10724944Y-10613460D02*
X10705896Y-10622984D01*
X10705896Y-10622984D02*
X10648753Y-10622984D01*
X10648753Y-10622984D02*
X10629705Y-10613460D01*
X10629705Y-10613460D02*
X10620182Y-10603936D01*
X10924944Y-10422984D02*
X10829705Y-10422984D01*
X10829705Y-10422984D02*
X10820182Y-10518222D01*
X10820182Y-10518222D02*
X10829705Y-10508698D01*
X10829705Y-10508698D02*
X10848753Y-10499174D01*
X10848753Y-10499174D02*
X10896372Y-10499174D01*
X10896372Y-10499174D02*
X10915420Y-10508698D01*
X10915420Y-10508698D02*
X10924944Y-10518222D01*
X10924944Y-10518222D02*
X10934467Y-10537270D01*
X10934467Y-10537270D02*
X10934467Y-10584889D01*
X10934467Y-10584889D02*
X10924944Y-10603936D01*
X10924944Y-10603936D02*
X10915420Y-10613460D01*
X10915420Y-10613460D02*
X10896372Y-10622984D01*
X10896372Y-10622984D02*
X10848753Y-10622984D01*
X10848753Y-10622984D02*
X10829705Y-10613460D01*
X10829705Y-10613460D02*
X10820182Y-10603936D01*
X11105896Y-10489651D02*
X11105896Y-10622984D01*
X11058277Y-10413460D02*
X11010658Y-10556317D01*
X11010658Y-10556317D02*
X11134467Y-10556317D01*
X11201134Y-10422984D02*
X11201134Y-10461079D01*
X11277324Y-10422984D02*
X11277324Y-10461079D01*
X11572563Y-10699174D02*
X11563039Y-10689651D01*
X11563039Y-10689651D02*
X11543991Y-10661079D01*
X11543991Y-10661079D02*
X11534467Y-10642032D01*
X11534467Y-10642032D02*
X11524944Y-10613460D01*
X11524944Y-10613460D02*
X11515420Y-10565841D01*
X11515420Y-10565841D02*
X11515420Y-10527746D01*
X11515420Y-10527746D02*
X11524944Y-10480127D01*
X11524944Y-10480127D02*
X11534467Y-10451555D01*
X11534467Y-10451555D02*
X11543991Y-10432508D01*
X11543991Y-10432508D02*
X11563039Y-10403936D01*
X11563039Y-10403936D02*
X11572563Y-10394413D01*
X11639229Y-10442032D02*
X11648753Y-10432508D01*
X11648753Y-10432508D02*
X11667801Y-10422984D01*
X11667801Y-10422984D02*
X11715420Y-10422984D01*
X11715420Y-10422984D02*
X11734467Y-10432508D01*
X11734467Y-10432508D02*
X11743991Y-10442032D01*
X11743991Y-10442032D02*
X11753515Y-10461079D01*
X11753515Y-10461079D02*
X11753515Y-10480127D01*
X11753515Y-10480127D02*
X11743991Y-10508698D01*
X11743991Y-10508698D02*
X11629705Y-10622984D01*
X11629705Y-10622984D02*
X11753515Y-10622984D01*
X11991610Y-10622984D02*
X11991610Y-10422984D01*
X12077325Y-10622984D02*
X12077325Y-10518222D01*
X12077325Y-10518222D02*
X12067801Y-10499174D01*
X12067801Y-10499174D02*
X12048753Y-10489651D01*
X12048753Y-10489651D02*
X12020182Y-10489651D01*
X12020182Y-10489651D02*
X12001134Y-10499174D01*
X12001134Y-10499174D02*
X11991610Y-10508698D01*
X12201134Y-10622984D02*
X12182086Y-10613460D01*
X12182086Y-10613460D02*
X12172563Y-10603936D01*
X12172563Y-10603936D02*
X12163039Y-10584889D01*
X12163039Y-10584889D02*
X12163039Y-10527746D01*
X12163039Y-10527746D02*
X12172563Y-10508698D01*
X12172563Y-10508698D02*
X12182086Y-10499174D01*
X12182086Y-10499174D02*
X12201134Y-10489651D01*
X12201134Y-10489651D02*
X12229706Y-10489651D01*
X12229706Y-10489651D02*
X12248753Y-10499174D01*
X12248753Y-10499174D02*
X12258277Y-10508698D01*
X12258277Y-10508698D02*
X12267801Y-10527746D01*
X12267801Y-10527746D02*
X12267801Y-10584889D01*
X12267801Y-10584889D02*
X12258277Y-10603936D01*
X12258277Y-10603936D02*
X12248753Y-10613460D01*
X12248753Y-10613460D02*
X12229706Y-10622984D01*
X12229706Y-10622984D02*
X12201134Y-10622984D01*
X12382086Y-10622984D02*
X12363039Y-10613460D01*
X12363039Y-10613460D02*
X12353515Y-10594413D01*
X12353515Y-10594413D02*
X12353515Y-10422984D01*
X12534467Y-10613460D02*
X12515420Y-10622984D01*
X12515420Y-10622984D02*
X12477325Y-10622984D01*
X12477325Y-10622984D02*
X12458277Y-10613460D01*
X12458277Y-10613460D02*
X12448753Y-10594413D01*
X12448753Y-10594413D02*
X12448753Y-10518222D01*
X12448753Y-10518222D02*
X12458277Y-10499174D01*
X12458277Y-10499174D02*
X12477325Y-10489651D01*
X12477325Y-10489651D02*
X12515420Y-10489651D01*
X12515420Y-10489651D02*
X12534467Y-10499174D01*
X12534467Y-10499174D02*
X12543991Y-10518222D01*
X12543991Y-10518222D02*
X12543991Y-10537270D01*
X12543991Y-10537270D02*
X12448753Y-10556317D01*
X12620182Y-10613460D02*
X12639229Y-10622984D01*
X12639229Y-10622984D02*
X12677325Y-10622984D01*
X12677325Y-10622984D02*
X12696372Y-10613460D01*
X12696372Y-10613460D02*
X12705896Y-10594413D01*
X12705896Y-10594413D02*
X12705896Y-10584889D01*
X12705896Y-10584889D02*
X12696372Y-10565841D01*
X12696372Y-10565841D02*
X12677325Y-10556317D01*
X12677325Y-10556317D02*
X12648753Y-10556317D01*
X12648753Y-10556317D02*
X12629706Y-10546794D01*
X12629706Y-10546794D02*
X12620182Y-10527746D01*
X12620182Y-10527746D02*
X12620182Y-10518222D01*
X12620182Y-10518222D02*
X12629706Y-10499174D01*
X12629706Y-10499174D02*
X12648753Y-10489651D01*
X12648753Y-10489651D02*
X12677325Y-10489651D01*
X12677325Y-10489651D02*
X12696372Y-10499174D01*
X12772563Y-10699174D02*
X12782087Y-10689651D01*
X12782087Y-10689651D02*
X12801134Y-10661079D01*
X12801134Y-10661079D02*
X12810658Y-10642032D01*
X12810658Y-10642032D02*
X12820182Y-10613460D01*
X12820182Y-10613460D02*
X12829706Y-10565841D01*
X12829706Y-10565841D02*
X12829706Y-10527746D01*
X12829706Y-10527746D02*
X12820182Y-10480127D01*
X12820182Y-10480127D02*
X12810658Y-10451555D01*
X12810658Y-10451555D02*
X12801134Y-10432508D01*
X12801134Y-10432508D02*
X12782087Y-10403936D01*
X12782087Y-10403936D02*
X12772563Y-10394413D01*
X13134468Y-10699174D02*
X13124944Y-10689651D01*
X13124944Y-10689651D02*
X13105896Y-10661079D01*
X13105896Y-10661079D02*
X13096372Y-10642032D01*
X13096372Y-10642032D02*
X13086848Y-10613460D01*
X13086848Y-10613460D02*
X13077325Y-10565841D01*
X13077325Y-10565841D02*
X13077325Y-10527746D01*
X13077325Y-10527746D02*
X13086848Y-10480127D01*
X13086848Y-10480127D02*
X13096372Y-10451555D01*
X13096372Y-10451555D02*
X13105896Y-10432508D01*
X13105896Y-10432508D02*
X13124944Y-10403936D01*
X13124944Y-10403936D02*
X13134468Y-10394413D01*
X13210658Y-10489651D02*
X13210658Y-10622984D01*
X13210658Y-10508698D02*
X13220182Y-10499174D01*
X13220182Y-10499174D02*
X13239229Y-10489651D01*
X13239229Y-10489651D02*
X13267801Y-10489651D01*
X13267801Y-10489651D02*
X13286848Y-10499174D01*
X13286848Y-10499174D02*
X13296372Y-10518222D01*
X13296372Y-10518222D02*
X13296372Y-10622984D01*
X13420182Y-10622984D02*
X13401134Y-10613460D01*
X13401134Y-10613460D02*
X13391610Y-10603936D01*
X13391610Y-10603936D02*
X13382087Y-10584889D01*
X13382087Y-10584889D02*
X13382087Y-10527746D01*
X13382087Y-10527746D02*
X13391610Y-10508698D01*
X13391610Y-10508698D02*
X13401134Y-10499174D01*
X13401134Y-10499174D02*
X13420182Y-10489651D01*
X13420182Y-10489651D02*
X13448753Y-10489651D01*
X13448753Y-10489651D02*
X13467801Y-10499174D01*
X13467801Y-10499174D02*
X13477325Y-10508698D01*
X13477325Y-10508698D02*
X13486848Y-10527746D01*
X13486848Y-10527746D02*
X13486848Y-10584889D01*
X13486848Y-10584889D02*
X13477325Y-10603936D01*
X13477325Y-10603936D02*
X13467801Y-10613460D01*
X13467801Y-10613460D02*
X13448753Y-10622984D01*
X13448753Y-10622984D02*
X13420182Y-10622984D01*
X13543991Y-10489651D02*
X13620182Y-10489651D01*
X13572563Y-10422984D02*
X13572563Y-10594413D01*
X13572563Y-10594413D02*
X13582087Y-10613460D01*
X13582087Y-10613460D02*
X13601134Y-10622984D01*
X13601134Y-10622984D02*
X13620182Y-10622984D01*
X13839229Y-10489651D02*
X13839229Y-10689651D01*
X13839229Y-10499174D02*
X13858277Y-10489651D01*
X13858277Y-10489651D02*
X13896372Y-10489651D01*
X13896372Y-10489651D02*
X13915420Y-10499174D01*
X13915420Y-10499174D02*
X13924944Y-10508698D01*
X13924944Y-10508698D02*
X13934468Y-10527746D01*
X13934468Y-10527746D02*
X13934468Y-10584889D01*
X13934468Y-10584889D02*
X13924944Y-10603936D01*
X13924944Y-10603936D02*
X13915420Y-10613460D01*
X13915420Y-10613460D02*
X13896372Y-10622984D01*
X13896372Y-10622984D02*
X13858277Y-10622984D01*
X13858277Y-10622984D02*
X13839229Y-10613460D01*
X14048753Y-10622984D02*
X14029706Y-10613460D01*
X14029706Y-10613460D02*
X14020182Y-10594413D01*
X14020182Y-10594413D02*
X14020182Y-10422984D01*
X14210658Y-10622984D02*
X14210658Y-10518222D01*
X14210658Y-10518222D02*
X14201134Y-10499174D01*
X14201134Y-10499174D02*
X14182087Y-10489651D01*
X14182087Y-10489651D02*
X14143991Y-10489651D01*
X14143991Y-10489651D02*
X14124944Y-10499174D01*
X14210658Y-10613460D02*
X14191610Y-10622984D01*
X14191610Y-10622984D02*
X14143991Y-10622984D01*
X14143991Y-10622984D02*
X14124944Y-10613460D01*
X14124944Y-10613460D02*
X14115420Y-10594413D01*
X14115420Y-10594413D02*
X14115420Y-10575365D01*
X14115420Y-10575365D02*
X14124944Y-10556317D01*
X14124944Y-10556317D02*
X14143991Y-10546794D01*
X14143991Y-10546794D02*
X14191610Y-10546794D01*
X14191610Y-10546794D02*
X14210658Y-10537270D01*
X14277325Y-10489651D02*
X14353515Y-10489651D01*
X14305896Y-10422984D02*
X14305896Y-10594413D01*
X14305896Y-10594413D02*
X14315420Y-10613460D01*
X14315420Y-10613460D02*
X14334468Y-10622984D01*
X14334468Y-10622984D02*
X14353515Y-10622984D01*
X14496372Y-10613460D02*
X14477325Y-10622984D01*
X14477325Y-10622984D02*
X14439229Y-10622984D01*
X14439229Y-10622984D02*
X14420182Y-10613460D01*
X14420182Y-10613460D02*
X14410658Y-10594413D01*
X14410658Y-10594413D02*
X14410658Y-10518222D01*
X14410658Y-10518222D02*
X14420182Y-10499174D01*
X14420182Y-10499174D02*
X14439229Y-10489651D01*
X14439229Y-10489651D02*
X14477325Y-10489651D01*
X14477325Y-10489651D02*
X14496372Y-10499174D01*
X14496372Y-10499174D02*
X14505896Y-10518222D01*
X14505896Y-10518222D02*
X14505896Y-10537270D01*
X14505896Y-10537270D02*
X14410658Y-10556317D01*
X14677325Y-10622984D02*
X14677325Y-10422984D01*
X14677325Y-10613460D02*
X14658277Y-10622984D01*
X14658277Y-10622984D02*
X14620182Y-10622984D01*
X14620182Y-10622984D02*
X14601134Y-10613460D01*
X14601134Y-10613460D02*
X14591610Y-10603936D01*
X14591610Y-10603936D02*
X14582087Y-10584889D01*
X14582087Y-10584889D02*
X14582087Y-10527746D01*
X14582087Y-10527746D02*
X14591610Y-10508698D01*
X14591610Y-10508698D02*
X14601134Y-10499174D01*
X14601134Y-10499174D02*
X14620182Y-10489651D01*
X14620182Y-10489651D02*
X14658277Y-10489651D01*
X14658277Y-10489651D02*
X14677325Y-10499174D01*
X14753515Y-10699174D02*
X14763039Y-10689651D01*
X14763039Y-10689651D02*
X14782087Y-10661079D01*
X14782087Y-10661079D02*
X14791610Y-10642032D01*
X14791610Y-10642032D02*
X14801134Y-10613460D01*
X14801134Y-10613460D02*
X14810658Y-10565841D01*
X14810658Y-10565841D02*
X14810658Y-10527746D01*
X14810658Y-10527746D02*
X14801134Y-10480127D01*
X14801134Y-10480127D02*
X14791610Y-10451555D01*
X14791610Y-10451555D02*
X14782087Y-10432508D01*
X14782087Y-10432508D02*
X14763039Y-10403936D01*
X14763039Y-10403936D02*
X14753515Y-10394413D01*
D12*
X7947970Y-10745970D02*
X7947970Y-10845030D01*
X7898440Y-10795500D02*
X7997500Y-10795500D01*
D11*
X8296372Y-10686984D02*
X8315419Y-10686984D01*
X8315419Y-10686984D02*
X8334467Y-10696508D01*
X8334467Y-10696508D02*
X8343991Y-10706032D01*
X8343991Y-10706032D02*
X8353515Y-10725079D01*
X8353515Y-10725079D02*
X8363038Y-10763174D01*
X8363038Y-10763174D02*
X8363038Y-10810794D01*
X8363038Y-10810794D02*
X8353515Y-10848889D01*
X8353515Y-10848889D02*
X8343991Y-10867936D01*
X8343991Y-10867936D02*
X8334467Y-10877460D01*
X8334467Y-10877460D02*
X8315419Y-10886984D01*
X8315419Y-10886984D02*
X8296372Y-10886984D01*
X8296372Y-10886984D02*
X8277324Y-10877460D01*
X8277324Y-10877460D02*
X8267800Y-10867936D01*
X8267800Y-10867936D02*
X8258277Y-10848889D01*
X8258277Y-10848889D02*
X8248753Y-10810794D01*
X8248753Y-10810794D02*
X8248753Y-10763174D01*
X8248753Y-10763174D02*
X8258277Y-10725079D01*
X8258277Y-10725079D02*
X8267800Y-10706032D01*
X8267800Y-10706032D02*
X8277324Y-10696508D01*
X8277324Y-10696508D02*
X8296372Y-10686984D01*
X8448753Y-10867936D02*
X8458277Y-10877460D01*
X8458277Y-10877460D02*
X8448753Y-10886984D01*
X8448753Y-10886984D02*
X8439229Y-10877460D01*
X8439229Y-10877460D02*
X8448753Y-10867936D01*
X8448753Y-10867936D02*
X8448753Y-10886984D01*
X8553515Y-10886984D02*
X8591610Y-10886984D01*
X8591610Y-10886984D02*
X8610658Y-10877460D01*
X8610658Y-10877460D02*
X8620181Y-10867936D01*
X8620181Y-10867936D02*
X8639229Y-10839365D01*
X8639229Y-10839365D02*
X8648753Y-10801270D01*
X8648753Y-10801270D02*
X8648753Y-10725079D01*
X8648753Y-10725079D02*
X8639229Y-10706032D01*
X8639229Y-10706032D02*
X8629705Y-10696508D01*
X8629705Y-10696508D02*
X8610658Y-10686984D01*
X8610658Y-10686984D02*
X8572562Y-10686984D01*
X8572562Y-10686984D02*
X8553515Y-10696508D01*
X8553515Y-10696508D02*
X8543991Y-10706032D01*
X8543991Y-10706032D02*
X8534467Y-10725079D01*
X8534467Y-10725079D02*
X8534467Y-10772698D01*
X8534467Y-10772698D02*
X8543991Y-10791746D01*
X8543991Y-10791746D02*
X8553515Y-10801270D01*
X8553515Y-10801270D02*
X8572562Y-10810794D01*
X8572562Y-10810794D02*
X8610658Y-10810794D01*
X8610658Y-10810794D02*
X8629705Y-10801270D01*
X8629705Y-10801270D02*
X8639229Y-10791746D01*
X8639229Y-10791746D02*
X8648753Y-10772698D01*
X8743991Y-10886984D02*
X8782086Y-10886984D01*
X8782086Y-10886984D02*
X8801134Y-10877460D01*
X8801134Y-10877460D02*
X8810658Y-10867936D01*
X8810658Y-10867936D02*
X8829705Y-10839365D01*
X8829705Y-10839365D02*
X8839229Y-10801270D01*
X8839229Y-10801270D02*
X8839229Y-10725079D01*
X8839229Y-10725079D02*
X8829705Y-10706032D01*
X8829705Y-10706032D02*
X8820181Y-10696508D01*
X8820181Y-10696508D02*
X8801134Y-10686984D01*
X8801134Y-10686984D02*
X8763039Y-10686984D01*
X8763039Y-10686984D02*
X8743991Y-10696508D01*
X8743991Y-10696508D02*
X8734467Y-10706032D01*
X8734467Y-10706032D02*
X8724943Y-10725079D01*
X8724943Y-10725079D02*
X8724943Y-10772698D01*
X8724943Y-10772698D02*
X8734467Y-10791746D01*
X8734467Y-10791746D02*
X8743991Y-10801270D01*
X8743991Y-10801270D02*
X8763039Y-10810794D01*
X8763039Y-10810794D02*
X8801134Y-10810794D01*
X8801134Y-10810794D02*
X8820181Y-10801270D01*
X8820181Y-10801270D02*
X8829705Y-10791746D01*
X8829705Y-10791746D02*
X8839229Y-10772698D01*
X9029705Y-10886984D02*
X8915420Y-10886984D01*
X8972562Y-10886984D02*
X8972562Y-10686984D01*
X8972562Y-10686984D02*
X8953515Y-10715555D01*
X8953515Y-10715555D02*
X8934467Y-10734603D01*
X8934467Y-10734603D02*
X8915420Y-10744127D01*
X9115420Y-10886984D02*
X9115420Y-10753651D01*
X9115420Y-10772698D02*
X9124943Y-10763174D01*
X9124943Y-10763174D02*
X9143991Y-10753651D01*
X9143991Y-10753651D02*
X9172562Y-10753651D01*
X9172562Y-10753651D02*
X9191610Y-10763174D01*
X9191610Y-10763174D02*
X9201134Y-10782222D01*
X9201134Y-10782222D02*
X9201134Y-10886984D01*
X9201134Y-10782222D02*
X9210658Y-10763174D01*
X9210658Y-10763174D02*
X9229705Y-10753651D01*
X9229705Y-10753651D02*
X9258277Y-10753651D01*
X9258277Y-10753651D02*
X9277324Y-10763174D01*
X9277324Y-10763174D02*
X9286848Y-10782222D01*
X9286848Y-10782222D02*
X9286848Y-10886984D01*
X9382086Y-10886984D02*
X9382086Y-10753651D01*
X9382086Y-10772698D02*
X9391610Y-10763174D01*
X9391610Y-10763174D02*
X9410658Y-10753651D01*
X9410658Y-10753651D02*
X9439229Y-10753651D01*
X9439229Y-10753651D02*
X9458277Y-10763174D01*
X9458277Y-10763174D02*
X9467801Y-10782222D01*
X9467801Y-10782222D02*
X9467801Y-10886984D01*
X9467801Y-10782222D02*
X9477324Y-10763174D01*
X9477324Y-10763174D02*
X9496372Y-10753651D01*
X9496372Y-10753651D02*
X9524943Y-10753651D01*
X9524943Y-10753651D02*
X9543991Y-10763174D01*
X9543991Y-10763174D02*
X9553515Y-10782222D01*
X9553515Y-10782222D02*
X9553515Y-10886984D01*
X9943991Y-10677460D02*
X9772563Y-10934603D01*
X10201134Y-10686984D02*
X10220182Y-10686984D01*
X10220182Y-10686984D02*
X10239229Y-10696508D01*
X10239229Y-10696508D02*
X10248753Y-10706032D01*
X10248753Y-10706032D02*
X10258277Y-10725079D01*
X10258277Y-10725079D02*
X10267801Y-10763174D01*
X10267801Y-10763174D02*
X10267801Y-10810794D01*
X10267801Y-10810794D02*
X10258277Y-10848889D01*
X10258277Y-10848889D02*
X10248753Y-10867936D01*
X10248753Y-10867936D02*
X10239229Y-10877460D01*
X10239229Y-10877460D02*
X10220182Y-10886984D01*
X10220182Y-10886984D02*
X10201134Y-10886984D01*
X10201134Y-10886984D02*
X10182086Y-10877460D01*
X10182086Y-10877460D02*
X10172563Y-10867936D01*
X10172563Y-10867936D02*
X10163039Y-10848889D01*
X10163039Y-10848889D02*
X10153515Y-10810794D01*
X10153515Y-10810794D02*
X10153515Y-10763174D01*
X10153515Y-10763174D02*
X10163039Y-10725079D01*
X10163039Y-10725079D02*
X10172563Y-10706032D01*
X10172563Y-10706032D02*
X10182086Y-10696508D01*
X10182086Y-10696508D02*
X10201134Y-10686984D01*
X10353515Y-10867936D02*
X10363039Y-10877460D01*
X10363039Y-10877460D02*
X10353515Y-10886984D01*
X10353515Y-10886984D02*
X10343991Y-10877460D01*
X10343991Y-10877460D02*
X10353515Y-10867936D01*
X10353515Y-10867936D02*
X10353515Y-10886984D01*
X10486848Y-10686984D02*
X10505896Y-10686984D01*
X10505896Y-10686984D02*
X10524944Y-10696508D01*
X10524944Y-10696508D02*
X10534467Y-10706032D01*
X10534467Y-10706032D02*
X10543991Y-10725079D01*
X10543991Y-10725079D02*
X10553515Y-10763174D01*
X10553515Y-10763174D02*
X10553515Y-10810794D01*
X10553515Y-10810794D02*
X10543991Y-10848889D01*
X10543991Y-10848889D02*
X10534467Y-10867936D01*
X10534467Y-10867936D02*
X10524944Y-10877460D01*
X10524944Y-10877460D02*
X10505896Y-10886984D01*
X10505896Y-10886984D02*
X10486848Y-10886984D01*
X10486848Y-10886984D02*
X10467801Y-10877460D01*
X10467801Y-10877460D02*
X10458277Y-10867936D01*
X10458277Y-10867936D02*
X10448753Y-10848889D01*
X10448753Y-10848889D02*
X10439229Y-10810794D01*
X10439229Y-10810794D02*
X10439229Y-10763174D01*
X10439229Y-10763174D02*
X10448753Y-10725079D01*
X10448753Y-10725079D02*
X10458277Y-10706032D01*
X10458277Y-10706032D02*
X10467801Y-10696508D01*
X10467801Y-10696508D02*
X10486848Y-10686984D01*
X10620182Y-10686984D02*
X10743991Y-10686984D01*
X10743991Y-10686984D02*
X10677324Y-10763174D01*
X10677324Y-10763174D02*
X10705896Y-10763174D01*
X10705896Y-10763174D02*
X10724944Y-10772698D01*
X10724944Y-10772698D02*
X10734467Y-10782222D01*
X10734467Y-10782222D02*
X10743991Y-10801270D01*
X10743991Y-10801270D02*
X10743991Y-10848889D01*
X10743991Y-10848889D02*
X10734467Y-10867936D01*
X10734467Y-10867936D02*
X10724944Y-10877460D01*
X10724944Y-10877460D02*
X10705896Y-10886984D01*
X10705896Y-10886984D02*
X10648753Y-10886984D01*
X10648753Y-10886984D02*
X10629705Y-10877460D01*
X10629705Y-10877460D02*
X10620182Y-10867936D01*
X10839229Y-10886984D02*
X10877324Y-10886984D01*
X10877324Y-10886984D02*
X10896372Y-10877460D01*
X10896372Y-10877460D02*
X10905896Y-10867936D01*
X10905896Y-10867936D02*
X10924944Y-10839365D01*
X10924944Y-10839365D02*
X10934467Y-10801270D01*
X10934467Y-10801270D02*
X10934467Y-10725079D01*
X10934467Y-10725079D02*
X10924944Y-10706032D01*
X10924944Y-10706032D02*
X10915420Y-10696508D01*
X10915420Y-10696508D02*
X10896372Y-10686984D01*
X10896372Y-10686984D02*
X10858277Y-10686984D01*
X10858277Y-10686984D02*
X10839229Y-10696508D01*
X10839229Y-10696508D02*
X10829705Y-10706032D01*
X10829705Y-10706032D02*
X10820182Y-10725079D01*
X10820182Y-10725079D02*
X10820182Y-10772698D01*
X10820182Y-10772698D02*
X10829705Y-10791746D01*
X10829705Y-10791746D02*
X10839229Y-10801270D01*
X10839229Y-10801270D02*
X10858277Y-10810794D01*
X10858277Y-10810794D02*
X10896372Y-10810794D01*
X10896372Y-10810794D02*
X10915420Y-10801270D01*
X10915420Y-10801270D02*
X10924944Y-10791746D01*
X10924944Y-10791746D02*
X10934467Y-10772698D01*
X11058277Y-10686984D02*
X11077325Y-10686984D01*
X11077325Y-10686984D02*
X11096372Y-10696508D01*
X11096372Y-10696508D02*
X11105896Y-10706032D01*
X11105896Y-10706032D02*
X11115420Y-10725079D01*
X11115420Y-10725079D02*
X11124944Y-10763174D01*
X11124944Y-10763174D02*
X11124944Y-10810794D01*
X11124944Y-10810794D02*
X11115420Y-10848889D01*
X11115420Y-10848889D02*
X11105896Y-10867936D01*
X11105896Y-10867936D02*
X11096372Y-10877460D01*
X11096372Y-10877460D02*
X11077325Y-10886984D01*
X11077325Y-10886984D02*
X11058277Y-10886984D01*
X11058277Y-10886984D02*
X11039229Y-10877460D01*
X11039229Y-10877460D02*
X11029705Y-10867936D01*
X11029705Y-10867936D02*
X11020182Y-10848889D01*
X11020182Y-10848889D02*
X11010658Y-10810794D01*
X11010658Y-10810794D02*
X11010658Y-10763174D01*
X11010658Y-10763174D02*
X11020182Y-10725079D01*
X11020182Y-10725079D02*
X11029705Y-10706032D01*
X11029705Y-10706032D02*
X11039229Y-10696508D01*
X11039229Y-10696508D02*
X11058277Y-10686984D01*
X11201134Y-10686984D02*
X11201134Y-10725079D01*
X11277324Y-10686984D02*
X11277324Y-10725079D01*
X11572563Y-10963174D02*
X11563039Y-10953651D01*
X11563039Y-10953651D02*
X11543991Y-10925079D01*
X11543991Y-10925079D02*
X11534467Y-10906032D01*
X11534467Y-10906032D02*
X11524944Y-10877460D01*
X11524944Y-10877460D02*
X11515420Y-10829841D01*
X11515420Y-10829841D02*
X11515420Y-10791746D01*
X11515420Y-10791746D02*
X11524944Y-10744127D01*
X11524944Y-10744127D02*
X11534467Y-10715555D01*
X11534467Y-10715555D02*
X11543991Y-10696508D01*
X11543991Y-10696508D02*
X11563039Y-10667936D01*
X11563039Y-10667936D02*
X11572563Y-10658413D01*
X11629705Y-10686984D02*
X11753515Y-10686984D01*
X11753515Y-10686984D02*
X11686848Y-10763174D01*
X11686848Y-10763174D02*
X11715420Y-10763174D01*
X11715420Y-10763174D02*
X11734467Y-10772698D01*
X11734467Y-10772698D02*
X11743991Y-10782222D01*
X11743991Y-10782222D02*
X11753515Y-10801270D01*
X11753515Y-10801270D02*
X11753515Y-10848889D01*
X11753515Y-10848889D02*
X11743991Y-10867936D01*
X11743991Y-10867936D02*
X11734467Y-10877460D01*
X11734467Y-10877460D02*
X11715420Y-10886984D01*
X11715420Y-10886984D02*
X11658277Y-10886984D01*
X11658277Y-10886984D02*
X11639229Y-10877460D01*
X11639229Y-10877460D02*
X11629705Y-10867936D01*
X11991610Y-10886984D02*
X11991610Y-10686984D01*
X12077325Y-10886984D02*
X12077325Y-10782222D01*
X12077325Y-10782222D02*
X12067801Y-10763174D01*
X12067801Y-10763174D02*
X12048753Y-10753651D01*
X12048753Y-10753651D02*
X12020182Y-10753651D01*
X12020182Y-10753651D02*
X12001134Y-10763174D01*
X12001134Y-10763174D02*
X11991610Y-10772698D01*
X12201134Y-10886984D02*
X12182086Y-10877460D01*
X12182086Y-10877460D02*
X12172563Y-10867936D01*
X12172563Y-10867936D02*
X12163039Y-10848889D01*
X12163039Y-10848889D02*
X12163039Y-10791746D01*
X12163039Y-10791746D02*
X12172563Y-10772698D01*
X12172563Y-10772698D02*
X12182086Y-10763174D01*
X12182086Y-10763174D02*
X12201134Y-10753651D01*
X12201134Y-10753651D02*
X12229706Y-10753651D01*
X12229706Y-10753651D02*
X12248753Y-10763174D01*
X12248753Y-10763174D02*
X12258277Y-10772698D01*
X12258277Y-10772698D02*
X12267801Y-10791746D01*
X12267801Y-10791746D02*
X12267801Y-10848889D01*
X12267801Y-10848889D02*
X12258277Y-10867936D01*
X12258277Y-10867936D02*
X12248753Y-10877460D01*
X12248753Y-10877460D02*
X12229706Y-10886984D01*
X12229706Y-10886984D02*
X12201134Y-10886984D01*
X12382086Y-10886984D02*
X12363039Y-10877460D01*
X12363039Y-10877460D02*
X12353515Y-10858413D01*
X12353515Y-10858413D02*
X12353515Y-10686984D01*
X12534467Y-10877460D02*
X12515420Y-10886984D01*
X12515420Y-10886984D02*
X12477325Y-10886984D01*
X12477325Y-10886984D02*
X12458277Y-10877460D01*
X12458277Y-10877460D02*
X12448753Y-10858413D01*
X12448753Y-10858413D02*
X12448753Y-10782222D01*
X12448753Y-10782222D02*
X12458277Y-10763174D01*
X12458277Y-10763174D02*
X12477325Y-10753651D01*
X12477325Y-10753651D02*
X12515420Y-10753651D01*
X12515420Y-10753651D02*
X12534467Y-10763174D01*
X12534467Y-10763174D02*
X12543991Y-10782222D01*
X12543991Y-10782222D02*
X12543991Y-10801270D01*
X12543991Y-10801270D02*
X12448753Y-10820317D01*
X12620182Y-10877460D02*
X12639229Y-10886984D01*
X12639229Y-10886984D02*
X12677325Y-10886984D01*
X12677325Y-10886984D02*
X12696372Y-10877460D01*
X12696372Y-10877460D02*
X12705896Y-10858413D01*
X12705896Y-10858413D02*
X12705896Y-10848889D01*
X12705896Y-10848889D02*
X12696372Y-10829841D01*
X12696372Y-10829841D02*
X12677325Y-10820317D01*
X12677325Y-10820317D02*
X12648753Y-10820317D01*
X12648753Y-10820317D02*
X12629706Y-10810794D01*
X12629706Y-10810794D02*
X12620182Y-10791746D01*
X12620182Y-10791746D02*
X12620182Y-10782222D01*
X12620182Y-10782222D02*
X12629706Y-10763174D01*
X12629706Y-10763174D02*
X12648753Y-10753651D01*
X12648753Y-10753651D02*
X12677325Y-10753651D01*
X12677325Y-10753651D02*
X12696372Y-10763174D01*
X12772563Y-10963174D02*
X12782087Y-10953651D01*
X12782087Y-10953651D02*
X12801134Y-10925079D01*
X12801134Y-10925079D02*
X12810658Y-10906032D01*
X12810658Y-10906032D02*
X12820182Y-10877460D01*
X12820182Y-10877460D02*
X12829706Y-10829841D01*
X12829706Y-10829841D02*
X12829706Y-10791746D01*
X12829706Y-10791746D02*
X12820182Y-10744127D01*
X12820182Y-10744127D02*
X12810658Y-10715555D01*
X12810658Y-10715555D02*
X12801134Y-10696508D01*
X12801134Y-10696508D02*
X12782087Y-10667936D01*
X12782087Y-10667936D02*
X12772563Y-10658413D01*
X13134468Y-10963174D02*
X13124944Y-10953651D01*
X13124944Y-10953651D02*
X13105896Y-10925079D01*
X13105896Y-10925079D02*
X13096372Y-10906032D01*
X13096372Y-10906032D02*
X13086848Y-10877460D01*
X13086848Y-10877460D02*
X13077325Y-10829841D01*
X13077325Y-10829841D02*
X13077325Y-10791746D01*
X13077325Y-10791746D02*
X13086848Y-10744127D01*
X13086848Y-10744127D02*
X13096372Y-10715555D01*
X13096372Y-10715555D02*
X13105896Y-10696508D01*
X13105896Y-10696508D02*
X13124944Y-10667936D01*
X13124944Y-10667936D02*
X13134468Y-10658413D01*
X13210658Y-10753651D02*
X13210658Y-10886984D01*
X13210658Y-10772698D02*
X13220182Y-10763174D01*
X13220182Y-10763174D02*
X13239229Y-10753651D01*
X13239229Y-10753651D02*
X13267801Y-10753651D01*
X13267801Y-10753651D02*
X13286848Y-10763174D01*
X13286848Y-10763174D02*
X13296372Y-10782222D01*
X13296372Y-10782222D02*
X13296372Y-10886984D01*
X13420182Y-10886984D02*
X13401134Y-10877460D01*
X13401134Y-10877460D02*
X13391610Y-10867936D01*
X13391610Y-10867936D02*
X13382087Y-10848889D01*
X13382087Y-10848889D02*
X13382087Y-10791746D01*
X13382087Y-10791746D02*
X13391610Y-10772698D01*
X13391610Y-10772698D02*
X13401134Y-10763174D01*
X13401134Y-10763174D02*
X13420182Y-10753651D01*
X13420182Y-10753651D02*
X13448753Y-10753651D01*
X13448753Y-10753651D02*
X13467801Y-10763174D01*
X13467801Y-10763174D02*
X13477325Y-10772698D01*
X13477325Y-10772698D02*
X13486848Y-10791746D01*
X13486848Y-10791746D02*
X13486848Y-10848889D01*
X13486848Y-10848889D02*
X13477325Y-10867936D01*
X13477325Y-10867936D02*
X13467801Y-10877460D01*
X13467801Y-10877460D02*
X13448753Y-10886984D01*
X13448753Y-10886984D02*
X13420182Y-10886984D01*
X13543991Y-10753651D02*
X13620182Y-10753651D01*
X13572563Y-10686984D02*
X13572563Y-10858413D01*
X13572563Y-10858413D02*
X13582087Y-10877460D01*
X13582087Y-10877460D02*
X13601134Y-10886984D01*
X13601134Y-10886984D02*
X13620182Y-10886984D01*
X13839229Y-10753651D02*
X13839229Y-10953651D01*
X13839229Y-10763174D02*
X13858277Y-10753651D01*
X13858277Y-10753651D02*
X13896372Y-10753651D01*
X13896372Y-10753651D02*
X13915420Y-10763174D01*
X13915420Y-10763174D02*
X13924944Y-10772698D01*
X13924944Y-10772698D02*
X13934468Y-10791746D01*
X13934468Y-10791746D02*
X13934468Y-10848889D01*
X13934468Y-10848889D02*
X13924944Y-10867936D01*
X13924944Y-10867936D02*
X13915420Y-10877460D01*
X13915420Y-10877460D02*
X13896372Y-10886984D01*
X13896372Y-10886984D02*
X13858277Y-10886984D01*
X13858277Y-10886984D02*
X13839229Y-10877460D01*
X14048753Y-10886984D02*
X14029706Y-10877460D01*
X14029706Y-10877460D02*
X14020182Y-10858413D01*
X14020182Y-10858413D02*
X14020182Y-10686984D01*
X14210658Y-10886984D02*
X14210658Y-10782222D01*
X14210658Y-10782222D02*
X14201134Y-10763174D01*
X14201134Y-10763174D02*
X14182087Y-10753651D01*
X14182087Y-10753651D02*
X14143991Y-10753651D01*
X14143991Y-10753651D02*
X14124944Y-10763174D01*
X14210658Y-10877460D02*
X14191610Y-10886984D01*
X14191610Y-10886984D02*
X14143991Y-10886984D01*
X14143991Y-10886984D02*
X14124944Y-10877460D01*
X14124944Y-10877460D02*
X14115420Y-10858413D01*
X14115420Y-10858413D02*
X14115420Y-10839365D01*
X14115420Y-10839365D02*
X14124944Y-10820317D01*
X14124944Y-10820317D02*
X14143991Y-10810794D01*
X14143991Y-10810794D02*
X14191610Y-10810794D01*
X14191610Y-10810794D02*
X14210658Y-10801270D01*
X14277325Y-10753651D02*
X14353515Y-10753651D01*
X14305896Y-10686984D02*
X14305896Y-10858413D01*
X14305896Y-10858413D02*
X14315420Y-10877460D01*
X14315420Y-10877460D02*
X14334468Y-10886984D01*
X14334468Y-10886984D02*
X14353515Y-10886984D01*
X14496372Y-10877460D02*
X14477325Y-10886984D01*
X14477325Y-10886984D02*
X14439229Y-10886984D01*
X14439229Y-10886984D02*
X14420182Y-10877460D01*
X14420182Y-10877460D02*
X14410658Y-10858413D01*
X14410658Y-10858413D02*
X14410658Y-10782222D01*
X14410658Y-10782222D02*
X14420182Y-10763174D01*
X14420182Y-10763174D02*
X14439229Y-10753651D01*
X14439229Y-10753651D02*
X14477325Y-10753651D01*
X14477325Y-10753651D02*
X14496372Y-10763174D01*
X14496372Y-10763174D02*
X14505896Y-10782222D01*
X14505896Y-10782222D02*
X14505896Y-10801270D01*
X14505896Y-10801270D02*
X14410658Y-10820317D01*
X14677325Y-10886984D02*
X14677325Y-10686984D01*
X14677325Y-10877460D02*
X14658277Y-10886984D01*
X14658277Y-10886984D02*
X14620182Y-10886984D01*
X14620182Y-10886984D02*
X14601134Y-10877460D01*
X14601134Y-10877460D02*
X14591610Y-10867936D01*
X14591610Y-10867936D02*
X14582087Y-10848889D01*
X14582087Y-10848889D02*
X14582087Y-10791746D01*
X14582087Y-10791746D02*
X14591610Y-10772698D01*
X14591610Y-10772698D02*
X14601134Y-10763174D01*
X14601134Y-10763174D02*
X14620182Y-10753651D01*
X14620182Y-10753651D02*
X14658277Y-10753651D01*
X14658277Y-10753651D02*
X14677325Y-10763174D01*
X14753515Y-10963174D02*
X14763039Y-10953651D01*
X14763039Y-10953651D02*
X14782087Y-10925079D01*
X14782087Y-10925079D02*
X14791610Y-10906032D01*
X14791610Y-10906032D02*
X14801134Y-10877460D01*
X14801134Y-10877460D02*
X14810658Y-10829841D01*
X14810658Y-10829841D02*
X14810658Y-10791746D01*
X14810658Y-10791746D02*
X14801134Y-10744127D01*
X14801134Y-10744127D02*
X14791610Y-10715555D01*
X14791610Y-10715555D02*
X14782087Y-10696508D01*
X14782087Y-10696508D02*
X14763039Y-10667936D01*
X14763039Y-10667936D02*
X14753515Y-10658413D01*
M02*
